# Blender 4.3.2
# www.blender.org
mtllib 玻璃展览柜（长）.mtl
o Glass
v 0.233118 0.183346 -4.197727
v 0.233118 0.183346 -4.195727
v 0.233118 0.181346 -4.195727
v 0.233118 0.181346 -4.197727
v -1.752004 0.183346 -4.197727
v -1.752004 0.183346 -4.195727
v -1.754004 0.181346 -4.195727
v -1.754004 0.181346 -4.197727
v -1.752004 1.125415 -4.197727
v -1.752004 1.125415 -4.195727
v -1.754004 1.127415 -4.195727
v -1.754004 1.127415 -4.197727
v 0.232118 1.125415 -4.197727
v 0.232118 1.125415 -4.195727
v 0.234118 1.127415 -4.195727
v 0.234118 1.127415 -4.197727
v 0.232118 0.181346 -4.198003
v 0.232118 0.183346 -4.196117
v 0.234118 0.183346 -4.195451
v 0.234118 0.181346 -4.197336
v 0.232118 0.181346 -3.613900
v 0.232118 0.183346 -3.613900
v 0.234118 0.183346 -3.611900
v 0.234118 0.181346 -3.611900
v -1.752004 0.181346 -3.613900
v -1.752004 0.183346 -3.613900
v -1.754004 0.183346 -3.611900
v -1.754004 0.181346 -3.611900
v -1.752004 0.181346 -4.196727
v -1.752004 0.183346 -4.196727
v -1.754004 0.183346 -4.196727
v -1.754004 0.181346 -4.196727
v -1.752004 0.182346 -3.611900
v -1.754004 0.182346 -3.611900
v -1.754004 0.182346 -3.613900
v -1.752004 0.182346 -3.613900
v -1.752004 1.127415 -3.611900
v -1.754004 1.127415 -3.611900
v -1.754004 1.125415 -3.613900
v -1.752004 1.125415 -3.613900
v -1.752004 1.127415 -4.196727
v -1.754004 1.127415 -4.196727
v -1.754004 1.125415 -4.196727
v -1.752004 1.125415 -4.196727
v 0.234118 0.182346 -3.611900
v 0.232118 0.182346 -3.611900
v 0.232118 0.182346 -3.613900
v 0.234118 0.182346 -3.613900
v 0.234118 1.127415 -3.611900
v 0.232118 1.125415 -3.611900
v 0.232118 1.125415 -3.613900
v 0.234118 1.127415 -3.613900
v -1.753004 1.127415 -3.611900
v -1.753004 1.125415 -3.611900
v -1.753004 1.125415 -3.613900
v -1.753004 1.127415 -3.613900
v 0.232118 1.127415 -4.196727
v 0.234118 1.127415 -4.196727
v 0.234118 1.125415 -4.196727
v 0.232118 1.125415 -4.196727
v 0.232118 1.127415 -3.612900
v 0.234118 1.127415 -3.612900
v 0.234118 1.125415 -3.612900
v 0.232118 1.125415 -3.612900
vn -0.0000 1.0000 -0.0000
vn -0.0000 -0.0000 1.0000
vn -0.0000 -1.0000 -0.0000
vn -0.0000 -0.0000 -1.0000
vn 1.0000 -0.0000 -0.0000
vn -1.0000 -0.0000 -0.0000
vn -0.0825 -0.0000 0.9966
vn 0.0825 -0.0000 -0.9966
vn -0.1644 -0.0001 0.9864
vn 0.1644 -0.0001 -0.9864
s 1
f 6//1 2//1 1//1 5//1
f 7//2 3//2 2//2 6//2
f 8//3 4//3 3//3 7//3
f 5//4 1//4 4//4 8//4
f 10//5 6//5 5//5 9//5
f 11//2 7//2 6//2 10//2
f 12//6 8//6 7//6 11//6
f 9//4 5//4 8//4 12//4
f 14//3 10//3 9//3 13//3
f 15//7 11//2 10//2 14//7
f 16//1 12//1 11//1 15//1
f 13//8 9//4 12//4 16//8
f 18//6 14//6 13//6 17//6
f 19//9 15//7 14//7 18//9
f 20//5 16//5 15//5 19//5
f 17//10 13//8 16//8 20//10
f 22//6 18//6 17//6 21//6
f 23//1 19//1 18//1 22//1
f 24//5 20//5 19//5 23//5
f 21//3 17//3 20//3 24//3
f 26//4 22//4 21//4 25//4
f 27//1 23//1 22//1 26//1
f 28//2 24//2 23//2 27//2
f 25//3 21//3 24//3 28//3
f 30//5 26//5 25//5 29//5
f 31//1 27//1 26//1 30//1
f 32//6 28//6 27//6 31//6
f 29//3 25//3 28//3 32//3
f 3//5 4//5 1//5 2//5
f 29//4 32//4 31//4 30//4
f 38//2 34//2 33//2 37//2
f 39//6 35//6 34//6 38//6
f 40//4 36//4 35//4 39//4
f 37//5 33//5 36//5 40//5
f 42//1 38//1 37//1 41//1
f 43//6 39//6 38//6 42//6
f 44//3 40//3 39//3 43//3
f 41//5 37//5 40//5 44//5
f 35//3 36//3 33//3 34//3
f 41//4 44//4 43//4 42//4
f 50//2 46//2 45//2 49//2
f 51//6 47//6 46//6 50//6
f 52//4 48//4 47//4 51//4
f 49//5 45//5 48//5 52//5
f 54//2 50//2 49//2 53//2
f 55//3 51//3 50//3 54//3
f 56//4 52//4 51//4 55//4
f 53//1 49//1 52//1 56//1
f 47//3 48//3 45//3 46//3
f 53//6 56//6 55//6 54//6
f 62//1 58//1 57//1 61//1
f 63//5 59//5 58//5 62//5
f 64//3 60//3 59//3 63//3
f 61//6 57//6 60//6 64//6
f 59//4 60//4 57//4 58//4
f 61//2 64//2 63//2 62//2
o Bottom
v 0.240057 0.081346 -4.204952
v -1.759943 0.081346 -4.204952
v -1.759943 0.081346 -3.604952
v 0.240057 0.081346 -3.604952
v 0.240057 0.181346 -4.204952
v -1.759943 0.181346 -4.204952
v -1.759943 0.181346 -3.604952
v 0.240057 0.181346 -3.604952
v 0.133826 0.071346 -4.174952
v -1.653713 0.071346 -4.174952
v -1.653713 0.071346 -3.634952
v 0.133826 0.071346 -3.634952
v 0.133826 0.081346 -4.174952
v -1.653713 0.081346 -4.174952
v -1.653713 0.081346 -3.634952
v 0.133826 0.081346 -3.634952
v 0.210057 0.176346 -4.174952
v -1.729943 0.176346 -4.174952
v -1.729943 0.176346 -3.634952
v 0.210057 0.176346 -3.634952
v 0.210057 0.206346 -4.174952
v -1.729943 0.206346 -4.174952
v -1.729943 0.206346 -3.634952
v 0.210057 0.206346 -3.634952
vn -0.0000 -0.0000 -1.0000
vn -1.0000 -0.0000 -0.0000
vn -0.0000 -0.0000 1.0000
vn 1.0000 -0.0000 -0.0000
vn -0.0000 -1.0000 -0.0000
vn -0.0000 1.0000 -0.0000
vt 0.000000 0.000000
vt 3.473333 0.347332
vt 6.706666 0.347332
vt 6.706666 0.397332
vt 3.473333 0.397332
vt 0.049999 0.347332
vt 0.949998 0.347332
vt 0.949998 0.397332
vt 0.049999 0.397332
vt -5.706666 0.347332
vt -2.473333 0.347332
vt -2.473333 0.397332
vt -5.706666 0.397332
vt 0.050001 0.347332
vt 0.950001 0.347332
vt 0.950001 0.397332
vt 0.050001 0.397332
vt 6.706666 0.050002
vt 6.706666 0.950001
vt 3.473333 0.950001
vt 3.473333 0.050001
vt -5.706666 0.050002
vt -2.473333 0.050001
vt -2.473333 0.950001
vt -5.706666 0.950001
s 1
usemtl 材质.001
f 65/1/11 66/1/11 70/1/11 69/1/11
f 66/1/12 67/1/12 71/1/12 70/1/12
f 67/1/13 68/1/13 72/1/13 71/1/13
f 68/1/14 65/1/14 69/1/14 72/1/14
f 67/1/15 66/1/15 65/1/15 68/1/15
f 71/1/16 72/1/16 69/1/16 70/1/16
f 73/1/11 74/1/11 78/1/11 77/1/11
f 74/1/12 75/1/12 79/1/12 78/1/12
f 75/1/13 76/1/13 80/1/13 79/1/13
f 76/1/14 73/1/14 77/1/14 80/1/14
f 75/1/15 74/1/15 73/1/15 76/1/15
f 79/1/16 80/1/16 77/1/16 78/1/16
f 81/2/11 82/3/11 86/4/11 85/5/11
f 82/6/12 83/7/12 87/8/12 86/9/12
f 83/10/13 84/11/13 88/12/13 87/13/13
f 84/14/14 81/15/14 85/16/14 88/17/14
f 83/18/15 82/19/15 81/20/15 84/21/15
f 87/22/16 88/23/16 85/24/16 86/25/16
o shelf1
v -0.609943 0.201346 -4.054952
v -0.909943 0.201346 -4.054952
v -0.909943 0.201346 -3.754951
v -0.609943 0.201346 -3.754951
v -0.609943 0.251346 -4.054952
v -0.909943 0.251346 -4.054952
v -0.909943 0.251346 -3.754951
v -0.609943 0.251346 -3.754951
vn -0.0000 -0.0000 -1.0000
vn -1.0000 -0.0000 -0.0000
vn -0.0000 -0.0000 1.0000
vn 1.0000 -0.0000 -0.0000
vn -0.0000 -1.0000 -0.0000
vn -0.0000 1.0000 -0.0000
vt 5.165061 0.397332
vt 5.665061 0.397332
vt 5.665061 0.480665
vt 5.165061 0.480665
vt 0.243809 0.397332
vt 0.743809 0.397332
vt 0.743809 0.480665
vt 0.243809 0.480665
vt -4.665061 0.397332
vt -4.165061 0.397332
vt -4.165061 0.480665
vt -4.665061 0.480665
vt 0.256191 0.397332
vt 0.756191 0.397332
vt 0.756191 0.480665
vt 0.256191 0.480665
vt 5.665061 0.256191
vt 5.665061 0.756191
vt 5.165061 0.756191
vt 5.165061 0.256191
vt -4.665061 0.256191
vt -4.165061 0.256191
vt -4.165061 0.756191
vt -4.665061 0.756191
s 1
usemtl 材质.002
f 89/26/17 90/27/17 94/28/17 93/29/17
f 90/30/18 91/31/18 95/32/18 94/33/18
f 91/34/19 92/35/19 96/36/19 95/37/19
f 92/38/20 89/39/20 93/40/20 96/41/20
f 91/42/21 90/43/21 89/44/21 92/45/21
f 95/46/22 96/47/22 93/48/22 94/49/22
o shelf2
v -1.141077 0.201346 -4.073818
v -1.478809 0.201346 -4.073818
v -1.478809 0.201346 -3.736085
v -1.141077 0.201346 -3.736085
v -1.141077 0.257635 -4.073818
v -1.478809 0.257635 -4.073818
v -1.478809 0.257635 -3.736085
v -1.141077 0.257635 -3.736085
vn -0.0000 -0.0000 -1.0000
vn -1.0000 -0.0000 -0.0000
vn -0.0000 -0.0000 1.0000
vn 1.0000 -0.0000 -0.0000
vn -0.0000 -1.0000 -0.0000
vn -0.0000 1.0000 -0.0000
vt -0.770514 0.514071
vt -0.207626 0.514071
vt -0.207626 0.607886
vt -0.770514 0.607886
vt 0.212366 0.514071
vt 0.775254 0.514071
vt 0.775254 0.607886
vt 0.212366 0.607886
vt 1.207626 0.514071
vt 1.770513 0.514071
vt 1.770513 0.607886
vt 1.207626 0.607886
vt 0.224746 0.514071
vt 0.787634 0.514071
vt 0.787634 0.607886
vt 0.224746 0.607886
vt -0.207626 0.224746
vt -0.207626 0.787634
vt -0.770514 0.787634
vt -0.770513 0.224746
vt 1.207626 0.224746
vt 1.770513 0.224746
vt 1.770514 0.787634
vt 1.207626 0.787634
s 1
usemtl 材质.002
f 97/50/23 98/51/23 102/52/23 101/53/23
f 98/54/24 99/55/24 103/56/24 102/57/24
f 99/58/25 100/59/25 104/60/25 103/61/25
f 100/62/26 97/63/26 101/64/26 104/65/26
f 99/66/27 98/67/27 97/68/27 100/69/27
f 103/70/28 104/71/28 101/72/28 102/73/28
o shelf3
v -0.059943 0.201346 -4.054952
v -0.359943 0.201346 -4.054952
v -0.359943 0.201346 -3.754951
v -0.059943 0.201346 -3.754951
v -0.059943 0.251346 -4.054952
v -0.359943 0.251346 -4.054952
v -0.359943 0.251346 -3.754951
v -0.059943 0.251346 -3.754951
vn -0.0000 -0.0000 -1.0000
vn -1.0000 -0.0000 -0.0000
vn -0.0000 -0.0000 1.0000
vn 1.0000 -0.0000 -0.0000
vn -0.0000 -1.0000 -0.0000
vn -0.0000 1.0000 -0.0000
vt 5.165061 0.397332
vt 5.665061 0.397332
vt 5.665061 0.480665
vt 5.165061 0.480665
vt 0.243809 0.397332
vt 0.743809 0.397332
vt 0.743809 0.480665
vt 0.243809 0.480665
vt -4.665061 0.397332
vt -4.165061 0.397332
vt -4.165061 0.480665
vt -4.665061 0.480665
vt 0.256191 0.397332
vt 0.756191 0.397332
vt 0.756191 0.480665
vt 0.256191 0.480665
vt 5.665061 0.256191
vt 5.665061 0.756191
vt 5.165061 0.756191
vt 5.165061 0.256191
vt -4.665061 0.256191
vt -4.165061 0.256191
vt -4.165061 0.756191
vt -4.665061 0.756191
s 1
usemtl 材质.002
f 105/74/29 106/75/29 110/76/29 109/77/29
f 106/78/30 107/79/30 111/80/30 110/81/30
f 107/82/31 108/83/31 112/84/31 111/85/31
f 108/86/32 105/87/32 109/88/32 112/89/32
f 107/90/33 106/91/33 105/92/33 108/93/33
f 111/94/34 112/95/34 109/96/34 110/97/34
