# Blender 4.3.2
# www.blender.org
mtllib 剑4.mtl
o Ob5
v 0.051763 0.327142 0.012940
v 0.076601 0.313725 0.000000
v 0.058450 1.140770 0.000000
v 0.041078 1.140770 0.009923
v 0.065442 0.310395 0.000000
v 0.020297 1.140770 0.008778
v 0.044760 0.318479 0.012948
v 0.060286 0.304333 0.000000
v 0.058438 0.280768 0.000000
v 0.029358 0.277742 0.012939
v 0.028839 0.315805 0.012715
v 0.026206 0.277495 0.008167
v 0.017153 1.140770 0.005556
v -0.000000 1.140770 0.006870
v 0.000000 0.277491 0.010312
v -0.026205 0.277495 0.008167
v -0.017154 1.140770 0.005556
v -0.028839 0.315805 0.012715
v -0.020298 1.140770 0.008778
v -0.029357 0.277742 0.012939
v -0.051763 0.327142 0.012940
v -0.041078 1.140770 0.009923
v -0.058451 1.140770 0.000000
v -0.076601 0.313725 0.000000
v -0.065442 0.310395 0.000000
v -0.044760 0.318479 0.012948
v -0.060286 0.304333 0.000000
v -0.058438 0.280768 0.000000
v 0.000000 0.325647 -0.019250
v 0.000000 0.325647 0.019250
v 0.037356 0.320322 0.019250
v 0.037356 0.320322 -0.019250
v 0.067769 0.296166 -0.019246
v 0.067769 0.296166 0.019246
v 0.077905 0.262526 0.019239
v 0.077905 0.262526 -0.019239
v 0.068249 0.233163 -0.019445
v 0.068249 0.233163 0.019445
v 0.052503 0.215749 -0.019815
v 0.052503 0.215749 0.019815
v 0.041374 0.211032 -0.019732
v 0.041374 0.211032 0.019732
v 0.039643 0.203932 0.019732
v 0.039643 0.203932 -0.019732
v 0.031328 0.195789 0.000000
v 0.030216 0.193588 0.019732
v 0.016917 0.190309 0.019734
v 0.030216 0.193588 -0.019732
v 0.016917 0.190309 -0.019734
v -0.037356 0.320322 0.019250
v 0.000000 0.325647 0.019250
v 0.000000 0.325647 -0.019250
v -0.037356 0.320322 -0.019250
v -0.067769 0.296166 -0.019246
v -0.067769 0.296166 0.019246
v -0.077905 0.262526 0.019239
v -0.077905 0.262526 -0.019239
v -0.068249 0.233163 -0.019445
v -0.068249 0.233163 0.019445
v -0.052503 0.215749 0.019815
v -0.052503 0.215749 -0.019815
v -0.041374 0.211032 -0.019732
v -0.041374 0.211032 0.019732
v -0.039643 0.203932 0.019732
v -0.039643 0.203932 -0.019732
v -0.031328 0.195789 0.000000
v -0.030216 0.193588 -0.019732
v -0.016917 0.190309 -0.019734
v -0.030216 0.193588 0.019732
v -0.016917 0.190309 0.019734
v -0.006553 0.307752 0.025888
v -0.006642 0.300432 0.020662
v -0.000008 0.299268 0.022224
v -0.000008 0.306410 0.030386
v 0.006865 0.300439 0.020660
v -0.005395 0.318482 0.025962
v 0.006177 0.307114 0.025885
v 0.000214 0.318253 0.032734
v 0.005467 0.317920 0.026396
v -0.003776 0.325353 0.021303
v 0.005912 0.323563 0.023775
v 0.001371 0.327247 0.028082
v 0.001687 0.335173 0.012874
v 0.008607 0.328715 0.019857
v 0.005625 0.333916 0.022771
v 0.013738 0.330225 0.015552
v 0.016266 0.335871 0.017713
v 0.017575 0.338380 0.008210
v 0.020003 0.325129 0.015859
v 0.023657 0.327990 0.017357
v 0.026439 0.329280 0.009577
v 0.030899 0.313828 0.012328
v 0.027622 0.313526 0.018749
v 0.023851 0.311000 0.017859
v -0.000008 0.299268 -0.022224
v -0.006642 0.300433 -0.020662
v -0.006553 0.307752 -0.025888
v -0.000008 0.306410 -0.030386
v 0.006865 0.300439 -0.020660
v -0.005395 0.318482 -0.025962
v 0.006177 0.307114 -0.025885
v 0.000214 0.318253 -0.032734
v 0.005467 0.317920 -0.026396
v -0.003776 0.325353 -0.021303
v 0.005912 0.323563 -0.023774
v 0.001371 0.327247 -0.028082
v 0.001687 0.335173 -0.012874
v 0.008607 0.328715 -0.019857
v 0.005625 0.333916 -0.022770
v 0.013738 0.330225 -0.015552
v 0.016266 0.335871 -0.017713
v 0.017575 0.338380 -0.008210
v 0.020003 0.325129 -0.015859
v 0.023657 0.327990 -0.017357
v 0.026439 0.329280 -0.009577
v 0.030899 0.313828 -0.012328
v 0.027622 0.313526 -0.018749
v 0.023851 0.311000 -0.017859
v 0.041078 1.140770 0.009923
v 0.058450 1.140770 0.000000
v 0.036767 1.970953 0.000000
v 0.023574 1.969134 0.006906
v 0.033847 2.000414 0.000000
v 0.009792 1.967464 0.004842
v 0.020297 1.140770 0.008778
v 0.020541 1.994708 0.006576
v 0.007369 1.989790 0.004590
v 0.015003 2.019840 0.005828
v 0.026971 2.029563 0.000000
v 0.016108 2.057812 0.000000
v -0.000000 2.056630 0.003990
v -0.000000 2.086032 0.000000
v -0.016109 2.057812 0.000000
v -0.000000 2.009398 0.004809
v -0.015004 2.019840 0.005828
v -0.026972 2.029563 0.000000
v -0.033847 2.000414 0.000000
v -0.020542 1.994708 0.006576
v -0.007370 1.989790 0.004590
v -0.023575 1.969134 0.006906
v -0.036767 1.970953 0.000000
v -0.058451 1.140770 0.000000
v -0.041078 1.140770 0.009923
v -0.009793 1.967464 0.004842
v -0.020298 1.140770 0.008778
v -0.005710 1.989163 0.002755
v -0.007925 1.967242 0.002946
v -0.017154 1.140770 0.005556
v -0.000000 1.140770 0.006870
v -0.000000 2.002655 0.002538
v -0.000000 1.966833 0.003429
v 0.007925 1.967242 0.002946
v 0.017153 1.140770 0.005556
v 0.005709 1.989163 0.002755
v -0.041078 1.140770 -0.009923
v -0.058451 1.140770 0.000000
v -0.036767 1.970953 0.000000
v -0.023575 1.969134 -0.006905
v -0.033847 2.000414 0.000000
v -0.009793 1.967464 -0.004842
v -0.020298 1.140770 -0.008778
v -0.020542 1.994708 -0.006575
v -0.007370 1.989790 -0.004590
v -0.015004 2.019840 -0.005827
v -0.026972 2.029563 0.000000
v -0.016109 2.057812 0.000000
v -0.000000 2.056630 -0.003990
v -0.000000 2.086032 0.000000
v 0.016108 2.057812 0.000000
v -0.000000 2.009398 -0.004808
v 0.015003 2.019840 -0.005827
v 0.026971 2.029563 0.000000
v 0.033847 2.000414 0.000000
v 0.020541 1.994708 -0.006575
v 0.007369 1.989790 -0.004590
v 0.023574 1.969134 -0.006905
v 0.036767 1.970953 0.000000
v 0.058450 1.140770 0.000000
v 0.041078 1.140770 -0.009923
v 0.009792 1.967464 -0.004842
v 0.020297 1.140770 -0.008778
v 0.005709 1.989163 -0.002755
v 0.007925 1.967242 -0.002945
v 0.017153 1.140770 -0.005556
v -0.000000 1.140770 -0.006870
v -0.000000 2.002655 -0.002538
v -0.000000 1.966833 -0.003428
v -0.007925 1.967242 -0.002945
v -0.017154 1.140770 -0.005556
v -0.005710 1.989163 -0.002755
v 0.044760 0.318479 -0.012948
v 0.060286 0.304333 0.000000
v 0.058438 0.280768 0.000000
v 0.029358 0.277742 -0.012938
v 0.065442 0.310395 0.000000
v 0.028839 0.315805 -0.012714
v 0.026206 0.277495 -0.008167
v 0.051763 0.327142 -0.012940
v 0.076601 0.313725 0.000000
v 0.058450 1.140770 0.000000
v 0.041078 1.140770 -0.009923
v 0.020297 1.140770 -0.008778
v 0.017153 1.140770 -0.005556
v -0.000000 1.140770 -0.006870
v 0.000000 0.277491 -0.010312
v -0.026205 0.277495 -0.008167
v -0.017154 1.140770 -0.005556
v -0.028839 0.315805 -0.012714
v -0.020298 1.140770 -0.008778
v -0.029357 0.277742 -0.012939
v -0.051763 0.327142 -0.012940
v -0.041078 1.140770 -0.009923
v -0.058451 1.140770 0.000000
v -0.076601 0.313725 0.000000
v -0.065442 0.310395 0.000000
v -0.044760 0.318479 -0.012948
v -0.060286 0.304333 0.000000
v -0.058438 0.280768 0.000000
v 0.019147 -0.334090 -0.000000
v 0.022636 -0.320977 -0.006737
v 0.022636 -0.320977 0.006737
v 0.009381 -0.320977 0.016481
v 0.009381 -0.320977 -0.016481
v -0.000001 -0.334090 0.013729
v -0.009394 -0.320977 0.016013
v -0.022681 -0.320977 0.006723
v -0.019147 -0.334090 -0.000000
v -0.022681 -0.320977 -0.006723
v -0.000000 -0.341923 -0.000000
v -0.000001 -0.334090 -0.013729
v -0.009394 -0.320977 -0.016014
v -0.027045 -0.323041 -0.000000
v -0.055212 -0.311971 -0.000000
v -0.039384 -0.318743 -0.025034
v -0.039384 -0.318743 0.025034
v 0.000000 -0.327399 -0.000000
v 0.000000 -0.325274 -0.032879
v 0.000000 -0.325274 0.032879
v 0.039384 -0.318743 -0.025034
v 0.039384 -0.318743 0.025033
v 0.027045 -0.323041 -0.000000
v 0.055213 -0.311971 -0.000000
v 0.039969 -0.219422 -0.000000
v 0.029011 -0.219427 -0.022552
v 0.000000 -0.219425 -0.000000
v 0.029011 -0.219428 0.022552
v 0.000000 -0.219423 -0.029920
v 0.000000 -0.219423 0.029920
v -0.029011 -0.219427 -0.022552
v -0.029011 -0.219428 0.022552
v -0.039969 -0.219422 -0.000000
v 0.037356 0.320322 0.019250
v 0.000000 0.325647 0.019250
v 0.000000 0.318412 0.026115
v -0.037356 0.320322 0.019250
v 0.034850 0.312532 0.026115
v 0.067769 0.296166 0.019246
v -0.034850 0.312532 0.026115
v -0.067769 0.296166 0.019246
v 0.000000 0.304341 0.022154
v -0.059914 0.291453 0.026116
v -0.077905 0.262526 0.019239
v -0.030890 0.299624 0.022154
v -0.065613 0.262526 0.026116
v -0.068249 0.233163 0.019445
v -0.048354 0.285967 0.022154
v -0.057583 0.239343 0.026121
v -0.052503 0.215749 0.019815
v -0.054934 0.262526 0.022154
v -0.046866 0.223300 0.026336
v -0.041374 0.211032 0.019732
v -0.049614 0.242817 0.022154
v 0.000000 0.262526 0.022154
v -0.035504 0.225325 0.022154
v -0.035350 0.217681 0.026115
v -0.029390 0.218838 0.022153
v -0.036486 0.212213 0.021867
v -0.039643 0.203932 0.019732
v -0.032493 0.214580 0.021997
v -0.035588 0.206056 0.021867
v -0.027823 0.197923 0.021867
v -0.030216 0.193588 0.019732
v -0.016917 0.190309 0.019734
v -0.015671 0.195616 0.020936
v 0.000000 0.220995 0.022154
v 0.000000 0.197247 0.023951
v -0.000000 0.193325 0.023196
v 0.015671 0.195616 0.020936
v -0.016965 0.055816 0.019801
v 0.016917 0.190309 0.019734
v -0.033931 0.055816 0.000000
v -0.031328 0.195789 0.000000
v -0.016917 0.190309 -0.019734
v 0.016965 0.055816 0.019801
v -0.016965 0.055816 -0.019801
v 0.000000 0.193325 -0.023195
v 0.016965 0.055816 -0.019801
v 0.016917 0.190309 -0.019734
v 0.031328 0.195789 0.000000
v 0.033932 0.055816 0.000000
v 0.039182 0.049775 0.000000
v 0.019591 0.049775 -0.022864
v -0.019591 0.049775 -0.022864
v 0.015688 0.043603 -0.019801
v -0.015688 0.043603 -0.019801
v -0.039182 0.049775 0.000000
v -0.031377 0.043603 0.000000
v -0.019591 0.049775 0.022864
v 0.019591 0.049775 0.022864
v -0.015688 0.043603 0.019801
v 0.015688 0.043603 0.019801
v 0.031378 0.043603 0.000000
v 0.015688 -0.043526 0.019801
v 0.015688 -0.043526 -0.019801
v 0.031378 -0.043526 0.000000
v 0.039182 -0.049690 0.000000
v -0.015688 -0.043526 -0.019801
v 0.019591 -0.049690 -0.022865
v -0.031377 -0.043526 0.000000
v -0.019591 -0.049690 -0.022865
v -0.015688 -0.043526 0.019801
v -0.039182 -0.049690 0.000000
v 0.019591 -0.049690 0.022865
v -0.019591 -0.049690 0.022865
v -0.031377 -0.056740 0.000000
v -0.015688 -0.056740 0.019801
v 0.015688 -0.056740 0.019801
v -0.033009 -0.148356 0.000000
v -0.016505 -0.148356 0.020831
v -0.015688 -0.056740 -0.019801
v 0.015688 -0.056740 -0.019801
v 0.031378 -0.056740 0.000000
v 0.016505 -0.148356 -0.020831
v -0.016505 -0.148356 -0.020831
v -0.048893 -0.158599 0.000000
v -0.024447 -0.158598 -0.028874
v 0.024447 -0.158598 -0.028874
v -0.048893 -0.179785 -0.000000
v 0.033009 -0.148356 0.000000
v -0.024447 -0.179785 -0.028874
v 0.048893 -0.158599 0.000000
v 0.024447 -0.179785 -0.028874
v 0.016505 -0.148356 0.020831
v 0.024447 -0.158598 0.028874
v -0.024447 -0.158598 0.028874
v -0.024447 -0.179785 0.028874
v 0.024447 -0.179785 0.028874
v -0.042458 -0.184661 -0.000000
v -0.021229 -0.184661 0.026145
v -0.021229 -0.184661 -0.026145
v -0.044056 -0.189130 -0.000000
v 0.021230 -0.184661 -0.026145
v -0.022028 -0.189130 -0.027128
v 0.048893 -0.179786 0.000000
v 0.021230 -0.184661 0.026145
v 0.042458 -0.184662 0.000000
v 0.022028 -0.189130 -0.027128
v 0.044056 -0.189131 0.000000
v 0.022028 -0.189130 0.027128
v 0.038679 -0.194376 0.000000
v 0.019360 -0.194376 -0.023843
v -0.019360 -0.194376 -0.023843
v -0.019340 -0.229746 -0.023817
v 0.019340 -0.229746 -0.023817
v -0.038638 -0.229746 -0.000000
v 0.038639 -0.229746 0.000000
v 0.019340 -0.229746 0.023817
v 0.019360 -0.194376 0.023843
v -0.019340 -0.229746 0.023817
v -0.022028 -0.189130 0.027128
v -0.019360 -0.194376 0.023843
v -0.038679 -0.194376 -0.000000
v 0.030216 0.193588 0.019732
v 0.027823 0.197923 0.021867
v 0.039643 0.203932 0.019732
v 0.032493 0.214580 0.021997
v 0.035588 0.206056 0.021867
v 0.036486 0.212213 0.021867
v 0.041374 0.211032 0.019732
v 0.035351 0.217681 0.026115
v 0.029391 0.218838 0.022153
v 0.046866 0.223300 0.026336
v 0.052503 0.215749 0.019815
v 0.035505 0.225325 0.022154
v 0.049614 0.242817 0.022154
v 0.057583 0.239343 0.026121
v 0.068249 0.233163 0.019445
v 0.054934 0.262526 0.022154
v 0.065613 0.262526 0.026116
v 0.077905 0.262526 0.019239
v 0.048354 0.285967 0.022154
v 0.059915 0.291453 0.026116
v 0.030890 0.299624 0.022154
v 0.000000 0.318412 -0.026115
v 0.000000 0.325647 -0.019250
v 0.037356 0.320322 -0.019250
v -0.037356 0.320322 -0.019250
v 0.034850 0.312532 -0.026115
v 0.067769 0.296166 -0.019246
v -0.034850 0.312532 -0.026115
v -0.067769 0.296166 -0.019246
v 0.000000 0.304341 -0.022154
v -0.059914 0.291453 -0.026115
v -0.077905 0.262526 -0.019239
v -0.030890 0.299624 -0.022154
v -0.065613 0.262526 -0.026116
v -0.068249 0.233163 -0.019445
v -0.048354 0.285967 -0.022154
v -0.057583 0.239343 -0.026121
v -0.052503 0.215749 -0.019815
v -0.054934 0.262526 -0.022154
v 0.000000 0.262526 -0.022154
v -0.049614 0.242817 -0.022154
v -0.046866 0.223300 -0.026336
v -0.041374 0.211032 -0.019732
v -0.035504 0.225325 -0.022154
v -0.035350 0.217681 -0.026115
v -0.036486 0.212213 -0.021867
v -0.039643 0.203932 -0.019732
v -0.029390 0.218838 -0.022152
v -0.035588 0.206056 -0.021867
v -0.032493 0.214580 -0.021996
v -0.027823 0.197923 -0.021867
v -0.030216 0.193588 -0.019732
v -0.016917 0.190309 -0.019734
v -0.015671 0.195616 -0.020936
v 0.000000 0.193325 -0.023195
v 0.000000 0.220995 -0.022154
v 0.000000 0.197247 -0.023951
v 0.015671 0.195616 -0.020936
v 0.016917 0.190309 -0.019734
v 0.027823 0.197923 -0.021867
v 0.030216 0.193588 -0.019732
v 0.039643 0.203932 -0.019732
v 0.032493 0.214580 -0.021996
v 0.035588 0.206056 -0.021867
v 0.036486 0.212213 -0.021867
v 0.041374 0.211032 -0.019732
v 0.035351 0.217681 -0.026115
v 0.029391 0.218838 -0.022152
v 0.046866 0.223300 -0.026336
v 0.052503 0.215749 -0.019815
v 0.035505 0.225325 -0.022154
v 0.049614 0.242817 -0.022154
v 0.057583 0.239343 -0.026121
v 0.068249 0.233163 -0.019445
v 0.054934 0.262526 -0.022154
v 0.065613 0.262526 -0.026115
v 0.077905 0.262526 -0.019239
v 0.048354 0.285967 -0.022154
v 0.059915 0.291453 -0.026115
v 0.030890 0.299624 -0.022154
v 0.029011 -0.219427 -0.022552
v 0.039969 -0.219422 -0.000000
v 0.046800 -0.233503 -0.000000
v 0.029011 -0.219428 0.022552
v 0.033716 -0.245024 -0.025119
v 0.000000 -0.219423 -0.029920
v 0.033716 -0.245024 0.025119
v 0.000000 -0.219423 0.029920
v 0.036961 -0.245712 -0.027037
v 0.000000 -0.248497 0.034629
v 0.036961 -0.245712 0.027037
v 0.054949 -0.230448 -0.000000
v -0.033716 -0.245024 0.025119
v -0.029011 -0.219428 0.022552
v -0.036961 -0.245711 0.027037
v -0.046800 -0.233503 -0.000000
v -0.039969 -0.219422 -0.000000
v -0.029011 -0.219427 -0.022552
v -0.033716 -0.245024 -0.025119
v 0.000000 -0.248497 -0.034629
v -0.036961 -0.245711 -0.027037
v 0.000000 -0.249276 -0.037527
v -0.054949 -0.230448 -0.000000
v -0.036445 -0.258225 -0.024708
v 0.036445 -0.258225 -0.024708
v 0.000000 -0.257541 -0.034406
v 0.000000 -0.267461 -0.037317
v 0.056369 -0.246558 -0.000000
v 0.036445 -0.258225 0.024708
v 0.064204 -0.259333 -0.000000
v 0.037416 -0.271423 -0.026135
v 0.058186 -0.261296 -0.000000
v 0.037416 -0.271423 0.026135
v 0.052017 -0.289857 -0.000000
v 0.037362 -0.293494 -0.022958
v 0.000000 -0.295773 -0.032628
v 0.039384 -0.318743 -0.025034
v 0.055213 -0.311971 -0.000000
v 0.000000 -0.325274 -0.032879
v 0.039384 -0.318743 0.025033
v -0.039384 -0.318743 -0.025034
v 0.037362 -0.293494 0.022958
v 0.000000 -0.295773 0.032628
v 0.000000 -0.325274 0.032879
v -0.039384 -0.318743 0.025034
v 0.000000 -0.267461 0.037317
v -0.037362 -0.293494 0.022958
v 0.000000 -0.257541 0.034405
v -0.052017 -0.289857 -0.000000
v -0.055212 -0.311971 -0.000000
v -0.037416 -0.271423 0.026135
v -0.037362 -0.293494 -0.022958
v -0.037416 -0.271423 -0.026135
v -0.058185 -0.261296 -0.000000
v -0.064204 -0.259333 -0.000000
v -0.056368 -0.246558 -0.000000
v -0.036445 -0.258225 0.024708
v 0.000000 -0.249276 0.037527
vn 0.2576 -0.1029 0.9608
vn 0.3458 -0.2357 0.9082
vn 0.4664 0.0102 0.8845
vn 0.4960 0.0097 0.8683
vn 0.2756 -0.4389 0.8552
vn -0.0550 0.0030 0.9985
vn -0.4191 -0.0007 0.9079
vn 0.1694 -0.0969 0.9808
vn 0.5324 -0.1739 0.8284
vn 0.6135 -0.0481 0.7882
vn 0.4151 -0.1571 0.8961
vn -0.3529 -0.0780 0.9324
vn -0.4832 -0.0006 0.8755
vn -0.3528 -0.0780 0.9324
vn -0.0121 0.0046 0.9999
vn -0.8283 -0.0079 0.5603
vn -0.4192 -0.0006 0.9079
vn -0.3505 -0.0001 0.9366
vn -0.0008 0.0038 1.0000
vn 0.0816 0.0040 0.9967
vn -0.0000 0.0040 1.0000
vn 0.4332 -0.0023 0.9013
vn 0.3505 -0.0001 0.9366
vn 0.4832 -0.0006 0.8755
vn 0.4156 -0.0006 0.9095
vn 0.3528 -0.0780 0.9325
vn -0.2574 -0.1020 0.9609
vn -0.2278 0.0066 0.9737
vn -0.4953 0.0097 0.8687
vn -0.3458 -0.2357 0.9082
vn -0.2757 -0.4389 0.8552
vn -0.1625 -0.1088 0.9807
vn -0.3999 -0.3401 0.8511
vn -0.4151 -0.1571 0.8961
vn -0.6135 -0.0481 0.7882
vn 0.1411 0.9900 -0.0000
vn 0.3953 0.9185 -0.0000
vn 0.3953 0.9186 -0.0000
vn 0.8275 0.5615 -0.0000
vn 0.9999 -0.0132 -0.0000
vn 0.8638 -0.5038 -0.0000
vn 0.5791 -0.8152 -0.0000
vn 0.7612 -0.6485 -0.0000
vn 0.8781 -0.4783 -0.0114
vn 0.8781 -0.4783 0.0114
vn 0.6121 -0.7908 -0.0000
vn 0.4937 -0.8669 -0.0689
vn 0.2383 -0.9666 -0.0944
vn 0.4937 -0.8669 0.0689
vn 0.2383 -0.9666 0.0944
vn -0.3953 0.9186 -0.0000
vn -0.1411 0.9900 -0.0000
vn -0.8275 0.5615 -0.0000
vn -0.9999 -0.0132 -0.0000
vn -0.8638 -0.5038 -0.0000
vn -0.5791 -0.8152 -0.0000
vn -0.7407 -0.6718 -0.0000
vn -0.3903 -0.9207 -0.0000
vn -0.8782 -0.4782 -0.0114
vn -0.9715 -0.2369 -0.0000
vn -0.8781 -0.4783 0.0114
vn -0.8781 -0.4784 -0.0114
vn -0.6121 -0.7908 -0.0000
vn -0.4937 -0.8669 0.0689
vn -0.2383 -0.9666 0.0944
vn -0.4937 -0.8669 -0.0689
vn -0.2383 -0.9666 -0.0944
vn -0.5298 -0.3157 0.7871
vn -0.2817 -0.5552 0.7825
vn -0.0676 -0.7052 0.7058
vn -0.0512 -0.4208 0.9057
vn 0.3809 -0.6433 0.6641
vn -0.7022 0.2736 0.6573
vn 0.6160 -0.3128 0.7230
vn -0.0431 0.1752 0.9836
vn 0.7668 0.1301 0.6286
vn -0.7096 0.5618 0.4253
vn 0.7470 0.1727 0.6420
vn -0.0699 0.5523 0.8307
vn -0.3562 0.8955 0.2669
vn 0.6953 0.0105 0.7187
vn 0.0695 0.6849 0.7254
vn 0.1536 -0.3377 0.9286
vn 0.3004 0.5872 0.7517
vn 0.3557 0.8845 0.3020
vn -0.2915 -0.1173 0.9494
vn 0.4280 0.2973 0.8535
vn 0.7710 0.5236 0.3624
vn 0.8591 0.2894 0.4220
vn 0.2993 0.1973 0.9335
vn -0.2688 0.0629 0.9611
vn -0.0676 -0.7052 -0.7058
vn -0.2817 -0.5552 -0.7825
vn -0.5298 -0.3157 -0.7871
vn -0.0512 -0.4208 -0.9057
vn 0.3809 -0.6433 -0.6641
vn -0.7022 0.2736 -0.6573
vn 0.6160 -0.3128 -0.7230
vn -0.0431 0.1752 -0.9836
vn 0.7668 0.1301 -0.6286
vn -0.7096 0.5618 -0.4253
vn 0.7470 0.1727 -0.6420
vn -0.0699 0.5523 -0.8307
vn -0.3562 0.8955 -0.2669
vn 0.6953 0.0105 -0.7187
vn 0.0695 0.6849 -0.7254
vn 0.1536 -0.3377 -0.9286
vn 0.3004 0.5872 -0.7517
vn 0.3557 0.8845 -0.3020
vn -0.2915 -0.1173 -0.9494
vn 0.4280 0.2973 -0.8535
vn 0.7710 0.5236 -0.3624
vn 0.8591 0.2894 -0.4220
vn 0.2993 0.1973 -0.9335
vn -0.2688 0.0629 -0.9611
vn 0.2313 0.0089 0.9728
vn 0.4959 0.0130 0.8683
vn 0.4589 0.0449 0.8873
vn 0.4623 0.0130 0.8866
vn 0.1705 0.0156 0.9852
vn 0.1703 0.0156 0.9853
vn 0.4588 0.0451 0.8874
vn 0.4105 0.0848 0.9079
vn 0.2311 0.0089 0.9729
vn -0.4442 -0.0198 0.8957
vn -0.4107 -0.0009 0.9118
vn 0.1464 0.0435 0.9883
vn -0.4201 -0.0900 0.9030
vn 0.1507 0.0619 0.9866
vn 0.3571 0.1159 0.9268
vn 0.2453 0.1362 0.9598
vn -0.0000 0.1241 0.9923
vn -0.0000 0.1345 0.9909
vn -0.2453 0.1362 0.9598
vn -0.0000 -0.0497 0.9988
vn -0.1507 0.0619 0.9866
vn -0.3571 0.1159 0.9268
vn -0.4105 0.0848 0.9079
vn -0.1464 0.0435 0.9883
vn 0.4201 -0.0900 0.9030
vn -0.1704 0.0156 0.9853
vn -0.4606 0.0299 0.8871
vn -0.4959 0.0130 0.8683
vn -0.2326 0.0089 0.9725
vn 0.4442 -0.0198 0.8957
vn 0.4107 -0.0009 0.9118
vn 0.4201 -0.0913 0.9029
vn 0.3687 -0.0122 0.9295
vn 0.3558 -0.0010 0.9346
vn -0.0000 -0.2665 0.9638
vn -0.0000 0.0142 0.9999
vn -0.3687 -0.0122 0.9295
vn -0.3558 -0.0010 0.9346
vn -0.4201 -0.0913 0.9029
vn -0.2326 0.0089 -0.9725
vn -0.4959 0.0130 -0.8683
vn -0.4606 0.0299 -0.8871
vn -0.1704 0.0156 -0.9853
vn -0.4105 0.0848 -0.9079
vn 0.4442 -0.0198 -0.8957
vn 0.4107 -0.0009 -0.9118
vn -0.1464 0.0435 -0.9883
vn 0.4201 -0.0900 -0.9030
vn -0.1507 0.0619 -0.9866
vn -0.3571 0.1159 -0.9268
vn -0.2453 0.1362 -0.9598
vn -0.0000 0.1241 -0.9923
vn -0.0000 0.1345 -0.9909
vn 0.2453 0.1362 -0.9598
vn -0.0000 -0.0497 -0.9988
vn 0.1507 0.0619 -0.9866
vn 0.3571 0.1159 -0.9268
vn 0.4105 0.0848 -0.9079
vn 0.1464 0.0435 -0.9883
vn -0.4201 -0.0900 -0.9030
vn 0.1704 0.0156 -0.9853
vn 0.4606 0.0299 -0.8871
vn 0.4959 0.0130 -0.8683
vn 0.2326 0.0089 -0.9725
vn -0.4442 -0.0198 -0.8957
vn -0.4107 -0.0009 -0.9118
vn -0.4201 -0.0913 -0.9029
vn -0.3687 -0.0122 -0.9295
vn -0.3558 -0.0010 -0.9346
vn -0.0000 0.0040 -1.0000
vn -0.0000 -0.2665 -0.9638
vn -0.0000 0.0142 -0.9999
vn 0.3687 -0.0122 -0.9295
vn 0.3558 -0.0010 -0.9346
vn 0.4201 -0.0913 -0.9029
vn 0.2010 -0.1048 -0.9740
vn 0.5324 -0.1739 -0.8284
vn 0.4774 -0.1254 -0.8697
vn -0.3528 -0.0780 -0.9325
vn 0.2757 -0.4389 -0.8552
vn -0.4832 -0.0006 -0.8755
vn -0.4332 -0.0023 -0.9013
vn 0.2574 -0.1020 -0.9609
vn 0.3458 -0.2357 -0.9082
vn 0.4953 0.0097 -0.8687
vn 0.2278 0.0066 -0.9737
vn -0.4156 -0.0006 -0.9095
vn -0.3505 -0.0001 -0.9366
vn -0.0000 0.0038 -1.0000
vn 0.4332 -0.0023 -0.9013
vn 0.3505 -0.0001 -0.9366
vn 0.4832 -0.0006 -0.8755
vn 0.4156 -0.0006 -0.9095
vn 0.3528 -0.0780 -0.9325
vn -0.2621 -0.0744 -0.9622
vn -0.2278 0.0066 -0.9737
vn -0.4953 0.0097 -0.8687
vn -0.4664 0.0102 -0.8845
vn -0.2756 -0.4390 -0.8552
vn -0.1555 -0.5213 -0.8391
vn -0.2757 -0.4389 -0.8552
vn -0.2010 -0.1048 -0.9740
vn -0.5324 -0.1739 -0.8284
vn -0.4774 -0.1254 -0.8697
vn 0.7047 -0.7095 -0.0000
vn 0.7690 -0.4419 -0.4618
vn 0.7690 -0.4419 0.4618
vn 0.3499 -0.4212 0.8368
vn 0.3499 -0.4212 -0.8368
vn -0.0043 -0.6293 0.7771
vn -0.3609 -0.4049 0.8401
vn -0.7655 -0.4417 0.4678
vn -0.7042 -0.7100 -0.0000
vn -0.7655 -0.4417 -0.4678
vn -0.0000 -1.0000 -0.0000
vn -0.0043 -0.6293 -0.7771
vn -0.3609 -0.4049 -0.8401
vn -0.2324 -0.9726 -0.0000
vn -0.3658 -0.9307 -0.0000
vn -0.2601 -0.9651 -0.0316
vn -0.2601 -0.9651 0.0316
vn -0.0000 -0.9979 -0.0645
vn -0.0000 -0.9979 0.0645
vn 0.2600 -0.9651 -0.0316
vn 0.2600 -0.9651 0.0316
vn 0.2324 -0.9726 -0.0000
vn 0.3657 -0.9307 -0.0000
vn -0.0001 1.0000 -0.0000
vn -0.0000 1.0000 -0.0001
vn -0.0000 1.0000 -0.0000
vn -0.0000 1.0000 0.0001
vn 0.0001 1.0000 -0.0000
vn 0.2560 0.5961 0.7610
vn -0.0000 0.6883 0.7254
vn -0.0000 0.2831 0.9591
vn -0.2560 0.5961 0.7610
vn 0.1211 0.2503 0.9606
vn 0.5059 0.3315 0.7964
vn -0.1211 0.2503 0.9606
vn -0.5059 0.3315 0.7964
vn -0.0000 -0.1510 0.9885
vn -0.2090 0.1456 0.9670
vn -0.5020 -0.0171 0.8647
vn 0.0730 -0.1516 0.9857
vn -0.1479 -0.0153 0.9889
vn -0.4181 -0.2353 0.8774
vn 0.1528 -0.1031 0.9829
vn -0.0692 -0.0498 0.9964
vn -0.3397 -0.4320 0.8354
vn 0.2096 0.0059 0.9778
vn -0.1032 -0.1374 0.9851
vn -0.2980 -0.3793 0.8760
vn 0.2112 0.1025 0.9720
vn -0.0000 -0.0000 1.0000
vn 0.1664 0.1976 0.9661
vn 0.2308 -0.1620 0.9594
vn 0.1653 -0.0043 0.9862
vn -0.1254 -0.3237 0.9378
vn -0.3648 -0.1871 0.9121
vn 0.2186 -0.2675 0.9384
vn -0.2371 -0.1146 0.9647
vn -0.0894 -0.1917 0.9774
vn -0.2011 -0.3413 0.9182
vn -0.3425 -0.1048 0.9336
vn -0.0630 -0.1104 0.9919
vn -0.0000 -0.0016 1.0000
vn -0.0000 -0.0481 0.9988
vn -0.0000 -0.1068 0.9943
vn 0.0630 -0.1104 0.9919
vn -0.3806 0.2946 0.8766
vn 0.3614 -0.0871 0.9283
vn -0.9117 0.4108 -0.0000
vn -0.9998 0.0186 -0.0000
vn -0.5400 0.0076 -0.8416
vn 0.3820 0.2978 0.8749
vn -0.3806 0.2946 -0.8766
vn -0.0000 -0.0017 -1.0000
vn 0.3820 0.2978 -0.8749
vn 0.5448 0.0006 -0.8386
vn 1.0000 0.0030 -0.0000
vn 0.3615 -0.0871 0.9283
vn 0.9086 0.4177 -0.0000
vn 0.9978 -0.0670 -0.0000
vn 0.4608 -0.0264 -0.8871
vn -0.4668 -0.0323 -0.8838
vn 0.3618 -0.3251 -0.8737
vn -0.3689 -0.3219 -0.8720
vn -0.9973 -0.0736 -0.0000
vn -0.8595 -0.5111 -0.0000
vn -0.4668 -0.0323 0.8838
vn 0.4608 -0.0264 0.8871
vn -0.3689 -0.3219 0.8720
vn 0.3618 -0.3251 0.8737
vn 0.8526 -0.5225 -0.0000
vn 0.3618 0.3254 0.8736
vn 0.3618 0.3254 -0.8736
vn 0.8524 0.5229 -0.0000
vn 0.9997 0.0262 -0.0000
vn -0.3688 0.3222 -0.8719
vn 0.4721 0.0278 -0.8811
vn -0.8593 0.5115 -0.0000
vn -0.4848 0.0277 -0.8742
vn -0.3688 0.3222 0.8719
vn -0.9997 0.0259 -0.0000
vn 0.4721 0.0278 0.8811
vn -0.4848 0.0277 0.8742
vn -0.8871 -0.4615 -0.0000
vn -0.3778 -0.2829 0.8816
vn 0.3706 -0.2865 0.8835
vn -0.8084 0.5886 -0.0000
vn -0.3503 0.4373 0.8283
vn -0.3778 -0.2829 -0.8816
vn 0.3706 -0.2865 -0.8835
vn 0.8804 -0.4742 -0.0000
vn 0.3558 0.4349 -0.8272
vn -0.3503 0.4373 -0.8283
vn -0.9136 0.4066 -0.0000
vn -0.4085 0.3616 -0.8381
vn 0.4106 0.3651 -0.8355
vn -0.9230 -0.3849 -0.0000
vn 0.8143 0.5805 -0.0000
vn -0.4232 -0.3109 -0.8510
vn 0.9117 0.4108 -0.0000
vn 0.4209 -0.3078 -0.8533
vn 0.3558 0.4349 0.8272
vn 0.4106 0.3651 0.8355
vn -0.4085 0.3616 0.8381
vn -0.4232 -0.3109 0.8510
vn 0.4209 -0.3078 0.8533
vn -0.9269 -0.3753 -0.0000
vn -0.3684 -0.2144 0.9046
vn -0.3684 -0.2144 -0.9046
vn -0.9821 -0.1885 -0.0000
vn 0.3644 -0.2163 -0.9058
vn -0.4434 -0.1777 -0.8785
vn 0.9245 -0.3811 -0.0000
vn 0.3644 -0.2163 0.9058
vn 0.9239 -0.3826 -0.0000
vn 0.4436 -0.1778 -0.8784
vn 0.9820 -0.1887 -0.0000
vn 0.4436 -0.1778 0.8784
vn 0.8884 -0.4590 -0.0000
vn 0.3800 -0.3545 -0.8544
vn -0.3798 -0.3546 -0.8544
vn -0.4303 -0.0009 -0.9027
vn 0.4303 -0.0009 -0.9027
vn -1.0000 -0.0012 -0.0000
vn 1.0000 -0.0011 -0.0000
vn 0.4303 -0.0009 0.9027
vn 0.3800 -0.3545 0.8544
vn -0.4303 -0.0009 0.9027
vn -0.4434 -0.1777 0.8785
vn -0.3798 -0.3546 0.8544
vn -0.8883 -0.4593 -0.0000
vn 0.0977 -0.3958 0.9131
vn 0.2011 -0.3413 0.9182
vn 0.0894 -0.1917 0.9774
vn 0.3647 -0.1871 0.9121
vn -0.2186 -0.2675 0.9384
vn 0.2371 -0.1146 0.9647
vn 0.1254 -0.3237 0.9378
vn 0.2980 -0.3793 0.8760
vn -0.2308 -0.1620 0.9594
vn -0.1653 -0.0043 0.9862
vn 0.1032 -0.1374 0.9851
vn 0.3397 -0.4320 0.8354
vn -0.1664 0.1976 0.9661
vn -0.2112 0.1025 0.9720
vn 0.0692 -0.0498 0.9964
vn 0.4181 -0.2353 0.8774
vn -0.2096 0.0059 0.9778
vn 0.1479 -0.0153 0.9889
vn 0.5020 -0.0171 0.8647
vn -0.1528 -0.1031 0.9829
vn 0.2090 0.1456 0.9670
vn -0.0730 -0.1516 0.9857
vn -0.0000 0.2831 -0.9591
vn -0.0000 0.6883 -0.7254
vn 0.2560 0.5961 -0.7610
vn -0.2560 0.5961 -0.7610
vn 0.1211 0.2503 -0.9606
vn 0.5059 0.3315 -0.7964
vn -0.1211 0.2503 -0.9606
vn -0.5059 0.3315 -0.7964
vn -0.0000 -0.1510 -0.9885
vn -0.2090 0.1456 -0.9670
vn -0.5020 -0.0171 -0.8647
vn 0.0730 -0.1516 -0.9857
vn -0.1479 -0.0153 -0.9889
vn -0.4181 -0.2353 -0.8774
vn 0.1528 -0.1031 -0.9829
vn -0.0692 -0.0498 -0.9964
vn -0.3397 -0.4320 -0.8354
vn 0.2096 0.0059 -0.9778
vn -0.0000 -0.0000 -1.0000
vn 0.2112 0.1025 -0.9720
vn -0.1032 -0.1374 -0.9851
vn -0.2980 -0.3793 -0.8760
vn 0.1664 0.1976 -0.9661
vn 0.2308 -0.1620 -0.9594
vn -0.1254 -0.3237 -0.9378
vn -0.3647 -0.1871 -0.9121
vn 0.1653 -0.0043 -0.9862
vn -0.2371 -0.1146 -0.9647
vn 0.2186 -0.2675 -0.9384
vn -0.0894 -0.1917 -0.9774
vn -0.2011 -0.3413 -0.9182
vn -0.0711 -0.2344 -0.9695
vn -0.0630 -0.1104 -0.9919
vn -0.0000 -0.1881 -0.9821
vn -0.0000 -0.0016 -1.0000
vn -0.0000 -0.0481 -0.9988
vn 0.0630 -0.1104 -0.9919
vn 0.0712 -0.2344 -0.9695
vn 0.0894 -0.1917 -0.9774
vn 0.2011 -0.3413 -0.9182
vn 0.3647 -0.1871 -0.9121
vn -0.2186 -0.2675 -0.9384
vn 0.2371 -0.1146 -0.9647
vn 0.1254 -0.3237 -0.9378
vn 0.2980 -0.3793 -0.8760
vn -0.2308 -0.1620 -0.9594
vn -0.1653 -0.0043 -0.9862
vn 0.1032 -0.1374 -0.9851
vn 0.3397 -0.4320 -0.8354
vn -0.1664 0.1976 -0.9661
vn -0.2112 0.1025 -0.9720
vn 0.0692 -0.0498 -0.9964
vn 0.4181 -0.2353 -0.8774
vn -0.2096 0.0059 -0.9778
vn 0.1479 -0.0153 -0.9889
vn 0.5020 -0.0171 -0.8647
vn -0.1528 -0.1031 -0.9829
vn 0.2090 0.1456 -0.9670
vn -0.0730 -0.1516 -0.9857
vn 0.5677 0.2181 -0.7938
vn 0.8997 0.4365 -0.0000
vn 0.2932 0.9560 -0.0000
vn 0.5677 0.2181 0.7938
vn 0.2296 0.7427 -0.6290
vn -0.0000 0.1540 -0.9881
vn 0.2296 0.7427 0.6290
vn -0.0000 0.1540 0.9881
vn 0.4634 0.4151 -0.7829
vn -0.0000 0.7361 0.6768
vn 0.4634 0.4151 0.7829
vn 0.6029 0.7978 -0.0000
vn -0.2296 0.7427 0.6290
vn -0.5678 0.2181 0.7938
vn -0.4634 0.4151 0.7829
vn -0.2932 0.9560 -0.0000
vn -0.8997 0.4365 -0.0000
vn -0.5678 0.2181 -0.7938
vn -0.2296 0.7428 -0.6290
vn -0.0000 0.7361 -0.6768
vn -0.4634 0.4151 -0.7829
vn -0.0000 0.3909 -0.9205
vn -0.6029 0.7978 -0.0000
vn -0.5406 0.0291 -0.8408
vn 0.5406 0.0291 -0.8408
vn -0.0000 -0.0439 -0.9990
vn -0.0000 0.0560 -0.9984
vn 0.9569 0.2904 -0.0000
vn 0.5406 0.0291 0.8408
vn 0.9839 -0.1786 -0.0000
vn 0.5473 -0.0425 -0.8358
vn 0.5678 -0.8231 -0.0000
vn 0.5473 -0.0425 0.8358
vn 0.9996 -0.0271 -0.0000
vn 0.5932 0.0009 -0.8051
vn -0.0000 -0.0547 -0.9985
vn 0.5271 0.0918 -0.8449
vn 0.9897 0.1430 -0.0000
vn -0.0000 0.0085 -1.0000
vn 0.5271 0.0918 0.8449
vn -0.5271 0.0918 -0.8449
vn 0.5932 0.0009 0.8051
vn -0.0000 -0.0547 0.9985
vn -0.0000 0.0085 1.0000
vn -0.5271 0.0918 0.8449
vn -0.0000 0.0560 0.9984
vn -0.5932 0.0009 0.8051
vn -0.0000 -0.0439 0.9990
vn -0.9996 -0.0271 -0.0000
vn -0.9897 0.1430 -0.0000
vn -0.5473 -0.0425 0.8358
vn -0.5932 0.0009 -0.8051
vn -0.5473 -0.0425 -0.8358
vn -0.5678 -0.8231 -0.0000
vn -0.9839 -0.1786 -0.0000
vn -0.9569 0.2904 -0.0000
vn -0.5406 0.0291 0.8408
vn -0.0000 0.3909 0.9205
vt 0.934532 0.068446
vt 0.986386 0.054319
vt 0.950848 0.750404
vt 0.909051 0.750404
vt 0.967631 0.047445
vt 0.871756 0.750404
vt 0.917022 0.059000
vt 0.958745 0.041085
vt 0.952420 0.015686
vt 0.888802 0.015686
vt 0.887889 0.056366
vt 0.874626 0.015686
vt 0.860941 0.750404
vt 0.829322 0.750404
vt 0.828442 0.015686
vt 0.782258 0.015686
vt 0.797704 0.750404
vt 0.769209 0.056400
vt 0.786734 0.750404
vt 0.767972 0.015686
vt 0.722609 0.068296
vt 0.749330 0.750404
vt 0.707564 0.750404
vt 0.670769 0.054161
vt 0.689628 0.047222
vt 0.740272 0.058851
vt 0.698480 0.040742
vt 0.706336 0.015686
vt 0.663380 0.015653
vt 0.663380 0.102056
vt 0.597213 0.102056
vt 0.597213 0.015653
vt 0.531144 0.015653
vt 0.531144 0.102056
vt 0.464843 0.102056
vt 0.464843 0.015653
vt 0.410563 0.015653
vt 0.410563 0.102056
vt 0.367112 0.015653
vt 0.367112 0.102056
vt 0.342668 0.015653
vt 0.342668 0.102056
vt 0.331910 0.102056
vt 0.331910 0.015653
vt 0.303145 0.059206
vt 0.303145 0.102056
vt 0.280514 0.102056
vt 0.303145 0.015653
vt 0.280514 0.015653
vt -0.402343 0.102056
vt -0.339145 0.102056
vt -0.339145 0.015653
vt -0.402343 0.015653
vt -0.473028 0.015653
vt -0.473028 0.102056
vt -0.534713 0.102056
vt -0.534713 0.015653
vt -0.588993 0.015653
vt -0.588993 0.102056
vt -0.632444 0.102056
vt -0.632444 0.015653
vt -0.658112 0.015653
vt -0.658112 0.102056
vt -0.670947 0.102056
vt -0.670947 0.015653
vt -0.696302 0.059206
vt -0.696302 0.015653
vt -0.711130 0.015653
vt -0.696302 0.102056
vt -0.711130 0.102056
vt 0.248588 0.546292
vt 0.248588 0.510600
vt 0.288130 0.510600
vt 0.288130 0.546292
vt 0.327594 0.510600
vt 0.248588 0.575747
vt 0.327594 0.546292
vt 0.288130 0.575747
vt 0.327594 0.575747
vt 0.248588 0.607604
vt 0.327594 0.607604
vt 0.288130 0.607604
vt 0.248588 0.641531
vt 0.327594 0.641531
vt 0.288130 0.641531
vt 0.327594 0.671141
vt 0.288130 0.671141
vt 0.248588 0.671141
vt 0.327594 0.701678
vt 0.288130 0.701678
vt 0.248588 0.701678
vt 0.248588 0.743814
vt 0.288130 0.743814
vt 0.327594 0.743814
vt 0.212646 0.015686
vt 0.254278 0.015686
vt 0.215731 0.726709
vt 0.183646 0.724130
vt 0.207376 0.757059
vt 0.156447 0.722095
vt 0.175209 0.015686
vt 0.176227 0.749980
vt 0.150177 0.744677
vt 0.164227 0.775283
vt 0.191070 0.786639
vt 0.167899 0.810753
vt 0.134621 0.808356
vt 0.134507 0.838872
vt 0.101182 0.810724
vt 0.134513 0.764645
vt 0.104892 0.775281
vt 0.078151 0.786643
vt 0.061702 0.757069
vt 0.092824 0.749970
vt 0.118968 0.744678
vt 0.085389 0.724129
vt 0.053376 0.726706
vt 0.014611 0.015686
vt 0.056410 0.015686
vt 0.112702 0.722094
vt 0.093554 0.015686
vt 0.124468 0.743703
vt 0.118894 0.721642
vt 0.103950 0.015686
vt 0.134367 0.015686
vt 0.134538 0.757342
vt 0.134606 0.721090
vt 0.150260 0.721643
vt 0.164801 0.015686
vt 0.144671 0.743706
vt -0.943590 0.015686
vt -0.985389 0.015686
vt -0.946624 0.726706
vt -0.914611 0.724129
vt -0.938298 0.757069
vt -0.887298 0.722094
vt -0.906446 0.015686
vt -0.907176 0.749970
vt -0.881032 0.744678
vt -0.895108 0.775281
vt -0.921849 0.786643
vt -0.898818 0.810724
vt -0.865379 0.808356
vt -0.865493 0.838872
vt -0.832101 0.810753
vt -0.865487 0.764645
vt -0.835773 0.775283
vt -0.808930 0.786639
vt -0.792624 0.757059
vt -0.823773 0.749980
vt -0.849823 0.744677
vt -0.816354 0.724130
vt -0.784269 0.726709
vt -0.745722 0.015686
vt -0.787354 0.015686
vt -0.843553 0.722095
vt -0.824791 0.015686
vt -0.855329 0.743706
vt -0.849740 0.721643
vt -0.835199 0.015686
vt -0.865633 0.015686
vt -0.865462 0.757342
vt -0.865394 0.721090
vt -0.881106 0.721642
vt -0.896050 0.015686
vt -0.875532 0.743703
vt -0.082978 0.059000
vt -0.041255 0.041085
vt -0.047580 0.015686
vt -0.111198 0.015686
vt -0.032369 0.047445
vt -0.112111 0.056366
vt -0.125374 0.015686
vt -0.065468 0.068446
vt -0.013614 0.054319
vt -0.049152 0.750404
vt -0.090949 0.750404
vt -0.128244 0.750404
vt -0.139059 0.750404
vt -0.170678 0.750404
vt -0.171558 0.015686
vt -0.217742 0.015686
vt -0.202296 0.750404
vt -0.230791 0.056400
vt -0.213266 0.750404
vt -0.232028 0.015686
vt -0.277391 0.068296
vt -0.250670 0.750404
vt -0.292436 0.750404
vt -0.329231 0.054161
vt -0.310372 0.047222
vt -0.259728 0.058851
vt -0.301520 0.040742
vt -0.293664 0.015686
vt 0.168922 0.937614
vt 0.202224 0.919438
vt 0.202224 0.955793
vt 0.145596 0.982298
vt 0.145599 0.892931
vt 0.106976 0.966250
vt 0.067671 0.982298
vt 0.011574 0.955762
vt 0.045012 0.937614
vt 0.011576 0.919466
vt 0.106976 0.937614
vt 0.106976 0.908979
vt 0.067674 0.892931
vt 0.903720 0.828208
vt 0.903720 0.771875
vt 0.838489 0.804224
vt 0.903719 0.879486
vt 0.818271 0.879486
vt 0.838487 0.953770
vt 0.903719 0.929786
vt 0.903717 0.986120
vt 0.291577 0.498407
vt 0.328445 0.480051
vt 0.291581 0.431056
vt 0.340490 0.431056
vt 0.328444 0.382835
vt 0.291579 0.364479
vt 0.647744 0.970906
vt 0.494556 0.984895
vt 0.494556 0.967010
vt 0.341560 0.970906
vt 0.629613 0.953950
vt 0.771127 0.928057
vt 0.359691 0.953950
vt 0.218452 0.928057
vt 0.494556 0.939902
vt 0.258404 0.916602
vt 0.184743 0.865988
vt 0.378570 0.930245
vt 0.242590 0.865988
vt 0.215277 0.812816
vt 0.309166 0.906328
vt 0.267310 0.825395
vt 0.282879 0.777003
vt 0.287675 0.865988
vt 0.312600 0.795177
vt 0.330099 0.765926
vt 0.303538 0.832163
vt 0.494556 0.865988
vt 0.360325 0.798974
vt 0.353073 0.784546
vt 0.382360 0.785641
vt 0.353255 0.770824
vt 0.344387 0.754341
vt 0.370484 0.776284
vt 0.361414 0.759735
vt 0.394560 0.745586
vt 0.387150 0.735909
vt 0.441569 0.730437
vt 0.441087 0.742463
vt 0.494600 0.789961
vt 0.494564 0.745144
vt 0.494570 0.735190
vt 0.547700 0.742412
vt 0.441569 0.586042
vt 0.546710 0.730437
vt 0.351203 0.586042
vt 0.351203 0.733005
vt 0.546710 0.586042
vt 0.633368 0.733005
vt 0.633368 0.586042
vt 0.640042 0.578575
vt 0.546710 0.578575
vt 0.441569 0.578575
vt 0.546710 0.570982
vt 0.441569 0.570982
vt 0.342750 0.578575
vt 0.352120 0.570982
vt 0.633368 0.570982
vt 0.546710 0.483927
vt 0.633368 0.483927
vt 0.641546 0.476409
vt 0.441569 0.483927
vt 0.546710 0.476409
vt 0.351203 0.483927
vt 0.441569 0.476409
vt 0.344687 0.476409
vt 0.351203 0.468067
vt 0.441569 0.468067
vt 0.546710 0.468067
vt 0.351203 0.375503
vt 0.441569 0.375503
vt 0.633368 0.468067
vt 0.546710 0.375503
vt 0.320659 0.360337
vt 0.432613 0.360337
vt 0.559115 0.360337
vt 0.320659 0.337884
vt 0.633368 0.375503
vt 0.432613 0.337884
vt 0.670949 0.360337
vt 0.559115 0.337884
vt 0.329873 0.330491
vt 0.435670 0.330491
vt 0.325000 0.325487
vt 0.556736 0.330491
vt 0.435238 0.325487
vt 0.670949 0.337884
vt 0.662530 0.330491
vt 0.557349 0.325487
vt 0.667621 0.325487
vt 0.644586 0.318215
vt 0.541574 0.318215
vt 0.446130 0.318215
vt 0.446130 0.272989
vt 0.541574 0.272989
vt 0.348988 0.272989
vt 0.644586 0.272989
vt 0.348988 0.318215
vt 0.601111 0.735537
vt 0.593847 0.745438
vt 0.643480 0.753313
vt 0.618647 0.776131
vt 0.627237 0.759465
vt 0.635778 0.770614
vt 0.658866 0.765682
vt 0.636124 0.784459
vt 0.606852 0.785604
vt 0.676728 0.795106
vt 0.706177 0.776946
vt 0.628981 0.798972
vt 0.686041 0.832163
vt 0.722269 0.825395
vt 0.774302 0.812816
vt 0.701903 0.865988
vt 0.746989 0.865988
vt 0.804836 0.865988
vt 0.680413 0.906328
vt 0.728698 0.916602
vt 0.610733 0.930245
vt -0.505444 0.967010
vt -0.505444 0.984895
vt -0.352256 0.970906
vt -0.658440 0.970906
vt -0.370387 0.953950
vt -0.228873 0.928057
vt -0.640309 0.953950
vt -0.781548 0.928057
vt -0.505444 0.939902
vt -0.741596 0.916602
vt -0.815257 0.865988
vt -0.621430 0.930245
vt -0.757410 0.865988
vt -0.784723 0.812816
vt -0.690834 0.906328
vt -0.732690 0.825395
vt -0.717121 0.777003
vt -0.712325 0.865988
vt -0.505444 0.865988
vt -0.696462 0.832163
vt -0.687400 0.795177
vt -0.669901 0.765926
vt -0.639675 0.798974
vt -0.646927 0.784546
vt -0.646745 0.770824
vt -0.655613 0.754341
vt -0.617640 0.785641
vt -0.638586 0.759735
vt -0.629516 0.776284
vt -0.605440 0.745586
vt -0.612850 0.735909
vt -0.558431 0.730437
vt -0.558913 0.742463
vt -0.505430 0.735190
vt -0.505400 0.789961
vt -0.505436 0.745144
vt -0.452300 0.742412
vt -0.453290 0.730437
vt -0.406153 0.745438
vt -0.398889 0.735537
vt -0.356520 0.753313
vt -0.381353 0.776131
vt -0.372763 0.759465
vt -0.364222 0.770614
vt -0.341134 0.765682
vt -0.363876 0.784459
vt -0.393148 0.785604
vt -0.323272 0.795106
vt -0.293823 0.776946
vt -0.371019 0.798972
vt -0.313959 0.832163
vt -0.277731 0.825395
vt -0.225698 0.812816
vt -0.298097 0.865988
vt -0.253011 0.865988
vt -0.195164 0.865988
vt -0.319587 0.906328
vt -0.271302 0.916602
vt -0.389267 0.930245
vt 0.530420 0.260354
vt 0.598986 0.260149
vt 0.613685 0.238060
vt 0.540760 0.218081
vt 0.460788 0.260355
vt 0.544625 0.211745
vt 0.460669 0.212395
vt 0.630195 0.231965
vt 0.380580 0.218085
vt 0.391232 0.260298
vt 0.376713 0.211749
vt 0.307660 0.238069
vt 0.321415 0.259933
vt 0.460668 0.206767
vt 0.291149 0.231974
vt 0.372705 0.196751
vt 0.548630 0.196747
vt 0.460668 0.194845
vt 0.460666 0.181269
vt 0.633113 0.212849
vt 0.644509 0.196440
vt 0.550675 0.180630
vt 0.639009 0.189437
vt 0.628466 0.160773
vt 0.551612 0.158471
vt 0.460662 0.156760
vt 0.549284 0.124902
vt 0.630064 0.131584
vt 0.460659 0.118903
vt 0.372036 0.124909
vt 0.369715 0.158477
vt 0.292862 0.160784
vt 0.291257 0.131596
vt 0.370656 0.180636
vt 0.282326 0.189448
vt 0.276827 0.196452
vt 0.288226 0.212859
s 1
usemtl 材质
f 1/1/1 2/2/2 3/3/3
f 3/3/4 4/4/4 1/1/4
f 5/5/5 2/2/2 1/1/1
f 1/1/6 4/4/6 6/6/7
f 5/5/5 1/1/1 7/7/8
f 7/7/8 8/8/9 5/5/5
f 9/9/10 8/8/9 7/7/8
f 7/7/11 10/10/12 9/9/11
f 1/1/1 11/11/13 7/7/8
f 7/7/8 11/11/13 10/10/14
f 6/6/15 11/11/13 1/1/1
f 11/11/13 12/12/16 10/10/14
f 11/11/13 6/6/17 13/13/18
f 13/13/18 12/12/16 11/11/13
f 12/12/16 13/13/18 14/14/19
f 14/14/20 15/15/21 12/12/20
f 16/16/22 15/15/21 14/14/19
f 14/14/19 17/17/23 16/16/22
f 18/18/24 16/16/22 17/17/23
f 17/17/23 19/19/25 18/18/24
f 18/18/24 20/20/26 16/16/22
f 21/21/27 18/18/24 19/19/25
f 19/19/25 22/22/28 21/21/27
f 21/21/27 22/22/28 23/23/29
f 23/23/29 24/24/30 21/21/27
f 25/25/31 21/21/27 24/24/30
f 25/25/31 26/26/32 21/21/27
f 21/21/27 26/26/32 18/18/24
f 26/26/32 20/20/26 18/18/24
f 26/26/32 25/25/31 27/27/33
f 28/28/34 20/20/26 26/26/32
f 26/26/35 27/27/35 28/28/35
f 29/29/36 30/30/36 31/31/37
f 31/31/37 32/32/38 29/29/36
f 33/33/39 32/32/38 31/31/37
f 31/31/37 34/34/39 33/33/39
f 33/33/39 34/34/39 35/35/40
f 35/35/40 36/36/40 33/33/39
f 37/37/41 36/36/40 35/35/40
f 35/35/40 38/38/41 37/37/41
f 39/39/42 37/37/41 38/38/41
f 38/38/41 40/40/42 39/39/42
f 41/41/43 39/39/42 40/40/42
f 40/40/42 42/42/43 41/41/43
f 41/41/43 42/42/43 43/43/44
f 43/43/44 44/44/45 41/41/43
f 43/43/44 45/45/46 44/44/45
f 43/43/44 46/46/47 45/45/46
f 47/47/48 45/45/46 46/46/47
f 44/44/45 45/45/46 48/48/49
f 49/49/50 48/48/49 45/45/46
f 50/50/51 51/51/52 52/52/52
f 52/52/52 53/53/51 50/50/51
f 50/50/51 53/53/51 54/54/53
f 54/54/53 55/55/53 50/50/51
f 56/56/54 55/55/53 54/54/53
f 54/54/53 57/57/54 56/56/54
f 56/56/54 57/57/54 58/58/55
f 58/58/55 59/59/55 56/56/54
f 60/60/56 59/59/55 58/58/55
f 58/58/55 61/61/56 60/60/56
f 60/60/56 61/61/56 62/62/57
f 62/62/57 63/63/58 60/60/56
f 64/64/59 63/63/60 62/62/60
f 62/62/57 65/65/61 64/64/62
f 64/64/62 65/65/61 66/66/63
f 65/65/61 67/67/64 66/66/63
f 68/68/65 66/66/63 67/67/64
f 64/64/62 66/66/63 69/69/66
f 70/70/67 69/69/66 66/66/63
f 71/71/68 72/72/69 73/73/70
f 73/73/70 74/74/71 71/71/68
f 74/74/71 73/73/70 75/75/72
f 76/76/73 71/71/68 74/74/71
f 75/75/72 77/77/74 74/74/71
f 74/74/71 78/78/75 76/76/73
f 78/78/75 74/74/71 77/77/74
f 77/77/74 79/79/76 78/78/75
f 80/80/77 76/76/73 78/78/75
f 78/78/75 79/79/76 81/81/78
f 78/78/75 82/82/79 80/80/77
f 81/81/78 82/82/79 78/78/75
f 83/83/80 80/80/77 82/82/79
f 82/82/79 81/81/78 84/84/81
f 84/84/81 85/85/82 82/82/79
f 82/82/79 85/85/82 83/83/80
f 85/85/82 84/84/81 86/86/83
f 83/83/80 85/85/82 87/87/84
f 86/86/83 87/87/84 85/85/82
f 87/87/84 88/88/85 83/83/80
f 87/87/84 86/86/83 89/89/86
f 88/88/85 87/87/84 90/90/87
f 89/89/86 90/90/87 87/87/84
f 90/90/87 91/91/88 88/88/85
f 92/92/89 91/91/88 90/90/87
f 90/90/87 93/93/90 92/92/89
f 93/93/90 90/90/87 89/89/86
f 89/89/86 94/94/91 93/93/90
f 95/73/92 96/72/93 97/71/94
f 97/71/94 98/74/95 95/73/92
f 99/75/96 95/73/92 98/74/95
f 98/74/95 97/71/94 100/76/97
f 98/74/95 101/77/98 99/75/96
f 100/76/97 102/78/99 98/74/95
f 101/77/98 98/74/95 102/78/99
f 102/78/99 103/79/100 101/77/98
f 102/78/99 100/76/97 104/80/101
f 105/81/102 103/79/100 102/78/99
f 104/80/101 106/82/103 102/78/99
f 102/78/99 106/82/103 105/81/102
f 106/82/103 104/80/101 107/83/104
f 108/84/105 105/81/102 106/82/103
f 106/82/103 109/85/106 108/84/105
f 107/83/104 109/85/106 106/82/103
f 110/86/107 108/84/105 109/85/106
f 111/87/108 109/85/106 107/83/104
f 109/85/106 111/87/108 110/86/107
f 107/83/104 112/88/109 111/87/108
f 113/89/110 110/86/107 111/87/108
f 114/90/111 111/87/108 112/88/109
f 111/87/108 114/90/111 113/89/110
f 112/88/109 115/91/112 114/90/111
f 114/90/111 115/91/112 116/92/113
f 116/92/113 117/93/114 114/90/111
f 113/89/110 114/90/111 117/93/114
f 117/93/114 118/94/115 113/89/110
f 119/95/116 120/96/117 121/97/118
f 121/97/119 122/98/120 119/95/119
f 122/98/121 121/97/122 123/99/123
f 119/95/124 122/98/121 124/100/125
f 124/100/125 125/101/126 119/95/124
f 123/99/123 126/102/127 122/98/121
f 122/98/121 126/102/127 127/103/128
f 127/103/128 124/100/125 122/98/121
f 128/104/129 126/102/127 123/99/123
f 127/103/128 126/102/127 128/104/129
f 123/99/123 129/105/130 128/104/129
f 128/104/129 129/105/130 130/106/131
f 130/106/131 131/107/132 128/104/129
f 132/108/133 131/107/132 130/106/131
f 132/108/133 133/109/134 131/107/132
f 128/104/129 131/107/132 134/110/135
f 128/104/129 134/110/135 127/103/128
f 135/111/136 131/107/132 133/109/134
f 135/111/136 134/110/135 131/107/132
f 133/109/134 136/112/137 135/111/136
f 135/111/136 136/112/137 137/113/138
f 137/113/138 138/114/139 135/111/136
f 135/111/136 138/114/139 139/115/140
f 139/115/140 134/110/135 135/111/136
f 140/116/141 138/114/139 137/113/138
f 139/115/140 138/114/139 140/116/141
f 137/113/138 141/117/142 140/116/141
f 141/117/142 142/118/143 143/119/144
f 143/119/144 140/116/141 141/117/142
f 144/120/145 140/116/141 143/119/144
f 140/116/141 144/120/145 139/115/140
f 143/119/144 145/121/146 144/120/145
f 146/122/147 139/115/140 144/120/145
f 134/110/135 139/115/140 146/122/147
f 147/123/148 144/120/145 145/121/146
f 144/120/145 147/123/148 146/122/147
f 145/121/146 148/124/149 147/123/148
f 147/123/148 148/124/149 149/125/21
f 150/126/150 146/122/147 147/123/148
f 146/122/147 150/126/150 134/110/135
f 149/125/21 151/127/151 147/123/148
f 147/123/148 151/127/151 150/126/150
f 152/128/152 151/127/151 149/125/21
f 150/126/150 151/127/151 152/128/152
f 149/125/21 153/129/153 152/128/152
f 152/128/152 153/129/153 125/101/126
f 125/101/126 124/100/125 152/128/152
f 154/130/154 152/128/152 124/100/125
f 152/128/152 154/130/154 150/126/150
f 134/110/135 150/126/150 154/130/154
f 124/100/125 127/103/128 154/130/154
f 154/130/154 127/103/128 134/110/135
f 155/131/155 156/132/156 157/133/157
f 157/133/157 158/134/158 155/131/155
f 158/134/158 157/133/157 159/135/159
f 155/131/155 158/134/158 160/136/160
f 160/136/160 161/137/161 155/131/155
f 159/135/159 162/138/162 158/134/158
f 158/134/158 162/138/162 163/139/163
f 163/139/163 160/136/160 158/134/158
f 164/140/164 162/138/162 159/135/159
f 163/139/163 162/138/162 164/140/164
f 159/135/159 165/141/165 164/140/164
f 164/140/164 165/141/165 166/142/166
f 166/142/166 167/143/167 164/140/164
f 168/144/168 167/143/167 166/142/166
f 168/144/168 169/145/169 167/143/167
f 164/140/164 167/143/167 170/146/170
f 164/140/164 170/146/170 163/139/163
f 171/147/171 167/143/167 169/145/169
f 171/147/171 170/146/170 167/143/167
f 169/145/169 172/148/172 171/147/171
f 171/147/171 172/148/172 173/149/173
f 173/149/173 174/150/174 171/147/171
f 171/147/171 174/150/174 175/151/175
f 175/151/175 170/146/170 171/147/171
f 176/152/176 174/150/174 173/149/173
f 175/151/175 174/150/174 176/152/176
f 173/149/173 177/153/177 176/152/176
f 177/153/177 178/154/178 179/155/179
f 179/155/179 176/152/176 177/153/177
f 180/156/180 176/152/176 179/155/179
f 176/152/176 180/156/180 175/151/175
f 179/155/179 181/157/181 180/156/180
f 182/158/182 175/151/175 180/156/180
f 170/146/170 175/151/175 182/158/182
f 183/159/183 180/156/180 181/157/181
f 180/156/180 183/159/183 182/158/182
f 181/157/181 184/160/184 183/159/183
f 183/159/183 184/160/184 185/161/185
f 186/162/186 182/158/182 183/159/183
f 182/158/182 186/162/186 170/146/170
f 185/161/185 187/163/187 183/159/183
f 183/159/183 187/163/187 186/162/186
f 188/164/188 187/163/187 185/161/185
f 186/162/186 187/163/187 188/164/188
f 185/161/185 189/165/189 188/164/188
f 188/164/188 189/165/189 161/137/161
f 161/137/161 160/136/160 188/164/188
f 190/166/190 188/164/188 160/136/160
f 188/164/188 190/166/190 186/162/186
f 170/146/170 186/162/186 190/166/190
f 160/136/160 163/139/163 190/166/190
f 190/166/190 163/139/163 170/146/170
f 191/167/191 192/168/192 193/169/193
f 193/169/193 194/170/194 191/167/191
f 191/167/191 195/171/195 192/168/192
f 191/167/191 194/170/194 196/172/196
f 196/172/196 194/170/194 197/173/197
f 195/171/195 191/167/191 198/174/198
f 198/174/198 191/167/191 196/172/196
f 195/171/195 198/174/198 199/175/199
f 200/176/200 199/175/199 198/174/198
f 198/174/198 201/177/201 200/176/200
f 202/178/202 201/177/201 198/174/198
f 198/174/198 196/172/196 202/178/202
f 203/179/203 202/178/202 196/172/196
f 196/172/196 197/173/197 203/179/203
f 204/180/204 203/179/203 197/173/197
f 197/173/197 205/181/185 204/180/204
f 204/180/204 205/181/185 206/182/205
f 206/182/205 207/183/206 204/180/204
f 207/183/206 206/182/205 208/184/207
f 208/184/207 209/185/208 207/183/206
f 208/184/207 206/182/205 210/186/209
f 209/185/208 208/184/207 211/187/210
f 211/187/210 212/188/211 209/185/208
f 213/189/212 212/188/211 211/187/210
f 211/187/210 214/190/213 213/189/212
f 215/191/214 214/190/215 211/187/215
f 215/191/216 211/187/210 216/192/217
f 211/187/210 208/184/207 216/192/217
f 216/192/217 208/184/207 210/186/209
f 216/192/217 217/193/218 215/191/216
f 216/192/217 210/186/209 218/194/219
f 218/194/219 217/193/218 216/192/217
f 219/195/220 220/196/221 221/197/222
f 219/195/220 221/197/222 222/198/223
f 223/199/224 220/196/221 219/195/220
f 222/198/223 224/200/225 219/195/220
f 225/201/226 224/200/225 222/198/223
f 224/200/225 225/201/226 226/202/227
f 226/202/227 227/203/228 224/200/225
f 226/202/227 228/204/229 227/203/228
f 227/203/228 229/205/230 224/200/225
f 224/200/225 229/205/230 219/195/220
f 230/206/231 227/203/228 228/204/229
f 227/203/228 230/206/231 229/205/230
f 230/206/231 219/195/220 229/205/230
f 219/195/220 230/206/231 223/199/224
f 228/204/229 231/207/232 230/206/231
f 231/207/232 223/199/224 230/206/231
f 232/208/233 233/209/234 234/210/235
f 232/208/233 235/210/236 233/209/234
f 236/211/230 232/208/233 234/210/235
f 235/210/236 232/208/233 236/211/230
f 234/210/235 237/212/237 236/211/230
f 236/211/230 238/212/238 235/210/236
f 236/211/230 237/212/237 239/213/239
f 240/213/240 238/212/238 236/211/230
f 239/213/239 241/214/241 236/211/230
f 236/211/230 241/214/241 240/213/240
f 241/214/241 239/213/239 242/215/242
f 241/214/241 242/215/242 240/213/240
f 243/216/243 244/217/244 245/218/245
f 243/216/243 245/218/245 246/217/246
f 244/217/244 247/219/246 245/218/245
f 246/217/246 245/218/245 248/219/244
f 247/219/246 249/220/244 245/218/245
f 248/219/244 245/218/245 250/220/246
f 249/220/244 251/221/247 245/218/245
f 250/220/246 245/218/245 251/221/247
f 252/222/248 253/223/249 254/224/250
f 254/224/250 253/223/249 255/225/251
f 254/224/250 256/226/252 252/222/248
f 257/227/253 252/222/248 256/226/252
f 255/225/251 258/228/254 254/224/250
f 258/228/254 255/225/251 259/229/255
f 256/226/252 254/224/250 260/230/256
f 260/230/256 254/224/250 258/228/254
f 259/229/255 261/231/257 258/228/254
f 261/231/257 259/229/255 262/232/258
f 258/228/254 263/233/259 260/230/256
f 263/233/259 258/228/254 261/231/257
f 262/232/258 264/234/260 261/231/257
f 264/234/260 262/232/258 265/235/261
f 261/231/257 266/236/262 263/233/259
f 266/236/262 261/231/257 264/234/260
f 265/235/261 267/237/263 264/234/260
f 267/237/263 265/235/261 268/238/264
f 264/234/260 269/239/265 266/236/262
f 269/239/265 264/234/260 267/237/263
f 268/238/264 270/240/266 267/237/263
f 271/241/267 270/240/266 268/238/264
f 267/237/263 272/242/268 269/239/265
f 272/242/268 267/237/263 270/240/266
f 266/236/262 269/239/265 273/243/269
f 273/243/269 269/239/265 272/242/268
f 273/243/269 263/233/259 266/236/262
f 263/233/259 273/243/269 260/230/256
f 270/240/266 274/244/270 272/242/268
f 272/242/268 274/244/270 273/243/269
f 275/245/271 274/244/270 270/240/266
f 271/241/267 275/245/271 270/240/266
f 275/245/271 276/246/272 274/244/270
f 277/247/273 275/245/271 271/241/267
f 277/247/273 271/241/267 278/248/274
f 275/245/271 279/249/275 276/246/272
f 279/249/275 275/245/271 277/247/273
f 278/248/274 280/250/276 277/247/273
f 280/250/276 279/249/275 277/247/273
f 281/251/277 280/250/276 278/248/274
f 279/249/275 280/250/276 281/251/277
f 278/248/274 282/252/278 281/251/277
f 281/251/277 282/252/278 283/253/279
f 281/251/277 284/254/280 279/249/275
f 283/253/279 284/254/280 281/251/277
f 276/246/272 279/249/275 285/255/281
f 285/255/281 279/249/275 284/254/280
f 285/255/281 274/244/270 276/246/272
f 285/255/281 273/243/269 274/244/270
f 285/255/281 284/254/280 286/256/282
f 287/257/283 286/256/282 284/254/280
f 284/254/280 283/253/279 287/257/283
f 285/255/281 286/256/282 288/258/284
f 288/258/284 286/256/282 287/257/283
f 289/259/285 287/257/283 283/253/279
f 287/257/283 290/260/286 288/258/284
f 291/261/287 289/259/285 283/253/279
f 283/253/279 292/262/288 291/261/287
f 291/261/287 292/262/288 293/253/289
f 294/263/290 287/257/283 289/259/285
f 290/260/286 287/257/283 294/263/290
f 293/253/289 295/259/291 291/261/287
f 295/259/291 293/253/289 296/257/292
f 297/263/293 295/259/291 296/257/292
f 298/260/294 297/263/293 296/257/292
f 297/263/293 298/260/294 299/264/295
f 299/264/295 290/260/296 294/263/290
f 299/264/295 300/265/297 297/263/293
f 294/263/290 300/265/297 299/264/295
f 297/263/293 300/265/297 301/266/298
f 301/266/298 300/265/297 294/263/290
f 295/259/291 297/263/293 302/267/299
f 301/266/298 302/267/299 297/263/293
f 302/267/299 303/268/300 295/259/291
f 291/261/287 295/259/291 303/268/300
f 304/269/301 302/267/299 301/266/298
f 305/270/302 303/268/300 302/267/299
f 302/267/299 304/269/301 305/270/302
f 303/268/300 306/271/303 291/261/287
f 303/268/300 305/270/302 307/272/304
f 307/272/304 306/271/303 303/268/300
f 291/261/287 306/271/303 308/268/305
f 308/268/305 306/271/303 307/272/304
f 308/268/305 289/259/285 291/261/287
f 289/259/285 308/268/305 309/267/306
f 309/267/306 294/263/290 289/259/285
f 294/263/290 309/267/306 301/266/298
f 309/267/306 308/268/305 310/270/307
f 307/272/304 310/270/307 308/268/305
f 301/266/298 309/267/306 311/269/308
f 310/270/307 311/269/308 309/267/306
f 311/269/308 312/273/309 301/266/298
f 301/266/298 312/273/309 304/269/301
f 313/274/310 311/269/308 310/270/307
f 312/273/309 311/269/308 313/274/310
f 314/274/311 304/269/301 312/273/309
f 305/270/302 304/269/301 314/274/311
f 313/274/310 315/275/312 312/273/309
f 312/273/309 315/275/312 314/274/311
f 316/276/313 315/275/312 313/274/310
f 314/274/311 315/275/312 316/276/313
f 314/274/311 317/277/314 305/270/302
f 307/272/304 305/270/302 317/277/314
f 317/277/314 314/274/311 318/278/315
f 316/276/313 318/278/315 314/274/311
f 317/277/314 319/279/316 307/272/304
f 310/270/307 307/272/304 319/279/316
f 318/278/315 320/280/317 317/277/314
f 319/279/316 317/277/314 320/280/317
f 319/279/316 321/277/318 310/270/307
f 310/270/307 321/277/318 313/274/310
f 320/280/317 322/281/319 319/279/316
f 323/278/320 313/274/310 321/277/318
f 313/274/310 323/278/320 316/276/313
f 324/280/321 321/277/318 319/279/316
f 321/277/318 324/280/321 323/278/320
f 319/279/316 322/281/319 324/280/321
f 324/280/321 322/281/319 325/282/322
f 325/282/322 322/281/319 320/280/317
f 323/278/320 324/280/321 326/283/323
f 325/282/322 326/283/323 324/280/321
f 326/283/323 327/284/324 323/278/320
f 316/276/313 323/278/320 327/284/324
f 326/283/323 325/282/322 328/285/325
f 327/284/324 326/283/323 329/286/326
f 328/285/325 329/286/326 326/283/323
f 320/280/317 330/283/327 325/282/322
f 328/285/325 325/282/322 330/283/327
f 330/283/327 320/280/317 318/278/315
f 318/278/315 331/284/328 330/283/327
f 331/284/328 318/278/315 316/276/313
f 316/276/313 332/287/329 331/284/328
f 327/284/324 332/287/329 316/276/313
f 330/283/327 331/284/328 333/288/330
f 333/288/330 331/284/328 332/287/329
f 333/288/330 334/286/331 330/283/327
f 330/283/327 334/286/331 328/285/325
f 335/289/332 328/285/325 334/286/331
f 329/286/326 328/285/325 335/289/332
f 336/290/333 334/286/331 333/288/330
f 334/286/331 336/290/333 335/289/332
f 333/288/330 337/291/334 336/290/333
f 338/292/335 335/289/332 336/290/333
f 337/291/334 333/288/330 339/293/336
f 332/287/329 339/293/336 333/288/330
f 340/294/337 336/290/333 337/291/334
f 336/290/333 340/294/337 338/292/335
f 339/293/336 341/295/338 337/291/334
f 337/291/334 342/296/339 340/294/337
f 342/296/339 337/291/334 341/295/338
f 343/288/340 339/293/336 332/287/329
f 332/287/329 327/284/324 343/288/340
f 329/286/326 343/288/340 327/284/324
f 339/293/336 343/288/340 344/291/341
f 344/291/341 341/295/338 339/293/336
f 343/288/340 329/286/326 345/290/342
f 345/290/342 344/291/341 343/288/340
f 335/289/332 345/290/342 329/286/326
f 345/290/342 335/289/332 338/292/335
f 344/291/341 345/290/342 346/294/343
f 338/292/335 346/294/343 345/290/342
f 346/294/343 347/296/344 344/291/341
f 341/295/338 344/291/341 347/296/344
f 346/294/343 338/292/335 348/297/345
f 348/297/345 338/292/335 340/294/337
f 347/296/344 346/294/343 349/298/346
f 348/297/345 349/298/346 346/294/343
f 340/294/337 350/298/347 348/297/345
f 350/298/347 340/294/337 342/296/339
f 349/298/346 348/297/345 351/299/348
f 351/299/348 348/297/345 350/298/347
f 342/296/339 352/300/349 350/298/347
f 350/298/347 353/301/350 351/299/348
f 353/301/350 350/298/347 352/300/349
f 352/300/349 342/296/339 354/302/351
f 341/295/338 354/302/351 342/296/339
f 347/296/344 354/302/351 341/295/338
f 354/302/351 347/296/344 355/300/352
f 349/298/346 355/300/352 347/296/344
f 354/302/351 356/303/353 352/300/349
f 355/300/352 356/303/353 354/302/351
f 357/304/354 352/300/349 356/303/353
f 352/300/349 357/304/354 353/301/350
f 356/303/353 358/305/355 357/304/354
f 359/304/356 358/305/355 356/303/353
f 356/303/353 355/300/352 359/304/356
f 357/304/354 358/305/355 360/306/357
f 360/306/357 358/305/355 359/304/356
f 353/301/350 357/304/354 361/307/358
f 360/306/357 361/307/358 357/304/354
f 361/307/358 362/308/359 353/301/350
f 351/299/348 353/301/350 362/308/359
f 363/309/360 362/308/359 361/307/358
f 361/307/358 364/310/361 363/309/360
f 364/310/361 361/307/358 360/306/357
f 362/308/359 363/309/360 365/311/362
f 360/306/357 366/312/363 364/310/361
f 367/310/364 366/312/363 360/306/357
f 360/306/357 368/307/365 367/310/364
f 359/304/356 368/307/365 360/306/357
f 369/309/366 367/310/364 368/307/365
f 368/307/365 359/304/356 370/301/367
f 370/301/367 359/304/356 355/300/352
f 355/300/352 349/298/346 370/301/367
f 351/299/348 370/301/367 349/298/346
f 370/301/367 371/308/368 368/307/365
f 371/308/368 370/301/367 351/299/348
f 368/307/365 371/308/368 369/309/366
f 365/311/362 369/309/366 371/308/368
f 351/299/348 372/313/369 371/308/368
f 371/308/368 372/313/369 365/311/362
f 362/308/359 372/313/369 351/299/348
f 365/311/362 372/313/369 362/308/359
f 290/260/370 373/314/371 374/315/372
f 374/315/372 288/258/284 290/260/286
f 374/315/372 373/314/371 375/316/373
f 376/317/374 288/258/284 374/315/372
f 375/316/373 377/318/375 374/315/372
f 374/315/372 377/318/375 376/317/374
f 285/255/281 288/258/284 376/317/374
f 378/319/376 377/318/375 375/316/373
f 377/318/375 378/319/376 376/317/374
f 375/316/373 379/320/377 378/319/376
f 376/317/374 378/319/376 380/321/378
f 378/319/376 379/320/377 380/321/378
f 380/321/378 381/322/379 376/317/374
f 381/322/379 285/255/281 376/317/374
f 379/320/377 382/323/380 380/321/378
f 379/320/377 383/324/381 382/323/380
f 380/321/378 384/325/382 381/322/379
f 380/321/378 382/323/380 384/325/382
f 285/255/281 381/322/379 384/325/382
f 285/255/281 384/325/382 273/243/269
f 385/326/383 384/325/382 382/323/380
f 273/243/269 384/325/382 385/326/383
f 386/327/384 382/323/380 383/324/381
f 382/323/380 386/327/384 385/326/383
f 383/324/381 387/328/385 386/327/384
f 388/329/386 385/326/383 386/327/384
f 385/326/383 388/329/386 273/243/269
f 389/330/387 386/327/384 387/328/385
f 386/327/384 389/330/387 388/329/386
f 387/328/385 390/331/388 389/330/387
f 273/243/269 388/329/386 391/332/389
f 391/332/389 388/329/386 389/330/387
f 392/333/390 389/330/387 390/331/388
f 389/330/387 392/333/390 391/332/389
f 390/331/388 257/227/253 392/333/390
f 256/226/252 392/333/390 257/227/253
f 393/334/391 391/332/389 392/333/390
f 392/333/390 256/226/252 393/334/391
f 391/332/389 393/334/391 273/243/269
f 260/230/256 393/334/391 256/226/252
f 393/334/391 260/230/256 273/243/269
f 394/335/392 395/336/393 396/337/394
f 397/338/395 395/336/393 394/335/392
f 396/337/394 398/339/396 394/335/392
f 398/339/396 396/337/394 399/340/397
f 394/335/392 400/341/398 397/338/395
f 401/342/399 397/338/395 400/341/398
f 400/341/398 394/335/392 402/343/400
f 402/343/400 394/335/392 398/339/396
f 400/341/398 403/344/401 401/342/399
f 404/345/402 401/342/399 403/344/401
f 403/344/401 400/341/398 405/346/403
f 402/343/400 405/346/403 400/341/398
f 403/344/401 406/347/404 404/345/402
f 407/348/405 404/345/402 406/347/404
f 405/346/403 408/349/406 403/344/401
f 406/347/404 403/344/401 408/349/406
f 406/347/404 409/350/407 407/348/405
f 410/351/408 407/348/405 409/350/407
f 408/349/406 411/352/409 406/347/404
f 409/350/407 406/347/404 411/352/409
f 408/349/406 405/346/403 412/353/410
f 412/353/410 411/352/409 408/349/406
f 405/346/403 402/343/400 412/353/410
f 411/352/409 413/354/411 409/350/407
f 413/354/411 411/352/409 412/353/410
f 414/355/412 409/350/407 413/354/411
f 409/350/407 414/355/412 410/351/408
f 415/356/413 410/351/408 414/355/412
f 413/354/411 416/357/414 414/355/412
f 412/353/410 416/357/414 413/354/411
f 415/356/413 414/355/412 417/358/415
f 417/358/415 414/355/412 416/357/414
f 418/359/416 415/356/413 417/358/415
f 419/360/417 415/356/413 418/359/416
f 417/358/415 416/357/414 420/361/418
f 418/359/416 421/362/419 419/360/417
f 422/363/420 418/359/416 417/358/415
f 421/362/419 418/359/416 422/363/420
f 417/358/415 420/361/418 422/363/420
f 419/360/417 421/362/419 423/364/421
f 423/364/421 421/362/419 422/363/420
f 423/364/421 424/365/422 419/360/417
f 425/366/423 424/365/422 423/364/421
f 423/364/421 426/367/424 425/366/423
f 422/363/420 426/367/424 423/364/421
f 427/368/425 425/366/423 426/367/424
f 428/369/426 426/367/424 422/363/420
f 420/361/418 428/369/426 422/363/420
f 428/369/426 420/361/418 416/357/414
f 426/367/424 429/370/427 427/368/425
f 428/369/426 429/370/427 426/367/424
f 427/368/425 429/370/427 430/371/428
f 428/369/426 430/371/428 429/370/427
f 430/371/428 431/372/429 427/368/425
f 428/369/426 416/357/414 412/353/410
f 431/372/429 430/371/428 432/373/430
f 432/373/430 433/374/431 431/372/429
f 434/375/432 433/374/431 432/373/430
f 432/373/430 430/371/428 435/376/433
f 428/369/426 435/376/433 430/371/428
f 432/373/430 436/377/434 434/375/432
f 435/376/433 436/377/434 432/373/430
f 434/375/432 436/377/434 437/378/435
f 436/377/434 435/376/433 437/378/435
f 437/378/435 438/379/436 434/375/432
f 435/376/433 439/380/437 437/378/435
f 437/378/435 439/380/437 438/379/436
f 439/380/437 435/376/433 440/381/438
f 440/381/438 435/376/433 428/369/426
f 438/379/436 439/380/437 441/382/439
f 438/379/436 441/382/439 442/383/440
f 439/380/437 440/381/438 443/384/441
f 428/369/426 443/384/441 440/381/438
f 439/380/437 443/384/441 441/382/439
f 428/369/426 412/353/410 443/384/441
f 441/382/439 443/384/441 444/385/442
f 444/385/442 443/384/441 412/353/410
f 442/383/440 441/382/439 445/386/443
f 444/385/442 445/386/443 441/382/439
f 445/386/443 446/387/444 442/383/440
f 445/386/443 444/385/442 447/388/445
f 412/353/410 447/388/445 444/385/442
f 446/387/444 445/386/443 448/389/446
f 447/388/445 448/389/446 445/386/443
f 448/389/446 449/390/447 446/387/444
f 448/389/446 447/388/445 450/391/448
f 450/391/448 447/388/445 412/353/410
f 449/390/447 448/389/446 451/392/449
f 450/391/448 451/392/449 448/389/446
f 451/392/449 399/340/397 449/390/447
f 399/340/397 451/392/449 398/339/396
f 451/392/449 450/391/448 452/393/450
f 452/393/450 398/339/396 451/392/449
f 412/353/410 452/393/450 450/391/448
f 398/339/396 452/393/450 402/343/400
f 452/393/450 412/353/410 402/343/400
f 453/394/451 454/395/452 455/396/453
f 455/396/453 454/395/452 456/394/454
f 455/396/453 457/397/455 453/394/451
f 458/398/456 453/394/451 457/397/455
f 456/394/454 459/397/457 455/396/453
f 459/397/457 456/394/454 460/398/458
f 461/399/459 457/397/455 455/396/453
f 460/398/458 462/400/460 459/397/457
f 455/396/453 459/397/457 463/399/461
f 463/399/461 459/397/457 462/400/460
f 463/399/461 464/401/462 455/396/453
f 455/396/453 464/401/462 461/399/459
f 465/402/463 462/400/460 460/398/458
f 460/398/458 466/403/464 465/402/463
f 462/400/460 465/402/463 467/404/465
f 468/405/466 465/402/463 466/403/464
f 467/404/465 465/402/463 468/405/466
f 466/403/464 469/406/467 468/405/466
f 468/405/466 469/406/467 470/403/468
f 470/403/468 471/402/469 468/405/466
f 471/402/469 470/403/468 458/398/456
f 458/398/456 472/400/470 471/402/469
f 457/397/455 472/400/470 458/398/456
f 472/400/470 457/397/455 461/399/459
f 473/404/471 471/402/469 472/400/470
f 468/405/466 471/402/469 473/404/471
f 461/399/459 474/407/472 472/400/470
f 472/400/470 474/407/472 473/404/471
f 473/404/471 475/408/473 468/405/466
f 468/405/466 475/408/473 467/404/465
f 476/409/474 473/404/471 474/407/472
f 475/408/473 473/404/471 476/409/474
f 474/407/472 461/399/459 477/410/475
f 477/410/475 461/399/459 464/401/462
f 474/407/472 478/411/476 476/409/474
f 477/410/475 478/411/476 474/407/472
f 476/409/474 478/411/476 479/412/477
f 479/412/477 478/411/476 477/410/475
f 464/401/462 480/413/478 477/410/475
f 481/410/479 480/413/478 464/401/462
f 464/401/462 463/399/461 481/410/479
f 477/410/475 480/413/478 482/414/480
f 482/414/480 480/413/478 481/410/479
f 482/414/480 483/415/481 477/410/475
f 477/410/475 483/415/481 479/412/477
f 483/415/481 482/414/480 484/416/482
f 485/415/483 484/416/482 482/414/480
f 481/410/479 485/415/483 482/414/480
f 483/415/481 484/416/482 486/417/484
f 486/417/484 484/416/482 485/415/483
f 486/417/484 487/418/485 483/415/481
f 483/415/481 487/418/485 488/419/486
f 488/419/486 479/412/477 483/415/481
f 489/420/487 487/418/485 486/417/484
f 488/419/486 487/418/485 489/420/487
f 486/417/484 490/421/488 489/420/487
f 489/420/487 491/422/489 488/419/486
f 492/420/490 490/421/488 486/417/484
f 488/419/486 491/422/489 493/423/491
f 486/417/484 494/418/492 492/420/490
f 485/415/483 494/418/492 486/417/484
f 492/420/490 494/418/492 495/419/493
f 495/419/493 494/418/492 485/415/483
f 495/419/493 496/422/494 492/420/490
f 497/423/495 496/422/494 495/419/493
f 485/415/483 498/412/496 495/419/493
f 498/412/496 485/415/483 481/410/479
f 495/419/493 499/424/497 497/423/495
f 481/410/479 500/411/498 498/412/496
f 497/423/495 499/424/497 501/425/499
f 501/425/499 502/426/500 497/423/495
f 493/423/491 502/426/500 501/425/499
f 503/427/501 499/424/497 495/419/493
f 501/425/499 499/424/497 503/427/501
f 495/419/493 498/412/496 503/427/501
f 501/425/499 504/424/502 493/423/491
f 493/423/491 504/424/502 488/419/486
f 488/419/486 504/424/502 505/427/503
f 505/427/503 504/424/502 501/425/499
f 505/427/503 479/412/477 488/419/486
f 479/412/477 505/427/503 476/409/474
f 501/425/499 506/428/504 505/427/503
f 503/427/501 506/428/504 501/425/499
f 505/427/503 506/428/504 507/429/505
f 503/427/501 507/429/505 506/428/504
f 476/409/474 505/427/503 507/429/505
f 507/429/505 508/430/506 476/409/474
f 476/409/474 508/430/506 475/408/473
f 509/409/507 508/430/506 507/429/505
f 475/408/473 508/430/506 509/409/507
f 507/429/505 503/427/501 509/409/507
f 509/409/507 503/427/501 498/412/496
f 509/409/507 467/404/465 475/408/473
f 498/412/496 500/411/498 509/409/507
f 510/407/508 467/404/465 509/409/507
f 509/409/507 500/411/498 510/407/508
f 467/404/465 510/407/508 462/400/460
f 510/407/508 500/411/498 481/410/479
f 462/400/460 510/407/508 463/399/461
f 481/410/479 463/399/461 510/407/508
