# Blender 4.3.2
# www.blender.org
mtllib 剑5.mtl
o Ob7
v 0.022855 1.527091 -0.012865
v 0.050454 1.527092 0.000000
v 0.073514 0.251409 0.000000
v 0.036335 0.251409 -0.016203
v 0.019398 1.527019 -0.008504
v 0.032219 0.251418 -0.009820
v 0.000000 1.527094 -0.016605
v 0.000000 0.251418 -0.022147
v -0.032219 0.251418 -0.009820
v -0.019410 1.527019 -0.008500
v -0.022847 1.527090 -0.012129
v -0.036335 0.251409 -0.016203
v -0.073514 0.251409 0.000000
v -0.050454 1.527092 0.000000
v -0.106606 0.201767 -0.026485
v -0.106606 0.201767 0.026485
v -0.113952 0.280554 0.026207
v -0.113952 0.280554 -0.026207
v 0.113952 0.280554 0.025571
v 0.106606 0.201767 0.026485
v 0.106606 0.201767 -0.026485
v 0.113952 0.280554 -0.025571
v 0.073514 0.251409 0.000000
v 0.050454 1.527092 0.000000
v 0.022855 1.527091 0.012865
v 0.036335 0.251409 0.016203
v 0.019398 1.527019 0.008504
v 0.032219 0.251418 0.009820
v 0.000000 1.527094 0.016605
v 0.000000 0.251418 0.022147
v -0.032219 0.251418 0.009820
v -0.019410 1.527019 0.008501
v -0.022847 1.527090 0.012129
v -0.036335 0.251409 0.016203
v -0.073514 0.251409 0.000000
v -0.050454 1.527092 0.000000
v 0.113952 0.280554 0.025571
v 0.113952 0.280554 -0.025571
v 0.027870 0.282508 -0.048097
v 0.027870 0.282508 0.048097
v 0.016317 0.271179 -0.050114
v 0.016317 0.271179 0.050114
v 0.000000 0.271012 -0.052935
v 0.000000 0.271012 0.052935
v -0.016317 0.271179 0.050114
v -0.016317 0.271179 -0.050114
v -0.027870 0.282508 -0.048097
v -0.027870 0.282508 0.048097
v -0.113952 0.280554 0.026207
v -0.113952 0.280554 -0.026207
v -0.106606 0.201767 0.026485
v -0.106606 0.201767 -0.026485
v -0.078128 0.201794 -0.034854
v -0.078128 0.201794 0.034854
v -0.076084 0.207055 -0.035425
v -0.076084 0.207055 0.035425
v 0.000000 0.205618 0.052933
v 0.000000 0.205618 -0.052933
v 0.076084 0.207055 -0.035425
v 0.076084 0.207055 0.035425
v 0.078128 0.201794 -0.034854
v 0.078128 0.201794 0.034854
v 0.106606 0.201767 -0.026485
v 0.106606 0.201767 0.026485
v 0.076084 0.207055 0.035425
v 0.078128 0.201794 0.034854
v 0.106606 0.201767 0.026485
v 0.113952 0.280554 0.025571
v 0.027870 0.282508 0.048097
v 0.016317 0.271179 0.050114
v 0.000000 0.205618 0.052933
v 0.000000 0.271012 0.052935
v -0.016317 0.271179 0.050114
v -0.076084 0.207055 0.035425
v -0.027870 0.282508 0.048097
v -0.113952 0.280554 0.026207
v -0.106606 0.201767 0.026485
v -0.078128 0.201794 0.034854
v 0.106606 0.201767 -0.026485
v 0.078128 0.201794 -0.034854
v 0.076084 0.207055 -0.035425
v 0.113952 0.280554 -0.025571
v 0.027870 0.282508 -0.048097
v 0.016317 0.271179 -0.050114
v 0.000000 0.205618 -0.052933
v 0.000000 0.271012 -0.052935
v -0.016317 0.271179 -0.050114
v -0.076084 0.207055 -0.035425
v -0.027870 0.282508 -0.048097
v -0.113952 0.280554 -0.026207
v -0.106606 0.201767 -0.026485
v -0.078128 0.201794 -0.034854
v 0.000000 2.417834 0.000000
v 0.000000 2.354335 0.005934
v 0.012111 2.369532 0.000000
v -0.012111 2.369532 0.000000
v 0.020157 2.324940 0.000000
v -0.020156 2.324940 0.000000
v 0.000000 2.246187 0.010723
v 0.030434 2.247985 0.000000
v -0.030433 2.247985 0.000000
v 0.033933 2.214172 0.000000
v -0.033933 2.214172 0.000000
v 0.009038 2.214171 0.011252
v 0.036503 2.175182 0.000000
v -0.009039 2.214171 0.011252
v -0.036503 2.175182 0.000000
v 0.006016 2.214127 0.008075
v -0.014652 2.175183 0.010356
v -0.039834 2.114607 0.000000
v 0.000000 2.239998 0.008081
v -0.006016 2.214127 0.008075
v 0.000000 2.214171 0.011206
v -0.011525 2.175227 0.008365
v -0.016635 2.114603 0.010253
v -0.050454 1.527092 0.000000
v -0.022847 1.527090 0.012129
v -0.019410 1.527019 0.008501
v -0.013511 2.114488 0.007893
v 0.000000 2.114604 0.014053
v 0.000000 1.527094 0.016605
v 0.019398 1.527019 0.008504
v 0.000000 2.175182 0.012891
v 0.013494 2.114487 0.007898
v 0.022855 1.527091 0.012865
v 0.011508 2.175228 0.008370
v 0.014663 2.175182 0.011295
v 0.039834 2.114607 0.000000
v 0.016646 2.114604 0.011328
v 0.050454 1.527092 0.000000
v 0.012111 2.369532 0.000000
v 0.000000 2.354335 -0.005934
v 0.000000 2.417834 0.000000
v -0.012111 2.369532 0.000000
v 0.020157 2.324940 0.000000
v -0.020156 2.324940 0.000000
v 0.000000 2.246187 -0.010723
v 0.030434 2.247985 0.000000
v -0.030433 2.247985 0.000000
v 0.033933 2.214172 0.000000
v -0.033933 2.214172 0.000000
v 0.009038 2.214171 -0.011252
v 0.036503 2.175182 0.000000
v -0.009039 2.214171 -0.011252
v -0.036503 2.175182 0.000000
v 0.000000 2.239998 -0.008081
v -0.014652 2.175183 -0.010356
v -0.039834 2.114607 0.000000
v -0.006016 2.214127 -0.008075
v 0.006016 2.214127 -0.008075
v 0.000000 2.214171 -0.011206
v 0.011508 2.175228 -0.008370
v 0.014663 2.175182 -0.011295
v 0.039834 2.114607 0.000000
v 0.016646 2.114604 -0.011328
v 0.050454 1.527092 0.000000
v 0.022855 1.527091 -0.012865
v 0.013494 2.114487 -0.007898
v 0.019398 1.527019 -0.008504
v 0.000000 2.175182 -0.012890
v 0.000000 2.114604 -0.014053
v 0.000000 1.527094 -0.016605
v -0.019410 1.527019 -0.008500
v -0.013511 2.114488 -0.007893
v -0.011525 2.175227 -0.008364
v -0.016635 2.114603 -0.010253
v -0.022847 1.527090 -0.012129
v -0.050454 1.527092 0.000000
v 0.038829 -0.004165 0.000000
v 0.039956 0.166093 0.000000
v 0.028253 0.166093 0.028253
v 0.028253 0.166093 -0.028253
v 0.027456 -0.004165 0.027456
v 0.027456 -0.004165 -0.027456
v 0.000000 0.166093 0.039956
v 0.000000 0.166093 -0.039956
v 0.000000 -0.004165 0.038829
v 0.000000 -0.004165 -0.038829
v -0.027456 -0.004165 0.027456
v -0.027456 -0.004165 -0.027456
v -0.028253 0.166093 0.028253
v -0.028253 0.166093 -0.028253
v -0.038829 -0.004165 0.000000
v -0.039956 0.166093 0.000000
v -0.037088 -0.246276 0.000000
v -0.037264 -0.020295 0.000000
v -0.026349 -0.020295 -0.026349
v -0.026349 -0.020295 0.026349
v -0.026225 -0.246276 -0.026225
v -0.026225 -0.246276 0.026225
v 0.000000 -0.020295 -0.037264
v 0.000000 -0.020295 0.037264
v 0.000000 -0.246276 -0.037088
v 0.000000 -0.246276 0.037088
v 0.026225 -0.246276 -0.026225
v 0.026225 -0.246276 0.026225
v 0.026349 -0.020295 -0.026349
v 0.026349 -0.020295 0.026349
v 0.037088 -0.246276 0.000000
v 0.037264 -0.020295 0.000000
v 0.026254 -0.269227 -0.026254
v 0.026254 -0.259587 -0.026254
v 0.037129 -0.259587 0.000000
v 0.000000 -0.259587 -0.037129
v 0.037129 -0.269227 0.000000
v 0.000000 -0.269227 -0.037129
v 0.026254 -0.259587 0.026254
v -0.026254 -0.269227 -0.026254
v 0.026254 -0.269227 0.026254
v -0.026254 -0.259587 -0.026254
v 0.000000 -0.259587 0.037129
v -0.037129 -0.269227 0.000000
v 0.000000 -0.269227 0.037129
v -0.037129 -0.259587 0.000000
v -0.026254 -0.269227 0.026254
v -0.026254 -0.259587 0.026254
v 0.000000 -0.365617 0.000000
v -0.035041 -0.337439 -0.035041
v 0.000000 -0.337439 -0.049555
v -0.049555 -0.337439 0.000000
v 0.035041 -0.337439 -0.035041
v -0.035041 -0.337439 0.035041
v 0.049556 -0.337439 0.000000
v 0.000000 -0.337439 0.049556
v 0.035041 -0.337439 0.035041
v 0.033855 0.207331 0.033856
v 0.000000 0.206024 0.047879
v 0.000000 0.187242 0.043167
v -0.033855 0.207331 0.033856
v 0.030523 0.187242 0.030524
v 0.047879 0.207331 0.000000
v -0.030523 0.187242 0.030524
v -0.047879 0.207331 0.000000
v 0.043167 0.187242 0.000000
v -0.043167 0.187242 0.000000
v 0.030523 0.187242 -0.030523
v 0.033855 0.207331 -0.033855
v 0.043025 0.166717 0.000000
v 0.000000 0.187242 -0.043167
v 0.000000 0.206024 -0.047879
v -0.033855 0.207331 -0.033855
v 0.030423 0.166717 -0.030423
v -0.030523 0.187242 -0.030523
v -0.043025 0.166717 0.000000
v -0.030423 0.166717 -0.030423
v 0.000000 0.166717 -0.043024
v -0.028253 0.166093 -0.028253
v 0.000000 0.166093 -0.039956
v -0.039956 0.166093 0.000000
v 0.028253 0.166093 -0.028253
v -0.028253 0.166093 0.028253
v 0.039956 0.166093 0.000000
v -0.030423 0.166717 0.030423
v 0.000000 0.166093 0.039956
v 0.000000 0.166717 0.043025
v 0.028253 0.166093 0.028253
v 0.030423 0.166717 0.030423
v -0.042612 -0.004853 0.000000
v -0.038829 -0.004165 0.000000
v -0.027456 -0.004165 -0.027456
v -0.030131 -0.004853 -0.030131
v 0.000000 -0.004165 -0.038829
v -0.030131 -0.004853 0.030132
v -0.027456 -0.004165 0.027456
v -0.042612 -0.019639 0.000000
v 0.000000 -0.004853 0.042612
v 0.000000 -0.004165 0.038829
v -0.030131 -0.019639 0.030132
v 0.030131 -0.004853 0.030132
v 0.027456 -0.004165 0.027456
v 0.000000 -0.019639 0.042612
v 0.042612 -0.004853 0.000000
v 0.038829 -0.004165 0.000000
v 0.030131 -0.019639 0.030132
v 0.042612 -0.019639 0.000000
v 0.030131 -0.004853 -0.030131
v 0.027456 -0.004165 -0.027456
v 0.037264 -0.020295 0.000000
v 0.026349 -0.020295 0.026349
v 0.026349 -0.020295 -0.026349
v 0.000000 -0.020295 0.037264
v -0.026349 -0.020295 0.026349
v -0.037264 -0.020295 0.000000
v -0.030131 -0.019639 -0.030131
v -0.026349 -0.020295 -0.026349
v 0.000000 -0.019639 -0.042612
v 0.000000 -0.020295 -0.037264
v 0.000000 -0.004853 -0.042612
v 0.030131 -0.019639 -0.030131
v 0.042612 -0.246978 0.000000
v 0.037088 -0.246276 0.000000
v 0.026225 -0.246276 0.026225
v 0.030131 -0.246978 0.030132
v 0.000000 -0.246276 0.037088
v 0.030131 -0.246978 -0.030131
v 0.026225 -0.246276 -0.026225
v 0.042612 -0.258856 0.000000
v 0.000000 -0.246978 -0.042612
v 0.000000 -0.246276 -0.037088
v 0.030131 -0.258856 -0.030131
v -0.030131 -0.246978 -0.030131
v -0.026225 -0.246276 -0.026225
v 0.000000 -0.258856 -0.042612
v -0.042612 -0.246978 0.000000
v -0.037088 -0.246276 0.000000
v -0.030131 -0.258856 -0.030131
v -0.042612 -0.258856 0.000000
v -0.030131 -0.246978 0.030132
v -0.026225 -0.246276 0.026225
v -0.037129 -0.259587 0.000000
v -0.026254 -0.259587 -0.026254
v -0.026254 -0.259587 0.026254
v 0.000000 -0.259587 -0.037129
v 0.026254 -0.259587 -0.026254
v 0.037129 -0.259587 0.000000
v 0.030131 -0.258856 0.030132
v 0.026254 -0.259587 0.026254
v 0.000000 -0.258856 0.042612
v 0.000000 -0.259587 0.037129
v 0.000000 -0.246978 0.042612
v -0.030131 -0.258856 0.030132
v 0.030131 -0.269972 0.030132
v 0.026254 -0.269227 0.026254
v 0.000000 -0.269227 0.037129
v 0.042612 -0.269972 0.000000
v 0.037129 -0.269227 0.000000
v 0.000000 -0.269972 0.042612
v -0.026254 -0.269227 0.026254
v 0.030225 -0.294485 0.030225
v 0.030131 -0.269972 -0.030131
v 0.026254 -0.269227 -0.026254
v 0.042745 -0.294485 0.000000
v 0.000000 -0.269972 -0.042612
v 0.000000 -0.269227 -0.037129
v 0.030225 -0.294485 -0.030225
v -0.030131 -0.269972 -0.030131
v -0.026254 -0.269227 -0.026254
v 0.000000 -0.294485 -0.042745
v -0.042612 -0.269972 0.000000
v -0.037129 -0.269227 0.000000
v -0.030225 -0.294485 -0.030225
v -0.042745 -0.294485 0.000000
v -0.030131 -0.269972 0.030132
v -0.030225 -0.294485 0.030225
v 0.000000 -0.294485 0.042745
v -0.042958 -0.295407 0.042959
v 0.042958 -0.295407 0.042959
v 0.000000 -0.295407 0.060752
v 0.060752 -0.295407 0.000000
v 0.042958 -0.295407 -0.042958
v 0.060752 -0.336163 0.000000
v 0.042958 -0.336163 0.042959
v 0.049556 -0.337439 0.000000
v 0.035041 -0.337439 0.035041
v 0.035041 -0.337439 -0.035041
v 0.000000 -0.336163 0.060753
v 0.000000 -0.337439 0.049556
v -0.042958 -0.336163 0.042959
v -0.035041 -0.337439 0.035041
v -0.060752 -0.336163 0.000000
v -0.049555 -0.337439 0.000000
v -0.060752 -0.295407 0.000000
v -0.042958 -0.295407 -0.042958
v -0.042958 -0.336163 -0.042958
v -0.035041 -0.337439 -0.035041
v 0.000000 -0.295407 -0.060752
v 0.000000 -0.336163 -0.060752
v 0.000000 -0.337439 -0.049555
v 0.042958 -0.336163 -0.042958
vn -0.2391 0.0006 -0.9710
vn 0.4225 0.0076 -0.9063
vn 0.3995 0.0066 -0.9167
vn 0.3971 0.0066 -0.9178
vn -0.2468 0.0026 -0.9691
vn -0.2389 0.0005 -0.9711
vn 0.3970 0.0067 -0.9178
vn -0.8404 -0.0079 -0.5419
vn -0.3149 -0.0025 -0.9491
vn 0.3740 0.0048 -0.9274
vn -0.2469 -0.0011 -0.9690
vn -0.3151 0.0032 -0.9491
vn -0.0000 0.0043 -1.0000
vn 0.3190 -0.0021 -0.9477
vn -0.3853 0.0048 -0.9228
vn 0.2057 0.0060 -0.9786
vn 0.1991 0.0004 -0.9800
vn 0.2057 -0.0010 -0.9786
vn 0.3189 -0.0063 -0.9478
vn 0.2847 0.0001 -0.9586
vn -0.3996 0.0072 -0.9167
vn -0.4022 0.0073 -0.9155
vn -0.9957 -0.0928 -0.0000
vn 0.9957 -0.0928 -0.0000
vn 0.3999 0.0066 0.9165
vn 0.4225 0.0076 0.9063
vn -0.2313 0.0006 0.9729
vn -0.2846 -0.0008 0.9586
vn -0.2484 -0.0011 0.9687
vn -0.3150 -0.0025 0.9491
vn -0.0000 0.0052 1.0000
vn -0.0000 0.0043 1.0000
vn 0.3147 -0.0020 0.9492
vn 0.2057 -0.0011 0.9786
vn 0.1991 0.0004 0.9800
vn 0.2847 0.0001 0.9586
vn -0.3996 0.0072 0.9167
vn -0.4022 0.0073 0.9155
vn 0.0227 0.9997 -0.0000
vn -0.4166 0.9091 -0.0000
vn -0.0589 0.9983 -0.0000
vn -0.3260 0.9454 -0.0000
vn -0.7002 0.7140 -0.0000
vn -0.3483 0.9374 -0.0000
vn -0.3481 0.9374 -0.0000
vn -0.3258 0.9454 -0.0000
vn -0.0000 1.0000 -0.0000
vn 0.3482 0.9374 -0.0000
vn 0.4156 0.9096 -0.0000
vn -0.0227 0.9997 -0.0000
vn 0.0010 -1.0000 -0.0000
vn 0.6363 -0.7714 -0.0000
vn 0.4976 -0.8674 -0.0000
vn -0.0000 -1.0000 -0.0000
vn -0.4976 -0.8674 -0.0000
vn -0.6363 -0.7714 -0.0000
vn -0.0010 -1.0000 -0.0000
vn 0.2599 -0.0072 0.9656
vn 0.2820 0.0054 0.9594
vn 0.2790 -0.0129 0.9602
vn 0.2599 -0.0045 0.9656
vn 0.2243 -0.0203 0.9743
vn 0.1981 -0.0173 0.9800
vn -0.0000 -0.0120 0.9999
vn -0.0000 -0.0000 1.0000
vn -0.1981 -0.0173 0.9800
vn -0.2504 -0.0155 0.9680
vn -0.2215 -0.0222 0.9749
vn -0.2546 -0.0099 0.9670
vn -0.2774 -0.0225 0.9605
vn -0.2820 0.0054 0.9594
vn 0.2790 -0.0129 -0.9602
vn 0.2820 0.0054 -0.9594
vn 0.2599 -0.0072 -0.9656
vn 0.2599 -0.0045 -0.9656
vn 0.2243 -0.0203 -0.9743
vn 0.1981 -0.0173 -0.9800
vn -0.0000 -0.0120 -0.9999
vn -0.0000 -0.0000 -1.0000
vn -0.1981 -0.0173 -0.9800
vn -0.2578 -0.0106 -0.9661
vn -0.2215 -0.0222 -0.9749
vn -0.2546 -0.0099 -0.9670
vn -0.2779 -0.0197 -0.9604
vn -0.2820 0.0054 -0.9594
vn -0.0000 0.0930 0.9957
vn -0.0000 0.0709 0.9975
vn 0.3544 0.0813 0.9316
vn -0.3544 0.0813 0.9316
vn 0.3413 0.0456 0.9388
vn -0.3413 0.0456 0.9388
vn -0.0003 0.0216 0.9998
vn 0.3300 0.0389 0.9432
vn -0.3300 0.0389 0.9432
vn 0.3922 0.0534 0.9183
vn -0.3922 0.0534 0.9183
vn -0.1599 -0.0247 0.9868
vn 0.4502 0.0380 0.8921
vn 0.1662 -0.0296 0.9856
vn -0.4250 0.0293 0.9047
vn -0.1803 -0.0408 0.9828
vn 0.0513 -0.0065 0.9987
vn -0.4071 0.0109 0.9133
vn -0.0349 -0.3228 0.9458
vn 0.1734 -0.0381 0.9841
vn -0.0000 0.0962 0.9954
vn 0.1100 -0.0139 0.9938
vn 0.1110 -0.0034 0.9938
vn -0.4023 0.0072 0.9155
vn 0.1971 0.0010 0.9804
vn 0.2076 -0.0009 0.9782
vn 0.1143 -0.0031 0.9934
vn 0.0001 0.0124 0.9999
vn -0.2510 -0.0020 0.9680
vn -0.0000 0.0250 0.9997
vn 0.0336 -0.0013 0.9994
vn -0.7836 -0.0072 0.6212
vn -0.2016 -0.0256 0.9791
vn -0.1172 -0.0072 0.9931
vn 0.4414 0.0126 0.8972
vn 0.0587 -0.0003 0.9983
vn 0.4181 0.0067 0.9084
vn -0.7361 -0.0060 0.6769
vn 0.4229 0.0069 0.9061
vn 0.4181 0.0068 0.9084
vn 0.3544 0.0813 -0.9316
vn -0.0000 0.0709 -0.9975
vn -0.0000 0.0930 -0.9957
vn -0.3544 0.0813 -0.9316
vn 0.3413 0.0456 -0.9388
vn -0.3413 0.0456 -0.9388
vn -0.0003 0.0216 -0.9998
vn 0.3300 0.0389 -0.9432
vn -0.3300 0.0389 -0.9432
vn 0.3922 0.0534 -0.9183
vn -0.3922 0.0534 -0.9183
vn -0.1599 -0.0247 -0.9868
vn 0.4502 0.0380 -0.8921
vn 0.1662 -0.0296 -0.9856
vn -0.4250 0.0293 -0.9047
vn -0.0349 -0.3228 -0.9458
vn 0.0513 -0.0065 -0.9987
vn -0.4071 0.0109 -0.9133
vn 0.1734 -0.0381 -0.9841
vn -0.1803 -0.0408 -0.9828
vn -0.0000 0.0962 -0.9954
vn -0.2016 -0.0256 -0.9791
vn -0.1172 -0.0072 -0.9931
vn 0.4414 0.0126 -0.8972
vn -0.1814 -0.0021 -0.9834
vn 0.4229 0.0069 -0.9061
vn -0.2289 -0.0002 -0.9734
vn -0.2028 -0.0029 -0.9792
vn -0.2510 -0.0020 -0.9680
vn -0.0000 0.0250 -0.9997
vn 0.0001 0.0124 -0.9999
vn 0.2076 -0.0009 -0.9782
vn 0.1143 -0.0031 -0.9934
vn 0.1100 -0.0139 -0.9938
vn 0.1110 -0.0034 -0.9938
vn 0.1971 0.0010 -0.9804
vn -0.4023 0.0072 -0.9155
vn 1.0000 -0.0066 -0.0000
vn 0.7071 -0.0066 0.7071
vn 0.7071 -0.0066 -0.7071
vn -0.0000 -0.0066 1.0000
vn -0.0000 -0.0066 -1.0000
vn -0.7071 -0.0066 0.7071
vn -0.7071 -0.0066 -0.7071
vn -1.0000 -0.0066 -0.0000
vn -1.0000 -0.0008 -0.0000
vn -0.7071 -0.0008 -0.7071
vn -0.7071 -0.0008 0.7071
vn -0.0000 -0.0008 -1.0000
vn -0.0000 -0.0008 1.0000
vn 0.7071 -0.0008 -0.7071
vn 0.7071 -0.0008 0.7071
vn 1.0000 -0.0008 -0.0000
vn 0.7071 -0.0000 -0.7071
vn 1.0000 -0.0000 -0.0000
vn 0.7071 -0.0000 0.7071
vn -0.7071 -0.0000 -0.7071
vn -1.0000 -0.0000 -0.0000
vn -0.7071 -0.0000 0.7071
vn -0.3495 -0.8693 -0.3495
vn -0.0000 -0.8693 -0.4943
vn -0.4943 -0.8693 -0.0000
vn 0.3495 -0.8693 -0.3495
vn -0.3495 -0.8693 0.3495
vn 0.4943 -0.8693 -0.0000
vn -0.0000 -0.8693 0.4943
vn 0.3495 -0.8693 0.3495
vn 0.6925 -0.2307 0.6835
vn -0.0000 -0.2434 0.9699
vn -0.0000 -0.1272 0.9919
vn -0.6925 -0.2307 0.6835
vn 0.7019 -0.1217 0.7018
vn 0.9736 -0.2284 -0.0000
vn -0.7019 -0.1217 0.7018
vn -0.9736 -0.2284 0.0001
vn 0.9926 -0.1217 -0.0000
vn -0.9029 -0.2118 0.3740
vn 0.7855 -0.1569 -0.5986
vn 0.6925 -0.2307 -0.6835
vn 0.8223 -0.5690 -0.0000
vn -0.0392 -0.1383 -0.9896
vn -0.0000 -0.2434 -0.9699
vn -0.6925 -0.2307 -0.6835
vn 0.3827 -0.0064 -0.9239
vn 0.5815 -0.5691 -0.5814
vn -0.7019 -0.1217 -0.7018
vn -0.9736 -0.2284 -0.0001
vn -0.9867 -0.0834 -0.1392
vn -0.8223 -0.5690 -0.0000
vn -0.5815 -0.5690 -0.5815
vn -0.0000 -0.5690 -0.8223
vn -0.1408 -0.9800 -0.1408
vn -0.0000 -0.9800 -0.1991
vn -0.1991 -0.9800 -0.0000
vn 0.1408 -0.9800 -0.1408
vn -0.1408 -0.9800 0.1408
vn 0.1992 -0.9800 -0.0000
vn -0.5815 -0.5690 0.5815
vn -0.0000 -0.9800 0.1991
vn -0.0000 -0.5690 0.8223
vn 0.1408 -0.9800 0.1408
vn 0.5815 -0.5690 0.5815
vn -0.8196 0.5730 -0.0000
vn -0.1790 0.9838 -0.0000
vn -0.1266 0.9838 -0.1266
vn -0.5795 0.5730 -0.5795
vn -0.0000 0.9838 -0.1790
vn -0.5795 0.5730 0.5795
vn -0.1266 0.9838 0.1266
vn -0.8061 -0.5918 -0.0000
vn -0.0000 0.5730 0.8196
vn -0.0000 0.9838 0.1790
vn -0.5700 -0.5918 0.5700
vn 0.5795 0.5730 0.5795
vn 0.1266 0.9838 0.1266
vn -0.0000 -0.5918 0.8061
vn 0.8196 0.5730 -0.0000
vn 0.1790 0.9838 -0.0000
vn 0.5700 -0.5918 0.5700
vn 0.8061 -0.5918 -0.0000
vn 0.5795 0.5730 -0.5795
vn 0.1266 0.9838 -0.1266
vn 0.1217 -0.9926 -0.0000
vn 0.0861 -0.9926 0.0860
vn 0.0860 -0.9926 -0.0861
vn -0.0000 -0.9926 0.1217
vn -0.0860 -0.9926 0.0861
vn -0.1217 -0.9926 -0.0000
vn -0.5700 -0.5918 -0.5700
vn -0.0861 -0.9926 -0.0860
vn -0.0000 -0.5918 -0.8061
vn -0.0000 -0.9926 -0.1217
vn -0.0000 0.5730 -0.8196
vn 0.5700 -0.5918 -0.5700
vn 0.8071 0.5904 -0.0000
vn 0.1261 0.9920 -0.0000
vn 0.0892 0.9920 0.0892
vn 0.5707 0.5904 0.5707
vn -0.0000 0.9920 0.1261
vn 0.5707 0.5904 -0.5707
vn 0.0892 0.9920 -0.0892
vn 0.8086 -0.5884 -0.0000
vn -0.0000 0.5904 -0.8071
vn -0.0000 0.9920 -0.1261
vn 0.5717 -0.5884 -0.5717
vn -0.5707 0.5904 -0.5707
vn -0.0892 0.9920 -0.0892
vn -0.0000 -0.5884 -0.8086
vn -0.8071 0.5904 -0.0000
vn -0.1261 0.9920 -0.0000
vn -0.5717 -0.5884 -0.5717
vn -0.8085 -0.5884 -0.0000
vn -0.5707 0.5904 0.5707
vn -0.0892 0.9920 0.0892
vn -0.1322 -0.9912 -0.0000
vn -0.0935 -0.9912 -0.0934
vn -0.0934 -0.9912 0.0935
vn -0.0000 -0.9912 -0.1322
vn 0.0934 -0.9912 -0.0935
vn 0.1322 -0.9912 -0.0000
vn 0.5717 -0.5884 0.5717
vn 0.0934 -0.9912 0.0934
vn -0.0000 -0.5884 0.8086
vn -0.0000 -0.9912 0.1322
vn -0.0000 0.5904 0.8071
vn -0.5717 -0.5884 0.5717
vn 0.5711 0.5897 0.5711
vn 0.0953 0.9909 0.0953
vn -0.0000 0.9909 0.1348
vn 0.8076 0.5897 -0.0000
vn 0.1348 0.9909 -0.0000
vn -0.0000 0.5897 0.8076
vn -0.0953 0.9909 0.0953
vn 0.4375 0.7856 0.4375
vn 0.5711 0.5897 -0.5711
vn 0.0953 0.9909 -0.0953
vn 0.6187 0.7856 -0.0000
vn -0.0000 0.5897 -0.8076
vn -0.0000 0.9909 -0.1348
vn 0.4375 0.7856 -0.4375
vn -0.5711 0.5897 -0.5711
vn -0.0953 0.9909 -0.0953
vn -0.0000 0.7856 -0.6187
vn -0.8076 0.5897 -0.0000
vn -0.1348 0.9909 -0.0000
vn -0.4375 0.7856 -0.4375
vn -0.6187 0.7856 -0.0000
vn -0.5711 0.5897 0.5711
vn -0.4375 0.7856 0.4375
vn -0.0000 0.7856 0.6187
vn -0.5579 0.6143 0.5579
vn 0.5579 0.6143 0.5579
vn -0.0000 0.6143 0.7891
vn 0.7890 0.6143 -0.0000
vn 0.5579 0.6143 -0.5579
vn 0.8041 -0.5945 -0.0000
vn 0.5685 -0.5946 0.5686
vn 0.1132 -0.9936 -0.0000
vn 0.0800 -0.9936 0.0800
vn 0.0800 -0.9936 -0.0800
vn -0.0000 -0.5946 0.8040
vn -0.0000 -0.9936 0.1132
vn -0.5685 -0.5946 0.5686
vn -0.0800 -0.9936 0.0800
vn -0.8041 -0.5945 -0.0000
vn -0.1132 -0.9936 -0.0000
vn -0.7890 0.6143 -0.0000
vn -0.5579 0.6143 -0.5579
vn -0.5685 -0.5946 -0.5686
vn -0.0800 -0.9936 -0.0800
vn -0.0000 0.6143 -0.7891
vn -0.0000 -0.5946 -0.8040
vn -0.0000 -0.9936 -0.1132
vn 0.5685 -0.5946 -0.5686
vt 0.784786 0.993860
vt 0.707296 0.993861
vt 0.706905 0.012365
vt 0.785496 0.012365
vt 0.800272 0.993806
vt 0.800272 0.012373
vt 0.850673 0.993864
vt 0.850673 0.012374
vt 0.901794 0.012373
vt 0.902144 0.993807
vt 0.914574 0.993860
vt 0.914130 0.012365
vt 0.994337 0.012365
vt 0.993946 0.993861
vt 0.255313 0.703091
vt 0.141931 0.703091
vt 0.141931 0.811808
vt 0.255313 0.811808
vt 0.133872 0.812648
vt 0.133872 0.703036
vt 0.020493 0.703036
vt 0.020491 0.812648
vt 0.267993 0.823053
vt 0.267993 0.751235
vt 0.380039 0.751235
vt 0.380041 0.823053
vt 0.399974 0.751235
vt 0.399974 0.823053
vt 0.420687 0.751235
vt 0.420687 0.823053
vt 0.442414 0.823053
vt 0.442414 0.751235
vt 0.460113 0.751235
vt 0.460115 0.823053
vt 0.572274 0.823052
vt 0.572274 0.751234
vt 0.267356 0.746031
vt 0.267354 0.701139
vt 0.299216 0.701139
vt 0.299216 0.746031
vt 0.313476 0.701139
vt 0.313476 0.746031
vt 0.391112 0.746031
vt 0.391112 0.701139
vt 0.468749 0.701139
vt 0.468749 0.746031
vt 0.481149 0.701139
vt 0.481149 0.746031
vt 0.511243 0.701139
vt 0.511245 0.746031
vt 0.122634 0.829385
vt 0.116427 0.819030
vt 0.018801 0.818970
vt 0.018801 0.991701
vt 0.269032 0.991701
vt 0.304110 0.969163
vt 0.353658 0.829385
vt 0.353658 0.969163
vt 0.403205 0.969163
vt 0.584682 0.829385
vt 0.438283 0.991701
vt 0.688514 0.991701
vt 0.688514 0.818970
vt 0.590889 0.819030
vt 0.549109 0.652708
vt 0.549109 0.607437
vt 0.503180 0.618271
vt 0.590092 0.618271
vt 0.474308 0.586480
vt 0.618965 0.586480
vt 0.549109 0.531281
vt 0.437433 0.531615
vt 0.655842 0.531615
vt 0.424874 0.507509
vt 0.668398 0.507509
vt 0.511360 0.507508
vt 0.415652 0.479711
vt 0.581917 0.507508
vt 0.677621 0.479711
vt 0.529160 0.507477
vt 0.601583 0.479712
vt 0.692106 0.436525
vt 0.549109 0.521065
vt 0.564249 0.507477
vt 0.549178 0.507508
vt 0.585876 0.479744
vt 0.612208 0.436522
vt 0.692499 0.010503
vt 0.612501 0.010501
vt 0.600585 0.010456
vt 0.600618 0.436440
vt 0.549178 0.436523
vt 0.549178 0.010505
vt 0.499110 0.010456
vt 0.549178 0.479711
vt 0.499110 0.436439
vt 0.483639 0.010501
vt 0.507591 0.479744
vt 0.491650 0.479711
vt 0.405801 0.436525
vt 0.483639 0.436523
vt 0.405411 0.010503
vt 0.023360 0.445818
vt 0.023360 0.637675
vt 0.112034 0.637675
vt 0.112420 0.637675
vt 0.112034 0.445818
vt 0.112420 0.445818
vt 0.201094 0.637675
vt 0.201482 0.637675
vt 0.201094 0.445818
vt 0.201482 0.445818
vt 0.290154 0.445818
vt 0.290457 0.445818
vt 0.290154 0.637675
vt 0.290457 0.637675
vt 0.379324 0.445818
vt 0.379324 0.637675
vt 0.379324 0.162205
vt 0.379324 0.404223
vt 0.290457 0.404223
vt 0.290154 0.404223
vt 0.290457 0.162205
vt 0.290154 0.162205
vt 0.201482 0.404223
vt 0.201094 0.404223
vt 0.201482 0.162205
vt 0.201094 0.162205
vt 0.112420 0.162205
vt 0.112034 0.162205
vt 0.112420 0.404223
vt 0.112034 0.404223
vt 0.023360 0.162205
vt 0.023360 0.404223
vt 0.112420 0.115186
vt 0.112420 0.127171
vt 0.023360 0.127171
vt 0.201482 0.127171
vt 0.023360 0.115186
vt 0.201482 0.115186
vt 0.112034 0.127171
vt 0.290457 0.115186
vt 0.112034 0.115186
vt 0.290457 0.127171
vt 0.201094 0.127171
vt 0.379324 0.115186
vt 0.201094 0.115186
vt 0.379324 0.127171
vt 0.290154 0.115186
vt 0.290154 0.127171
vt 0.608118 0.697777
vt 0.670965 0.729165
vt 0.608118 0.742166
vt 0.696996 0.697777
vt 0.545271 0.729165
vt 0.670965 0.666389
vt 0.519238 0.697777
vt 0.608118 0.653388
vt 0.545271 0.666389
vt 0.112034 0.694309
vt 0.201094 0.694309
vt 0.201094 0.671783
vt 0.290154 0.694309
vt 0.112034 0.671783
vt 0.023360 0.694309
vt 0.290154 0.671783
vt 0.379324 0.694309
vt 0.023360 0.671783
vt 0.379324 0.671783
vt 0.112420 0.671783
vt 0.112420 0.694309
vt 0.023360 0.647165
vt 0.201482 0.671783
vt 0.201482 0.694309
vt 0.290457 0.694309
vt 0.112420 0.647165
vt 0.290457 0.671783
vt 0.379324 0.647165
vt 0.290457 0.647165
vt 0.201482 0.647165
vt 0.290154 0.647165
vt 0.201094 0.647165
vt 0.112034 0.647165
vt 0.379324 0.434134
vt 0.290457 0.434134
vt 0.290154 0.434134
vt 0.379324 0.416400
vt 0.201094 0.434134
vt 0.290154 0.416400
vt 0.112034 0.434134
vt 0.201094 0.416400
vt 0.023360 0.434134
vt 0.112034 0.416400
vt 0.023360 0.416400
vt 0.112420 0.434134
vt 0.290457 0.416400
vt 0.201482 0.416400
vt 0.201482 0.434134
vt 0.112420 0.416400
vt 0.023360 0.151252
vt 0.112034 0.151252
vt 0.112420 0.151252
vt 0.023360 0.135738
vt 0.201482 0.151252
vt 0.112420 0.135738
vt 0.290457 0.151252
vt 0.201482 0.135738
vt 0.379324 0.151252
vt 0.290457 0.135738
vt 0.379324 0.135738
vt 0.290154 0.151252
vt 0.112034 0.135738
vt 0.201094 0.135738
vt 0.201094 0.151252
vt 0.290154 0.135738
vt 0.112034 0.107882
vt 0.023360 0.107882
vt 0.201094 0.107882
vt 0.112034 0.078482
vt 0.112420 0.107882
vt 0.023360 0.078482
vt 0.201482 0.107882
vt 0.112420 0.078482
vt 0.290457 0.107882
vt 0.201482 0.078482
vt 0.379324 0.107882
vt 0.290457 0.078482
vt 0.379324 0.078482
vt 0.290154 0.107882
vt 0.290154 0.078482
vt 0.201094 0.078482
vt 0.290154 0.067296
vt 0.112034 0.067296
vt 0.201094 0.067296
vt 0.023360 0.067296
vt 0.112420 0.067296
vt 0.023360 0.021094
vt 0.112034 0.021094
vt 0.023360 0.011223
vt 0.112034 0.011223
vt 0.112420 0.011223
vt 0.201094 0.021094
vt 0.201094 0.011223
vt 0.290154 0.021094
vt 0.290154 0.011223
vt 0.379324 0.021094
vt 0.379324 0.011223
vt 0.379324 0.067296
vt 0.290457 0.067296
vt 0.290457 0.021094
vt 0.290457 0.011223
vt 0.201482 0.067296
vt 0.201482 0.021094
vt 0.201482 0.011223
vt 0.112420 0.021094
s 1
usemtl 材质
f 1/1/1 2/2/2 3/3/2
f 3/3/3 4/4/4 1/1/3
f 5/5/5 1/1/6 4/4/7
f 4/4/8 6/6/9 5/5/8
f 7/7/10 5/5/11 6/6/12
f 6/6/12 8/8/13 7/7/10
f 7/7/10 8/8/13 9/9/14
f 9/9/15 10/10/16 7/7/15
f 11/11/17 10/10/18 9/9/19
f 9/9/19 12/12/20 11/11/17
f 11/11/17 12/12/20 13/13/21
f 13/13/21 14/14/22 11/11/17
f 15/15/23 16/16/23 17/17/23
f 17/17/23 18/18/23 15/15/23
f 19/19/24 20/20/24 21/21/24
f 21/21/24 22/22/24 19/19/24
f 23/3/25 24/2/26 25/1/27
f 25/1/27 26/4/28 23/3/25
f 26/4/28 25/1/27 27/5/29
f 27/5/29 28/6/30 26/4/28
f 28/6/30 27/5/29 29/7/31
f 29/7/31 30/8/32 28/6/30
f 31/9/33 30/8/32 29/7/31
f 29/7/31 32/10/34 31/9/33
f 31/9/33 32/10/34 33/11/35
f 33/11/35 34/12/36 31/9/33
f 35/13/37 34/12/36 33/11/35
f 33/11/35 36/14/38 35/13/37
f 37/23/39 38/24/39 39/25/40
f 39/25/40 40/26/41 37/23/39
f 40/26/41 39/25/40 41/27/42
f 41/27/43 42/28/44 40/26/43
f 42/28/45 41/27/46 43/29/47
f 43/29/47 44/30/47 42/28/45
f 45/31/48 44/30/47 43/29/47
f 43/29/47 46/32/48 45/31/48
f 45/31/48 46/32/48 47/33/49
f 47/33/49 48/34/49 45/31/48
f 49/35/50 48/34/49 47/33/49
f 47/33/49 50/36/50 49/35/50
f 51/37/51 52/38/51 53/39/52
f 53/39/52 54/40/52 51/37/51
f 54/40/52 53/39/52 55/41/53
f 55/41/53 56/42/53 54/40/52
f 57/43/54 56/42/53 55/41/53
f 55/41/53 58/44/54 57/43/54
f 57/43/54 58/44/54 59/45/55
f 59/45/55 60/46/55 57/43/54
f 60/46/55 59/45/55 61/47/56
f 61/47/56 62/48/56 60/46/55
f 62/48/56 61/47/56 63/49/57
f 63/49/57 64/50/57 62/48/56
f 65/51/58 66/52/59 67/53/60
f 67/53/60 68/54/61 65/51/58
f 68/54/61 69/55/62 65/51/58
f 65/51/58 69/55/62 70/56/63
f 70/56/63 71/57/64 65/51/58
f 72/58/65 71/57/64 70/56/63
f 73/59/66 71/57/64 72/58/65
f 74/60/67 71/57/64 73/59/66
f 73/59/66 75/61/68 74/60/67
f 76/62/69 74/60/67 75/61/68
f 74/60/67 76/62/69 77/63/70
f 77/63/71 78/64/71 74/60/71
f 79/53/72 80/52/73 81/51/74
f 81/51/74 82/54/75 79/53/72
f 81/51/74 83/55/76 82/54/75
f 84/56/77 83/55/76 81/51/74
f 81/51/74 85/57/78 84/56/77
f 84/56/77 85/57/78 86/58/79
f 86/58/79 85/57/78 87/59/80
f 87/59/80 85/57/78 88/60/81
f 88/60/81 89/61/82 87/59/80
f 89/61/82 88/60/81 90/62/83
f 91/63/84 90/62/83 88/60/81
f 88/60/81 92/64/85 91/63/84
f 93/65/86 94/66/87 95/67/88
f 93/65/86 96/68/89 94/66/87
f 95/67/88 94/66/87 97/69/90
f 96/68/89 98/70/91 94/66/87
f 97/69/90 94/66/87 99/71/92
f 99/71/92 94/66/87 98/70/91
f 99/71/92 100/72/93 97/69/90
f 98/70/91 101/73/94 99/71/92
f 102/74/95 100/72/93 99/71/92
f 99/71/92 101/73/94 103/75/96
f 99/71/92 104/76/97 102/74/95
f 105/77/98 102/74/95 104/76/97
f 103/75/96 106/78/99 99/71/92
f 106/78/99 103/75/96 107/79/100
f 108/80/101 104/76/97 99/71/92
f 107/79/100 109/81/102 106/78/99
f 109/81/102 107/79/100 110/82/103
f 111/83/104 99/71/92 106/78/99
f 99/71/92 111/83/104 108/80/101
f 106/78/99 112/84/105 111/83/104
f 112/84/105 106/78/99 109/81/102
f 111/83/104 113/85/106 108/80/101
f 113/85/106 111/83/104 112/84/105
f 109/81/102 114/86/107 112/84/105
f 113/85/106 112/84/105 114/86/107
f 110/82/103 115/87/108 109/81/102
f 114/86/107 109/81/102 115/87/108
f 115/87/108 110/82/103 116/88/109
f 116/88/109 117/89/110 115/87/108
f 115/87/108 117/89/110 118/90/111
f 118/90/111 119/91/112 115/87/108
f 115/87/108 119/91/112 114/86/107
f 120/92/113 119/91/112 118/90/111
f 118/90/111 121/93/32 120/92/113
f 120/92/113 121/93/32 122/94/114
f 123/95/115 114/86/107 119/91/112
f 119/91/112 120/92/113 123/95/115
f 114/86/107 123/95/115 113/85/106
f 122/94/114 124/96/116 120/92/113
f 123/95/115 120/92/113 124/96/116
f 124/96/116 122/94/114 125/97/117
f 113/85/106 123/95/115 126/98/118
f 124/96/116 126/98/118 123/95/115
f 126/98/118 108/80/101 113/85/106
f 104/76/97 108/80/101 126/98/118
f 126/98/118 127/99/119 104/76/97
f 127/99/119 126/98/118 124/96/116
f 104/76/97 127/99/119 105/77/98
f 128/100/120 105/77/98 127/99/119
f 124/96/116 129/101/121 127/99/119
f 127/99/119 129/101/121 128/100/120
f 125/97/122 129/101/123 124/96/123
f 130/102/124 128/100/120 129/101/121
f 129/101/121 125/97/125 130/102/124
f 131/67/126 132/66/127 133/65/128
f 132/66/127 134/68/129 133/65/128
f 135/69/130 132/66/127 131/67/126
f 132/66/127 136/70/131 134/68/129
f 137/71/132 132/66/127 135/69/130
f 136/70/131 132/66/127 137/71/132
f 135/69/130 138/72/133 137/71/132
f 137/71/132 139/73/134 136/70/131
f 137/71/132 138/72/133 140/74/135
f 141/75/136 139/73/134 137/71/132
f 140/74/135 142/76/137 137/71/132
f 142/76/137 140/74/135 143/77/138
f 137/71/132 144/78/139 141/75/136
f 145/79/140 141/75/136 144/78/139
f 144/78/139 137/71/132 146/83/141
f 144/78/139 147/81/142 145/79/140
f 148/82/143 145/79/140 147/81/142
f 146/83/141 149/84/144 144/78/139
f 147/81/142 144/78/139 149/84/144
f 150/80/145 146/83/141 137/71/132
f 137/71/132 142/76/137 150/80/145
f 149/84/144 146/83/141 151/85/146
f 150/80/145 151/85/146 146/83/141
f 152/98/147 150/80/145 142/76/137
f 151/85/146 150/80/145 152/98/147
f 142/76/137 153/99/148 152/98/147
f 143/77/138 153/99/148 142/76/137
f 153/99/148 143/77/138 154/100/149
f 154/100/149 155/101/150 153/99/148
f 155/101/150 154/100/149 156/102/151
f 156/102/151 157/97/152 155/101/150
f 153/99/148 155/101/150 158/96/153
f 158/96/153 155/101/150 157/97/152
f 158/96/153 152/98/147 153/99/148
f 157/97/152 159/94/154 158/96/153
f 160/95/155 152/98/147 158/96/153
f 152/98/147 160/95/155 151/85/146
f 161/92/156 158/96/153 159/94/154
f 158/96/153 161/92/156 160/95/155
f 159/94/154 162/93/13 161/92/156
f 161/92/156 162/93/13 163/90/157
f 160/95/155 161/92/156 164/91/158
f 163/90/157 164/91/158 161/92/156
f 151/85/146 160/95/155 165/86/159
f 164/91/158 165/86/159 160/95/155
f 165/86/159 149/84/144 151/85/146
f 149/84/144 165/86/159 147/81/142
f 165/86/159 164/91/158 166/87/160
f 166/87/160 147/81/142 165/86/159
f 166/87/160 164/91/158 163/90/157
f 147/81/142 166/87/160 148/82/143
f 163/90/157 167/89/161 166/87/160
f 168/88/162 148/82/143 166/87/160
f 166/87/160 167/89/161 168/88/162
f 169/103/163 170/104/163 171/105/164
f 172/106/165 170/104/163 169/103/163
f 171/105/164 173/107/164 169/103/163
f 169/103/163 174/108/165 172/106/165
f 173/107/164 171/105/164 175/109/166
f 176/110/167 172/106/165 174/108/165
f 175/109/166 177/111/166 173/107/164
f 174/108/165 178/112/167 176/110/167
f 179/113/168 177/111/166 175/109/166
f 176/110/167 178/112/167 180/114/169
f 175/109/166 181/115/168 179/113/168
f 180/114/169 182/116/169 176/110/167
f 183/117/170 179/113/168 181/115/168
f 182/116/169 180/114/169 183/117/170
f 181/115/168 184/118/170 183/117/170
f 183/117/170 184/118/170 182/116/169
f 185/119/171 186/120/171 187/121/172
f 188/122/173 186/120/171 185/119/171
f 187/121/172 189/123/172 185/119/171
f 185/119/171 190/124/173 188/122/173
f 189/123/172 187/121/172 191/125/174
f 192/126/175 188/122/173 190/124/173
f 191/125/174 193/127/174 189/123/172
f 190/124/173 194/128/175 192/126/175
f 195/129/176 193/127/174 191/125/174
f 192/126/175 194/128/175 196/130/177
f 191/125/174 197/131/176 195/129/176
f 196/130/177 198/132/177 192/126/175
f 199/133/178 195/129/176 197/131/176
f 198/132/177 196/130/177 199/133/178
f 197/131/176 200/134/178 199/133/178
f 199/133/178 200/134/178 198/132/177
f 201/135/179 202/136/179 203/137/180
f 204/138/79 202/136/179 201/135/179
f 203/137/180 205/139/180 201/135/179
f 201/135/179 206/140/79 204/138/79
f 205/139/180 203/137/180 207/141/181
f 204/138/79 206/140/79 208/142/182
f 207/141/181 209/143/181 205/139/180
f 208/142/182 210/144/182 204/138/79
f 209/143/181 207/141/181 211/145/65
f 210/144/182 208/142/182 212/146/183
f 211/145/65 213/147/65 209/143/181
f 212/146/183 214/148/183 210/144/182
f 215/149/184 213/147/65 211/145/65
f 216/150/184 214/148/183 212/146/183
f 211/145/65 216/150/184 215/149/184
f 212/146/183 215/149/184 216/150/184
f 217/151/54 218/152/185 219/153/186
f 217/151/54 220/154/187 218/152/185
f 217/151/54 219/153/186 221/155/188
f 217/151/54 222/156/189 220/154/187
f 217/151/54 221/155/188 223/157/190
f 222/156/189 217/151/54 224/158/191
f 217/151/54 223/157/190 225/159/192
f 217/151/54 225/159/192 224/158/191
f 226/160/193 227/161/194 228/162/195
f 228/162/195 227/161/194 229/163/196
f 228/162/195 230/164/197 226/160/193
f 231/165/198 226/160/193 230/164/197
f 229/163/196 232/166/199 228/162/195
f 232/166/199 229/163/196 233/167/200
f 230/164/197 234/168/201 231/165/198
f 233/167/200 235/169/202 232/166/199
f 231/165/198 234/168/201 236/170/203
f 236/170/203 237/171/204 231/165/198
f 236/170/203 234/168/201 238/172/205
f 238/172/205 234/168/201 230/164/197
f 237/171/204 236/170/203 239/173/206
f 239/173/206 240/174/207 237/171/204
f 241/175/208 240/174/207 239/173/206
f 239/173/209 236/170/209 242/176/210
f 238/172/205 242/176/210 236/170/203
f 239/173/206 243/177/211 241/175/208
f 233/167/212 241/175/208 243/177/211
f 243/177/211 235/169/213 233/167/212
f 244/178/214 235/169/213 243/177/211
f 232/166/199 235/169/213 244/178/214
f 245/179/215 243/177/211 239/173/206
f 243/177/211 245/179/215 244/178/214
f 239/173/206 246/180/216 245/179/215
f 242/176/210 246/180/216 239/173/206
f 247/116/217 245/179/215 246/180/216
f 246/180/216 248/110/218 247/116/217
f 248/110/218 246/180/216 242/176/210
f 245/179/215 247/116/217 249/118/219
f 249/118/219 244/178/214 245/179/215
f 242/176/210 250/106/220 248/110/218
f 244/178/214 249/118/219 251/115/221
f 250/106/220 242/176/210 238/172/205
f 238/172/205 252/104/222 250/106/220
f 251/115/221 253/181/223 244/178/214
f 244/178/214 253/181/223 232/166/199
f 253/181/223 251/115/221 254/109/224
f 228/162/195 232/166/199 253/181/223
f 254/109/224 255/182/225 253/181/223
f 253/181/223 255/182/225 228/162/195
f 255/182/225 254/109/224 256/105/226
f 228/162/195 255/182/225 257/183/227
f 256/105/226 257/183/227 255/182/225
f 257/183/227 256/105/226 252/104/222
f 252/104/222 238/172/205 257/183/227
f 257/183/227 230/164/197 228/162/195
f 230/164/197 257/183/227 238/172/205
f 258/184/228 259/117/229 260/114/230
f 260/114/230 261/185/231 258/184/228
f 261/185/231 260/114/230 262/112/232
f 259/117/229 258/184/228 263/186/233
f 263/186/233 264/113/234 259/117/229
f 263/186/233 258/184/228 265/187/235
f 265/187/235 258/184/228 261/185/231
f 264/113/234 263/186/233 266/188/236
f 266/188/236 267/111/237 264/113/234
f 266/188/236 263/186/233 268/189/238
f 265/187/235 268/189/238 263/186/233
f 267/111/237 266/188/236 269/190/239
f 269/190/239 270/107/240 267/111/237
f 268/189/238 271/191/241 266/188/236
f 270/107/240 269/190/239 272/192/242
f 272/192/242 273/103/243 270/107/240
f 274/193/244 269/190/239 266/188/236
f 266/188/236 271/191/241 274/193/244
f 275/194/245 272/192/242 269/190/239
f 269/190/239 274/193/244 275/194/245
f 273/103/243 272/192/242 276/195/246
f 276/195/246 272/192/242 275/194/245
f 276/195/246 277/108/247 273/103/243
f 278/134/248 275/194/245 274/193/244
f 274/193/244 279/132/249 278/134/248
f 279/132/249 274/193/244 271/191/241
f 275/194/245 278/134/248 280/131/250
f 271/191/241 281/126/251 279/132/249
f 281/126/251 271/191/241 268/189/238
f 268/189/238 282/122/252 281/126/251
f 282/122/252 268/189/238 265/187/235
f 265/187/235 283/120/253 282/122/252
f 283/120/253 265/187/235 284/196/254
f 261/185/231 284/196/254 265/187/235
f 284/196/254 285/121/255 283/120/253
f 285/121/255 284/196/254 286/197/256
f 286/197/256 287/125/257 285/121/255
f 284/196/254 261/185/231 288/198/258
f 288/198/258 286/197/256 284/196/254
f 262/112/232 288/198/258 261/185/231
f 288/198/258 262/112/232 277/108/247
f 277/108/247 276/195/246 288/198/258
f 288/198/258 276/195/246 289/199/259
f 289/199/259 286/197/256 288/198/258
f 287/125/257 286/197/256 289/199/259
f 275/194/245 289/199/259 276/195/246
f 289/199/259 280/131/250 287/125/257
f 280/131/250 289/199/259 275/194/245
f 290/200/260 291/133/261 292/130/262
f 292/130/262 293/201/263 290/200/260
f 293/201/263 292/130/262 294/128/264
f 291/133/261 290/200/260 295/202/265
f 295/202/265 296/129/266 291/133/261
f 295/202/265 290/200/260 297/203/267
f 297/203/267 290/200/260 293/201/263
f 296/129/266 295/202/265 298/204/268
f 298/204/268 299/127/269 296/129/266
f 298/204/268 295/202/265 300/205/270
f 297/203/267 300/205/270 295/202/265
f 299/127/269 298/204/268 301/206/271
f 301/206/271 302/123/272 299/127/269
f 300/205/270 303/207/273 298/204/268
f 302/123/272 301/206/271 304/208/274
f 304/208/274 305/119/275 302/123/272
f 306/209/276 301/206/271 298/204/268
f 298/204/268 303/207/273 306/209/276
f 307/210/277 304/208/274 301/206/271
f 301/206/271 306/209/276 307/210/277
f 305/119/275 304/208/274 308/211/278
f 308/211/278 304/208/274 307/210/277
f 308/211/278 309/124/279 305/119/275
f 310/148/280 307/210/277 306/209/276
f 306/209/276 311/144/281 310/148/280
f 311/144/281 306/209/276 303/207/273
f 307/210/277 310/148/280 312/150/282
f 303/207/273 313/138/283 311/144/281
f 313/138/283 303/207/273 300/205/270
f 300/205/270 314/136/284 313/138/283
f 314/136/284 300/205/270 297/203/267
f 297/203/267 315/137/285 314/136/284
f 315/137/285 297/203/267 316/212/286
f 293/201/263 316/212/286 297/203/267
f 316/212/286 317/141/287 315/137/285
f 317/141/287 316/212/286 318/213/288
f 318/213/288 319/145/289 317/141/287
f 316/212/286 293/201/263 320/214/290
f 320/214/290 318/213/288 316/212/286
f 294/128/264 320/214/290 293/201/263
f 320/214/290 294/128/264 309/124/279
f 309/124/279 308/211/278 320/214/290
f 320/214/290 308/211/278 321/215/291
f 321/215/291 318/213/288 320/214/290
f 319/145/289 318/213/288 321/215/291
f 307/210/277 321/215/291 308/211/278
f 321/215/291 312/150/282 319/145/289
f 312/150/282 321/215/291 307/210/277
f 322/216/292 323/143/293 324/147/294
f 323/143/293 322/216/292 325/217/295
f 325/217/295 326/139/296 323/143/293
f 324/147/294 327/218/297 322/216/292
f 327/218/297 324/147/294 328/149/298
f 325/217/295 322/216/292 329/219/299
f 329/219/299 322/216/292 327/218/297
f 326/139/296 325/217/295 330/220/300
f 330/220/300 331/135/301 326/139/296
f 330/220/300 325/217/295 332/221/302
f 329/219/299 332/221/302 325/217/295
f 331/135/301 330/220/300 333/222/303
f 333/222/303 334/140/304 331/135/301
f 332/221/302 335/223/305 330/220/300
f 333/222/303 330/220/300 335/223/305
f 334/140/304 333/222/303 336/224/306
f 336/224/306 337/142/307 334/140/304
f 335/223/305 338/225/308 333/222/303
f 337/142/307 336/224/306 339/226/309
f 339/226/309 340/146/310 337/142/307
f 341/227/311 336/224/306 333/222/303
f 333/222/303 338/225/308 341/227/311
f 342/228/312 339/226/309 336/224/306
f 336/224/306 341/227/311 342/228/312
f 340/146/310 339/226/309 343/229/313
f 343/229/313 339/226/309 342/228/312
f 343/229/313 328/149/298 340/146/310
f 328/149/298 343/229/313 327/218/297
f 327/218/297 343/229/313 344/230/314
f 342/228/312 344/230/314 343/229/313
f 344/230/314 345/231/315 327/218/297
f 327/218/297 345/231/315 329/219/299
f 346/232/316 344/230/314 342/228/312
f 347/233/317 329/219/299 345/231/315
f 348/234/318 345/231/315 344/230/314
f 345/231/315 348/234/318 347/233/317
f 344/230/314 346/232/316 348/234/318
f 329/219/299 347/233/317 349/235/319
f 349/235/319 332/221/302 329/219/299
f 332/221/302 349/235/319 350/236/320
f 350/236/320 335/223/305 332/221/302
f 351/237/321 349/235/319 347/233/317
f 350/236/320 349/235/319 351/237/321
f 347/233/317 352/238/322 351/237/321
f 352/238/322 347/233/317 348/234/318
f 353/239/323 351/237/321 352/238/322
f 352/238/322 354/240/324 353/239/323
f 351/237/321 353/239/323 355/241/325
f 354/240/324 352/238/322 356/242/326
f 348/234/318 356/242/326 352/238/322
f 356/242/326 357/243/327 354/240/324
f 358/244/328 356/242/326 348/234/318
f 357/243/327 356/242/326 358/244/328
f 348/234/318 346/232/316 358/244/328
f 358/244/328 359/245/329 357/243/327
f 359/245/329 358/244/328 360/246/330
f 360/246/330 358/244/328 346/232/316
f 360/246/330 361/247/331 359/245/329
f 346/232/316 362/248/332 360/246/330
f 342/228/312 362/248/332 346/232/316
f 362/248/332 342/228/312 341/227/311
f 341/227/311 363/249/333 362/248/332
f 360/246/330 362/248/332 363/249/333
f 363/249/333 341/227/311 338/225/308
f 363/249/333 364/250/334 360/246/330
f 361/247/331 360/246/330 364/250/334
f 364/250/334 365/251/335 361/247/331
f 338/225/308 366/252/336 363/249/333
f 364/250/334 363/249/333 366/252/336
f 366/252/336 338/225/308 335/223/305
f 335/223/305 350/236/320 366/252/336
f 365/251/335 364/250/334 367/253/337
f 366/252/336 367/253/337 364/250/334
f 367/253/337 368/254/338 365/251/335
f 366/252/336 350/236/320 369/255/339
f 369/255/339 367/253/337 366/252/336
f 368/254/338 367/253/337 369/255/339
f 351/237/321 369/255/339 350/236/320
f 369/255/339 355/241/325 368/254/338
f 355/241/325 369/255/339 351/237/321
