# Blender 4.3.2
# www.blender.org
mtllib 玻璃展览柜（正）.mtl
o Glass
v 0.297918 0.111200 -0.292775
v 0.297918 0.111200 -0.290775
v 0.297918 0.110000 -0.290775
v 0.297918 0.110000 -0.292775
v -0.297618 0.111200 -0.292775
v -0.297618 0.111200 -0.290775
v -0.298218 0.110000 -0.290775
v -0.298218 0.110000 -0.292775
v -0.297618 0.676441 -0.292775
v -0.297618 0.676441 -0.290775
v -0.298218 0.677641 -0.290775
v -0.298218 0.677641 -0.292775
v 0.297618 0.676441 -0.292775
v 0.297618 0.676441 -0.290775
v 0.298218 0.677641 -0.290775
v 0.298218 0.677641 -0.292775
v 0.297618 0.110000 -0.293051
v 0.297618 0.111200 -0.291166
v 0.298218 0.111200 -0.290499
v 0.298218 0.110000 -0.292385
v 0.297618 0.110000 0.291051
v 0.297618 0.111200 0.291051
v 0.298218 0.111200 0.293051
v 0.298218 0.110000 0.293051
v -0.297618 0.110000 0.291051
v -0.297618 0.111200 0.291051
v -0.298218 0.111200 0.293051
v -0.298218 0.110000 0.293051
v -0.297618 0.110000 -0.291775
v -0.297618 0.111200 -0.291775
v -0.298218 0.111200 -0.291775
v -0.298218 0.110000 -0.291775
v -0.297618 0.110600 0.293051
v -0.298218 0.110600 0.293051
v -0.298218 0.110600 0.291051
v -0.297618 0.110600 0.291051
v -0.297618 0.677641 0.293051
v -0.298218 0.677641 0.293051
v -0.298218 0.676441 0.291051
v -0.297618 0.676441 0.291051
v -0.297618 0.677641 -0.291775
v -0.298218 0.677641 -0.291775
v -0.298218 0.676441 -0.291775
v -0.297618 0.676441 -0.291775
v 0.298218 0.110600 0.293051
v 0.297618 0.110600 0.293051
v 0.297618 0.110600 0.291051
v 0.298218 0.110600 0.291051
v 0.298218 0.677641 0.293051
v 0.297618 0.676441 0.293051
v 0.297618 0.676441 0.291051
v 0.298218 0.677641 0.291051
v -0.297918 0.677641 0.293051
v -0.297918 0.676441 0.293051
v -0.297918 0.676441 0.291051
v -0.297918 0.677641 0.291051
v 0.297618 0.677641 -0.291775
v 0.298218 0.677641 -0.291775
v 0.298218 0.676441 -0.291775
v 0.297618 0.676441 -0.291775
v 0.297618 0.677641 0.292051
v 0.298218 0.677641 0.292051
v 0.298218 0.676441 0.292051
v 0.297618 0.676441 0.292051
vn -0.0000 1.0000 -0.0000
vn -0.0000 -0.0000 1.0000
vn -0.0000 -1.0000 -0.0000
vn -0.0000 -0.0000 -1.0000
vn 1.0000 -0.0000 -0.0000
vn -1.0000 -0.0000 -0.0000
vn -0.2659 -0.0000 0.9640
vn 0.2660 -0.0000 -0.9640
vn -0.4856 -0.0001 0.8742
vn 0.4857 -0.0001 -0.8741
s 1
f 6//1 2//1 1//1 5//1
f 7//2 3//2 2//2 6//2
f 8//3 4//3 3//3 7//3
f 5//4 1//4 4//4 8//4
f 10//5 6//5 5//5 9//5
f 11//2 7//2 6//2 10//2
f 12//6 8//6 7//6 11//6
f 9//4 5//4 8//4 12//4
f 14//3 10//3 9//3 13//3
f 15//7 11//2 10//2 14//7
f 16//1 12//1 11//1 15//1
f 13//8 9//4 12//4 16//8
f 18//6 14//6 13//6 17//6
f 19//9 15//7 14//7 18//9
f 20//5 16//5 15//5 19//5
f 17//10 13//8 16//8 20//10
f 22//6 18//6 17//6 21//6
f 23//1 19//1 18//1 22//1
f 24//5 20//5 19//5 23//5
f 21//3 17//3 20//3 24//3
f 26//4 22//4 21//4 25//4
f 27//1 23//1 22//1 26//1
f 28//2 24//2 23//2 27//2
f 25//3 21//3 24//3 28//3
f 30//5 26//5 25//5 29//5
f 31//1 27//1 26//1 30//1
f 32//6 28//6 27//6 31//6
f 29//3 25//3 28//3 32//3
f 3//5 4//5 1//5 2//5
f 29//4 32//4 31//4 30//4
f 38//2 34//2 33//2 37//2
f 39//6 35//6 34//6 38//6
f 40//4 36//4 35//4 39//4
f 37//5 33//5 36//5 40//5
f 42//1 38//1 37//1 41//1
f 43//6 39//6 38//6 42//6
f 44//3 40//3 39//3 43//3
f 41//5 37//5 40//5 44//5
f 35//3 36//3 33//3 34//3
f 41//4 44//4 43//4 42//4
f 50//2 46//2 45//2 49//2
f 51//6 47//6 46//6 50//6
f 52//4 48//4 47//4 51//4
f 49//5 45//5 48//5 52//5
f 54//2 50//2 49//2 53//2
f 55//3 51//3 50//3 54//3
f 56//4 52//4 51//4 55//4
f 53//1 49//1 52//1 56//1
f 47//3 48//3 45//3 46//3
f 53//6 56//6 55//6 54//6
f 62//1 58//1 57//1 61//1
f 63//5 59//5 58//5 62//5
f 64//3 60//3 59//3 63//3
f 61//6 57//6 60//6 64//6
f 59//4 60//4 57//4 58//4
f 61//2 64//2 63//2 62//2
o Bottom
v 0.300000 0.010000 -0.300000
v -0.300000 0.010000 -0.300000
v -0.300000 0.010000 0.300000
v 0.300000 0.010000 0.300000
v 0.300000 0.110000 -0.300000
v -0.300000 0.110000 -0.300000
v -0.300000 0.110000 0.300000
v 0.300000 0.110000 0.300000
v 0.268131 -0.000000 -0.270000
v -0.268131 -0.000000 -0.270000
v -0.268131 0.000000 0.270000
v 0.268131 0.000000 0.270000
v 0.268131 0.010000 -0.270000
v -0.268131 0.010000 -0.270000
v -0.268131 0.010000 0.270000
v 0.268131 0.010000 0.270000
v 0.291000 0.105000 -0.270000
v -0.291000 0.105000 -0.270000
v -0.291000 0.105000 0.270000
v 0.291000 0.105000 0.270000
v 0.291000 0.135000 -0.270000
v -0.291000 0.135000 -0.270000
v -0.291000 0.135000 0.270000
v 0.291000 0.135000 0.270000
v 0.268131 -0.320000 -0.270000
v -0.268131 -0.320000 -0.270000
v -0.268131 -0.320000 0.270000
v 0.268131 -0.320000 0.270000
vn -0.0000 -0.0000 -1.0000
vn -1.0000 -0.0000 -0.0000
vn -0.0000 -0.0000 1.0000
vn 1.0000 -0.0000 -0.0000
vn -0.0000 -1.0000 -0.0000
vn -0.0000 1.0000 -0.0000
vn -0.9578 -0.0000 -0.2873
vn 0.9578 -0.0000 -0.2873
vn 0.9578 -0.0000 0.2873
vn -0.9578 -0.0000 0.2873
vt 0.000000 0.000000
vt 3.473333 0.347332
vt 6.706666 0.347332
vt 6.706666 0.397332
vt 3.473333 0.397332
vt 0.049999 0.347332
vt 0.949998 0.347332
vt 0.949998 0.397332
vt 0.049999 0.397332
vt -5.706666 0.347332
vt -2.473333 0.347332
vt -2.473333 0.397332
vt -5.706666 0.397332
vt 0.050001 0.347332
vt 0.950001 0.347332
vt 0.950001 0.397332
vt 0.050001 0.397332
vt 6.706666 0.050002
vt 6.706666 0.950001
vt 3.473333 0.950001
vt 3.473333 0.050001
vt -5.706666 0.050002
vt -2.473333 0.050001
vt -2.473333 0.950001
vt -5.706666 0.950001
s 1
usemtl 材质.001
f 65/1/11 66/1/11 70/1/11 69/1/11
f 66/1/12 67/1/12 71/1/12 70/1/12
f 67/1/13 68/1/13 72/1/13 71/1/13
f 68/1/14 65/1/14 69/1/14 72/1/14
f 67/1/15 66/1/15 65/1/15 68/1/15
f 71/1/16 72/1/16 69/1/16 70/1/16
f 73/1/11 74/1/11 78/1/11 77/1/11
f 74/1/12 75/1/12 79/1/12 78/1/12
f 75/1/13 76/1/13 80/1/13 79/1/13
f 76/1/14 73/1/14 77/1/14 80/1/14
f 74/1/17 73/1/18 89/1/18 90/1/17
f 79/1/16 80/1/16 77/1/16 78/1/16
f 81/2/11 82/3/11 86/4/11 85/5/11
f 82/6/12 83/7/12 87/8/12 86/9/12
f 83/10/13 84/11/13 88/12/13 87/13/13
f 84/14/14 81/15/14 85/16/14 88/17/14
f 83/18/15 82/19/15 81/20/15 84/21/15
f 87/22/16 88/23/16 85/24/16 86/25/16
f 91/1/15 90/1/15 89/1/15 92/1/15
f 76/1/19 75/1/20 91/1/20 92/1/19
f 73/1/18 76/1/19 92/1/19 89/1/18
f 75/1/20 74/1/17 90/1/17 91/1/20
o shelf1
v 0.150000 0.130000 -0.150000
v -0.150000 0.130000 -0.150000
v -0.150000 0.130000 0.150000
v 0.150000 0.130000 0.150000
v 0.150000 0.180000 -0.150000
v -0.150000 0.180000 -0.150000
v -0.150000 0.180000 0.150000
v 0.150000 0.180000 0.150000
vn -0.0000 -0.0000 -1.0000
vn -1.0000 -0.0000 -0.0000
vn -0.0000 -0.0000 1.0000
vn 1.0000 -0.0000 -0.0000
vn -0.0000 -1.0000 -0.0000
vn -0.0000 1.0000 -0.0000
vt 5.165061 0.397332
vt 5.665061 0.397332
vt 5.665061 0.480665
vt 5.165061 0.480665
vt 0.243809 0.397332
vt 0.743809 0.397332
vt 0.743809 0.480665
vt 0.243809 0.480665
vt -4.665061 0.397332
vt -4.165061 0.397332
vt -4.165061 0.480665
vt -4.665061 0.480665
vt 0.256191 0.397332
vt 0.756191 0.397332
vt 0.756191 0.480665
vt 0.256191 0.480665
vt 5.665061 0.256191
vt 5.665061 0.756191
vt 5.165061 0.756191
vt 5.165061 0.256191
vt -4.665061 0.256191
vt -4.165061 0.256191
vt -4.165061 0.756191
vt -4.665061 0.756191
s 1
usemtl 材质.002
f 93/26/21 94/27/21 98/28/21 97/29/21
f 94/30/22 95/31/22 99/32/22 98/33/22
f 95/34/23 96/35/23 100/36/23 99/37/23
f 96/38/24 93/39/24 97/40/24 100/41/24
f 95/42/25 94/43/25 93/44/25 96/45/25
f 99/46/26 100/47/26 97/48/26 98/49/26
