# Blender 4.3.2
# www.blender.org
mtllib 剑1.mtl
o Ob1
v 0.041100 1.201093 -0.012692
v 0.068734 1.201276 0.000000
v 0.085503 0.463477 0.000000
v 0.085503 0.463477 0.000000
v 0.068734 1.201276 0.000000
v 0.041100 1.201093 0.012692
v 0.053665 0.434671 -0.015028
v 0.053665 0.434671 0.015028
v 0.027349 1.200929 -0.012692
v 0.089199 0.405615 -0.000000
v 0.089199 0.405615 -0.000000
v 0.027349 1.200929 0.012692
v 0.058429 0.361263 -0.015028
v 0.096389 0.362001 -0.000000
v 0.113142 0.306668 -0.000000
v 0.073681 0.306379 -0.015028
v 0.041092 0.306214 -0.015028
v 0.034865 0.360633 -0.015028
v 0.000020 0.305840 -0.030117
v 0.032654 0.434914 -0.015028
v 0.000018 1.200703 -0.019906
v 0.000019 0.434478 -0.028307
v -0.027349 1.200929 -0.012692
v 0.000019 0.359638 -0.029994
v -0.032654 0.434914 -0.015028
v -0.041100 1.201086 -0.012692
v -0.034865 0.360633 -0.015028
v -0.041092 0.306214 -0.015028
v -0.053665 0.434671 -0.015028
v -0.058429 0.361263 -0.015028
v -0.075709 0.306379 -0.015028
v -0.085503 0.463477 0.000000
v -0.068734 1.201276 0.000000
v -0.089199 0.405615 -0.000000
v -0.096389 0.362001 -0.000000
v -0.113142 0.306668 -0.000000
v 0.040525 0.219688 -0.000000
v 0.028655 0.219688 0.028655
v -0.028655 0.219688 0.028655
v 0.000000 0.219688 0.040525
v -0.028655 0.219688 0.028655
v -0.040525 0.219688 -0.000000
v 0.040525 0.219688 -0.000000
v -0.028655 0.219688 -0.028656
v 0.028655 0.219688 -0.028656
v 0.000000 0.219688 -0.040525
v 0.036664 0.314217 -0.062614
v 0.000000 0.314216 -0.065740
v -0.036664 0.314217 -0.062614
v -0.070030 0.314217 -0.053485
v 0.070030 0.314217 -0.053485
v -0.096982 0.314218 -0.039099
v 0.096982 0.314218 -0.039099
v -0.114756 0.314220 -0.020690
v 0.114756 0.314220 -0.020690
v -0.121061 0.314222 -0.000000
v 0.121061 0.314222 -0.000000
v 0.114756 0.314220 0.020690
v -0.114756 0.314220 0.020690
v 0.096982 0.314218 0.039099
v -0.096982 0.314218 0.039099
v 0.070030 0.314217 0.053485
v -0.070030 0.314217 0.053485
v 0.036664 0.314217 0.062614
v -0.036664 0.314217 0.062614
v 0.000000 0.314216 0.065740
v -0.037495 0.290361 0.064034
v 0.037495 0.290361 0.064034
v 0.000000 0.290361 0.067233
v 0.071612 0.290360 0.054694
v -0.071612 0.290360 0.054694
v 0.099160 0.290359 0.039977
v -0.099160 0.290359 0.039977
v -0.117317 0.290357 0.021152
v 0.117317 0.290357 0.021152
v 0.123754 0.290355 -0.000000
v -0.123754 0.290355 -0.000000
v -0.117317 0.290357 -0.021152
v 0.117317 0.290357 -0.021152
v 0.099160 0.290359 -0.039977
v -0.099160 0.290359 -0.039977
v -0.071612 0.290360 -0.054694
v 0.071612 0.290360 -0.054694
v -0.037495 0.290361 -0.064034
v 0.037495 0.290361 -0.064034
v 0.000000 0.290361 -0.067233
v 0.073681 0.306379 0.015028
v 0.113142 0.306668 -0.000000
v 0.096389 0.362001 -0.000000
v 0.058429 0.361263 0.015028
v 0.041092 0.306214 0.015028
v 0.034865 0.360633 0.015028
v 0.000020 0.305840 0.030117
v 0.032654 0.434914 0.015028
v 0.000018 1.200703 0.019907
v 0.000019 0.434478 0.028307
v -0.027349 1.200929 0.012692
v 0.000019 0.359638 0.029994
v -0.032654 0.434914 0.015028
v -0.041100 1.201086 0.012692
v -0.034865 0.360633 0.015028
v -0.041092 0.306214 0.015028
v -0.053665 0.434671 0.015028
v -0.058429 0.361263 0.015028
v -0.075709 0.306379 0.015028
v -0.096389 0.362001 -0.000000
v -0.113142 0.306668 -0.000000
v -0.089199 0.405615 -0.000000
v -0.085503 0.463477 0.000000
v -0.068734 1.201276 0.000000
v -0.001041 0.416695 0.028592
v -0.000157 0.416695 0.029635
v 0.001034 0.416695 0.028592
v -0.000352 0.411638 0.031089
v -0.001041 0.416695 0.028592
v 0.002790 0.411638 0.028149
v -0.002796 0.411638 0.028148
v -0.001800 0.308349 0.040575
v 0.014245 0.308372 0.025678
v -0.014251 0.308372 0.025678
v -0.001041 0.416695 -0.028592
v 0.001034 0.416695 -0.028592
v -0.000157 0.416695 -0.029635
v -0.000352 0.411638 -0.031089
v -0.001041 0.416695 -0.028592
v 0.002790 0.411638 -0.028149
v -0.002796 0.411638 -0.028148
v -0.001800 0.308349 -0.040575
v 0.014245 0.308372 -0.025678
v -0.014251 0.308372 -0.025678
v -0.044960 -0.270040 -0.044960
v -0.063582 -0.270040 -0.000000
v -0.051403 -0.248651 -0.000000
v -0.036348 -0.248651 -0.036348
v -0.000000 -0.270040 -0.063583
v -0.046403 -0.210191 -0.000000
v -0.034166 0.228140 -0.000000
v -0.024159 0.228140 -0.024159
v -0.032812 -0.210191 -0.032812
v 0.000000 0.228140 -0.034166
v -0.000000 -0.248651 -0.051403
v 0.044960 -0.270040 -0.044960
v -0.000000 -0.210191 -0.046403
v 0.024159 0.228140 -0.024159
v 0.036348 -0.248651 -0.036348
v 0.063582 -0.270040 -0.000000
v 0.051403 -0.248651 -0.000000
v 0.032812 -0.210191 -0.032812
v 0.046403 -0.210191 -0.000000
v 0.034166 0.228140 -0.000000
v 0.044960 -0.270040 0.044959
v 0.063582 -0.270040 -0.000000
v 0.051403 -0.248651 -0.000000
v 0.036348 -0.248651 0.036347
v 0.000000 -0.270040 0.063582
v 0.046403 -0.210191 -0.000000
v 0.034166 0.228140 -0.000000
v 0.024159 0.228140 0.024159
v 0.032812 -0.210191 0.032812
v 0.000000 0.228140 0.034166
v -0.000000 -0.248651 0.051403
v -0.044960 -0.270040 0.044959
v -0.000000 -0.210191 0.046403
v -0.024159 0.228140 0.024159
v -0.036348 -0.248651 0.036347
v -0.063582 -0.270040 -0.000000
v -0.051403 -0.248651 -0.000000
v -0.032812 -0.210191 0.032812
v -0.046403 -0.210191 -0.000000
v -0.034166 0.228140 -0.000000
v -0.068734 1.201276 0.000000
v -0.056008 1.998708 0.000001
v -0.025947 1.998852 -0.011249
v -0.041100 1.201086 -0.012692
v -0.049280 2.131538 0.000001
v -0.020421 1.998865 -0.011249
v -0.027349 1.200929 -0.012692
v -0.022437 2.131646 -0.009197
v -0.043889 2.289266 0.000001
v 0.000018 1.200703 -0.019906
v -0.019162 2.290409 -0.007145
v -0.029634 2.345194 0.000001
v -0.015911 2.131661 -0.009197
v 0.000017 1.998965 -0.017268
v -0.013547 2.290478 -0.007145
v 0.020421 1.998865 -0.011249
v 0.027349 1.200929 -0.012692
v 0.000015 2.131763 -0.015060
v 0.015911 2.131661 -0.009197
v 0.000015 2.290961 -0.010662
v 0.000021 2.322384 -0.007145
v 0.013547 2.290478 -0.007145
v -0.000011 2.330880 -0.007145
v 0.000011 2.404973 0.000001
v 0.029634 2.345194 0.000001
v 0.019162 2.290409 -0.007145
v 0.043889 2.289266 0.000001
v 0.022437 2.131646 -0.009197
v 0.049280 2.131538 0.000001
v 0.025948 1.998852 -0.011249
v 0.056008 1.998708 0.000001
v 0.068734 1.201276 0.000000
v 0.041100 1.201093 -0.012692
v -0.025947 1.998852 0.011250
v -0.056008 1.998708 0.000001
v -0.068734 1.201276 0.000000
v -0.041100 1.201086 0.012692
v -0.049280 2.131538 0.000001
v -0.020421 1.998865 0.011250
v -0.027349 1.200929 0.012692
v -0.022437 2.131646 0.009198
v -0.043889 2.289266 0.000001
v 0.000018 1.200703 0.019907
v -0.019162 2.290409 0.007146
v -0.029634 2.345194 0.000001
v -0.015911 2.131661 0.009198
v 0.000017 1.998965 0.017269
v 0.020421 1.998865 0.011250
v 0.027349 1.200929 0.012692
v 0.000015 2.131763 0.015061
v 0.025948 1.998852 0.011250
v 0.041100 1.201093 0.012692
v 0.068734 1.201276 0.000000
v 0.056008 1.998708 0.000001
v 0.049280 2.131538 0.000001
v 0.022437 2.131646 0.009198
v 0.043889 2.289266 0.000001
v 0.015911 2.131661 0.009198
v 0.019162 2.290409 0.007146
v 0.029634 2.345194 0.000001
v 0.013547 2.290478 0.007146
v 0.000015 2.290961 0.010664
v 0.000021 2.322384 0.007146
v -0.013547 2.290478 0.007146
v -0.000011 2.330880 0.007146
v 0.000011 2.404973 0.000001
v 0.000000 0.290361 -0.067233
v 0.000000 0.314216 -0.065740
v 0.036664 0.314217 -0.062614
v -0.036664 0.314217 -0.062614
v 0.037495 0.290361 -0.064034
v -0.037495 0.290361 -0.064034
v 0.070030 0.314217 -0.053485
v -0.070030 0.314217 -0.053485
v 0.071612 0.290360 -0.054694
v -0.071612 0.290360 -0.054694
v 0.096982 0.314218 -0.039099
v -0.096982 0.314218 -0.039099
v 0.099160 0.290359 -0.039977
v -0.099160 0.290359 -0.039977
v 0.114756 0.314220 -0.020690
v -0.114756 0.314220 -0.020690
v 0.117317 0.290357 -0.021152
v -0.117317 0.290357 -0.021152
v 0.121061 0.314222 -0.000000
v -0.121061 0.314222 -0.000000
v 0.123754 0.290355 -0.000000
v -0.123754 0.290355 -0.000000
v 0.117317 0.290357 0.021152
v -0.117317 0.290357 0.021152
v 0.114756 0.314220 0.020690
v -0.114756 0.314220 0.020690
v 0.099160 0.290359 0.039977
v -0.099160 0.290359 0.039977
v 0.096982 0.314218 0.039099
v -0.096982 0.314218 0.039099
v 0.071612 0.290360 0.054694
v -0.071612 0.290360 0.054694
v 0.070030 0.314217 0.053485
v -0.070030 0.314217 0.053485
v 0.037495 0.290361 0.064034
v -0.037495 0.290361 0.064034
v 0.036664 0.314217 0.062614
v -0.036664 0.314217 0.062614
v 0.000000 0.290361 0.067233
v 0.000000 0.314216 0.065740
v 0.048043 0.254343 -0.000000
v 0.040525 0.219688 -0.000000
v 0.028655 0.219688 -0.028656
v 0.028655 0.219688 0.028655
v 0.033972 0.254343 -0.033972
v 0.000000 0.219688 -0.040525
v 0.033972 0.254343 0.033971
v 0.000000 0.219688 0.040525
v 0.063007 0.288999 -0.000000
v 0.044552 0.288999 0.044552
v 0.044552 0.288999 -0.044553
v 0.000000 0.254343 0.048043
v 0.000000 0.288999 0.063007
v -0.028655 0.219688 0.028655
v -0.033972 0.254343 0.033971
v -0.044552 0.288999 0.044552
v -0.040525 0.219688 -0.000000
v -0.048043 0.254343 -0.000000
v -0.063007 0.288999 -0.000000
v -0.044552 0.288999 -0.044553
v -0.033972 0.254343 -0.033972
v -0.028655 0.219688 -0.028656
v 0.000000 0.288999 -0.063007
v 0.000000 0.254343 -0.048043
v -0.058934 -0.270040 0.058933
v -0.066938 -0.282820 0.066938
v -0.036227 -0.282820 0.087459
v -0.077001 -0.270040 0.031894
v -0.087459 -0.282820 0.036226
v -0.031895 -0.270040 0.077000
v 0.000000 -0.282820 0.094664
v -0.044960 -0.270040 0.044959
v 0.000000 -0.270040 0.083344
v 0.036227 -0.282820 0.087458
v 0.000000 -0.270040 0.063582
v -0.063582 -0.270040 -0.000000
v 0.031895 -0.270040 0.077000
v 0.044960 -0.270040 0.044959
v 0.066938 -0.282820 0.066938
v 0.058934 -0.270040 0.058933
v 0.087459 -0.282820 0.036226
v 0.077001 -0.270040 0.031894
v 0.063582 -0.270040 -0.000000
v 0.094665 -0.282820 -0.000000
v 0.083345 -0.270040 -0.000000
v 0.087459 -0.282820 -0.036227
v 0.077001 -0.270040 -0.031895
v 0.044960 -0.270040 -0.044960
v 0.066938 -0.282820 -0.066938
v 0.058934 -0.270040 -0.058934
v 0.036227 -0.282820 -0.087459
v 0.031895 -0.270040 -0.077001
v -0.000000 -0.270040 -0.063583
v -0.000000 -0.282820 -0.094665
v -0.000000 -0.270040 -0.083345
v -0.036227 -0.282820 -0.087459
v -0.031895 -0.270040 -0.077001
v -0.044960 -0.270040 -0.044960
v -0.066938 -0.282820 -0.066938
v -0.058934 -0.270040 -0.058934
v -0.087459 -0.282820 -0.036227
v -0.077001 -0.270040 -0.031895
v -0.094665 -0.282820 -0.000000
v -0.083345 -0.270040 -0.000000
v -0.066938 -0.289636 0.066938
v -0.066938 -0.282820 0.066938
v -0.087459 -0.282820 0.036226
v -0.087459 -0.289636 0.036226
v -0.094665 -0.282820 -0.000000
v -0.036227 -0.289636 0.087458
v -0.036227 -0.282820 0.087459
v -0.094665 -0.289636 -0.000000
v -0.087459 -0.282820 -0.036227
v -0.087459 -0.289636 -0.036227
v -0.066938 -0.282820 -0.066938
v -0.069123 -0.307778 0.028631
v -0.066938 -0.289636 -0.066938
v -0.036227 -0.282820 -0.087459
v -0.074818 -0.307778 -0.000000
v -0.069123 -0.307778 -0.028632
v -0.040269 -0.316369 0.016680
v -0.036227 -0.289636 -0.087459
v -0.000000 -0.282820 -0.094665
v -0.052905 -0.307778 -0.052905
v -0.000000 -0.289636 -0.094665
v 0.036227 -0.282820 -0.087459
v -0.028632 -0.307778 -0.069123
v 0.036227 -0.289636 -0.087459
v 0.066938 -0.282820 -0.066938
v -0.000000 -0.307778 -0.074819
v 0.066938 -0.289636 -0.066938
v 0.087459 -0.282820 -0.036227
v 0.028632 -0.307778 -0.069123
v 0.087459 -0.289636 -0.036227
v 0.094665 -0.282820 -0.000000
v 0.052905 -0.307778 -0.052905
v 0.094665 -0.289636 -0.000000
v 0.087459 -0.282820 0.036226
v 0.069123 -0.307778 -0.028632
v 0.087459 -0.289636 0.036226
v 0.066938 -0.282820 0.066938
v 0.074818 -0.307778 -0.000000
v 0.066938 -0.289636 0.066938
v 0.036227 -0.282820 0.087458
v 0.069123 -0.307778 0.028631
v 0.036227 -0.289636 0.087458
v 0.000000 -0.282820 0.094664
v 0.052905 -0.307778 0.052904
v 0.000000 -0.289636 0.094664
v 0.028632 -0.307778 0.069123
v 0.000000 -0.307778 0.074818
v -0.028632 -0.307778 0.069123
v 0.016680 -0.316369 0.040269
v -0.052905 -0.307778 0.052904
v -0.000000 -0.316369 0.043587
v -0.016680 -0.316369 0.040269
v -0.030821 -0.316369 0.030820
v -0.000000 -0.316369 -0.000000
v -0.043587 -0.316369 -0.000000
v -0.040269 -0.316369 -0.016680
v -0.030821 -0.316369 -0.030821
v -0.016680 -0.316369 -0.040269
v -0.000000 -0.316369 -0.043587
v 0.016680 -0.316369 -0.040269
v 0.030821 -0.316369 -0.030821
v 0.040269 -0.316369 -0.016680
v 0.043587 -0.316369 -0.000000
v 0.040269 -0.316369 0.016680
v 0.030821 -0.316369 0.030820
vn 0.2128 0.0064 -0.9771
vn 0.4173 0.0095 -0.9087
vn 0.4160 0.0145 -0.9092
vn 0.4078 0.0253 0.9127
vn 0.4173 0.0095 0.9087
vn 0.2071 0.0115 -0.9783
vn 0.4197 0.0096 0.9076
vn 0.1742 0.0091 0.9847
vn 0.1294 0.0046 -0.9916
vn 0.4078 0.0252 0.9127
vn 0.3974 0.0348 0.9170
vn 0.3974 0.0348 -0.9170
vn 0.4000 0.0260 0.9161
vn -0.0000 0.0030 1.0000
vn 0.1283 0.0039 0.9917
vn 0.1794 0.0338 -0.9832
vn 0.3629 0.0845 -0.9280
vn 0.3532 0.1069 -0.9294
vn 0.2118 0.0621 -0.9753
vn -0.0000 -0.0000 -1.0000
vn 0.1799 0.0056 -0.9837
vn 0.3443 0.0394 -0.9380
vn 0.0003 0.0268 -0.9996
vn 0.1926 0.0062 -0.9813
vn -0.0000 0.0031 -1.0000
vn 0.0021 0.0080 -1.0000
vn 0.1295 0.0039 -0.9916
vn 0.0009 0.0119 -0.9999
vn -0.1300 0.0068 -0.9915
vn 0.0002 0.0122 -0.9999
vn 0.0001 0.0268 -0.9996
vn -0.2570 0.0057 -0.9664
vn -0.0000 0.0030 -1.0000
vn -0.1990 0.0095 -0.9800
vn -0.1883 0.0215 -0.9819
vn -0.2739 0.0143 -0.9617
vn -0.4107 0.0094 -0.9117
vn -0.1774 0.0360 -0.9835
vn -0.1881 0.0215 -0.9819
vn -0.2217 0.0681 -0.9727
vn -0.4108 0.0094 -0.9117
vn -0.4160 0.0146 -0.9092
vn -0.4160 0.0145 -0.9092
vn -0.4173 0.0095 -0.9087
vn -0.3974 0.0348 -0.9170
vn -0.3663 0.0902 -0.9261
vn -0.3695 0.1119 -0.9225
vn -0.0000 -1.0000 -0.0000
vn -0.0000 1.0000 -0.0000
vn -0.0000 1.0000 -0.0001
vn -0.0000 1.0000 0.0001
vn -0.0000 -1.0000 0.0001
vn -0.0000 -1.0000 -0.0001
vn 0.2118 0.0621 0.9753
vn 0.3532 0.1069 0.9294
vn 0.3629 0.0845 0.9280
vn 0.1794 0.0338 0.9832
vn 0.3974 0.0349 0.9170
vn 0.1634 0.0187 0.9864
vn 0.4001 0.0260 0.9161
vn 0.1992 0.0095 0.9799
vn 0.1740 0.0091 0.9847
vn 0.0002 0.0268 0.9996
vn 0.1926 0.0062 0.9813
vn 0.1284 0.0037 0.9917
vn 0.0021 0.0080 1.0000
vn 0.0009 0.0119 0.9999
vn -0.1300 0.0068 0.9915
vn 0.0002 0.0122 0.9999
vn -0.1932 0.0051 0.9812
vn -0.2128 0.0064 0.9771
vn -0.1990 0.0095 0.9800
vn -0.1632 0.0187 0.9864
vn -0.2071 0.0115 0.9783
vn -0.1774 0.0360 0.9835
vn -0.2217 0.0681 0.9727
vn -0.3663 0.0902 0.9261
vn -0.3695 0.1119 0.9225
vn -0.3974 0.0348 0.9170
vn -0.4160 0.0145 0.9092
vn -0.4173 0.0095 0.9087
vn 0.0002 1.0000 0.0006
vn -0.0476 0.6802 0.7315
vn 0.5804 0.4973 0.6449
vn -0.0637 0.1754 0.9824
vn -0.7482 0.2091 0.6297
vn 0.6792 0.1066 0.7262
vn -0.7624 0.1297 0.6339
vn -0.0663 0.0924 0.9935
vn 0.6792 0.0578 0.7317
vn -0.7653 0.0696 0.6398
vn 0.0002 1.0000 -0.0006
vn 0.5804 0.4973 -0.6449
vn -0.0476 0.6802 -0.7315
vn -0.0637 0.1754 -0.9824
vn -0.7482 0.2091 -0.6297
vn 0.6792 0.1066 -0.7262
vn -0.7624 0.1297 -0.6339
vn -0.0663 0.0924 -0.9935
vn 0.6792 0.0578 -0.7317
vn -0.7653 0.0696 -0.6398
vn -0.6145 0.4948 -0.6145
vn -0.8176 0.4656 -0.3387
vn -0.8783 0.3102 -0.3638
vn -0.6668 0.3330 -0.6667
vn -0.0000 0.4948 -0.8690
vn -0.9214 0.0735 -0.3816
vn -0.9236 0.0258 -0.3826
vn -0.7068 0.0279 -0.7068
vn -0.7049 0.0795 -0.7049
vn -0.0000 0.0279 -0.9996
vn -0.0000 0.3330 -0.9429
vn 0.6145 0.4948 -0.6145
vn -0.0000 0.0795 -0.9968
vn 0.7068 0.0279 -0.7068
vn 0.6667 0.3330 -0.6668
vn 0.8176 0.4656 -0.3387
vn 0.8783 0.3102 -0.3638
vn 0.7049 0.0795 -0.7049
vn 0.9214 0.0735 -0.3816
vn 0.9236 0.0258 -0.3826
vn 0.6145 0.4948 0.6145
vn 0.8176 0.4656 0.3387
vn 0.8783 0.3102 0.3638
vn 0.6668 0.3330 0.6667
vn -0.0000 0.4948 0.8690
vn 0.9214 0.0735 0.3816
vn 0.9236 0.0258 0.3826
vn 0.7068 0.0279 0.7068
vn 0.7049 0.0795 0.7049
vn -0.0000 0.0279 0.9996
vn -0.0000 0.3330 0.9429
vn -0.6145 0.4948 0.6145
vn -0.0000 0.0795 0.9968
vn -0.7068 0.0279 0.7068
vn -0.6667 0.3330 0.6668
vn -0.8176 0.4656 0.3387
vn -0.8783 0.3102 0.3638
vn -0.7049 0.0795 0.7049
vn -0.9214 0.0735 0.3816
vn -0.9236 0.0258 0.3826
vn -0.4156 0.0095 -0.9095
vn -0.3505 0.0115 -0.9365
vn -0.1779 0.0105 -0.9840
vn -0.2148 0.0058 -0.9766
vn -0.3262 0.0169 -0.9452
vn -0.1415 0.0113 -0.9899
vn -0.1286 0.0029 -0.9917
vn -0.1628 0.0160 -0.9865
vn -0.2820 0.0411 -0.9585
vn 0.0002 0.0041 -1.0000
vn -0.1506 0.0332 -0.9880
vn -0.2047 0.0897 -0.9747
vn -0.1749 0.0158 -0.9845
vn 0.0002 0.0140 -0.9999
vn -0.1135 0.0298 -0.9931
vn 0.1418 0.0113 -0.9898
vn 0.1288 0.0029 -0.9917
vn 0.0017 0.0199 -0.9998
vn 0.1738 0.0178 -0.9846
vn 0.0018 0.0675 -0.9977
vn -0.0000 0.0143 -0.9999
vn 0.1121 0.0272 -0.9933
vn -0.0001 0.0805 -0.9968
vn -0.0000 0.0960 -0.9954
vn 0.2046 0.0896 -0.9747
vn 0.1506 0.0332 -0.9880
vn 0.2820 0.0411 -0.9585
vn 0.1628 0.0160 -0.9865
vn 0.3262 0.0169 -0.9452
vn 0.1779 0.0105 -0.9840
vn 0.3505 0.0115 -0.9365
vn 0.4156 0.0095 -0.9095
vn 0.2148 0.0058 -0.9766
vn -0.1779 0.0105 0.9840
vn -0.3505 0.0115 0.9365
vn -0.4156 0.0095 0.9095
vn -0.2148 0.0058 0.9766
vn -0.3262 0.0169 0.9452
vn -0.1415 0.0113 0.9899
vn -0.1286 0.0029 0.9917
vn -0.1628 0.0160 0.9865
vn -0.2820 0.0411 0.9585
vn 0.0002 0.0041 1.0000
vn -0.1506 0.0332 0.9880
vn -0.2047 0.0897 0.9747
vn -0.1749 0.0158 0.9845
vn 0.0002 0.0140 0.9999
vn 0.1418 0.0113 0.9898
vn 0.1288 0.0029 0.9917
vn -0.1199 0.0209 0.9926
vn 0.1726 0.0101 0.9849
vn 0.2148 0.0058 0.9766
vn 0.4156 0.0095 0.9095
vn 0.3505 0.0115 0.9365
vn 0.3278 0.0120 0.9447
vn 0.3296 0.0191 0.9439
vn 0.1628 0.0160 0.9865
vn 0.3241 0.0232 0.9457
vn 0.2820 0.0411 0.9585
vn 0.1738 0.0178 0.9846
vn 0.3461 0.0156 0.9381
vn 0.1506 0.0332 0.9880
vn 0.2046 0.0896 0.9747
vn 0.1121 0.0272 0.9933
vn 0.0018 0.0675 0.9977
vn -0.0000 0.0143 0.9999
vn -0.1135 0.0298 0.9931
vn -0.0001 0.0805 0.9968
vn -0.0000 0.0960 0.9954
vn -0.0000 0.0625 -0.9980
vn 0.1734 0.0646 -0.9827
vn -0.1734 0.0646 -0.9827
vn 0.1762 0.0646 -0.9822
vn -0.1762 0.0646 -0.9822
vn 0.3660 0.0713 -0.9279
vn -0.3660 0.0713 -0.9279
vn 0.3717 0.0714 -0.9256
vn -0.3717 0.0714 -0.9256
vn 0.5964 0.0839 -0.7983
vn -0.5964 0.0839 -0.7983
vn 0.6045 0.0842 -0.7921
vn -0.6045 0.0842 -0.7921
vn 0.8546 0.1017 -0.5092
vn -0.8546 0.1017 -0.5092
vn 0.8603 0.1019 -0.4995
vn -0.8603 0.1019 -0.4995
vn 0.9937 0.1123 -0.0000
vn -0.9937 0.1123 -0.0000
vn 0.9937 0.1121 -0.0000
vn -0.9937 0.1121 -0.0000
vn 0.8603 0.1019 0.4995
vn -0.8603 0.1019 0.4995
vn 0.8546 0.1017 0.5092
vn -0.8546 0.1017 0.5092
vn 0.6045 0.0842 0.7921
vn -0.6045 0.0842 0.7921
vn 0.5964 0.0839 0.7983
vn -0.5964 0.0839 0.7983
vn 0.3717 0.0714 0.9256
vn -0.3717 0.0714 0.9256
vn 0.3660 0.0713 0.9279
vn -0.3660 0.0713 0.9279
vn 0.1762 0.0646 0.9822
vn -0.1762 0.0646 0.9822
vn 0.1734 0.0646 0.9827
vn -0.1734 0.0646 0.9827
vn -0.0000 0.0624 0.9980
vn -0.0000 0.0625 0.9980
vn 0.9498 -0.3127 -0.0000
vn 0.9773 -0.2120 -0.0000
vn 0.6910 -0.2120 -0.6910
vn 0.6910 -0.2120 0.6910
vn 0.6716 -0.3127 -0.6716
vn -0.0000 -0.2120 -0.9773
vn 0.6716 -0.3127 0.6716
vn -0.0000 -0.2120 0.9773
vn 0.9181 -0.3964 -0.0000
vn 0.6492 -0.3964 0.6492
vn 0.6492 -0.3964 -0.6492
vn -0.0000 -0.3127 0.9498
vn -0.0000 -0.3964 0.9181
vn -0.6910 -0.2120 0.6910
vn -0.6716 -0.3127 0.6716
vn -0.6492 -0.3964 0.6492
vn -0.9773 -0.2120 -0.0000
vn -0.9498 -0.3128 -0.0000
vn -0.9181 -0.3964 -0.0000
vn -0.6492 -0.3964 -0.6492
vn -0.6716 -0.3127 -0.6716
vn -0.6910 -0.2120 -0.6910
vn -0.0000 -0.3964 -0.9181
vn -0.0000 -0.3127 -0.9498
vn -0.3191 0.8924 0.3191
vn -0.5293 0.6630 0.5293
vn -0.2865 0.6630 0.6916
vn -0.4169 0.8924 0.1727
vn -0.6916 0.6630 0.2865
vn -0.1727 0.8924 0.4169
vn -0.0000 0.6630 0.7486
vn -0.0000 0.8924 0.4513
vn 0.2865 0.6630 0.6916
vn 0.1727 0.8924 0.4169
vn 0.5293 0.6630 0.5293
vn 0.3191 0.8924 0.3191
vn 0.6916 0.6630 0.2865
vn 0.4169 0.8924 0.1727
vn 0.7486 0.6630 -0.0000
vn 0.4513 0.8924 -0.0000
vn 0.6916 0.6630 -0.2865
vn 0.4169 0.8924 -0.1727
vn 0.5293 0.6630 -0.5293
vn 0.3191 0.8924 -0.3191
vn 0.2865 0.6630 -0.6916
vn 0.1727 0.8924 -0.4169
vn -0.0000 0.6630 -0.7486
vn -0.0000 0.8924 -0.4513
vn -0.2865 0.6630 -0.6916
vn -0.1727 0.8924 -0.4169
vn -0.5293 0.6630 -0.5293
vn -0.3191 0.8924 -0.3191
vn -0.6916 0.6630 -0.2865
vn -0.4169 0.8924 -0.1727
vn -0.7486 0.6630 -0.0000
vn -0.4513 0.8924 -0.0000
vn -0.6523 -0.3859 0.6523
vn -0.7071 -0.0000 0.7071
vn -0.9239 -0.0000 0.3827
vn -0.8523 -0.3859 0.3530
vn -1.0000 -0.0000 -0.0000
vn -0.3530 -0.3859 0.8523
vn -0.3827 -0.0000 0.9239
vn -0.9225 -0.3859 -0.0000
vn -0.9239 -0.0000 -0.3827
vn -0.8523 -0.3859 -0.3530
vn -0.7071 -0.0000 -0.7071
vn -0.4667 -0.8630 0.1933
vn -0.6523 -0.3859 -0.6523
vn -0.3827 -0.0000 -0.9239
vn -0.5051 -0.8630 -0.0000
vn -0.4667 -0.8630 -0.1933
vn -0.1387 -0.9887 0.0575
vn -0.3530 -0.3859 -0.8523
vn -0.3572 -0.8630 -0.3572
vn -0.0000 -0.3859 -0.9225
vn 0.3827 -0.0000 -0.9239
vn -0.1933 -0.8630 -0.4667
vn 0.3530 -0.3859 -0.8523
vn 0.7071 -0.0000 -0.7071
vn -0.0000 -0.8630 -0.5051
vn 0.6523 -0.3859 -0.6523
vn 0.9239 -0.0000 -0.3827
vn 0.1933 -0.8630 -0.4667
vn 0.8523 -0.3859 -0.3530
vn 1.0000 -0.0000 -0.0000
vn 0.3572 -0.8630 -0.3572
vn 0.9225 -0.3859 -0.0000
vn 0.9239 -0.0000 0.3827
vn 0.4667 -0.8630 -0.1933
vn 0.8523 -0.3859 0.3530
vn 0.7071 -0.0000 0.7071
vn 0.5694 -0.8219 -0.0156
vn 0.6523 -0.3859 0.6523
vn 0.3827 -0.0000 0.9239
vn 0.5005 -0.8379 0.2179
vn 0.3530 -0.3859 0.8523
vn -0.0000 -0.0000 1.0000
vn 0.3572 -0.8630 0.3572
vn -0.0000 -0.3859 0.9225
vn 0.1933 -0.8630 0.4667
vn -0.0000 -0.8630 0.5051
vn -0.1933 -0.8630 0.4667
vn 0.0575 -0.9887 0.1387
vn -0.3572 -0.8630 0.3572
vn -0.0000 -0.9887 0.1502
vn -0.0575 -0.9887 0.1387
vn -0.1062 -0.9887 0.1062
vn -0.1502 -0.9887 -0.0000
vn -0.1387 -0.9887 -0.0575
vn -0.1062 -0.9887 -0.1062
vn -0.0575 -0.9887 -0.1387
vn -0.0000 -0.9887 -0.1502
vn 0.0575 -0.9887 -0.1387
vn 0.1062 -0.9887 -0.1062
vn 0.1387 -0.9887 -0.0575
vn 0.1326 -0.9911 -0.0080
vn 0.2648 -0.9629 0.0527
vn 0.1387 -0.9887 0.0575
vn 0.1062 -0.9887 0.1062
vt 0.550293 0.276544
vt 0.605276 0.276397
vt 0.638642 0.865679
vt 0.575294 0.888686
vt 0.522932 0.276674
vt 0.645996 0.911893
vt 0.584773 0.947317
vt 0.660302 0.946728
vt 0.693636 0.990922
vt 0.615120 0.991153
vt 0.550277 0.991285
vt 0.537887 0.947820
vt 0.468555 0.991583
vt 0.533486 0.888492
vt 0.468552 0.276854
vt 0.468553 0.888840
vt 0.414099 0.276674
vt 0.468554 0.948614
vt 0.403545 0.888492
vt 0.386738 0.276549
vt 0.399144 0.947820
vt 0.386754 0.991285
vt 0.361737 0.888686
vt 0.352258 0.947317
vt 0.317876 0.991153
vt 0.298389 0.865679
vt 0.331755 0.276397
vt 0.291035 0.911893
vt 0.276730 0.946728
vt 0.243395 0.990922
vt 0.267458 0.851401
vt 0.209217 0.863463
vt 0.209217 0.921705
vt 0.185092 0.892584
vt 0.267458 0.933767
vt 0.591210 0.099499
vt 0.597463 0.136145
vt 0.591210 0.172790
vt 0.572952 0.206134
vt 0.572952 0.066156
vt 0.544186 0.233057
vt 0.544186 0.039233
vt 0.507390 0.250802
vt 0.507390 0.021488
vt 0.466045 0.257093
vt 0.466045 0.015196
vt 0.740289 0.100345
vt 0.740289 0.170566
vt 0.746280 0.135456
vt 0.722796 0.202513
vt 0.722796 0.068399
vt 0.695234 0.228308
vt 0.695235 0.042603
vt 0.659979 0.025601
vt 0.659979 0.245310
vt 0.620367 0.251338
vt 0.620367 0.019573
vt 0.090163 0.020751
vt 0.091229 0.022519
vt 0.094889 0.022222
vt 0.091028 0.026547
vt 0.088368 0.022230
vt 0.099328 0.026214
vt 0.083682 0.026144
vt 0.087703 0.104062
vt 0.129942 0.102512
vt 0.050339 0.102155
vt 0.229360 0.290323
vt 0.298502 0.290323
vt 0.296648 0.312264
vt 0.228357 0.312264
vt 0.160135 0.290323
vt 0.293315 0.351478
vt 0.255324 0.797758
vt 0.206178 0.797758
vt 0.226566 0.351478
vt 0.156987 0.797758
vt 0.159999 0.312264
vt 0.090912 0.290323
vt 0.159756 0.351478
vt 0.107796 0.797758
vt 0.091642 0.312264
vt 0.021749 0.290323
vt 0.023333 0.312264
vt 0.092947 0.351478
vt 0.026181 0.351478
vt 0.058638 0.797758
vt 0.715927 0.990342
vt 0.741247 0.353433
vt 0.801059 0.353317
vt 0.770910 0.990494
vt 0.754634 0.247341
vt 0.812056 0.353307
vt 0.798271 0.990620
vt 0.808043 0.247255
vt 0.765361 0.121363
vt 0.852724 0.990800
vt 0.814561 0.120450
vt 0.793724 0.076693
vt 0.821029 0.247243
vt 0.852721 0.353227
vt 0.825732 0.120395
vt 0.893319 0.353307
vt 0.907104 0.990620
vt 0.852717 0.247161
vt 0.884346 0.247243
vt 0.852717 0.120010
vt 0.852729 0.094912
vt 0.879643 0.120395
vt 0.852664 0.088126
vt 0.852709 0.028948
vt 0.911651 0.076693
vt 0.890814 0.120450
vt 0.940014 0.121363
vt 0.897331 0.247255
vt 0.950740 0.247341
vt 0.904315 0.353317
vt 0.964128 0.353433
vt 0.989448 0.990342
vt 0.934465 0.990489
vt 0.658250 0.416510
vt 0.700963 0.416510
vt 0.700963 0.450133
vt 0.700963 0.382887
vt 0.658250 0.450133
vt 0.658250 0.382887
vt 0.700963 0.481733
vt 0.700963 0.351287
vt 0.658250 0.481733
vt 0.658250 0.351287
vt 0.700963 0.509624
vt 0.700963 0.323397
vt 0.658250 0.509624
vt 0.658250 0.323397
vt 0.700963 0.532952
vt 0.700963 0.300069
vt 0.658250 0.532952
vt 0.658250 0.300069
vt 0.700963 0.552593
vt 0.700963 0.280427
vt 0.658250 0.552593
vt 0.658250 0.280427
vt 0.092383 0.828681
vt 0.158991 0.841416
vt 0.158991 0.868618
vt 0.092383 0.861477
vt 0.158991 0.896674
vt 0.021420 0.811152
vt 0.021420 0.852789
vt 0.092383 0.896697
vt 0.021420 0.896644
vt 0.158991 0.924760
vt 0.092383 0.931894
vt 0.021420 0.940532
vt 0.158991 0.951878
vt 0.092383 0.964642
vt 0.021420 0.982301
vt 0.222634 0.120560
vt 0.210335 0.126710
vt 0.178805 0.103116
vt 0.264179 0.134440
vt 0.257523 0.142475
vt 0.194874 0.099788
vt 0.167733 0.075285
vt 0.244104 0.109825
vt 0.185126 0.075285
vt 0.178805 0.047454
vt 0.215490 0.075285
vt 0.313184 0.124132
vt 0.194874 0.050782
vt 0.244104 0.040745
vt 0.210335 0.023860
vt 0.222633 0.030009
vt 0.257523 0.008095
vt 0.264179 0.016130
vt 0.313184 0.026438
vt 0.313184 0.002560
vt 0.313184 0.011256
vt 0.368845 0.008095
vt 0.362190 0.016130
vt 0.382264 0.040745
vt 0.416034 0.023860
vt 0.403735 0.030009
vt 0.447563 0.047454
vt 0.431494 0.050782
vt 0.410877 0.075285
vt 0.458635 0.075285
vt 0.441242 0.075285
vt 0.447563 0.103116
vt 0.431494 0.099788
vt 0.382264 0.109825
vt 0.416034 0.126710
vt 0.403735 0.120560
vt 0.368846 0.142475
vt 0.362190 0.134440
vt 0.313184 0.148010
vt 0.313184 0.139314
vt 0.264508 0.260178
vt 0.270465 0.264062
vt 0.228836 0.278457
vt 0.223247 0.274288
vt 0.164268 0.286056
vt 0.297797 0.236653
vt 0.306861 0.238905
vt 0.164268 0.280938
vt 0.102955 0.279545
vt 0.107459 0.275013
vt 0.052641 0.261347
vt 0.208261 0.261352
vt 0.060409 0.258368
vt 0.023850 0.240532
vt 0.164268 0.265727
vt 0.120276 0.261352
vt 0.189897 0.239185
vt 0.032189 0.237738
vt 0.008653 0.208248
vt 0.082981 0.248892
vt 0.018888 0.208248
vt 0.021675 0.177592
vt 0.058062 0.230245
vt 0.030739 0.179844
vt 0.058070 0.152435
vt 0.049311 0.208248
vt 0.064029 0.156319
vt 0.099701 0.138039
vt 0.058062 0.186252
vt 0.105290 0.142209
vt 0.164268 0.130441
vt 0.082981 0.167605
vt 0.164268 0.135559
vt 0.228836 0.138039
vt 0.120276 0.155145
vt 0.223247 0.142209
vt 0.270466 0.152435
vt 0.164268 0.150770
vt 0.264508 0.156319
vt 0.306861 0.177592
vt 0.208261 0.155145
vt 0.297797 0.179844
vt 0.319883 0.208248
vt 0.245555 0.167605
vt 0.309648 0.208248
vt 0.270475 0.186252
vt 0.279226 0.208248
vt 0.270475 0.230245
vt 0.226141 0.195434
vt 0.245555 0.248892
vt 0.231239 0.208248
vt 0.226141 0.221063
vt 0.211624 0.231926
vt 0.164268 0.208248
vt 0.164268 0.241734
vt 0.138640 0.239185
vt 0.116913 0.231926
vt 0.102396 0.221063
vt 0.097298 0.208248
vt 0.102396 0.195434
vt 0.116913 0.184571
vt 0.138640 0.177312
vt 0.164268 0.174763
vt 0.189897 0.177312
vt 0.211624 0.184571
s 1
usemtl 材质
f 1/1/1 2/2/2 3/3/3
f 4/3/4 5/2/5 6/1/5
f 3/3/3 7/4/6 1/1/1
f 6/1/7 8/4/8 4/3/7
f 9/5/9 1/1/1 7/4/6
f 4/3/10 8/4/8 10/6/11
f 3/3/3 11/6/12 7/4/6
f 8/4/13 6/1/14 12/5/15
f 13/7/16 7/4/6 11/6/12
f 11/6/12 14/8/17 13/7/16
f 14/8/17 15/9/18 16/10/19
f 16/10/19 13/7/16 14/8/17
f 13/7/16 16/10/19 17/11/20
f 17/11/20 18/12/21 13/7/16
f 7/4/6 13/7/16 18/12/21
f 18/12/22 17/11/22 19/13/23
f 18/12/21 20/14/24 7/4/6
f 7/4/6 20/14/24 9/5/25
f 21/15/26 9/5/27 20/14/24
f 20/14/24 22/16/28 21/15/26
f 22/16/28 20/14/24 18/12/21
f 23/17/29 21/15/26 22/16/28
f 18/12/21 24/18/30 22/16/28
f 19/13/31 24/18/30 18/12/21
f 22/16/28 25/19/32 23/17/29
f 26/20/33 23/17/29 25/19/32
f 22/16/28 24/18/30 27/21/34
f 27/21/34 25/19/32 22/16/28
f 27/21/34 24/18/30 19/13/31
f 19/13/31 28/22/35 27/21/34
f 29/23/36 25/19/32 27/21/34
f 25/19/33 29/23/33 26/20/37
f 30/24/38 27/21/34 28/22/20
f 27/21/34 30/24/38 29/23/36
f 28/22/39 31/25/40 30/24/38
f 26/20/41 29/23/36 32/26/42
f 32/26/43 33/27/44 26/20/41
f 29/23/36 34/28/45 32/26/42
f 34/28/45 29/23/36 30/24/38
f 30/24/38 35/29/46 34/28/45
f 35/29/46 30/24/38 31/25/40
f 31/25/40 36/30/47 35/29/46
f 37/31/48 38/32/48 39/33/48
f 38/32/48 40/34/48 39/33/48
f 41/33/48 42/35/48 43/31/48
f 43/31/48 42/35/48 44/33/48
f 44/33/48 45/32/48 43/31/48
f 45/32/48 44/33/48 46/34/48
f 47/36/49 48/37/50 49/38/49
f 47/36/49 49/38/49 50/39/50
f 50/39/50 51/40/50 47/36/49
f 51/40/50 50/39/50 52/41/50
f 52/41/50 53/42/50 51/40/50
f 53/42/50 52/41/50 54/43/50
f 54/43/50 55/44/50 53/42/50
f 55/44/50 54/43/50 56/45/49
f 56/45/49 57/46/49 55/44/50
f 58/44/51 57/46/49 56/45/49
f 56/45/49 59/43/51 58/44/51
f 60/42/51 58/44/51 59/43/51
f 59/43/51 61/41/51 60/42/51
f 62/40/51 60/42/51 61/41/51
f 61/41/51 63/39/51 62/40/51
f 64/36/49 62/40/51 63/39/51
f 63/39/51 65/38/49 64/36/49
f 64/36/49 65/38/49 66/37/51
f 67/47/48 68/48/48 69/49/48
f 70/50/52 68/48/48 67/47/48
f 67/47/48 71/51/52 70/50/52
f 72/52/52 70/50/52 71/51/52
f 71/51/52 73/53/52 72/52/52
f 72/52/52 73/53/52 74/54/52
f 74/54/52 75/55/52 72/52/52
f 76/56/48 75/55/52 74/54/52
f 74/54/52 77/57/48 76/56/48
f 76/56/48 77/57/48 78/54/53
f 78/54/53 79/55/53 76/56/48
f 80/52/53 79/55/53 78/54/53
f 78/54/53 81/53/53 80/52/53
f 80/52/53 81/53/53 82/51/53
f 82/51/53 83/50/53 80/52/53
f 83/50/53 82/51/53 84/47/48
f 84/47/48 85/48/48 83/50/53
f 84/47/48 86/49/48 85/48/48
f 87/10/54 88/9/55 89/8/56
f 89/8/56 90/7/57 87/10/54
f 90/7/57 89/8/56 10/6/58
f 91/11/59 87/10/54 90/7/57
f 10/6/58 8/4/60 90/7/57
f 90/7/57 92/12/61 91/11/59
f 92/12/61 90/7/57 8/4/62
f 93/13/63 91/11/59 92/12/61
f 8/4/62 94/14/64 92/12/61
f 12/5/65 94/14/64 8/4/62
f 94/14/64 12/5/65 95/15/66
f 95/15/66 96/16/67 94/14/64
f 92/12/61 94/14/64 96/16/67
f 96/16/67 95/15/66 97/17/68
f 96/16/67 98/18/69 92/12/61
f 92/12/61 98/18/69 93/13/63
f 97/17/68 99/19/70 96/16/67
f 99/19/70 97/17/68 100/20/71
f 101/21/72 98/18/69 96/16/67
f 93/13/63 98/18/69 101/21/72
f 96/16/67 99/19/70 101/21/72
f 101/21/72 102/22/73 93/13/63
f 101/21/72 99/19/70 103/23/74
f 100/20/71 103/23/74 99/19/70
f 102/22/73 101/21/72 104/24/75
f 103/23/74 104/24/75 101/21/72
f 104/24/75 105/25/76 102/22/73
f 106/29/77 107/30/78 105/25/76
f 105/25/76 104/24/75 106/29/77
f 108/28/79 106/29/77 104/24/75
f 104/24/75 103/23/74 108/28/79
f 103/23/74 109/26/80 108/28/79
f 109/26/80 103/23/74 100/20/71
f 100/20/71 110/27/81 109/26/80
f 111/58/82 112/59/83 113/60/84
f 113/60/84 112/59/83 114/61/85
f 114/61/85 112/59/83 115/62/86
f 114/61/85 116/63/87 113/60/84
f 115/62/86 117/64/88 114/61/85
f 116/63/87 114/61/85 118/65/89
f 118/65/89 114/61/85 117/64/88
f 118/65/89 119/66/90 116/63/87
f 117/64/88 120/67/91 118/65/89
f 121/58/92 122/60/93 123/59/94
f 124/61/95 123/59/94 122/60/93
f 125/62/96 123/59/94 124/61/95
f 122/60/93 126/63/97 124/61/95
f 124/61/95 127/64/98 125/62/96
f 128/65/99 124/61/95 126/63/97
f 127/64/98 124/61/95 128/65/99
f 126/63/97 129/66/100 128/65/99
f 128/65/99 130/67/101 127/64/98
f 131/68/102 132/69/103 133/70/104
f 133/70/104 134/71/105 131/68/102
f 135/72/106 131/68/102 134/71/105
f 134/71/105 133/70/104 136/73/107
f 136/73/107 137/74/108 138/75/109
f 138/75/109 139/76/110 136/73/107
f 136/73/107 139/76/110 134/71/105
f 139/76/110 138/75/109 140/77/111
f 141/78/112 134/71/105 139/76/110
f 134/71/105 141/78/112 135/72/106
f 142/79/113 135/72/106 141/78/112
f 140/77/111 143/80/114 139/76/110
f 139/76/110 143/80/114 141/78/112
f 143/80/114 140/77/111 144/81/115
f 141/78/112 145/82/116 142/79/113
f 145/82/116 141/78/112 143/80/114
f 146/83/117 142/79/113 145/82/116
f 145/82/116 147/84/118 146/83/117
f 143/80/114 148/85/119 145/82/116
f 147/84/118 145/82/116 148/85/119
f 144/81/115 148/85/119 143/80/114
f 148/85/119 149/86/120 147/84/118
f 148/85/119 144/81/115 150/87/121
f 150/87/121 149/86/120 148/85/119
f 151/68/122 152/69/123 153/70/124
f 153/70/124 154/71/125 151/68/122
f 155/72/126 151/68/122 154/71/125
f 154/71/125 153/70/124 156/73/127
f 156/73/127 157/74/128 158/75/129
f 158/75/129 159/76/130 156/73/127
f 156/73/127 159/76/130 154/71/125
f 159/76/130 158/75/129 160/77/131
f 161/78/132 154/71/125 159/76/130
f 154/71/125 161/78/132 155/72/126
f 162/79/133 155/72/126 161/78/132
f 160/77/131 163/80/134 159/76/130
f 159/76/130 163/80/134 161/78/132
f 163/80/134 160/77/131 164/81/135
f 161/78/132 165/82/136 162/79/133
f 165/82/136 161/78/132 163/80/134
f 166/83/137 162/79/133 165/82/136
f 165/82/136 167/84/138 166/83/137
f 163/80/134 168/85/139 165/82/136
f 167/84/138 165/82/136 168/85/139
f 164/81/135 168/85/139 163/80/134
f 168/85/139 169/86/140 167/84/138
f 168/85/139 164/81/135 170/87/141
f 170/87/141 169/86/140 168/85/139
f 171/88/142 172/89/143 173/90/144
f 173/90/144 174/91/145 171/88/142
f 173/90/144 172/89/143 175/92/146
f 174/91/145 173/90/144 176/93/147
f 176/93/147 177/94/148 174/91/145
f 175/92/146 178/95/149 173/90/144
f 176/93/147 173/90/144 178/95/149
f 178/95/149 175/92/146 179/96/150
f 180/97/151 177/94/148 176/93/147
f 179/96/150 181/98/152 178/95/149
f 181/98/152 179/96/150 182/99/153
f 178/95/149 183/100/154 176/93/147
f 183/100/154 178/95/149 181/98/152
f 184/101/155 176/93/147 183/100/154
f 176/93/147 184/101/155 180/97/151
f 181/98/152 185/102/156 183/100/154
f 180/97/151 184/101/155 186/103/157
f 186/103/157 187/104/158 180/97/151
f 183/100/154 188/105/159 184/101/155
f 188/105/159 183/100/154 185/102/156
f 184/101/155 188/105/159 189/106/160
f 189/106/160 186/103/157 184/101/155
f 185/102/156 190/107/161 188/105/159
f 189/106/160 188/105/159 190/107/161
f 190/107/161 185/102/156 191/108/162
f 191/108/162 185/102/156 181/98/152
f 190/107/161 192/109/163 189/106/160
f 192/109/163 190/107/161 191/108/162
f 181/98/152 193/110/164 191/108/162
f 182/99/153 193/110/164 181/98/152
f 182/99/153 194/111/165 193/110/164
f 193/110/164 194/111/165 195/112/166
f 191/108/162 193/110/164 196/113/167
f 196/113/167 193/110/164 195/112/166
f 196/113/167 192/109/163 191/108/162
f 195/112/166 197/114/168 196/113/167
f 192/109/163 196/113/167 198/115/169
f 198/115/169 196/113/167 197/114/168
f 198/115/169 189/106/160 192/109/163
f 197/114/168 199/116/170 198/115/169
f 189/106/160 198/115/169 200/117/171
f 200/117/171 198/115/169 199/116/170
f 200/117/171 186/103/157 189/106/160
f 199/116/170 201/118/172 200/117/171
f 187/104/158 186/103/157 200/117/171
f 200/117/171 201/118/172 202/119/173
f 200/117/171 203/120/174 187/104/158
f 202/119/173 203/120/174 200/117/171
f 204/90/175 205/89/176 206/88/177
f 206/88/177 207/91/178 204/90/175
f 208/92/179 205/89/176 204/90/175
f 209/93/180 204/90/175 207/91/178
f 207/91/178 210/94/181 209/93/180
f 204/90/175 211/95/182 208/92/179
f 211/95/182 204/90/175 209/93/180
f 212/96/183 208/92/179 211/95/182
f 209/93/180 210/94/181 213/97/184
f 211/95/182 214/98/185 212/96/183
f 215/99/186 212/96/183 214/98/185
f 209/93/180 216/100/187 211/95/182
f 214/98/185 211/95/182 216/100/187
f 213/97/184 217/101/188 209/93/180
f 216/100/187 209/93/180 217/101/188
f 218/103/189 217/101/188 213/97/184
f 213/97/184 219/104/190 218/103/189
f 217/101/188 220/105/191 216/100/187
f 221/117/192 218/103/189 219/104/190
f 219/104/190 222/120/193 221/117/192
f 221/117/192 222/120/193 223/119/194
f 223/119/194 224/118/195 221/117/192
f 221/117/192 224/118/195 225/116/196
f 225/116/197 226/115/198 221/117/199
f 226/115/198 225/116/197 227/114/200
f 228/106/201 218/103/189 221/117/192
f 221/117/192 226/115/198 228/106/201
f 217/101/188 218/103/189 228/106/201
f 228/106/201 220/105/202 217/101/188
f 227/114/200 229/113/203 226/115/198
f 229/113/203 227/114/200 230/112/204
f 231/109/205 228/106/201 226/115/198
f 226/115/198 229/113/203 231/109/205
f 228/106/201 231/109/205 232/107/206
f 232/107/206 220/105/191 228/106/201
f 233/108/207 231/109/205 229/113/203
f 231/109/205 233/108/207 232/107/206
f 220/105/191 232/107/206 234/102/208
f 232/107/206 233/108/207 234/102/208
f 234/102/208 216/100/187 220/105/191
f 216/100/187 234/102/208 214/98/185
f 214/98/185 234/102/208 233/108/207
f 233/108/207 235/110/209 214/98/185
f 229/113/203 235/110/209 233/108/207
f 214/98/185 235/110/209 215/99/186
f 230/112/204 235/110/209 229/113/203
f 215/99/186 235/110/209 236/111/210
f 235/110/209 230/112/204 236/111/210
f 237/121/211 238/122/211 239/123/212
f 240/124/213 238/122/211 237/121/211
f 239/123/212 241/125/214 237/121/211
f 237/121/211 242/126/215 240/124/213
f 241/125/214 239/123/212 243/127/216
f 244/128/217 240/124/213 242/126/215
f 243/127/216 245/129/218 241/125/214
f 242/126/215 246/130/219 244/128/217
f 245/129/218 243/127/216 247/131/220
f 248/132/221 244/128/217 246/130/219
f 247/131/220 249/133/222 245/129/218
f 246/130/219 250/134/223 248/132/221
f 249/133/222 247/131/220 251/135/224
f 252/136/225 248/132/221 250/134/223
f 251/135/224 253/137/226 249/133/222
f 250/134/223 254/138/227 252/136/225
f 253/137/226 251/135/224 255/139/228
f 256/140/229 252/136/225 254/138/227
f 255/139/228 257/141/230 253/137/226
f 254/138/227 258/142/231 256/140/229
f 259/137/232 257/141/230 255/139/228
f 256/140/229 258/142/231 260/138/233
f 255/139/228 261/135/234 259/137/232
f 260/138/233 262/136/235 256/140/229
f 263/133/236 259/137/232 261/135/234
f 262/136/235 260/138/233 264/134/237
f 261/135/234 265/131/238 263/133/236
f 264/134/237 266/132/239 262/136/235
f 267/129/240 263/133/236 265/131/238
f 266/132/239 264/134/237 268/130/241
f 265/131/238 269/127/242 267/129/240
f 268/130/241 270/128/243 266/132/239
f 271/125/244 267/129/240 269/127/242
f 270/128/243 268/130/241 272/126/245
f 269/127/242 273/123/246 271/125/244
f 272/126/245 274/124/247 270/128/243
f 275/121/248 271/125/244 273/123/246
f 274/124/247 272/126/245 275/121/248
f 273/123/246 276/122/249 275/121/248
f 275/121/248 276/122/249 274/124/247
f 277/143/250 278/144/251 279/145/252
f 280/145/253 278/144/251 277/143/250
f 279/145/252 281/146/254 277/143/250
f 281/146/254 279/145/252 282/147/255
f 277/143/250 283/146/256 280/145/253
f 284/147/257 280/145/253 283/146/256
f 283/146/256 277/143/250 285/148/258
f 285/148/258 277/143/250 281/146/254
f 285/148/258 286/149/259 283/146/256
f 281/146/254 287/149/260 285/148/258
f 288/150/261 283/146/256 286/149/259
f 283/146/256 288/150/261 284/147/257
f 286/149/259 289/151/262 288/150/261
f 290/152/263 284/147/257 288/150/261
f 291/153/264 288/150/261 289/151/262
f 288/150/261 291/153/264 290/152/263
f 289/151/262 292/154/265 291/153/264
f 293/155/266 290/152/263 291/153/264
f 294/156/267 291/153/264 292/154/265
f 291/153/264 294/156/267 293/155/266
f 292/154/265 295/157/268 294/156/267
f 294/156/267 295/157/268 296/154/269
f 293/155/266 294/156/267 297/153/270
f 296/154/269 297/153/270 294/156/267
f 297/153/270 298/152/271 293/155/266
f 297/153/270 296/154/269 299/151/272
f 298/152/271 297/153/270 300/150/273
f 299/151/272 300/150/273 297/153/270
f 300/150/273 282/147/255 298/152/271
f 300/150/273 299/151/272 287/149/260
f 282/147/255 300/150/273 281/146/254
f 287/149/260 281/146/254 300/150/273
f 301/158/274 302/159/275 303/160/276
f 302/159/275 301/158/274 304/161/277
f 304/161/277 305/162/278 302/159/275
f 303/160/276 306/163/279 301/158/274
f 306/163/279 303/160/276 307/164/280
f 306/163/279 308/165/49 301/158/274
f 308/165/49 304/161/277 301/158/274
f 307/164/280 309/166/281 306/163/279
f 309/166/281 307/164/280 310/167/282
f 306/163/279 311/168/49 308/165/49
f 311/168/49 306/163/279 309/166/281
f 304/161/277 308/165/49 312/169/49
f 313/170/283 311/168/49 309/166/281
f 310/167/282 313/170/283 309/166/281
f 313/170/283 314/171/49 311/168/49
f 313/170/283 310/167/282 315/172/284
f 315/172/284 316/173/285 313/170/283
f 314/171/49 313/170/283 316/173/285
f 316/173/285 315/172/284 317/174/286
f 318/175/287 314/171/49 316/173/285
f 317/174/286 318/175/287 316/173/285
f 318/175/287 319/176/49 314/171/49
f 318/175/287 317/174/286 320/177/288
f 320/177/288 321/178/289 318/175/287
f 319/176/49 318/175/287 321/178/289
f 321/178/289 320/177/288 322/179/290
f 323/180/291 319/176/49 321/178/289
f 322/179/290 323/180/291 321/178/289
f 323/180/291 324/181/49 319/176/49
f 323/180/291 322/179/290 325/182/292
f 325/182/292 326/183/293 323/180/291
f 324/181/49 323/180/291 326/183/293
f 326/183/293 325/182/292 327/184/294
f 328/185/295 324/181/49 326/183/293
f 327/184/294 328/185/295 326/183/293
f 328/185/295 329/186/49 324/181/49
f 328/185/295 327/184/294 330/187/296
f 330/187/296 331/188/297 328/185/295
f 329/186/49 328/185/295 331/188/297
f 331/188/297 330/187/296 332/189/298
f 333/190/299 329/186/49 331/188/297
f 332/189/298 333/190/299 331/188/297
f 333/190/299 334/191/49 329/186/49
f 333/190/299 332/189/298 335/192/300
f 335/192/300 336/193/301 333/190/299
f 334/191/49 333/190/299 336/193/301
f 336/193/301 335/192/300 337/194/302
f 338/195/303 334/191/49 336/193/301
f 337/194/302 338/195/303 336/193/301
f 338/195/303 312/169/49 334/191/49
f 338/195/303 337/194/302 339/196/304
f 312/169/49 338/195/303 340/197/305
f 339/196/304 340/197/305 338/195/303
f 304/161/277 312/169/49 340/197/305
f 340/197/305 339/196/304 305/162/278
f 305/162/278 304/161/277 340/197/305
f 341/198/306 342/199/307 343/200/308
f 343/200/308 344/201/309 341/198/306
f 344/201/309 343/200/308 345/202/310
f 342/199/307 341/198/306 346/203/311
f 346/203/311 347/204/312 342/199/307
f 345/202/310 348/205/313 344/201/309
f 348/205/313 345/202/310 349/206/314
f 349/206/314 350/207/315 348/205/313
f 350/207/315 349/206/314 351/208/316
f 352/209/317 344/201/309 348/205/313
f 351/208/316 353/210/318 350/207/315
f 353/210/318 351/208/316 354/211/319
f 355/212/320 348/205/313 350/207/315
f 348/205/313 355/212/320 352/209/317
f 350/207/315 356/213/321 355/212/320
f 356/213/321 350/207/315 353/210/318
f 357/214/322 352/209/317 355/212/320
f 354/211/319 358/215/323 353/210/318
f 358/215/323 354/211/319 359/216/20
f 360/217/324 353/210/318 358/215/323
f 353/210/318 360/217/324 356/213/321
f 359/216/20 361/218/325 358/215/323
f 361/218/325 359/216/20 362/219/326
f 358/215/323 363/220/327 360/217/324
f 363/220/327 358/215/323 361/218/325
f 362/219/326 364/221/328 361/218/325
f 364/221/328 362/219/326 365/222/329
f 361/218/325 366/223/330 363/220/327
f 366/223/330 361/218/325 364/221/328
f 365/222/329 367/224/331 364/221/328
f 367/224/331 365/222/329 368/225/332
f 364/221/328 369/226/333 366/223/330
f 369/226/333 364/221/328 367/224/331
f 368/225/332 370/227/334 367/224/331
f 370/227/334 368/225/332 371/228/335
f 367/224/331 372/229/336 369/226/333
f 372/229/336 367/224/331 370/227/334
f 371/228/335 373/230/337 370/227/334
f 373/230/337 371/228/335 374/231/338
f 370/227/334 375/232/339 372/229/336
f 375/232/339 370/227/334 373/230/337
f 374/231/338 376/233/340 373/230/337
f 376/233/340 374/231/338 377/234/341
f 373/230/337 378/235/342 375/232/339
f 378/235/342 373/230/337 376/233/340
f 377/234/341 379/236/343 376/233/340
f 379/236/343 377/234/341 380/237/344
f 376/233/340 381/238/345 378/235/342
f 381/238/345 376/233/340 379/236/343
f 380/237/344 382/239/346 379/236/343
f 382/239/346 380/237/344 383/240/347
f 379/236/343 384/241/348 381/238/345
f 384/241/348 379/236/343 382/239/346
f 383/240/347 385/242/349 382/239/346
f 385/242/349 383/240/347 347/204/312
f 347/204/312 346/203/311 385/242/349
f 386/243/350 382/239/346 385/242/349
f 382/239/346 386/243/350 384/241/348
f 387/244/351 385/242/349 346/203/311
f 385/242/349 387/244/351 386/243/350
f 346/203/311 388/245/352 387/244/351
f 388/245/352 346/203/311 341/198/306
f 389/246/353 386/243/350 387/244/351
f 341/198/306 390/247/354 388/245/352
f 390/247/354 341/198/306 344/201/309
f 344/201/309 352/209/317 390/247/354
f 391/248/355 387/244/351 388/245/352
f 387/244/351 391/248/355 389/246/353
f 392/249/356 388/245/352 390/247/354
f 388/245/352 392/249/356 391/248/355
f 393/250/357 390/247/354 352/209/317
f 390/247/354 393/250/357 392/249/356
f 352/209/317 357/214/322 393/250/357
f 391/248/355 392/249/356 394/251/48
f 392/249/356 393/250/357 394/251/48
f 393/250/357 357/214/322 394/251/48
f 389/246/353 391/248/355 394/251/48
f 355/212/320 395/252/358 357/214/322
f 357/214/322 395/252/358 394/251/48
f 395/252/358 355/212/320 356/213/321
f 356/213/321 396/253/359 395/252/358
f 395/252/358 396/253/359 394/251/48
f 396/253/359 356/213/321 360/217/324
f 360/217/324 397/254/360 396/253/359
f 396/253/359 397/254/360 394/251/48
f 397/254/360 360/217/324 363/220/327
f 363/220/327 398/255/361 397/254/360
f 397/254/360 398/255/361 394/251/48
f 398/255/361 363/220/327 366/223/330
f 366/223/330 399/256/362 398/255/361
f 398/255/361 399/256/362 394/251/48
f 399/256/362 366/223/330 369/226/333
f 369/226/333 400/257/363 399/256/362
f 399/256/362 400/257/363 394/251/48
f 400/257/363 369/226/333 372/229/336
f 372/229/336 401/258/364 400/257/363
f 400/257/363 401/258/364 394/251/48
f 401/258/364 372/229/336 375/232/339
f 375/232/339 402/259/365 401/258/364
f 401/258/364 402/259/365 394/251/48
f 402/259/365 375/232/339 378/235/342
f 378/235/342 403/260/366 402/259/365
f 402/259/365 403/260/366 394/251/48
f 403/260/367 378/235/367 381/238/367
f 381/238/345 404/261/368 403/260/366
f 403/260/366 404/261/368 394/251/48
f 404/261/368 381/238/345 384/241/348
f 404/261/368 405/262/369 394/251/48
f 384/241/348 405/262/369 404/261/368
f 405/262/369 389/246/353 394/251/48
f 405/262/369 384/241/348 386/243/350
f 386/243/350 389/246/353 405/262/369
