# Blender 4.3.2
# www.blender.org
mtllib 刀1.mtl
o Nail1
v 6.705427 -0.040483 9.173955
v 6.705427 0.122269 9.173955
v 5.787591 -0.040483 8.185019
v 5.787591 0.122269 8.185019
v 7.392587 -0.040483 8.536199
v 7.392587 0.122269 8.536199
v 6.474751 -0.040483 7.547264
v 6.474751 0.122269 7.547264
v 6.808291 0.062025 8.408540
v 6.808291 0.775746 8.203952
v 6.932570 0.062025 8.498833
v 7.147686 0.775746 8.450537
v 6.885099 0.062025 8.644931
v 7.018048 0.775746 8.849519
v 6.731483 0.062025 8.644931
v 6.598534 0.775746 8.849519
v 6.684013 0.062025 8.498833
v 6.468896 0.775746 8.450537
vn -0.7330 -0.0000 0.6803
vn -0.6803 -0.0000 -0.7330
vn 0.7330 -0.0000 -0.6803
vn 0.6803 -0.0000 0.7330
vn -0.0000 -1.0000 -0.0000
vn -0.0000 1.0000 -0.0000
vn 0.5726 -0.2259 -0.7881
vn 0.9192 -0.2568 0.2987
vn -0.0000 -0.2756 0.9613
vn -0.9192 -0.2568 0.2987
vn -0.5726 -0.2259 -0.7881
vt 0.938349 0.145261
vt 0.946040 0.145261
vt 0.946040 0.209018
vt 0.938349 0.209018
vt 0.946040 0.216708
vt 0.990341 0.209018
vt 0.990341 0.216708
vt 0.998032 0.209018
vt 0.990341 0.145261
vt 0.998032 0.145261
vt 0.990341 0.137570
vt 0.946040 0.137570
vt 0.946040 0.073813
vt 0.990341 0.073813
vt 0.978691 0.021351
vt 0.973604 0.056065
vt 0.954715 0.050051
vt 0.971774 0.019149
vt 0.938999 0.037968
vt 0.966020 0.014724
vt 0.928922 0.020896
vt 0.962330 0.008473
vt 0.818608 0.565741
vt 0.802572 0.577396
vt 0.786532 0.565746
vt 0.792655 0.546891
vt 0.812479 0.546888
vt 0.925939 0.001298
vt 0.961237 0.001297
vt 0.985949 0.021226
vt 0.993425 0.055724
s 1
usemtl 材质
f 1/1/1 2/2/1 4/3/1 3/4/1
f 3/5/2 4/3/2 8/6/2 7/7/2
f 7/8/3 8/6/3 6/9/3 5/10/3
f 5/11/4 6/9/4 2/2/4 1/12/4
f 3/13/5 7/14/5 5/11/5 1/12/5
f 8/6/6 4/3/6 2/2/6 6/9/6
f 9/15/7 10/16/7 12/17/7 11/18/7
f 11/18/8 12/17/8 14/19/8 13/20/8
f 13/20/9 14/19/9 16/21/9 15/22/9
f 12/23/6 10/24/6 18/25/6 16/26/6 14/27/6
f 15/22/10 16/21/10 18/28/10 17/29/10
f 17/30/11 18/31/11 10/16/11 9/15/11
o Ob6p3
v -0.107587 0.298533 0.000000
v -0.157065 0.298533 0.000000
v -0.111062 0.298533 0.111062
v -0.111062 0.298533 -0.111062
v -0.157065 0.298533 0.000000
v -0.076075 0.298533 0.062118
v -0.000000 0.298533 0.157065
v -0.076075 0.298533 -0.062118
v -0.000000 0.298534 -0.157065
v -0.091892 0.329045 0.000000
v -0.000000 0.298533 -0.087849
v 0.111062 0.298533 -0.111062
v -0.064978 0.329045 -0.047992
v 0.076074 0.298533 -0.062118
v 0.157065 0.298533 0.000000
v -0.000000 0.329045 -0.067871
v 0.064978 0.329045 -0.047992
v 0.107587 0.298533 0.000000
v 0.091892 0.329045 0.000000
v 0.076074 0.298533 0.062118
v 0.111062 0.298533 0.111062
v 0.064978 0.329045 0.047993
v 0.091892 0.329045 0.000000
v -0.064978 0.329045 0.047993
v -0.000000 0.329045 0.067871
v -0.000000 0.298533 0.087850
v 0.157065 0.298533 0.000000
v 0.157065 0.254592 0.000000
v 0.111062 0.254592 -0.111062
v 0.111062 0.254592 0.111062
v 0.111062 0.298533 -0.111062
v 0.111062 0.298533 0.111062
v -0.000000 0.254592 -0.157065
v -0.000000 0.254592 0.157065
v -0.000000 0.298534 -0.157065
v -0.000000 0.298533 0.157065
v -0.111062 0.254592 -0.111062
v -0.111062 0.254592 0.111062
v -0.111062 0.298533 -0.111062
v -0.111062 0.298533 0.111062
v -0.157065 0.254592 0.000000
v -0.157065 0.298533 0.000000
v -0.080260 0.254592 0.000000
v -0.157065 0.254592 0.000000
v -0.111062 0.254592 -0.111062
v -0.111062 0.254592 0.111062
v -0.056753 0.254592 -0.053309
v -0.056753 0.254592 0.053309
v -0.000000 0.254592 -0.157065
v -0.000000 0.254592 0.157065
v -0.000000 0.254592 -0.075392
v -0.000000 0.254592 0.075392
v 0.111062 0.254592 -0.111062
v 0.111062 0.254592 0.111062
v 0.056753 0.254592 -0.053309
v 0.056753 0.254592 0.053309
v 0.157065 0.254592 0.000000
v 0.080260 0.254592 0.000000
v -0.000000 0.254592 0.000000
v -0.000000 0.254592 0.000000
v -0.000000 0.254592 0.000000
v -0.000000 0.254592 0.000000
v -0.000000 0.254592 0.000000
v -0.000000 0.254592 0.000000
v -0.000000 0.254592 0.000000
v -0.000000 0.254592 0.000000
vn -0.3899 0.9209 -0.0000
vn -0.0000 1.0000 -0.0000
vn -0.2557 0.9174 0.3051
vn -0.2557 0.9174 -0.3051
vn -0.6148 0.7887 -0.0000
vn 0.0034 0.9184 -0.3956
vn -0.3663 0.8193 -0.4412
vn 0.2513 0.9208 -0.2983
vn 0.0068 0.8403 -0.5421
vn 0.3732 0.8141 -0.4448
vn 0.3800 0.9250 -0.0000
vn 0.5881 0.7385 -0.3298
vn 0.2513 0.9208 0.2983
vn 0.3732 0.8141 0.4448
vn 0.5881 0.7385 0.3298
vn -0.3663 0.8193 0.4412
vn 0.0068 0.8403 0.5421
vn 0.0034 0.9184 0.3956
vn 1.0000 -0.0000 -0.0000
vn 0.7071 -0.0000 -0.7071
vn 0.7071 -0.0000 0.7071
vn -0.0000 -0.0000 -1.0000
vn -0.0000 -0.0000 1.0000
vn -0.7071 -0.0000 -0.7071
vn -0.7071 -0.0000 0.7071
vn -1.0000 -0.0000 -0.0000
vn -0.0000 -1.0000 -0.0000
vt 0.885744 0.684975
vt 0.885950 0.717856
vt 0.730173 0.687523
vt 0.885950 0.717856
vt 0.792212 0.660825
vt 0.672201 0.604520
vt 0.672201 0.604519
vt 0.885601 0.663665
vt 0.758761 0.604421
vt 0.728656 0.521172
vt 0.826795 0.645506
vt 0.790911 0.547592
vt 0.884463 0.490696
vt 0.800168 0.604271
vt 0.825146 0.562896
vt 0.884670 0.523533
vt 0.884814 0.544834
vt 0.884813 0.544834
vt 0.905637 0.996699
vt 0.986900 0.996699
vt 0.986900 0.904098
vt 0.905637 0.904098
vt 0.986900 0.801740
vt 0.905638 0.802240
vt 0.986900 0.703798
vt 0.905638 0.703798
vt 0.986900 0.620597
vt 0.905637 0.620597
vt 0.669187 0.738152
vt 0.739559 0.738152
vt 0.697413 0.687292
vt 0.697413 0.687292
vt 0.647648 0.713738
vt 0.595653 0.666219
vt 0.595650 0.703624
vt 0.595650 0.703624
vt 0.493886 0.687289
vt 0.543651 0.713737
vt 0.451743 0.738151
vt 0.522115 0.738151
s 1
usemtl 材质.005
f 19/32/12 20/33/13 21/34/13
f 22/34/13 23/35/13 19/32/12
f 21/34/13 24/36/14 19/32/12
f 24/36/14 21/34/13 25/37/13
f 19/32/12 26/36/15 22/34/13
f 27/38/13 22/34/13 26/36/15
f 26/36/15 19/32/12 28/39/16
f 28/39/16 19/32/12 24/36/14
f 26/36/15 29/40/17 27/38/13
f 30/41/13 27/38/13 29/40/17
f 29/40/17 26/36/15 31/42/18
f 28/39/16 31/42/18 26/36/15
f 29/40/17 32/43/19 30/41/13
f 33/44/13 30/41/13 32/43/19
f 31/42/18 34/45/20 29/40/17
f 32/43/19 29/40/17 34/45/20
f 35/46/21 34/45/20 31/42/18
f 34/45/20 35/46/21 32/43/19
f 35/46/21 31/42/18 28/39/16
f 36/47/22 32/43/19 35/46/21
f 32/43/19 36/47/22 33/44/13
f 28/39/16 37/48/23 35/46/21
f 35/46/21 37/48/23 36/47/22
f 33/44/13 36/47/22 38/43/24
f 38/43/24 39/41/13 33/44/13
f 40/46/25 38/43/24 36/47/22
f 36/47/22 41/49/26 40/46/25
f 40/46/25 41/49/26 28/39/16
f 28/39/16 42/42/27 40/46/25
f 24/36/14 42/42/27 28/39/16
f 40/46/25 42/42/27 43/45/28
f 38/43/24 40/46/25 43/45/28
f 42/42/27 24/36/14 44/40/29
f 44/40/29 43/45/28 42/42/27
f 43/45/28 44/40/29 38/43/24
f 39/41/13 38/43/24 44/40/29
f 25/37/13 44/40/29 24/36/14
f 44/40/29 25/37/13 39/41/13
f 45/50/30 46/51/30 47/52/31
f 48/52/32 46/51/30 45/50/30
f 47/52/31 49/53/31 45/50/30
f 45/50/30 50/53/32 48/52/32
f 49/53/31 47/52/31 51/54/33
f 52/54/34 48/52/32 50/53/32
f 51/54/33 53/55/33 49/53/31
f 50/53/32 54/55/34 52/54/34
f 53/55/33 51/54/33 55/56/35
f 56/56/36 52/54/34 54/55/34
f 55/56/35 57/57/35 53/55/33
f 54/55/34 58/57/36 56/56/36
f 57/57/35 55/56/35 59/58/37
f 59/58/37 56/56/36 58/57/36
f 59/58/37 60/59/37 57/57/35
f 58/57/36 60/59/37 59/58/37
f 61/60/38 62/61/38 63/62/38
f 64/63/38 62/61/38 61/60/38
f 63/62/38 65/64/38 61/60/38
f 61/60/38 66/64/38 64/63/38
f 65/64/38 63/62/38 67/65/38
f 68/65/38 64/63/38 66/64/38
f 67/65/38 69/66/38 65/64/38
f 66/64/38 70/67/38 68/65/38
f 69/66/38 67/65/38 71/68/38
f 72/68/38 68/65/38 70/67/38
f 71/68/38 73/69/38 69/66/38
f 70/67/38 74/69/38 72/68/38
f 73/69/38 71/68/38 75/70/38
f 75/70/38 72/68/38 74/69/38
f 75/70/38 76/71/38 73/69/38
f 74/69/38 76/71/38 75/70/38
f 74/69/38 70/67/38 81/67/38 83/69/38
f 73/69/38 76/71/38 84/71/38 82/69/38
f 61/60/38 65/64/38 78/64/38 77/60/38
f 70/67/38 66/64/38 79/64/38 81/67/38
f 69/66/38 73/69/38 82/69/38 80/66/38
f 76/71/38 74/69/38 83/69/38 84/71/38
f 66/64/38 61/60/38 77/60/38 79/64/38
f 65/64/38 69/66/38 80/66/38 78/64/38
o Ob6p1
v 0.048472 0.198722 0.000000
v 0.073245 0.254592 0.000000
v 0.049738 0.254592 0.053309
v 0.032221 0.198722 0.032982
v -0.007015 0.254592 0.075392
v 0.029152 0.101278 0.033750
v 0.044041 0.101278 0.000000
v 0.044945 -0.008446 0.000000
v -0.007015 0.198722 0.046644
v -0.063767 0.254592 0.053309
v -0.007056 0.101278 0.047635
v -0.046250 0.198722 0.032982
v -0.087274 0.254592 0.000000
v -0.044770 0.101278 0.033701
v 0.030277 -0.012260 0.034659
v -0.005488 -0.021560 0.048631
v 0.043262 -0.135929 0.034128
v 0.059083 -0.129707 0.000000
v 0.004166 -0.151012 0.048649
v 0.068540 -0.227432 0.044678
v 0.090591 -0.213395 0.000000
v 0.071399 -0.241783 -0.000008
v 0.027164 -0.245868 0.056102
v 0.058146 -0.249352 0.028118
v 0.033286 -0.266023 -0.000026
v 0.031491 -0.260156 0.036570
v -0.019439 -0.252016 0.044397
v 0.002135 -0.265112 0.028173
v -0.012094 -0.266213 -0.000008
v -0.043087 -0.252699 0.000000
v -0.034741 -0.165965 0.033895
v -0.041251 -0.030859 0.034659
v -0.050376 -0.172058 0.000000
v -0.059634 0.101278 0.000000
v -0.055919 -0.034673 0.000000
v -0.062502 0.198722 0.000000
v -0.046250 0.198722 -0.032981
v -0.063767 0.254592 -0.053309
v -0.044770 0.101278 -0.033701
v -0.007015 0.198722 -0.046644
v -0.007015 0.254592 -0.075392
v -0.041251 -0.030859 -0.034659
v -0.007056 0.101278 -0.047635
v 0.032221 0.198722 -0.032981
v 0.049738 0.254592 -0.053309
v 0.073245 0.254592 0.000000
v 0.048472 0.198722 0.000000
v 0.029152 0.101278 -0.033750
v 0.044041 0.101278 0.000000
v -0.005488 -0.021560 -0.048631
v 0.030277 -0.012260 -0.034659
v 0.044945 -0.008446 0.000000
v -0.034741 -0.165965 -0.033895
v 0.004166 -0.151012 -0.048649
v 0.043262 -0.135929 -0.034128
v 0.059083 -0.129707 0.000000
v -0.019439 -0.252016 -0.044397
v 0.027164 -0.245868 -0.056102
v 0.068540 -0.227432 -0.044678
v 0.090591 -0.213395 0.000000
v 0.071399 -0.241783 -0.000008
v 0.058146 -0.249352 -0.028134
v 0.033286 -0.266023 -0.000026
v 0.031491 -0.260156 -0.036588
v 0.002135 -0.265112 -0.028191
v -0.012094 -0.266213 -0.000008
v 0.001903 0.254592 0.000000
v 0.001903 0.254592 0.000000
v 0.001903 0.254592 0.000000
v 0.001903 0.254592 0.000000
v 0.001903 0.254592 0.000000
v 0.001903 0.254592 0.000000
v 0.001903 0.254592 0.000000
v 0.001903 0.254592 0.000000
v 0.001903 0.254592 0.000000
vn 0.8806 -0.2246 0.4173
vn 0.8246 0.4333 0.3636
vn 0.6069 0.4594 0.6485
vn 0.6506 -0.2443 0.7191
vn -0.0051 0.4513 0.8924
vn 0.6855 -0.0058 0.7280
vn 0.9148 -0.0171 0.4036
vn 0.9156 0.0517 0.3988
vn -0.0061 -0.2394 0.9709
vn -0.6091 0.4542 0.6502
vn 0.0028 0.0063 1.0000
vn -0.6522 -0.2343 0.7209
vn -0.8882 0.4595 -0.0000
vn -0.6855 -0.0062 0.7281
vn 0.6849 0.0399 0.7275
vn 0.0744 0.0108 0.9972
vn 0.6361 0.1547 0.7559
vn 0.8715 0.1958 0.4496
vn -0.0297 0.0498 0.9983
vn 0.6720 -0.1792 0.7185
vn 0.9003 -0.0331 0.4340
vn 0.7283 -0.6661 0.1610
vn 0.1141 -0.3932 0.9123
vn 0.5923 -0.7450 0.3067
vn 0.2771 -0.9554 0.1019
vn 0.2479 -0.8692 0.4277
vn -0.5068 -0.4951 0.7057
vn -0.1056 -0.9437 0.3135
vn -0.2542 -0.9529 0.1656
vn -0.8464 -0.5326 -0.0000
vn -0.7058 -0.0291 0.7078
vn -0.3587 -0.0226 0.9332
vn -0.6937 -0.0246 0.7199
vn -0.6938 -0.0245 0.7198
vn -0.9975 -0.0712 -0.0000
vn -0.9998 -0.0208 -0.0005
vn -0.9994 -0.0334 -0.0005
vn -0.9722 -0.2342 -0.0000
vn -0.6522 -0.2343 -0.7209
vn -0.6091 0.4542 -0.6502
vn -0.6852 -0.0082 -0.7283
vn -0.0061 -0.2394 -0.9709
vn -0.0051 0.4513 -0.8924
vn -0.6937 -0.0226 -0.7199
vn 0.0018 0.0053 -1.0000
vn 0.6506 -0.2443 -0.7191
vn 0.6069 0.4594 -0.6485
vn 0.8246 0.4333 -0.3636
vn 0.8806 -0.2246 -0.4173
vn 0.6851 -0.0046 -0.7284
vn 0.9154 -0.0152 -0.4023
vn -0.0081 0.0059 -1.0000
vn 0.6847 0.0387 -0.7278
vn 0.9163 0.0498 -0.3973
vn -0.6927 -0.0289 -0.7207
vn -0.0297 0.0498 -0.9983
vn 0.6361 0.1547 -0.7559
vn 0.8715 0.1958 -0.4496
vn -0.5068 -0.4950 -0.7057
vn 0.1141 -0.3931 -0.9124
vn 0.6720 -0.1791 -0.7185
vn 0.9003 -0.0329 -0.4340
vn 0.7284 -0.6660 -0.1611
vn 0.5924 -0.7449 -0.3068
vn 0.2771 -0.9554 -0.1020
vn 0.2479 -0.8691 -0.4280
vn -0.1057 -0.9436 -0.3137
vn -0.2544 -0.9528 -0.1657
vn -0.0000 1.0000 -0.0000
vt 0.780275 0.978010
vt 0.874404 0.997175
vt 0.874404 0.963803
vt 0.780275 0.952524
vt 0.874404 0.928572
vt 0.641087 0.943170
vt 0.641087 0.968415
vt 0.481019 0.971022
vt 0.780275 0.921727
vt 0.874404 0.894014
vt 0.641087 0.916189
vt 0.780275 0.890028
vt 0.874404 0.861892
vt 0.641087 0.887906
vt 0.477158 0.944765
vt 0.467900 0.917188
vt 0.299060 0.950069
vt 0.297211 0.976247
vt 0.291775 0.917685
vt 0.168644 0.949382
vt 0.151107 0.979862
vt 0.108392 0.961569
vt 0.163591 0.919360
vt 0.128273 0.942517
vt 0.079805 0.924830
vt 0.129393 0.921751
vt 0.151690 0.889157
vt 0.116497 0.901119
vt 0.088211 0.884959
vt 0.120276 0.861893
vt 0.272514 0.886134
vt 0.457916 0.889095
vt 0.255026 0.861893
vt 0.641087 0.861892
vt 0.454122 0.861893
vt 0.780275 0.861892
vt 0.780275 0.833756
vt 0.874404 0.829771
vt 0.641087 0.835878
vt 0.780275 0.802058
vt 0.874404 0.795213
vt 0.457915 0.834686
vt 0.641087 0.807595
vt 0.780275 0.771261
vt 0.874404 0.759981
vt 0.874404 0.726609
vt 0.780275 0.745775
vt 0.641087 0.780614
vt 0.641087 0.755369
vt 0.467898 0.806597
vt 0.477158 0.779018
vt 0.481021 0.752762
vt 0.272508 0.837643
vt 0.291767 0.806098
vt 0.299059 0.773714
vt 0.297217 0.747536
vt 0.151678 0.834624
vt 0.163572 0.804419
vt 0.168636 0.774398
vt 0.151121 0.743914
vt 0.108410 0.762208
vt 0.128280 0.781266
vt 0.079845 0.798950
vt 0.129397 0.802028
vt 0.116503 0.822660
vt 0.088221 0.838823
s 1
usemtl 材质.004
f 85/72/39 86/73/40 87/74/41
f 87/74/41 88/75/42 85/72/39
f 88/75/42 87/74/41 89/76/43
f 85/72/39 88/75/42 90/77/44
f 90/77/44 91/78/45 85/72/39
f 92/79/46 91/78/45 90/77/44
f 89/76/43 93/80/47 88/75/42
f 93/80/47 89/76/43 94/81/48
f 95/82/49 90/77/44 88/75/42
f 88/75/42 93/80/47 95/82/49
f 94/81/48 96/83/50 93/80/47
f 96/83/50 94/81/48 97/84/51
f 98/85/52 95/82/49 93/80/47
f 93/80/47 96/83/50 98/85/52
f 99/86/53 90/77/44 95/82/49
f 90/77/44 99/86/53 92/79/46
f 100/87/54 95/82/49 98/85/52
f 95/82/49 100/87/54 99/86/53
f 92/79/46 99/86/53 101/88/55
f 101/88/55 102/89/56 92/79/46
f 99/86/53 100/87/54 103/90/57
f 103/90/57 101/88/55 99/86/53
f 102/89/56 101/88/55 104/91/58
f 104/91/58 105/92/59 102/89/56
f 106/93/60 105/92/59 104/91/58
f 107/94/61 104/91/58 101/88/55
f 101/88/55 103/90/57 107/94/61
f 104/91/58 108/95/62 106/93/60
f 108/95/62 104/91/58 107/94/61
f 108/95/62 109/96/63 106/93/60
f 107/94/61 110/97/64 108/95/62
f 108/95/62 110/97/64 109/96/63
f 110/97/64 107/94/61 111/98/65
f 111/98/65 107/94/61 103/90/57
f 110/97/64 112/99/66 109/96/63
f 111/98/65 112/99/66 110/97/64
f 112/99/66 113/100/67 109/96/63
f 114/101/68 113/100/67 112/99/66
f 112/99/66 111/98/65 114/101/68
f 103/90/57 115/102/69 111/98/65
f 114/101/68 111/98/65 115/102/69
f 115/102/69 103/90/57 100/87/54
f 100/87/70 116/103/71 115/102/70
f 98/85/52 116/103/72 100/87/54
f 117/104/73 115/102/69 116/103/72
f 115/102/69 117/104/73 114/101/68
f 116/103/72 98/85/52 118/105/74
f 118/105/74 98/85/52 96/83/50
f 116/103/72 119/106/75 117/104/73
f 118/105/74 119/106/75 116/103/72
f 96/83/50 120/107/76 118/105/74
f 97/84/51 120/107/76 96/83/50
f 121/108/77 120/107/76 97/84/51
f 118/105/74 120/107/76 121/108/77
f 97/84/51 122/109/78 121/108/77
f 121/108/77 123/110/79 118/105/74
f 119/106/75 118/105/74 123/110/79
f 124/111/80 121/108/77 122/109/78
f 123/110/79 121/108/77 124/111/80
f 122/109/78 125/112/81 124/111/80
f 123/110/79 126/113/82 119/106/75
f 117/104/73 119/106/75 126/113/82
f 124/111/80 127/114/83 123/110/79
f 126/113/82 123/110/79 127/114/83
f 128/115/84 124/111/80 125/112/81
f 127/114/83 124/111/80 128/115/84
f 125/112/81 129/116/85 128/115/84
f 129/116/85 130/117/86 131/118/87
f 131/118/87 128/115/84 129/116/85
f 132/119/88 128/115/84 131/118/87
f 128/115/84 132/119/88 127/114/83
f 131/118/87 133/120/89 132/119/88
f 134/121/90 127/114/83 132/119/88
f 127/114/83 134/121/90 126/113/82
f 135/122/91 132/119/88 133/120/89
f 132/119/88 135/122/91 134/121/90
f 133/120/89 136/123/92 135/122/91
f 137/124/93 126/113/82 134/121/90
f 126/113/82 137/124/93 117/104/73
f 114/101/68 117/104/73 137/124/93
f 138/125/94 134/121/90 135/122/91
f 134/121/90 138/125/94 137/124/93
f 139/126/95 135/122/91 136/123/92
f 135/122/91 139/126/95 138/125/94
f 136/123/92 140/127/96 139/126/95
f 141/128/97 137/124/93 138/125/94
f 137/124/93 141/128/97 114/101/68
f 142/129/98 138/125/94 139/126/95
f 138/125/94 142/129/98 141/128/97
f 143/130/99 139/126/95 140/127/96
f 139/126/95 143/130/99 142/129/98
f 140/127/96 144/131/100 143/130/99
f 143/130/99 144/131/100 145/132/101
f 145/132/101 146/133/102 143/130/99
f 142/129/98 143/130/99 146/133/102
f 147/134/103 146/133/102 145/132/101
f 146/133/102 148/135/104 142/129/98
f 147/134/103 148/135/104 146/133/102
f 141/128/97 142/129/98 148/135/104
f 149/136/105 148/135/104 147/134/103
f 148/135/104 149/136/105 141/128/97
f 150/137/106 149/136/105 147/134/103
f 114/101/68 141/128/97 149/136/105
f 149/136/105 150/137/106 114/101/68
f 89/76/43 87/74/41 152/74/107 153/76/107
f 130/117/86 129/116/85 158/116/107 159/117/107
f 87/74/41 86/73/40 151/73/107 152/74/107
f 129/116/85 125/112/81 157/112/107 158/116/107
f 125/112/81 122/109/78 156/109/107 157/112/107
f 94/81/48 89/76/43 153/76/107 154/81/107
f 122/109/78 97/84/51 155/84/107 156/109/107
f 97/84/51 94/81/48 154/81/107 155/84/107
o Ob6p2
v -0.069962 1.203960 -0.018030
v 0.053077 1.203960 -0.010967
v 0.045957 0.831071 -0.013725
v -0.069076 0.830899 -0.022740
v 0.105636 1.203960 0.000000
v 0.093709 0.831450 0.000000
v 0.076779 0.291830 0.000000
v 0.032696 0.291830 -0.017875
v -0.070846 0.291830 -0.032854
v -0.112885 2.186678 -0.000008
v -0.108557 2.101786 -0.009386
v -0.108557 2.101786 0.008826
v -0.108520 1.978245 -0.013968
v -0.108520 1.978245 0.013408
v -0.113346 1.883299 -0.014635
v -0.113346 1.883299 0.014076
v -0.125275 1.782433 0.014341
v -0.125275 1.782433 -0.014900
v -0.145804 1.680056 0.014341
v -0.145804 1.680056 -0.014900
v -0.104090 1.544721 -0.014900
v -0.104090 1.544721 0.014341
v -0.081268 1.387357 -0.015606
v -0.081268 1.387357 0.015047
v -0.069962 1.203960 0.017470
v -0.069962 1.203960 -0.018030
v -0.070846 0.291830 -0.032854
v -0.070846 0.291830 0.032295
v -0.069076 0.830899 0.022181
v -0.069076 0.830899 -0.022740
v -0.069962 1.203960 -0.018030
v -0.069962 1.203960 0.017470
v -0.069076 0.830899 0.022181
v -0.070846 0.291830 0.032295
v 0.032696 0.291830 0.017875
v 0.045957 0.831071 0.013725
v -0.069962 1.203960 0.017470
v 0.076779 0.291830 0.000000
v 0.053077 1.203960 0.010967
v 0.093709 0.831450 0.000000
v 0.105636 1.203960 0.000000
v -0.030347 2.087780 0.000000
v -0.112885 2.186678 -0.000008
v -0.108557 2.101786 0.008826
v -0.053649 2.034766 0.008734
v -0.108520 1.978245 0.013408
v 0.028552 1.999074 0.000000
v 0.004427 1.922228 0.008228
v -0.113346 1.883299 0.014076
v 0.070608 1.895063 0.000000
v -0.125275 1.782433 0.014341
v 0.033936 1.792950 0.007781
v 0.097638 1.796927 0.000000
v 0.113299 1.680056 0.000000
v 0.055108 1.680056 0.007454
v -0.145804 1.680056 0.014341
v 0.115076 1.481488 0.000000
v 0.059284 1.481488 0.008615
v -0.104090 1.544721 0.014341
v -0.081268 1.387357 0.015047
v -0.069962 1.203960 0.017470
v 0.053077 1.203960 0.010967
v 0.105636 1.203960 0.000000
v -0.108557 2.101786 -0.009386
v -0.112885 2.186678 -0.000008
v -0.030347 2.087780 0.000000
v -0.053649 2.034766 -0.008734
v -0.108520 1.978245 -0.013968
v 0.028552 1.999074 0.000000
v 0.004427 1.922228 -0.008228
v -0.113346 1.883299 -0.014635
v 0.070608 1.895063 0.000000
v -0.125275 1.782433 -0.014900
v 0.033936 1.792950 -0.007780
v 0.097638 1.796927 0.000000
v 0.113299 1.680056 0.000000
v 0.055108 1.680056 -0.007454
v -0.145804 1.680056 -0.014900
v 0.115076 1.481488 0.000000
v 0.059284 1.481488 -0.008615
v -0.104090 1.544721 -0.014900
v -0.081268 1.387357 -0.015606
v -0.069962 1.203960 -0.018030
v 0.053077 1.203960 -0.010967
v 0.105636 1.203960 0.000000
v -0.008054 0.291830 -0.000140
v -0.008054 0.291830 -0.000140
v -0.008054 0.291830 -0.000140
v -0.008054 0.291830 -0.000140
v -0.008054 0.291830 -0.000140
v -0.008054 0.291830 -0.000140
v -0.008054 0.291830 -0.000140
v -0.008054 0.291830 -0.000140
vn 0.0573 0.0063 -0.9983
vn 0.1289 0.0001 -0.9917
vn 0.1713 -0.0007 -0.9852
vn 0.0781 0.0128 -0.9969
vn 0.0781 0.0096 -0.9969
vn 0.2043 -0.0065 -0.9789
vn 0.2701 -0.0085 -0.9628
vn 0.2762 0.0018 -0.9611
vn 0.1714 -0.0007 -0.9852
vn 0.2702 -0.0085 -0.9628
vn 0.3598 -0.2354 -0.9029
vn 0.1944 -0.6865 -0.7007
vn 0.0781 0.0094 -0.9969
vn 0.3415 -0.0012 -0.9399
vn 0.1405 -0.1933 -0.9710
vn 0.1432 0.0181 -0.9895
vn -0.9987 -0.0509 -0.0000
vn -0.9997 -0.0244 -0.0000
vn -0.9997 -0.0245 -0.0000
vn -0.9997 0.0256 -0.0000
vn -0.9964 0.0843 -0.0000
vn -0.9931 0.1174 -0.0000
vn -0.9916 0.1292 -0.0000
vn -0.9987 -0.0504 -0.0000
vn -0.9805 0.1966 -0.0000
vn -0.9916 0.1293 -0.0000
vn -0.9987 -0.0505 -0.0000
vn -0.9756 -0.2196 -0.0000
vn -0.9947 -0.1024 -0.0000
vn -0.9981 -0.0615 -0.0000
vn -0.8195 -0.5731 -0.0000
vn -0.8186 -0.5743 -0.0000
vn -1.0000 0.0005 -0.0000
vn -1.0000 -0.0024 -0.0000
vn 0.0772 0.0101 0.9970
vn 0.1353 -0.1944 0.9716
vn 0.1858 -0.6777 0.7115
vn 0.1829 0.0025 0.9831
vn 0.0733 0.0128 0.9972
vn 0.3596 -0.2373 0.9024
vn 0.0528 0.0064 0.9986
vn 0.1330 0.0002 0.9911
vn 0.2730 -0.0037 0.9620
vn 0.2043 -0.0065 0.9789
vn 0.1359 0.1036 0.9853
vn 0.1308 0.1092 0.9854
vn 0.1126 0.0929 0.9893
vn 0.0982 0.0648 0.9931
vn 0.0519 0.0208 0.9984
vn 0.1391 0.0697 0.9878
vn 0.0981 0.0316 0.9947
vn 0.0497 -0.0004 0.9988
vn 0.1347 0.0369 0.9902
vn 0.0402 -0.0011 0.9992
vn 0.0827 0.0152 0.9965
vn 0.1197 0.0237 0.9925
vn 0.1260 0.0098 0.9920
vn 0.0852 0.0082 0.9963
vn 0.0353 0.0007 0.9994
vn 0.1534 0.0055 0.9881
vn 0.0968 0.0085 0.9953
vn 0.0395 0.0116 0.9992
vn 0.0366 0.0136 0.9992
vn 0.0475 0.0098 0.9988
vn 0.1245 0.0010 0.9922
vn 0.2043 -0.0069 0.9789
vn 0.1208 0.0958 -0.9880
vn 0.1388 0.1157 -0.9835
vn 0.1373 0.1070 -0.9847
vn 0.0890 0.0542 -0.9946
vn 0.0587 0.0220 -0.9980
vn 0.1469 0.0976 -0.9843
vn 0.1391 0.0697 -0.9878
vn 0.1003 0.0320 -0.9944
vn 0.0546 -0.0009 -0.9985
vn 0.1347 0.0369 -0.9902
vn 0.0437 -0.0011 -0.9990
vn 0.0844 0.0155 -0.9963
vn 0.1197 0.0237 -0.9925
vn 0.1260 0.0098 -0.9920
vn 0.0866 0.0083 -0.9962
vn 0.0383 0.0006 -0.9993
vn 0.1534 0.0055 -0.9881
vn 0.0986 0.0087 -0.9951
vn 0.0433 0.0126 -0.9990
vn 0.0404 0.0139 -0.9991
vn 0.0518 0.0098 -0.9986
vn 0.1267 0.0010 -0.9919
vn 0.2043 -0.0069 -0.9789
vn -0.0000 -1.0000 -0.0000
vn -0.0000 -0.9998 0.0183
vt 0.007516 0.656617
vt 0.228656 0.656533
vt 0.216247 0.400542
vt 0.007516 0.400240
vt 0.324819 0.656539
vt 0.305172 0.400927
vt 0.279935 0.008998
vt 0.194783 0.008998
vt 0.007516 0.008998
vt 0.969907 0.065468
vt 0.956885 0.112189
vt 0.981611 0.112227
vt 0.950249 0.180066
vt 0.987414 0.180122
vt 0.949031 0.232343
vt 0.988010 0.232398
vt 0.988066 0.288412
vt 0.948366 0.288362
vt 0.987794 0.346368
vt 0.948093 0.346326
vt 0.947788 0.425908
vt 0.987486 0.425941
vt 0.946579 0.513765
vt 0.988194 0.513788
vt 0.991306 0.614848
vt 0.943117 0.614834
vt 0.933928 0.010921
vt 0.853990 0.010921
vt 0.866334 0.278657
vt 0.921456 0.278663
vt 0.915523 0.463971
vt 0.871958 0.463958
vt 0.007516 0.400240
vt 0.007516 0.008998
vt 0.194783 0.008998
vt 0.216247 0.400542
vt 0.007516 0.656617
vt 0.305172 0.400927
vt 0.535774 0.649102
vt 0.388980 0.721458
vt 0.394668 0.659311
vt 0.492297 0.610333
vt 0.393189 0.569590
vt 0.640337 0.584304
vt 0.595366 0.528425
vt 0.383777 0.500707
vt 0.714765 0.508589
vt 0.361710 0.427536
vt 0.647351 0.434542
vt 0.762386 0.437258
vt 0.789716 0.352437
vt 0.684582 0.352580
vt 0.324310 0.353278
vt 0.792090 0.208439
vt 0.690919 0.208524
vt 0.398273 0.254877
vt 0.438398 0.140553
vt 0.457527 0.010822
vt 0.674210 0.010738
vt 0.774830 0.010744
vt 0.394668 0.659311
vt 0.388980 0.721458
vt 0.383777 0.500707
vt 0.762386 0.437258
vt 0.690919 0.208524
vt 0.457527 0.010822
vt 0.674210 0.010738
s 1
usemtl 材质.003
f 160/138/108 161/139/109 162/140/110
f 162/140/111 163/141/112 160/138/111
f 161/139/109 164/142/113 165/143/114
f 165/143/115 162/140/115 161/139/115
f 162/140/116 165/143/117 166/144/118
f 166/144/118 167/145/119 162/140/116
f 163/141/120 162/140/110 167/145/121
f 167/145/119 168/146/122 163/141/123
f 169/147/124 170/148/125 171/149/126
f 171/149/126 170/148/125 172/150/127
f 172/150/127 173/151/127 171/149/126
f 173/151/127 172/150/127 174/152/128
f 174/152/128 175/153/128 173/151/127
f 176/154/129 175/153/128 174/152/128
f 174/152/128 177/155/130 176/154/129
f 178/156/131 176/154/132 177/155/132
f 177/155/133 179/157/134 178/156/134
f 178/156/134 179/157/134 180/158/135
f 180/158/135 181/159/135 178/156/134
f 181/159/135 180/158/135 182/160/136
f 182/160/136 183/161/136 181/159/135
f 184/162/137 183/161/136 182/160/136
f 182/160/136 185/163/137 184/162/137
f 186/164/138 187/165/139 188/166/140
f 188/166/140 189/167/140 186/164/138
f 190/168/141 189/167/140 188/166/140
f 188/166/140 191/169/141 190/168/141
f 192/170/142 193/171/143 194/172/144
f 194/172/144 195/173/145 192/170/142
f 196/174/146 192/170/142 195/173/145
f 195/173/145 194/172/144 197/144/147
f 195/173/148 198/139/149 196/174/148
f 197/144/147 199/175/150 195/173/145
f 198/139/149 195/173/145 199/175/150
f 199/175/150 200/142/151 198/139/149
f 201/176/152 202/177/153 203/178/154
f 203/178/154 204/179/155 201/176/152
f 204/179/155 203/178/154 205/180/156
f 206/181/157 201/176/152 204/179/155
f 207/182/158 204/179/155 205/180/156
f 204/179/155 207/182/158 206/181/157
f 205/180/156 208/183/159 207/182/158
f 209/184/160 206/181/157 207/182/158
f 207/182/158 208/183/159 210/185/161
f 209/184/160 207/182/158 211/186/162
f 210/185/161 211/186/162 207/182/158
f 211/186/162 212/187/163 209/184/160
f 213/188/164 212/187/163 211/186/162
f 214/189/165 211/186/162 210/185/161
f 211/186/162 214/189/165 213/188/164
f 210/185/161 215/190/166 214/189/165
f 216/191/167 213/188/164 214/189/165
f 217/192/168 214/189/165 215/190/166
f 214/189/165 217/192/168 216/191/167
f 215/190/166 218/193/169 217/192/168
f 217/192/168 218/193/169 219/194/170
f 217/192/168 219/194/170 220/195/171
f 220/195/171 221/196/172 217/192/168
f 216/191/167 217/192/168 221/196/172
f 221/196/172 222/197/173 216/191/167
f 223/198/174 224/199/175 225/176/176
f 225/176/176 226/179/177 223/198/174
f 226/179/177 227/180/178 223/198/174
f 226/179/179 225/176/179 228/181/180
f 227/180/178 226/179/177 229/182/181
f 228/181/180 229/182/181 226/179/177
f 229/182/181 230/200/182 227/180/178
f 231/184/183 229/182/181 228/181/180
f 232/185/184 230/200/182 229/182/181
f 233/186/185 229/182/181 231/184/183
f 229/182/181 233/186/185 232/185/184
f 231/184/183 234/201/186 233/186/185
f 233/186/185 234/201/186 235/188/187
f 232/185/184 233/186/185 236/189/188
f 235/188/187 236/189/188 233/186/185
f 236/189/188 237/190/189 232/185/184
f 236/189/188 235/188/187 238/191/190
f 237/190/189 236/189/188 239/202/191
f 238/191/190 239/202/191 236/189/188
f 239/202/191 240/193/192 237/190/189
f 239/202/191 241/194/193 240/193/192
f 242/203/194 241/194/193 239/202/191
f 239/202/191 243/204/195 242/203/194
f 243/204/195 239/202/191 238/191/190
f 238/191/190 244/197/196 243/204/195
f 197/144/147 194/172/144 251/172/197 252/144/197
f 194/172/144 193/171/143 250/171/197 251/172/197
f 167/145/119 166/144/118 245/144/197 246/145/198
f 168/146/122 167/145/119 246/145/198 247/146/197
f 187/165/139 186/164/138 248/164/197 249/165/197
