# Blender 4.3.2
# www.blender.org
mtllib 剑2.mtl
o Ob2
v -0.014831 2.474159 0.009339
v -0.035630 0.321059 0.013371
v 0.000000 0.321059 0.030848
v 0.102718 0.317503 0.000000
v 0.050705 0.321079 -0.017610
v 0.021769 2.474178 -0.011048
v 0.000293 2.474157 0.018925
v 0.051285 2.474180 0.000000
v -0.008024 2.538910 0.008726
v 0.000293 2.536835 0.013777
v -0.000000 2.575695 0.008762
v 0.042954 2.549337 0.000000
v 0.014809 2.540127 -0.011037
v 0.028288 2.610667 0.000000
v -0.000000 2.593413 -0.009398
v -0.000000 2.693425 0.000000
v -0.027872 2.611004 0.000000
v -0.014497 2.540127 -0.011037
v -0.042642 2.549336 0.000000
v -0.021457 2.474178 -0.011048
v -0.050973 2.474178 0.000000
v -0.050393 0.321078 -0.017610
v -0.102396 0.317804 0.000000
v 0.048723 0.321079 0.017610
v 0.102718 0.317503 0.000000
v 0.051285 2.474180 0.000000
v 0.021768 2.474178 0.011048
v 0.042954 2.549337 0.000000
v 0.014810 2.540127 0.011038
v -0.000000 2.593413 0.009399
v 0.028288 2.610667 0.000000
v -0.000000 2.693425 0.000000
v -0.035630 0.321059 -0.013371
v -0.050393 0.321078 -0.017610
v -0.021457 2.474178 -0.011048
v -0.014831 2.474159 -0.009338
v -0.014497 2.540127 -0.011037
v -0.008023 2.538910 -0.008725
v -0.000000 2.593413 -0.009398
v -0.000000 2.575695 -0.008761
v 0.035630 0.321059 0.013371
v 0.048723 0.321079 0.017610
v 0.021768 2.474178 0.011048
v 0.014830 2.474159 0.009339
v 0.014810 2.540127 0.011038
v 0.008022 2.538910 0.008726
v -0.000000 2.593413 0.009399
v -0.000000 2.575695 0.008762
v -0.045559 0.235734 0.000000
v -0.045595 0.278794 0.000000
v -0.043935 0.278794 -0.027317
v -0.043602 0.235734 -0.027317
v -0.022577 0.278794 -0.037464
v -0.022577 0.235734 -0.037438
v -0.000000 0.235759 -0.041837
v -0.000000 0.278794 -0.041837
v 0.023904 0.278794 -0.037451
v 0.023904 0.235734 -0.037451
v 0.046285 0.235734 -0.026991
v 0.046619 0.278794 -0.026991
v 0.048265 0.278794 0.000000
v 0.048228 0.235734 0.000000
v 0.046285 0.235734 0.026991
v 0.048228 0.235734 0.000000
v 0.046619 0.278794 0.026992
v 0.023904 0.278794 0.037451
v 0.023904 0.235734 0.037451
v -0.000000 0.235759 0.041837
v -0.000000 0.278794 0.041837
v -0.022577 0.278794 0.037464
v -0.022577 0.235734 0.037438
v -0.043602 0.235734 0.027317
v -0.043935 0.278794 0.027317
v -0.045559 0.235734 0.000000
v -0.045595 0.278794 0.000000
v 0.000293 2.536835 -0.013776
v -0.000000 2.575695 -0.008761
v 0.008022 2.538910 -0.008725
v 0.000293 2.474157 -0.018002
v 0.014830 2.474159 -0.009338
v -0.000000 0.321059 -0.029926
v 0.035630 0.321059 -0.013371
v -0.021457 2.474178 0.011048
v -0.048410 0.321078 0.017610
v -0.035630 0.321059 0.013371
v -0.014831 2.474159 0.009339
v -0.014498 2.540127 0.011038
v -0.008024 2.538910 0.008726
v -0.000000 2.593413 0.009399
v -0.000000 2.575695 0.008762
v 0.008022 2.538910 -0.008725
v -0.000000 2.575695 -0.008761
v -0.000000 2.593413 -0.009398
v 0.014809 2.540127 -0.011037
v 0.014830 2.474159 -0.009338
v 0.021769 2.474178 -0.011048
v 0.050705 0.321079 -0.017610
v 0.035630 0.321059 -0.013371
v -0.027872 2.611004 0.000000
v -0.000000 2.593413 0.009399
v -0.000000 2.693425 0.000000
v -0.042642 2.549336 0.000000
v -0.014498 2.540127 0.011038
v -0.021457 2.474178 0.011048
v -0.050973 2.474178 0.000000
v -0.102396 0.317804 0.000000
v -0.048410 0.321078 0.017610
v 0.000293 2.536835 -0.013776
v -0.008023 2.538910 -0.008725
v -0.000000 2.575695 -0.008761
v 0.000293 2.474157 -0.018002
v -0.014831 2.474159 -0.009338
v -0.035630 0.321059 -0.013371
v -0.000000 0.321059 -0.029926
v 0.000293 2.536835 0.013777
v 0.008022 2.538910 0.008726
v -0.000000 2.575695 0.008762
v 0.000293 2.474157 0.018925
v 0.014830 2.474159 0.009339
v 0.035630 0.321059 0.013371
v 0.000000 0.321059 0.030848
v 0.126795 0.343969 -0.026250
v 0.121008 0.352834 -0.027372
v 0.121008 0.352834 0.027372
v 0.126795 0.343969 0.026250
v 0.126031 0.249143 0.021647
v 0.126031 0.249143 -0.021647
v 0.117752 0.242090 0.021391
v 0.117752 0.242090 -0.021391
v 0.059749 0.242090 0.032721
v 0.059749 0.242090 -0.032721
v 0.055160 0.249143 -0.034623
v 0.055160 0.249143 0.034624
v 0.054468 0.273233 -0.036259
v 0.054468 0.273233 0.036259
v -0.000000 0.274334 -0.053242
v -0.000000 0.274334 0.053242
v -0.054850 0.273233 0.036259
v -0.054850 0.273233 -0.036259
v -0.055542 0.249143 0.034624
v -0.055542 0.249143 -0.034623
v -0.059750 0.242085 0.032721
v -0.059750 0.242085 -0.032721
v -0.117752 0.242085 -0.021391
v -0.117752 0.242085 0.021391
v -0.125635 0.249143 -0.021647
v -0.125635 0.249143 0.021647
v -0.126399 0.343969 -0.026250
v -0.126399 0.343969 0.026250
v -0.121008 0.352834 0.027372
v -0.121008 0.352834 -0.027372
v -0.027330 0.283748 0.024318
v -0.036834 0.283685 0.000000
v -0.043608 0.100307 0.000000
v -0.030813 0.100329 0.027165
v -0.048408 -0.113850 -0.000000
v -0.000000 0.283746 0.035529
v -0.034207 -0.113851 0.030146
v -0.054401 -0.369767 -0.000000
v -0.000000 0.100329 0.038386
v 0.027330 0.283748 0.024318
v -0.038453 -0.369773 0.033858
v -0.068475 -0.372627 -0.000000
v -0.000000 -0.113851 0.042604
v 0.030813 0.100329 0.027165
v 0.036833 0.283685 0.000000
v -0.000000 -0.369854 0.047942
v 0.043607 0.100307 0.000000
v 0.027330 0.283748 -0.024318
v 0.034207 -0.113851 0.030146
v 0.030813 0.100329 -0.027165
v -0.000000 0.283746 -0.035530
v 0.048408 -0.113850 -0.000000
v 0.038453 -0.369773 0.033858
v 0.034207 -0.113851 -0.030147
v -0.000000 0.100329 -0.038386
v -0.027331 0.283747 -0.024318
v 0.054401 -0.369767 -0.000000
v -0.000000 -0.113851 -0.042604
v -0.030813 0.100329 -0.027165
v -0.036834 0.283685 0.000000
v -0.043608 0.100307 0.000000
v -0.034207 -0.113851 -0.030147
v -0.048408 -0.113850 -0.000000
v -0.038453 -0.369773 -0.033858
v -0.054401 -0.369767 -0.000000
v -0.000000 -0.369854 -0.047942
v 0.038453 -0.369773 -0.033858
v 0.048346 -0.372637 -0.043853
v 0.068475 -0.372627 -0.000000
v 0.048346 -0.372637 0.043852
v 0.069041 -0.389623 -0.000000
v 0.048754 -0.389623 0.044209
v 0.048754 -0.389623 -0.044209
v -0.000000 -0.389623 0.065703
v -0.000000 -0.372658 -0.065236
v -0.000001 -0.389623 -0.065703
v -0.048346 -0.372637 -0.043853
v -0.048753 -0.389623 -0.044209
v -0.068475 -0.372627 -0.000000
v -0.069041 -0.389623 -0.000000
v 0.055160 0.249143 0.034624
v 0.059749 0.242090 0.032721
v 0.117752 0.242090 0.021391
v 0.118648 0.249143 0.022574
v 0.126031 0.249143 0.021647
v 0.126795 0.343969 0.026250
v 0.121008 0.352834 0.027372
v 0.088281 0.358290 0.034566
v 0.054468 0.273233 0.036259
v 0.045942 0.370984 0.046651
v -0.000000 0.274334 0.053242
v -0.000000 0.390810 0.062828
v -0.045942 0.370984 0.046651
v -0.054850 0.273233 0.036259
v -0.088282 0.358291 0.034566
v -0.117905 0.249144 0.022562
v -0.121008 0.352834 0.027372
v -0.055542 0.249143 0.034624
v -0.126399 0.343969 0.026250
v -0.059750 0.242085 0.032721
v -0.125635 0.249143 0.021647
v -0.117752 0.242085 0.021391
v -0.022577 0.235734 0.000000
v -0.045559 0.235734 0.000000
v -0.043602 0.235734 -0.027317
v -0.022577 0.235734 -0.037438
v -0.043602 0.235734 0.027317
v -0.045559 0.235734 0.000000
v -0.022577 0.235734 0.037438
v -0.000000 0.235759 0.000000
v -0.000000 0.235759 -0.041837
v -0.000000 0.235759 0.041837
v 0.023904 0.235734 -0.037451
v 0.023904 0.235734 0.037451
v 0.023904 0.235734 0.000000
v 0.046285 0.235734 -0.026991
v 0.046285 0.235734 0.026991
v 0.048228 0.235734 0.000000
v -0.000000 -0.372658 0.065235
v -0.048753 -0.389623 0.044209
v -0.048346 -0.372637 0.043852
v -0.069041 -0.389623 -0.000000
v -0.000000 0.390810 -0.062828
v 0.045942 0.370984 -0.046651
v -0.000000 0.274334 -0.053242
v -0.045943 0.370984 -0.046651
v 0.054468 0.273233 -0.036259
v -0.054850 0.273233 -0.036259
v 0.088281 0.358290 -0.034566
v -0.088282 0.358290 -0.034566
v 0.117934 0.249143 -0.022713
v 0.121008 0.352834 -0.027372
v 0.055160 0.249143 -0.034623
v 0.126795 0.343969 -0.026250
v 0.059749 0.242090 -0.032721
v 0.126031 0.249143 -0.021647
v 0.117752 0.242090 -0.021391
v -0.117909 0.249142 -0.022718
v -0.121008 0.352834 -0.027372
v -0.055542 0.249143 -0.034623
v -0.126399 0.343969 -0.026250
v -0.059750 0.242085 -0.032721
v -0.125635 0.249143 -0.021647
v -0.117752 0.242085 -0.021391
v -0.000000 -0.389625 -0.000000
v -0.000000 -0.389623 0.065703
v -0.048753 -0.389623 0.044209
v 0.048754 -0.389623 0.044209
v -0.069041 -0.389623 -0.000000
v 0.069041 -0.389623 -0.000000
v -0.048753 -0.389623 -0.044209
v 0.048754 -0.389623 -0.044209
v -0.000001 -0.389623 -0.065703
v 0.103665 0.355705 0.015586
v 0.121008 0.352834 0.027372
v 0.121008 0.352834 -0.027372
v 0.088281 0.358290 0.034566
v 0.103665 0.355705 -0.015586
v 0.088281 0.358290 -0.034566
v 0.081383 0.359295 0.022046
v 0.045942 0.370984 0.046651
v 0.097567 0.334657 -0.008749
v 0.081383 0.359295 -0.022046
v 0.045942 0.370984 -0.046651
v 0.097567 0.334657 0.008749
v 0.050520 0.347271 -0.021737
v 0.050520 0.347271 0.021737
v 0.045942 0.371112 0.033367
v -0.000000 0.390810 0.048007
v -0.000000 0.390810 0.062828
v -0.045942 0.370984 0.046651
v 0.000293 0.369756 0.038681
v -0.045943 0.371112 0.033367
v 0.000293 0.369756 -0.038681
v -0.050520 0.347271 0.021737
v -0.081383 0.359295 0.022046
v -0.088282 0.358291 0.034566
v -0.097567 0.334657 0.008749
v -0.103665 0.355706 0.015586
v -0.121008 0.352834 0.027372
v -0.121008 0.352834 -0.027372
v -0.103665 0.355705 -0.015586
v -0.088282 0.358290 -0.034566
v -0.097567 0.334657 -0.008749
v -0.081383 0.359295 -0.022046
v -0.045943 0.370984 -0.046651
v -0.050520 0.347271 -0.021737
v -0.045943 0.371112 -0.033367
v -0.000000 0.390810 -0.048007
v -0.000000 0.390810 -0.062828
v 0.045942 0.371112 -0.033367
vn -0.5345 0.0336 0.8445
vn -0.4404 0.0059 0.8978
vn -0.4409 0.0059 0.8975
vn 0.3211 0.0072 -0.9470
vn -0.5337 0.0343 0.8450
vn 0.3505 0.0084 -0.9365
vn -0.5032 0.0894 0.8595
vn -0.5015 0.0859 0.8609
vn -0.4964 0.1074 0.8614
vn 0.3464 0.0616 -0.9361
vn 0.3503 0.0388 -0.9358
vn 0.3512 0.0385 -0.9355
vn 0.3363 0.0607 -0.9398
vn 0.2737 0.0919 -0.9574
vn -0.0017 0.1005 -0.9949
vn -0.0001 0.0936 -0.9956
vn -0.2759 0.0917 -0.9568
vn -0.3162 0.0875 -0.9447
vn -0.3162 0.0874 -0.9447
vn -0.3426 0.0731 -0.9366
vn -0.3542 0.0375 -0.9344
vn -0.3509 0.0236 -0.9361
vn -0.3509 0.0235 -0.9361
vn -0.3502 0.0226 -0.9364
vn -0.3214 0.0077 -0.9469
vn -0.3212 0.0077 -0.9470
vn 0.3109 0.0074 0.9504
vn 0.3105 0.0074 0.9505
vn 0.3501 0.0224 0.9364
vn 0.3509 0.0234 0.9361
vn 0.3306 0.0729 0.9410
vn 0.3425 0.0757 0.9365
vn 0.2824 0.0849 0.9555
vn 0.2698 0.0803 0.9596
vn 0.2640 0.0902 0.9603
vn 0.2759 -0.0008 -0.9612
vn 0.2760 -0.0008 -0.9612
vn 0.2498 -0.0129 -0.9682
vn 0.2525 -0.0138 -0.9675
vn 0.3260 -0.0427 -0.9444
vn 0.3289 -0.0422 -0.9434
vn 0.3257 -0.0596 -0.9436
vn 0.1582 -0.0355 -0.9868
vn -0.3079 -0.0010 0.9514
vn -0.3080 -0.0010 0.9514
vn -0.2394 -0.0123 0.9708
vn -0.2420 -0.0132 0.9702
vn -0.3127 -0.0410 0.9490
vn -0.3124 -0.0405 0.9491
vn -0.2317 -0.0461 0.9717
vn -0.1582 -0.0355 0.9868
vn -0.9977 -0.0052 -0.0676
vn -0.9982 -0.0008 -0.0607
vn -0.8284 -0.0038 -0.5601
vn -0.8259 -0.0053 -0.5639
vn -0.3130 -0.0013 -0.9497
vn -0.3151 -0.0006 -0.9490
vn -0.0053 -0.0002 -1.0000
vn -0.0049 -0.0000 -1.0000
vn 0.3026 -0.0011 -0.9531
vn 0.3045 -0.0000 -0.9525
vn 0.8235 -0.0025 -0.5672
vn 0.8261 -0.0064 -0.5635
vn 1.0000 -0.0053 -0.0000
vn 0.9974 -0.0008 -0.0718
vn 0.8236 -0.0025 0.5672
vn 0.9974 -0.0008 0.0718
vn 0.8261 -0.0064 0.5635
vn 0.3026 -0.0011 0.9531
vn 0.3045 -0.0000 0.9525
vn -0.0053 -0.0002 1.0000
vn -0.0049 -0.0000 1.0000
vn -0.3130 -0.0013 0.9497
vn -0.3151 -0.0006 0.9490
vn -0.8259 -0.0053 0.5639
vn -0.8284 -0.0038 0.5601
vn -0.9977 -0.0052 0.0676
vn -0.9982 -0.0008 0.0607
vn 0.5221 0.1130 -0.8454
vn 0.5206 0.1060 -0.8472
vn 0.5128 0.0327 -0.8579
vn 0.5354 0.0568 -0.8427
vn 0.5112 0.0324 -0.8589
vn 0.4218 0.0058 -0.9067
vn 0.4214 0.0058 -0.9069
vn 0.2499 -0.0129 0.9682
vn 0.3148 -0.0010 0.9491
vn 0.3147 -0.0010 0.9492
vn 0.2525 -0.0138 0.9675
vn 0.3260 -0.0427 0.9444
vn 0.3254 -0.0420 0.9447
vn 0.2363 -0.0468 0.9705
vn 0.1582 -0.0355 0.9868
vn -0.3123 -0.0405 -0.9491
vn -0.1582 -0.0355 -0.9868
vn -0.2317 -0.0461 -0.9717
vn -0.3127 -0.0410 -0.9490
vn -0.2420 -0.0131 -0.9702
vn -0.2392 -0.0122 -0.9709
vn -0.2707 -0.0008 -0.9627
vn -0.2724 0.0807 0.9588
vn -0.2847 0.0848 0.9548
vn -0.2667 0.0902 0.9596
vn -0.3313 0.0724 0.9407
vn -0.3428 0.0748 0.9364
vn -0.3506 0.0239 0.9362
vn -0.3505 0.0230 0.9363
vn -0.3109 0.0068 0.9504
vn -0.3105 0.0068 0.9506
vn -0.5032 0.0785 -0.8606
vn -0.5009 0.0842 -0.8614
vn -0.4964 0.1074 -0.8614
vn -0.4969 0.0330 -0.8672
vn -0.4968 0.0326 -0.8672
vn -0.4218 0.0051 -0.9067
vn -0.4214 0.0051 -0.9069
vn 0.5284 0.0873 0.8445
vn 0.5287 0.0921 0.8438
vn 0.5221 0.1130 0.8454
vn 0.5488 0.0360 0.8352
vn 0.5502 0.0354 0.8343
vn 0.4410 0.0049 0.8975
vn 0.4404 0.0049 0.8978
vn 0.9554 0.2952 -0.0000
vn 0.8374 0.5467 -0.0000
vn 0.9105 -0.4135 -0.0000
vn 0.9105 -0.4134 -0.0000
vn 0.3280 -0.9447 -0.0000
vn -0.5378 -0.8431 -0.0000
vn -0.9623 -0.2720 -0.0000
vn -0.6266 -0.7794 -0.0000
vn -0.6266 -0.7793 -0.0000
vn -0.0001 -1.0000 -0.0000
vn 0.6269 -0.7791 -0.0000
vn 0.9671 -0.2546 -0.0000
vn 0.5577 -0.8300 -0.0000
vn -0.3390 -0.9408 -0.0000
vn -0.3391 -0.9408 -0.0000
vn -0.9155 -0.4024 -0.0000
vn -0.9154 -0.4024 -0.0000
vn -0.9602 0.2793 -0.0000
vn -0.8544 0.5196 -0.0000
vn -0.9284 0.0333 0.3702
vn -0.9309 0.0344 0.3637
vn -0.9057 0.0225 0.4233
vn -0.6821 0.0210 0.7310
vn -0.9045 0.0207 0.4261
vn 0.0022 0.0190 0.9998
vn -0.3794 0.0216 0.9250
vn -0.6740 0.0214 0.7384
vn -0.6418 0.7047 0.3024
vn 0.0010 0.0192 0.9998
vn 0.0024 0.0190 0.9998
vn 0.7107 0.0209 0.7032
vn -0.4627 0.7260 0.5088
vn -0.7658 0.5379 0.3525
vn -0.0001 0.0202 0.9998
vn 0.6752 0.0250 0.7372
vn 0.9995 0.0316 0.0035
vn -0.0053 0.7332 0.6799
vn 0.9996 0.0272 0.0015
vn 0.7096 0.0298 -0.7040
vn 0.6741 0.0215 0.7383
vn 0.6749 0.0211 -0.7376
vn -0.0023 0.0190 -0.9998
vn 0.9997 0.0229 -0.0000
vn 0.4652 0.7282 0.5033
vn 0.6740 0.0214 -0.7384
vn -0.0010 0.0192 -0.9998
vn -0.7107 0.0209 -0.7032
vn 0.6731 0.7396 -0.0009
vn -0.0000 0.0202 -0.9998
vn -0.6752 0.0250 -0.7372
vn -0.9286 0.0244 -0.3703
vn -0.9043 0.0268 -0.4260
vn -0.6741 0.0215 -0.7384
vn -0.9045 0.0207 -0.4261
vn -0.4652 0.7282 -0.5033
vn -0.6416 0.7055 -0.3009
vn 0.0053 0.7332 -0.6799
vn 0.4627 0.7260 -0.5088
vn 0.5675 0.5849 -0.5795
vn 0.8184 0.5746 -0.0003
vn 0.5697 0.5829 0.5793
vn 0.9994 0.0333 -0.0000
vn 0.7018 0.0318 0.7117
vn 0.7022 0.0314 -0.7113
vn 0.0005 0.0279 0.9996
vn 0.0016 0.5854 -0.8107
vn -0.0005 0.0279 -0.9996
vn -0.5697 0.5829 -0.5793
vn -0.7018 0.0317 -0.7117
vn -0.7663 0.5377 -0.3518
vn -0.9085 0.0303 -0.4169
vn 0.1874 -0.0924 0.9779
vn 0.1899 -0.1386 0.9720
vn 0.1648 -0.1813 0.9695
vn 0.1550 -0.1177 0.9809
vn 0.1241 -0.0901 0.9882
vn 0.1181 -0.0486 0.9918
vn 0.1836 -0.0496 0.9817
vn 0.2232 -0.0650 0.9726
vn 0.2277 -0.0658 0.9715
vn 0.2820 -0.0787 0.9562
vn 0.0007 -0.0795 0.9968
vn -0.0000 -0.0820 0.9966
vn -0.2819 -0.0781 0.9563
vn -0.2290 -0.0655 0.9712
vn -0.2240 -0.0652 0.9724
vn -0.1548 -0.1088 0.9819
vn -0.1857 -0.0511 0.9813
vn -0.1890 -0.0953 0.9773
vn -0.1243 -0.0497 0.9910
vn -0.1878 -0.1506 0.9706
vn -0.1171 -0.0864 0.9894
vn -0.1638 -0.1648 0.9726
vn 0.0005 -1.0000 -0.0000
vn -0.0000 -1.0000 -0.0000
vn 0.0007 -1.0000 -0.0000
vn -0.0006 -1.0000 -0.0000
vn -0.0005 -1.0000 -0.0000
vn -0.0016 0.5854 0.8107
vn -0.7022 0.0314 0.7113
vn -0.5675 0.5849 0.5795
vn -0.9084 0.0303 0.4170
vn -0.0000 -0.0820 -0.9966
vn 0.2820 -0.0787 -0.9562
vn 0.0007 -0.0795 -0.9968
vn -0.2819 -0.0781 -0.9563
vn 0.2277 -0.0658 -0.9715
vn -0.2469 -0.0704 -0.9665
vn 0.2232 -0.0650 -0.9726
vn -0.2514 -0.0796 -0.9646
vn 0.1705 -0.0961 -0.9807
vn 0.1836 -0.0496 -0.9818
vn 0.1856 -0.0918 -0.9783
vn 0.1191 -0.0481 -0.9917
vn 0.1847 -0.1447 -0.9721
vn 0.1304 -0.0491 -0.9902
vn 0.1884 -0.1856 -0.9644
vn 0.1282 -0.1858 -0.9742
vn -0.1637 -0.1188 -0.9793
vn -0.2003 -0.0518 -0.9784
vn -0.1895 -0.0550 -0.9803
vn -0.1865 -0.0496 -0.9812
vn -0.1866 -0.0959 -0.9777
vn -0.1272 -0.0483 -0.9907
vn -0.1855 -0.1532 -0.9706
vn -0.1367 -0.0934 -0.9862
vn -0.1699 -0.1857 -0.9678
vn -0.1477 0.9555 -0.2555
vn 0.1637 0.9865 -0.0006
vn 0.1637 0.9865 0.0006
vn 0.2052 0.9782 -0.0325
vn -0.1476 0.9555 0.2555
vn 0.2052 0.9782 0.0325
vn 0.0323 0.8116 -0.5833
vn 0.3601 0.9329 0.0003
vn -0.4492 0.8048 0.3879
vn 0.0323 0.8116 0.5833
vn 0.3601 0.9329 -0.0003
vn -0.4493 0.8048 -0.3879
vn 0.1374 0.8330 0.5359
vn 0.1374 0.8330 -0.5359
vn 0.1377 0.8233 -0.5506
vn 0.0001 0.9086 -0.4178
vn -0.0000 1.0000 -0.0000
vn -0.3601 0.9329 0.0003
vn -0.0012 0.7287 -0.6848
vn -0.1377 0.8233 -0.5506
vn -0.0012 0.7287 0.6848
vn -0.1357 0.8331 -0.5363
vn -0.0323 0.8116 -0.5834
vn -0.2052 0.9782 -0.0325
vn 0.4493 0.8048 -0.3879
vn 0.1476 0.9555 -0.2555
vn -0.1637 0.9865 -0.0006
vn -0.1637 0.9865 0.0006
vn 0.1476 0.9555 0.2555
vn -0.2052 0.9782 0.0325
vn 0.4493 0.8048 0.3879
vn -0.0323 0.8116 0.5833
vn -0.3601 0.9329 -0.0003
vn -0.1357 0.8331 0.5363
vn -0.1377 0.8233 0.5506
vn 0.0001 0.9086 0.4178
vn 0.1377 0.8233 0.5506
vt 0.152500 0.906765
vt 0.121200 0.021248
vt 0.183079 0.020741
vt 1.356300 0.021395
vt 1.268600 0.021297
vt 1.220500 0.906864
vt 0.183545 0.906120
vt 1.276200 0.907158
vt 0.167700 0.930174
vt 0.183507 0.928512
vt 0.183556 0.941413
vt 1.252000 0.939695
vt 1.204300 0.931205
vt 1.227600 0.953780
vt 1.181888 0.947351
vt 1.181888 0.979495
vt 1.137200 0.953878
vt 1.159500 0.931205
vt 1.111700 0.939646
vt 1.143400 0.906864
vt 1.087800 0.907109
vt 1.104300 0.021248
vt 1.016700 0.021395
vt 0.268600 0.021297
vt 0.356300 0.021395
vt 0.276200 0.907158
vt 0.220500 0.906864
vt 0.252000 0.939695
vt 0.204300 0.931205
vt 0.180896 0.947351
vt 0.227600 0.953780
vt 0.180896 0.979495
vt 1.121200 0.021248
vt 1.152500 0.906765
vt 1.167700 0.930174
vt 1.183800 0.941413
vt 0.251700 0.021248
vt 0.211400 0.906765
vt 0.196100 0.930174
vt 1.849426 0.835901
vt 1.966781 0.835898
vt 1.963669 0.801128
vt 1.847260 0.800669
vt 1.965712 0.770645
vt 1.846959 0.770930
vt 1.847927 0.740645
vt 1.966780 0.740773
vt 1.965738 0.709200
vt 1.846947 0.709418
vt 1.847266 0.678211
vt 1.963709 0.678167
vt 1.966752 0.642948
vt 1.849388 0.643245
vt 1.847258 0.678333
vt 1.849406 0.642949
vt 1.846950 0.709537
vt 1.847976 0.740286
vt 1.966720 0.740773
vt 1.965691 0.770645
vt 1.846923 0.771058
vt 1.847261 0.800792
vt 1.963737 0.801127
vt 1.849415 0.835603
vt 1.966771 0.835900
vt 1.183505 0.928515
vt 1.196100 0.930174
vt 1.183545 0.906120
vt 1.211400 0.906765
vt 1.183079 0.020741
vt 1.251700 0.021248
vt 0.143400 0.906864
vt 0.104300 0.021248
vt 0.159500 0.931205
vt 0.137200 0.953878
vt 0.111700 0.939646
vt 0.087800 0.907109
vt 0.016700 0.021395
vt 0.442868 0.057306
vt 0.442868 0.048006
vt 0.368672 0.048006
vt 0.368672 0.057306
vt 0.368672 0.149275
vt 0.442868 0.149275
vt 0.368672 0.156133
vt 0.442868 0.157247
vt 0.368672 0.220653
vt 0.442868 0.220653
vt 0.442770 0.227117
vt 0.368674 0.227137
vt 0.442866 0.250481
vt 0.368899 0.250463
vt 0.442868 0.266531
vt 0.368672 0.266471
vt 0.368673 0.290267
vt 0.442701 0.290287
vt 0.368743 0.307123
vt 0.442867 0.307108
vt 0.368672 0.313560
vt 0.442868 0.313560
vt 0.442868 0.376845
vt 0.368672 0.376845
vt 0.442868 0.384877
vt 0.368672 0.384589
vt 0.442868 0.476847
vt 0.368672 0.476847
vt 0.368672 0.486147
vt 0.442868 0.486147
vt 0.527782 0.486975
vt 0.465990 0.486975
vt 0.465990 0.372864
vt 0.527782 0.372864
vt 0.471922 0.206354
vt 0.584472 0.486975
vt 0.527782 0.206354
vt 0.474556 0.040228
vt 0.584472 0.372864
vt 0.649091 0.486975
vt 0.527951 0.040375
vt 0.443904 0.034219
vt 0.584472 0.206354
vt 0.649091 0.372864
vt 0.719347 0.486975
vt 0.584640 0.040449
vt 0.719347 0.372864
vt 0.789659 0.486975
vt 0.649091 0.206354
vt 0.789659 0.372864
vt 0.847161 0.486975
vt 0.719347 0.206354
vt 0.649324 0.040369
vt 0.789659 0.206354
vt 0.847161 0.372864
vt 0.900700 0.486975
vt 0.719626 0.040353
vt 0.847161 0.206354
vt 0.900700 0.372864
vt 0.956797 0.486975
vt 0.956797 0.372864
vt 0.900700 0.206354
vt 0.948820 0.206354
vt 0.900886 0.040370
vt 0.945754 0.040323
vt 0.847296 0.040449
vt 0.789829 0.040375
vt 0.789659 0.034219
vt 0.719347 0.034219
vt 0.649091 0.034219
vt 0.719356 0.019159
vt 0.649099 0.019159
vt 0.789665 0.019159
vt 0.584478 0.019160
vt 0.847161 0.034219
vt 0.847167 0.019160
vt 0.900700 0.034219
vt 0.900707 0.019159
vt 0.978884 0.034219
vt 0.978905 0.019158
vt 1.923501 0.631740
vt 1.947435 0.622597
vt 1.950016 0.510327
vt 1.930779 0.510418
vt 1.931283 0.501303
vt 1.540875 0.497550
vt 1.504023 0.503372
vt 1.477581 0.565919
vt 1.825181 0.632758
vt 1.419074 0.647567
vt 1.809961 0.739367
vt 1.327065 0.739416
vt 1.419074 0.831264
vt 1.824586 0.846625
vt 1.477940 0.912960
vt 1.932948 0.967115
vt 1.504622 0.975507
vt 1.923664 0.847751
vt 1.541593 0.981329
vt 1.946598 0.855946
vt 1.932907 0.976908
vt 1.954016 0.966702
vt 1.337175 0.589403
vt 1.337022 0.570310
vt 1.385388 0.570566
vt 1.403617 0.589359
vt 1.385558 0.570899
vt 1.337175 0.570312
vt 1.403473 0.589242
vt 1.337175 0.609255
vt 1.411506 0.609199
vt 1.411461 0.609200
vt 1.403727 0.630265
vt 1.403727 0.630265
vt 1.337175 0.630265
vt 1.385106 0.648414
vt 1.337175 0.650614
vt 0.584472 0.034219
vt 0.527790 0.019159
vt 0.527782 0.034219
vt 0.443904 0.019159
vt 0.327065 0.739416
vt 0.419074 0.647567
vt 0.809961 0.739367
vt 0.419074 0.831264
vt 0.824864 0.632874
vt 0.824572 0.846631
vt 0.477581 0.565919
vt 0.477940 0.912960
vt 0.930703 0.511780
vt 0.504023 0.503372
vt 0.924153 0.631539
vt 0.540875 0.497550
vt 0.947435 0.622597
vt 0.931283 0.501303
vt 0.953059 0.511792
vt 0.932429 0.967125
vt 0.504622 0.975507
vt 0.923218 0.847615
vt 0.541593 0.981329
vt 0.946598 0.855946
vt 0.932121 0.977287
vt 0.954016 0.966702
vt 0.395573 0.532985
vt 0.395574 0.560273
vt 0.353971 0.551341
vt 0.437174 0.551341
vt 0.336670 0.532985
vt 0.454476 0.532986
vt 0.353972 0.514630
vt 0.437175 0.514629
vt 0.395572 0.505698
vt 0.354425 0.974957
vt 0.343804 0.984379
vt 0.402954 0.984379
vt 0.330405 0.967259
vt 0.392333 0.974957
vt 0.416353 0.967259
vt 0.341108 0.962407
vt 0.312872 0.943426
vt 0.379915 0.968501
vt 0.405650 0.962407
vt 0.433613 0.943563
vt 0.366843 0.968501
vt 0.396336 0.945167
vt 0.350340 0.945167
vt 0.325340 0.942921
vt 0.305814 0.916780
vt 0.293026 0.916643
vt 0.312872 0.889900
vt 0.330909 0.916952
vt 0.325340 0.890678
vt 0.415795 0.916952
vt 0.350340 0.888433
vt 0.341108 0.871193
vt 0.330324 0.866341
vt 0.366843 0.865098
vt 0.354425 0.858643
vt 0.343804 0.849181
vt 0.402954 0.849181
vt 0.392252 0.858643
vt 0.416353 0.866341
vt 0.379833 0.865098
vt 0.405650 0.871152
vt 0.433613 0.890037
vt 0.396336 0.888433
vt 0.421337 0.890638
vt 0.440944 0.916780
vt 0.454717 0.916780
vt 0.421337 0.942921
s 1
usemtl 材质
f 1/1/1 2/2/2 3/3/3
f 4/4/4 5/5/4 6/6/4
f 3/3/3 7/7/5 1/1/1
f 6/6/6 8/8/6 4/4/6
f 9/9/7 1/1/1 7/7/5
f 7/7/5 10/10/8 9/9/7
f 10/10/8 11/11/9 9/9/7
f 12/12/10 8/8/11 6/6/12
f 6/6/12 13/13/13 12/12/10
f 14/14/14 12/12/10 13/13/13
f 13/13/13 15/15/15 14/14/14
f 14/14/14 15/15/15 16/16/16
f 15/15/15 17/17/17 16/16/16
f 17/17/17 15/15/15 18/18/18
f 18/18/19 19/19/20 17/17/17
f 19/19/21 18/18/21 20/20/22
f 20/20/23 21/21/24 19/19/20
f 21/21/24 20/20/23 22/22/25
f 22/22/25 23/23/26 21/21/24
f 24/24/27 25/25/28 26/26/29
f 26/26/29 27/27/30 24/24/27
f 27/27/30 26/26/29 28/28/31
f 28/28/31 29/29/32 27/27/30
f 30/30/33 29/29/32 28/28/31
f 28/28/31 31/31/34 30/30/33
f 30/30/33 31/31/34 32/32/35
f 33/33/36 34/22/37 35/20/38
f 35/20/38 36/34/39 33/33/36
f 36/34/39 35/20/38 37/18/40
f 37/18/40 38/35/41 36/34/39
f 38/35/41 37/18/40 39/15/42
f 39/15/43 40/36/43 38/35/43
f 41/37/44 42/24/45 43/27/46
f 43/27/46 44/38/47 41/37/44
f 44/38/47 43/27/46 45/29/48
f 45/29/48 46/39/49 44/38/47
f 46/39/49 45/29/48 47/30/50
f 47/30/50 48/11/51 46/39/49
f 49/40/52 50/41/53 51/42/54
f 51/42/54 52/43/55 49/40/52
f 52/43/55 51/42/54 53/44/56
f 53/44/56 54/45/57 52/43/55
f 55/46/58 54/45/57 53/44/56
f 53/44/56 56/47/59 55/46/58
f 55/46/58 56/47/59 57/48/60
f 57/48/60 58/49/61 55/46/58
f 59/50/62 58/49/61 57/48/60
f 57/48/60 60/51/63 59/50/62
f 59/50/62 60/51/63 61/52/64
f 61/52/64 62/53/65 59/50/62
f 63/54/66 64/55/67 61/52/64
f 61/52/64 65/51/68 63/54/66
f 63/54/66 65/51/68 66/48/69
f 66/48/69 67/56/70 63/54/66
f 68/57/71 67/56/70 66/48/69
f 66/48/69 69/58/72 68/57/71
f 68/57/71 69/58/72 70/59/73
f 70/59/73 71/60/74 68/57/71
f 72/61/75 71/60/74 70/59/73
f 70/59/73 73/62/76 72/61/75
f 74/63/77 72/61/75 73/62/76
f 73/62/76 75/64/78 74/63/77
f 76/65/79 77/36/79 78/66/80
f 79/67/81 76/65/82 78/66/82
f 78/66/80 80/68/83 79/67/81
f 81/69/84 79/67/81 80/68/83
f 80/68/83 82/70/85 81/69/84
f 83/71/86 84/72/87 85/2/88
f 85/2/88 86/1/89 83/71/86
f 87/73/90 83/71/86 86/1/89
f 86/1/89 88/9/91 87/73/90
f 89/30/92 87/73/90 88/9/91
f 88/9/91 90/11/93 89/30/92
f 91/66/94 92/36/95 93/15/96
f 93/15/96 94/13/97 91/66/94
f 95/68/98 91/66/94 94/13/97
f 94/13/97 96/6/99 95/68/98
f 95/68/98 96/6/99 97/5/100
f 97/5/100 98/70/100 95/68/98
f 99/74/101 100/30/102 101/32/103
f 100/30/102 99/74/101 102/75/104
f 102/75/104 103/73/105 100/30/102
f 104/71/106 103/73/105 102/75/104
f 102/75/104 105/76/107 104/71/106
f 104/71/106 105/76/107 106/77/108
f 106/77/108 107/72/109 104/71/106
f 108/65/110 109/35/111 110/36/112
f 109/35/111 108/65/110 111/67/113
f 111/67/113 112/34/114 109/35/111
f 113/33/115 112/34/114 111/67/113
f 111/67/113 114/69/116 113/33/115
f 115/10/117 116/39/118 117/11/119
f 116/39/118 115/10/117 118/7/120
f 118/7/120 119/38/121 116/39/118
f 120/37/122 119/38/121 118/7/120
f 118/7/120 121/3/123 120/37/122
f 122/78/124 123/79/125 124/80/125
f 124/80/125 125/81/124 122/78/124
f 122/78/124 125/81/124 126/82/126
f 126/82/126 127/83/127 122/78/124
f 127/83/127 126/82/126 128/84/128
f 128/84/128 129/85/128 127/83/127
f 129/85/128 128/84/128 130/86/129
f 130/86/129 131/87/129 129/85/128
f 132/88/130 131/87/129 130/86/129
f 130/86/129 133/89/130 132/88/130
f 134/90/131 132/88/130 133/89/130
f 133/89/130 135/91/132 134/90/131
f 136/92/133 134/90/131 135/91/132
f 135/91/132 137/93/133 136/92/133
f 136/92/133 137/93/133 138/94/134
f 138/94/134 139/95/134 136/92/133
f 139/95/134 138/94/134 140/96/135
f 140/96/135 141/97/135 139/95/134
f 141/97/135 140/96/135 142/98/136
f 142/98/136 143/99/136 141/97/135
f 144/100/137 143/99/136 142/98/136
f 142/98/136 145/101/138 144/100/137
f 146/102/139 144/100/137 145/101/138
f 145/101/138 147/103/140 146/102/139
f 148/104/141 146/102/139 147/103/140
f 147/103/140 149/105/141 148/104/141
f 148/104/141 149/105/141 150/106/142
f 150/106/142 151/107/142 148/104/141
f 152/108/143 153/109/144 154/110/145
f 154/110/145 155/111/146 152/108/143
f 155/111/146 154/110/145 156/112/147
f 157/113/148 152/108/149 155/111/149
f 156/112/147 158/114/150 155/111/146
f 158/114/150 156/112/147 159/115/151
f 155/111/146 160/116/152 157/113/153
f 160/116/152 155/111/146 158/114/150
f 161/117/154 157/113/153 160/116/152
f 159/115/151 162/118/155 158/114/150
f 162/118/155 159/115/151 163/119/156
f 158/114/150 164/120/157 160/116/152
f 164/120/157 158/114/150 162/118/155
f 160/116/152 165/121/158 161/117/154
f 165/121/158 160/116/152 164/120/157
f 166/122/159 161/117/154 165/121/158
f 162/118/155 167/123/160 164/120/157
f 165/121/158 168/124/161 166/122/159
f 169/125/162 166/122/159 168/124/161
f 164/120/157 170/126/163 165/121/158
f 168/124/161 165/121/158 170/126/163
f 170/126/163 164/120/157 167/123/160
f 168/124/161 171/127/164 169/125/162
f 172/128/165 169/125/162 171/127/164
f 170/126/163 173/129/166 168/124/161
f 171/127/164 168/124/161 173/129/166
f 173/129/166 170/126/163 174/130/167
f 167/123/160 174/130/167 170/126/163
f 173/129/166 175/131/168 171/127/164
f 171/127/164 176/132/169 172/128/165
f 176/132/169 171/127/164 175/131/168
f 177/133/170 172/128/165 176/132/169
f 175/131/168 173/129/166 178/134/171
f 174/130/167 178/134/171 173/129/166
f 175/131/168 179/135/172 176/132/169
f 176/132/169 180/136/173 177/133/170
f 180/136/173 176/132/169 179/135/172
f 181/137/174 177/133/170 180/136/173
f 180/136/173 182/138/175 181/137/174
f 182/138/175 180/136/173 183/139/176
f 179/135/172 183/139/176 180/136/173
f 183/139/176 184/140/177 182/138/175
f 184/140/177 183/139/176 185/141/178
f 185/141/178 186/142/179 184/140/177
f 183/139/176 179/135/172 187/143/180
f 187/143/180 185/141/178 183/139/176
f 188/144/181 187/143/180 179/135/172
f 179/135/172 175/131/168 188/144/181
f 178/134/171 188/144/181 175/131/168
f 187/143/180 188/144/181 189/145/182
f 188/144/181 178/134/171 190/146/183
f 190/146/183 189/145/182 188/144/181
f 191/147/184 190/146/183 178/134/171
f 178/134/171 174/130/167 191/147/184
f 189/145/182 190/146/183 192/148/185
f 193/149/186 192/148/185 190/146/183
f 190/146/183 191/147/184 193/149/186
f 192/148/185 194/150/187 189/145/182
f 195/151/188 193/149/186 191/147/184
f 196/152/189 189/145/182 194/150/187
f 189/145/182 196/152/189 187/143/180
f 194/150/187 197/153/190 196/152/189
f 185/141/178 187/143/180 196/152/189
f 198/154/191 196/152/189 197/153/190
f 196/152/189 198/154/191 185/141/178
f 186/142/179 185/141/178 198/154/191
f 197/153/190 199/155/192 198/154/191
f 198/154/191 200/156/193 186/142/179
f 200/156/193 198/154/191 199/155/192
f 199/155/192 201/157/194 200/156/193
f 202/158/195 203/159/196 204/160/197
f 204/160/197 205/161/198 202/158/195
f 206/162/199 205/161/198 204/160/197
f 205/161/198 206/162/199 207/163/200
f 207/163/200 208/164/201 205/161/198
f 208/164/201 209/165/202 205/161/198
f 210/166/203 202/158/195 205/161/198
f 209/165/202 210/166/203 205/161/198
f 211/167/204 210/166/203 209/165/202
f 212/168/205 210/166/203 211/167/204
f 211/167/204 213/169/206 212/168/205
f 213/169/206 214/170/207 212/168/205
f 215/171/208 212/168/205 214/170/207
f 215/171/208 214/170/207 216/172/209
f 215/171/208 216/172/209 217/173/210
f 216/172/209 218/174/211 217/173/210
f 219/175/212 215/171/208 217/173/210
f 217/173/210 218/174/211 220/176/213
f 221/177/214 219/175/212 217/173/210
f 220/176/213 222/178/215 217/173/210
f 217/173/210 223/179/216 221/177/214
f 222/178/215 223/179/216 217/173/210
f 224/180/217 225/181/218 226/182/218
f 226/182/218 227/183/219 224/180/217
f 228/184/218 229/185/218 224/180/217
f 224/180/217 230/186/219 228/184/218
f 231/187/218 224/180/217 227/183/219
f 230/186/219 224/180/217 231/187/218
f 227/183/219 232/188/218 231/187/218
f 231/187/218 233/189/218 230/186/219
f 231/187/218 232/188/218 234/190/220
f 235/191/220 233/189/218 231/187/218
f 234/190/220 236/192/221 231/187/218
f 231/187/218 236/192/221 235/191/220
f 236/192/221 234/190/220 237/193/218
f 238/193/218 235/191/220 236/192/221
f 237/193/218 239/194/218 236/192/221
f 236/192/221 239/194/218 238/193/218
f 240/195/222 191/147/184 174/130/167
f 191/147/184 240/195/222 195/151/188
f 174/130/167 167/123/160 240/195/222
f 241/196/223 195/151/188 240/195/222
f 242/197/224 240/195/222 167/123/160
f 240/195/222 242/197/224 241/196/223
f 167/123/160 162/118/155 242/197/224
f 243/198/225 241/196/223 242/197/224
f 163/119/156 242/197/224 162/118/155
f 242/197/224 163/119/156 243/198/225
f 244/199/226 245/200/227 246/201/228
f 247/202/229 244/199/226 246/201/228
f 248/203/230 246/201/228 245/200/227
f 246/201/228 249/204/231 247/202/229
f 248/203/230 245/200/227 250/205/232
f 247/202/229 249/204/231 251/206/233
f 248/203/230 250/205/232 252/207/234
f 250/205/232 253/208/235 252/207/234
f 248/203/230 252/207/234 254/209/236
f 252/207/234 253/208/235 255/210/237
f 256/211/238 254/209/236 252/207/234
f 255/210/237 257/212/239 252/207/234
f 252/207/234 258/213/240 256/211/238
f 252/207/241 257/212/241 258/213/241
f 259/214/242 251/206/243 249/204/244
f 259/214/242 260/215/245 251/206/243
f 259/214/242 249/204/231 261/216/246
f 262/217/247 260/215/245 259/214/242
f 259/214/242 261/216/246 263/218/248
f 259/214/242 264/219/249 262/217/247
f 263/218/248 265/220/250 259/214/242
f 264/219/249 259/214/242 265/220/250
f 266/221/218 267/222/218 268/223/218
f 266/221/218 269/224/218 267/222/218
f 266/221/218 268/223/218 270/225/218
f 266/221/218 271/226/218 269/224/218
f 266/221/218 270/225/218 272/227/218
f 266/221/218 273/228/218 271/226/218
f 266/221/218 272/227/218 274/229/218
f 266/221/218 274/229/218 273/228/218
f 275/230/251 276/231/252 277/232/253
f 278/233/254 276/231/252 275/230/251
f 277/232/253 279/234/255 275/230/251
f 277/232/253 280/235/256 279/234/255
f 281/236/257 278/233/254 275/230/251
f 282/237/258 278/233/254 281/236/257
f 275/230/251 279/234/255 283/238/259
f 280/235/256 284/239/260 279/234/255
f 284/239/260 283/238/259 279/234/255
f 284/239/260 280/235/256 285/240/261
f 283/238/259 286/241/262 275/230/251
f 286/241/262 281/236/257 275/230/251
f 286/241/262 283/238/259 287/242/263
f 284/239/260 287/242/263 283/238/259
f 288/243/264 281/236/257 286/241/262
f 287/242/263 288/243/264 286/241/262
f 289/244/265 281/236/257 288/243/264
f 281/236/257 289/244/265 282/237/258
f 282/237/258 289/244/265 290/245/266
f 288/243/264 290/245/266 289/244/265
f 290/245/266 291/246/267 282/237/258
f 292/247/268 291/246/267 290/245/266
f 293/248/269 290/245/266 288/243/264
f 290/245/266 294/249/270 292/247/268
f 295/250/271 293/248/269 288/243/264
f 288/243/264 287/242/263 295/250/271
f 290/245/266 293/248/269 296/251/272
f 296/251/272 293/248/269 295/250/271
f 290/245/266 296/251/272 294/249/270
f 292/247/268 294/249/270 297/252/273
f 297/252/273 294/249/270 296/251/272
f 297/252/273 298/253/274 292/247/268
f 297/252/273 296/251/272 299/254/275
f 298/253/274 297/252/273 300/255/276
f 297/252/273 299/254/275 300/255/276
f 301/256/277 298/253/274 300/255/276
f 302/257/278 301/256/277 300/255/276
f 300/255/276 303/258/279 302/257/278
f 304/259/280 302/257/278 303/258/279
f 305/260/281 303/258/279 300/255/276
f 300/255/276 299/254/275 305/260/281
f 306/261/282 304/259/280 303/258/279
f 305/260/281 306/261/282 303/258/279
f 307/262/283 304/259/280 306/261/282
f 308/263/284 305/260/281 299/254/275
f 308/263/284 306/261/282 305/260/281
f 299/254/275 296/251/272 308/263/284
f 295/250/271 308/263/284 296/251/272
f 309/264/285 306/261/282 308/263/284
f 306/261/282 309/264/285 307/262/283
f 295/250/271 310/265/286 308/263/284
f 308/263/284 310/265/286 309/264/285
f 307/262/283 309/264/285 310/265/286
f 310/265/286 311/266/267 307/262/283
f 310/265/286 295/250/271 287/242/263
f 285/240/261 311/266/267 310/265/286
f 310/265/286 287/242/263 312/267/287
f 310/265/286 312/267/287 285/240/261
f 284/239/260 312/267/287 287/242/263
f 285/240/261 312/267/287 284/239/260
