# Blender 4.3.2
# www.blender.org
mtllib 枪.mtl
o Nail1
v 6.705427 -0.040483 9.173955
v 6.705427 0.122269 9.173955
v 5.787591 -0.040483 8.185019
v 5.787591 0.122269 8.185019
v 7.392587 -0.040483 8.536199
v 7.392587 0.122269 8.536199
v 6.474751 -0.040483 7.547264
v 6.474751 0.122269 7.547264
v 6.808291 0.062025 8.408540
v 6.808291 0.775746 8.203952
v 6.932570 0.062025 8.498833
v 7.147686 0.775746 8.450537
v 6.885099 0.062025 8.644931
v 7.018048 0.775746 8.849519
v 6.731483 0.062025 8.644931
v 6.598534 0.775746 8.849519
v 6.684013 0.062025 8.498833
v 6.468896 0.775746 8.450537
vn -0.7330 -0.0000 0.6803
vn -0.6803 -0.0000 -0.7330
vn 0.7330 -0.0000 -0.6803
vn 0.6803 -0.0000 0.7330
vn -0.0000 -1.0000 -0.0000
vn -0.0000 1.0000 -0.0000
vn 0.5726 -0.2259 -0.7881
vn 0.9192 -0.2568 0.2987
vn -0.0000 -0.2756 0.9613
vn -0.9192 -0.2568 0.2987
vn -0.5726 -0.2259 -0.7881
vt 0.938349 0.145261
vt 0.946040 0.145261
vt 0.946040 0.209018
vt 0.938349 0.209018
vt 0.946040 0.216708
vt 0.990341 0.209018
vt 0.990341 0.216708
vt 0.998032 0.209018
vt 0.990341 0.145261
vt 0.998032 0.145261
vt 0.990341 0.137570
vt 0.946040 0.137570
vt 0.946040 0.073813
vt 0.990341 0.073813
vt 0.978691 0.021351
vt 0.973604 0.056065
vt 0.954715 0.050051
vt 0.971774 0.019149
vt 0.938999 0.037968
vt 0.966020 0.014724
vt 0.928922 0.020896
vt 0.962330 0.008473
vt 0.818608 0.565741
vt 0.802572 0.577396
vt 0.786532 0.565746
vt 0.792655 0.546891
vt 0.812479 0.546888
vt 0.925939 0.001298
vt 0.961237 0.001297
vt 0.985949 0.021226
vt 0.993425 0.055724
s 1
usemtl 材质
f 1/1/1 2/2/1 4/3/1 3/4/1
f 3/5/2 4/3/2 8/6/2 7/7/2
f 7/8/3 8/6/3 6/9/3 5/10/3
f 5/11/4 6/9/4 2/2/4 1/12/4
f 3/13/5 7/14/5 5/11/5 1/12/5
f 8/6/6 4/3/6 2/2/6 6/9/6
f 9/15/7 10/16/7 12/17/7 11/18/7
f 11/18/8 12/17/8 14/19/8 13/20/8
f 13/20/9 14/19/9 16/21/9 15/22/9
f 12/23/6 10/24/6 18/25/6 16/26/6 14/27/6
f 15/22/10 16/21/10 18/28/10 17/29/10
f 17/30/11 18/31/11 10/16/11 9/15/11
o Ob4
v 0.972674 0.557925 0.155470
v 0.951700 0.557925 0.155470
v 0.951703 1.227559 0.155428
v 0.972669 1.227559 0.155428
v 0.983161 0.557925 0.173608
v 0.983152 1.227559 0.173608
v 0.972674 0.557925 0.191747
v 0.972669 1.227559 0.191788
v 0.951729 0.557925 0.191703
v 0.951756 1.227559 0.191710
v 0.941240 0.557925 0.173585
v 0.941270 1.227559 0.173567
v 0.951700 0.557925 0.155470
v 0.951703 1.227559 0.155428
v 0.941240 0.559048 0.173585
v 0.951700 0.559048 0.155470
v 0.951697 0.118418 0.155511
v 0.941211 0.118418 0.173604
v 0.951729 0.559048 0.191703
v 0.951703 0.118418 0.191697
v 0.972674 0.559048 0.191747
v 0.972679 0.118418 0.191706
v 0.983161 0.559048 0.173608
v 0.983170 0.118418 0.173608
v 0.972674 0.559048 0.155470
v 0.972679 0.118418 0.155511
v 0.951700 0.559048 0.155470
v 0.951697 0.118418 0.155511
v 0.941211 0.120334 0.173604
v 0.951697 0.120334 0.155511
v 0.951696 -0.026680 0.155522
v 0.941203 -0.026680 0.173608
v 0.951703 0.120334 0.191697
v 0.951696 -0.026680 0.191695
v 0.972679 0.120334 0.191706
v 0.972681 -0.026680 0.191695
v 0.983170 0.120334 0.173608
v 0.983173 -0.026680 0.173608
v 0.972679 0.120334 0.155511
v 0.972681 -0.026680 0.155522
v 0.951697 0.120334 0.155511
v 0.951696 -0.026680 0.155522
v 0.974952 1.469392 0.152070
v 0.949621 1.469392 0.152070
v 0.936956 1.469392 0.173479
v 0.987617 1.469392 0.173479
v 0.974952 1.469392 0.194887
v 0.949621 1.469392 0.194887
v 0.940770 -0.054344 0.173608
v 0.951544 -0.054344 0.156050
v 0.973091 -0.054344 0.156050
v 0.983865 -0.054344 0.173608
v 0.973091 -0.054344 0.191166
v 0.951544 -0.054344 0.191166
v 0.949759 -0.031615 0.152620
v 0.951696 -0.026680 0.155522
v 0.972681 -0.026680 0.155522
v 0.974876 -0.031615 0.152620
v 0.983173 -0.026680 0.173608
v 0.948422 -0.049101 0.150957
v 0.973091 -0.054344 0.156050
v 0.951544 -0.054344 0.156050
v 0.976213 -0.049101 0.150957
v 0.983865 -0.054344 0.173608
v 0.987436 -0.031615 0.173608
v 0.990109 -0.049101 0.173608
v 0.973091 -0.054344 0.191166
v 0.974876 -0.031615 0.194597
v 0.972681 -0.026680 0.191695
v 0.976213 -0.049101 0.196259
v 0.951544 -0.054344 0.191166
v 0.949759 -0.031615 0.194597
v 0.951696 -0.026680 0.191695
v 0.941203 -0.026680 0.173608
v 0.948422 -0.049101 0.196259
v 0.940770 -0.054344 0.173608
v 0.937199 -0.031615 0.173608
v 0.951696 -0.026680 0.155522
v 0.949759 -0.031615 0.152620
v 0.934526 -0.049101 0.173608
v 0.948422 -0.049101 0.150957
v 0.951544 -0.054344 0.156050
v 0.950493 1.413751 0.153047
v 0.950905 1.426989 0.153404
v 0.973953 1.426989 0.153404
v 0.974124 1.413751 0.153047
v 0.985477 1.426989 0.173479
v 0.974127 1.229042 0.153031
v 0.950485 1.229042 0.153031
v 0.951703 1.225017 0.155428
v 0.972669 1.225017 0.155428
v 0.985947 1.229042 0.173546
v 0.983152 1.225017 0.173608
v 0.985938 1.413751 0.173544
v 0.973953 1.426989 0.193554
v 0.974127 1.229042 0.194061
v 0.972669 1.225017 0.191788
v 0.974124 1.413751 0.194040
v 0.950905 1.426989 0.193554
v 0.950550 1.228973 0.193966
v 0.951756 1.225017 0.191710
v 0.950558 1.404712 0.193945
v 0.938725 1.228973 0.173495
v 0.941270 1.225017 0.173567
v 0.951703 1.225017 0.155428
v 0.950485 1.229042 0.153031
v 0.938738 1.404712 0.173493
v 0.950493 1.413751 0.153047
v 0.935112 1.414736 0.173447
v 0.939381 1.426989 0.173479
v 0.950905 1.426989 0.153404
v 0.935355 1.415014 0.184371
v 0.939706 1.415097 0.190127
v 0.950938 1.414604 0.194856
v 0.946831 1.446920 0.147357
v 0.949621 1.469392 0.152070
v 0.974952 1.469392 0.152070
v 0.977742 1.446920 0.147357
v 0.950905 1.426989 0.153404
v 0.973953 1.426989 0.153404
v 0.993197 1.446920 0.173479
v 0.987617 1.469392 0.173479
v 0.985477 1.426989 0.173479
v 0.974952 1.469392 0.194887
v 0.973953 1.426989 0.193554
v 0.977742 1.446920 0.199600
v 0.949621 1.469392 0.194887
v 0.950905 1.426989 0.193554
v 0.946831 1.446920 0.199600
v 0.931376 1.446920 0.173479
v 0.936956 1.469392 0.173479
v 0.939381 1.426989 0.173479
v 0.949621 1.469392 0.152070
v 0.950905 1.426989 0.153404
v 0.946831 1.446920 0.147357
v 0.939509 1.469392 0.173495
v 0.948988 1.469392 0.190492
v 0.953630 1.504380 0.187368
v 0.941948 1.504380 0.173620
v 0.975560 1.469392 0.190393
v 0.950713 1.530163 0.187142
v 0.936004 1.528872 0.173642
v 0.970942 1.504380 0.187304
v 0.984914 1.469392 0.173327
v 0.982522 1.504380 0.173470
v 0.973857 1.530163 0.187056
v 0.988466 1.528872 0.173448
v 0.930108 1.553637 0.185111
v 0.924985 1.544214 0.173705
v 0.912873 1.551329 0.173749
v 0.929263 1.566248 0.185739
v 0.926728 1.632649 0.173698
v 0.948655 1.555945 0.196479
v 0.952707 1.575509 0.194368
v 0.953767 1.645471 0.190756
v 0.971862 1.575509 0.194258
v 0.975924 1.555945 0.196323
v 0.994435 1.553637 0.184835
v 0.999485 1.544214 0.173385
v 1.011597 1.551329 0.173342
v 0.995284 1.566248 0.185455
v 0.997742 1.632649 0.173392
v 0.970812 1.645471 0.190683
v 0.962278 1.769053 0.187099
v 0.978118 1.829427 0.173477
v 0.962235 1.916433 0.173545
v 0.946352 1.829427 0.173613
v 0.962235 1.916433 0.173545
v 0.962192 1.769053 0.159992
v 0.946352 1.829427 0.173613
v 0.978118 1.829427 0.173477
v 0.926728 1.632649 0.173698
v 0.997742 1.632649 0.173392
v 0.953658 1.645471 0.156407
v 0.970703 1.645471 0.156334
v 0.952605 1.575509 0.151646
v 0.971760 1.575509 0.151536
v 0.995211 1.566248 0.162538
v 1.011597 1.551329 0.173342
v 0.975815 1.555945 0.150611
v 0.994362 1.553637 0.161979
v 0.999485 1.544214 0.173385
v 0.988466 1.528872 0.173448
v 0.973757 1.530163 0.159949
v 0.982522 1.504380 0.173470
v 0.970840 1.504380 0.159722
v 0.984914 1.469392 0.173327
v 0.975434 1.469392 0.156329
v 0.953527 1.504380 0.159786
v 0.948862 1.469392 0.156428
v 0.939509 1.469392 0.173495
v 0.941948 1.504380 0.173620
v 0.950613 1.530163 0.160034
v 0.936004 1.528872 0.173642
v 0.930035 1.553637 0.162256
v 0.924985 1.544214 0.173705
v 0.912873 1.551329 0.173749
v 0.948546 1.555945 0.150768
v 0.929190 1.566248 0.162822
vn 0.5031 0.0033 -0.8642
vn -0.0000 -0.0001 -1.0000
vn 0.0116 -0.0001 -0.9999
vn 1.0000 0.0034 0.0039
vn 0.5031 -0.0000 -0.8642
vn 0.0117 -0.0023 -0.9999
vn 0.8663 -0.0000 -0.4995
vn 1.0000 -0.0000 -0.0000
vn 0.4989 0.0002 0.8667
vn 1.0000 -0.0000 0.0039
vn 0.8604 -0.0000 0.5096
vn -0.5038 0.0033 0.8638
vn 0.4989 -0.0000 0.8667
vn 0.8604 -0.0023 0.5096
vn -0.0037 -0.0000 1.0000
vn -0.5014 0.0001 0.8652
vn -1.0000 -0.0000 0.0006
vn -0.5038 -0.0000 0.8638
vn -0.5014 -0.0000 0.8652
vn -1.0000 -0.0000 0.0010
vn -0.8660 -0.0000 -0.5000
vn -0.8668 -0.0000 -0.4986
vn -1.0000 -0.0000 0.0005
vn -0.8652 -0.0000 -0.5014
vn -1.0000 -0.0000 0.0001
vn -0.5004 -0.0000 0.8658
vn -0.4994 -0.0000 0.8664
vn 0.4988 -0.0000 0.8667
vn 0.4991 -0.0000 0.8665
vn 0.4997 -0.0000 -0.8662
vn 0.4992 -0.0001 -0.8665
vn -0.8650 -0.0000 -0.5018
vn -1.0000 -0.0000 -0.0000
vn -0.4993 -0.0000 0.8664
vn -0.4991 -0.0000 0.8665
vn 0.4991 -0.0000 0.8666
vn 0.4992 -0.0000 -0.8665
vn 0.4991 -0.0001 -0.8665
vn -0.0000 1.0000 -0.0000
vn -0.0000 -1.0000 -0.0000
vn -0.0000 0.2786 -0.9604
vn -0.0000 0.5069 -0.8620
vn 0.3804 0.5887 -0.7133
vn 0.4676 0.3442 -0.8141
vn 0.7609 0.6489 -0.0000
vn -0.0000 -0.2775 -0.9607
vn 0.3142 -0.7511 -0.5806
vn -0.0000 -0.6968 -0.7173
vn 0.4704 -0.3149 -0.8244
vn 0.6430 -0.7658 0.0001
vn 0.9225 0.3861 -0.0022
vn 0.9509 -0.3095 -0.0019
vn 0.3142 -0.7511 0.5806
vn 0.4656 0.3457 0.8147
vn 0.3804 0.5887 0.7133
vn 0.4949 -0.2851 0.8209
vn -0.5975 -0.6883 0.4114
vn -0.4661 0.3371 0.8180
vn -0.3962 0.5760 0.7151
vn -0.7807 0.6250 -0.0000
vn -0.0000 -0.6968 0.7173
vn -0.4822 -0.3880 0.7854
vn -0.4627 -0.2910 0.8374
vn -0.6430 -0.7658 -0.0001
vn -0.5184 -0.7334 0.4398
vn -0.9273 0.3744 0.0021
vn -0.7303 0.5358 -0.4237
vn -0.8136 0.3185 -0.4864
vn -0.9509 -0.3095 0.0019
vn -0.8180 -0.2812 -0.5018
vn -0.5981 -0.7125 -0.3669
vn -0.0000 0.0134 -0.9999
vn -0.0000 0.0270 -0.9996
vn 0.5015 0.0298 -0.8646
vn 0.5002 0.0152 -0.8658
vn 0.9994 0.0342 -0.0022
vn 0.4821 -0.2754 -0.8317
vn -0.0000 -0.2419 -0.9703
vn -0.0000 -0.5117 -0.8592
vn 0.4066 -0.5716 -0.7127
vn 0.9615 -0.2748 -0.0013
vn 0.8214 -0.5704 0.0043
vn 0.9999 0.0171 0.0005
vn 0.5022 0.0388 0.8639
vn 0.4830 -0.2676 0.8337
vn 0.4063 -0.5567 0.7245
vn 0.5030 0.0179 0.8641
vn -0.3355 0.2592 0.9057
vn -0.4825 -0.2612 0.8360
vn -0.4270 -0.5426 0.7234
vn -0.4114 -0.1326 0.9018
vn -0.9655 -0.2604 -0.0006
vn -0.8410 -0.5409 0.0066
vn -0.7557 -0.4889 -0.4358
vn -0.8446 -0.2242 -0.4861
vn -0.9687 -0.2299 -0.0942
vn -0.8488 0.0181 -0.5284
vn -0.9574 -0.0058 -0.2887
vn -0.9055 0.3933 -0.1594
vn -0.8666 0.0404 -0.4974
vn -0.9166 0.0103 0.3996
vn -0.7148 0.0326 0.6985
vn -0.1753 0.0095 0.9845
vn -0.0000 -0.0374 -0.9993
vn -0.0000 0.2053 -0.9787
vn 0.4802 0.2368 -0.8446
vn 0.4969 -0.0481 -0.8665
vn -0.0000 -0.2903 -0.9569
vn 0.4636 -0.3404 -0.8180
vn 0.9985 -0.0545 -0.0000
vn 0.9705 0.2410 -0.0000
vn 0.9325 -0.3612 -0.0000
vn 0.4802 0.2368 0.8446
vn 0.4636 -0.3404 0.8180
vn 0.4969 -0.0481 0.8665
vn -0.4801 0.2368 0.8446
vn -0.4590 -0.3461 0.8183
vn -0.4981 -0.0509 0.8656
vn -0.9982 -0.0601 -0.0000
vn -0.9705 0.2410 -0.0000
vn -0.9280 -0.3727 -0.0000
vn -0.8417 0.2090 -0.4979
vn -0.8179 -0.3196 -0.4784
vn -0.8595 -0.0511 -0.5085
vn -0.8363 0.1259 0.5337
vn -0.5172 0.1439 0.8437
vn -0.4088 0.0311 0.9121
vn -0.7430 -0.0343 0.6685
vn 0.5232 0.1432 0.8401
vn -0.3443 -0.2466 0.9059
vn -0.6282 -0.3303 0.7044
vn 0.4157 0.0308 0.9090
vn 0.8403 0.1248 0.5276
vn 0.7479 -0.0348 0.6629
vn 0.3512 -0.2458 0.9034
vn 0.6337 -0.3297 0.6998
vn -0.5284 -0.2733 0.8038
vn -0.5111 -0.5357 0.6722
vn -0.5507 -0.2397 0.7996
vn -0.5303 0.0667 0.8452
vn -0.5402 0.0723 0.8384
vn -0.2461 -0.1104 0.9629
vn -0.2027 0.1136 0.9726
vn -0.2914 0.0519 0.9552
vn 0.2117 0.1133 0.9707
vn 0.2540 -0.1099 0.9609
vn 0.5340 -0.2726 0.8003
vn 0.5165 -0.5353 0.6683
vn 0.5564 -0.2397 0.7956
vn 0.5359 0.0666 0.8417
vn 0.5465 0.0720 0.8343
vn 0.2994 0.0517 0.9527
vn 0.0040 0.0646 0.9979
vn 0.4626 0.0779 0.8831
vn 0.0043 0.0916 0.9958
vn -0.4554 0.0780 0.8869
vn -0.0043 0.0916 -0.9958
vn 0.3841 0.0614 -0.9212
vn -0.4520 0.0818 -0.8883
vn 0.4554 0.0780 -0.8869
vn -0.5520 0.0747 -0.8305
vn -0.5288 0.0524 -0.8471
vn 0.5457 0.0750 -0.8346
vn -0.3007 0.0590 -0.9519
vn -0.5524 0.0750 -0.8302
vn 0.2928 0.0591 -0.9543
vn -0.2389 0.0889 -0.9670
vn 0.2301 0.0892 -0.9691
vn 0.5392 0.0796 -0.8384
vn 0.5374 -0.2243 -0.8130
vn 0.2611 -0.1255 -0.9571
vn 0.5374 -0.2350 -0.8099
vn 0.5111 -0.5357 -0.6722
vn 0.6282 -0.3303 -0.7045
vn 0.3443 -0.2466 -0.9059
vn 0.7430 -0.0325 -0.6685
vn 0.4094 0.0343 -0.9117
vn 0.8360 0.1289 -0.5334
vn 0.5155 0.1495 -0.8438
vn -0.4159 0.0346 -0.9087
vn -0.5219 0.1502 -0.8397
vn -0.8398 0.1299 -0.5271
vn -0.7479 -0.0320 -0.6630
vn -0.3512 -0.2458 -0.9034
vn -0.6337 -0.3297 -0.6998
vn -0.5430 -0.2343 -0.8064
vn -0.5165 -0.5353 -0.6684
vn -0.5432 -0.2243 -0.8091
vn -0.2690 -0.1249 -0.9550
vn -0.5447 0.0795 -0.8348
vt 0.415700 0.011400
vt 0.446454 0.011300
vt 0.446454 0.989700
vt 0.415700 0.989700
vt 0.381500 0.011400
vt 0.381500 0.989700
vt 0.347300 0.011400
vt 0.347300 0.989700
vt 0.316000 0.011500
vt 0.316000 0.989700
vt 0.282800 0.011500
vt 0.282800 0.989700
vt 0.249300 0.011500
vt 0.249300 0.989700
vt 0.515300 0.990200
vt 0.481700 0.990200
vt 0.481700 0.012000
vt 0.515300 0.011900
vt 0.548400 0.990200
vt 0.548400 0.012000
vt 0.579800 0.990200
vt 0.579800 0.011900
vt 0.614000 0.990100
vt 0.614000 0.011800
vt 0.648200 0.990100
vt 0.648200 0.011700
vt 0.679300 0.990100
vt 0.679300 0.011700
vt 0.057500 0.667900
vt 0.023300 0.667900
vt 0.023300 0.401900
vt 0.057500 0.401900
vt 0.091400 0.667900
vt 0.091400 0.401900
vt 0.123300 0.667900
vt 0.123300 0.401800
vt 0.158300 0.667900
vt 0.158300 0.401700
vt 0.193200 0.667900
vt 0.193200 0.401700
vt 0.224900 0.667900
vt 0.224900 0.401600
vt 0.769524 0.988075
vt 0.719296 0.987588
vt 0.694306 0.940057
vt 0.794839 0.939772
vt 0.769968 0.892347
vt 0.719586 0.891809
vt 0.883300 0.934800
vt 0.907200 0.890400
vt 0.955100 0.890300
vt 0.979200 0.934500
vt 0.955300 0.978900
vt 0.907400 0.979000
vt 0.087000 0.384200
vt 0.102900 0.371800
vt 0.102900 0.317100
vt 0.087000 0.319500
vt 0.102900 0.257100
vt 0.036600 0.384200
vt 0.013000 0.308100
vt 0.013000 0.360500
vt 0.036600 0.319500
vt 0.013000 0.253400
vt 0.087000 0.258500
vt 0.036600 0.258500
vt 0.013000 0.199500
vt 0.087000 0.199800
vt 0.102900 0.199400
vt 0.036600 0.199800
vt 0.013000 0.145600
vt 0.087000 0.140100
vt 0.102900 0.144600
vt 0.102900 0.082600
vt 0.036600 0.140100
vt 0.013000 0.089400
vt 0.087000 0.078800
vt 0.102900 0.022700
vt 0.087000 0.013800
vt 0.036600 0.078800
vt 0.036600 0.013800
vt 0.013000 0.035600
vt 0.225800 0.962900
vt 0.225800 0.982200
vt 0.194044 0.982208
vt 0.194140 0.962974
vt 0.159286 0.982201
vt 0.194155 0.697551
vt 0.225800 0.697562
vt 0.225800 0.692500
vt 0.194100 0.692500
vt 0.159154 0.697538
vt 0.159100 0.692500
vt 0.159202 0.962967
vt 0.124335 0.982210
vt 0.123819 0.697501
vt 0.124100 0.692500
vt 0.124789 0.963089
vt 0.093995 0.981766
vt 0.092444 0.697426
vt 0.092200 0.692500
vt 0.092203 0.951322
vt 0.058386 0.697434
vt 0.058400 0.692500
vt 0.024100 0.692500
vt 0.024121 0.697477
vt 0.058317 0.950751
vt 0.024172 0.963643
vt 0.060556 0.965250
vt 0.060354 0.981467
vt 0.024165 0.982299
vt 0.072258 0.965685
vt 0.080210 0.965587
vt 0.094696 0.964732
vt 0.178838 0.013691
vt 0.225467 0.028994
vt 0.224903 0.086348
vt 0.179138 0.079340
vt 0.132208 0.034976
vt 0.132493 0.089730
vt 0.178898 0.140276
vt 0.225079 0.142071
vt 0.132726 0.143657
vt 0.225402 0.197997
vt 0.132662 0.196901
vt 0.178705 0.198945
vt 0.225543 0.251582
vt 0.132351 0.250377
vt 0.178752 0.252660
vt 0.178662 0.314839
vt 0.225621 0.307868
vt 0.132369 0.308073
vt 0.226083 0.369430
vt 0.132153 0.367464
vt 0.178637 0.387116
vt 0.769806 0.014327
vt 0.813152 0.014536
vt 0.816100 0.092800
vt 0.771900 0.088800
vt 0.871681 0.015557
vt 0.804700 0.150600
vt 0.756800 0.141300
vt 0.867100 0.093400
vt 0.914689 0.016471
vt 0.910900 0.090200
vt 0.876800 0.151800
vt 0.924700 0.142900
vt 0.744100 0.209000
vt 0.719400 0.181600
vt 0.694500 0.204100
vt 0.749300 0.237000
vt 0.726800 0.384000
vt 0.793700 0.213900
vt 0.802800 0.257800
vt 0.813900 0.410200
vt 0.875900 0.258700
vt 0.885800 0.215300
vt 0.936100 0.211700
vt 0.960800 0.185200
vt 0.986300 0.208200
vt 0.930300 0.239500
vt 0.950200 0.387100
vt 0.861900 0.410900
vt 0.834800 0.619800
vt 0.882000 0.776400
vt 0.831100 0.956600
vt 0.785000 0.775100
vt 0.831100 0.955300
vt 0.835500 0.618800
vt 0.882000 0.775100
vt 0.785000 0.773900
vt 0.950200 0.385900
vt 0.726800 0.382800
vt 0.862100 0.409600
vt 0.814200 0.409000
vt 0.876300 0.257300
vt 0.803300 0.256300
vt 0.749400 0.235600
vt 0.694500 0.202800
vt 0.794000 0.212500
vt 0.744200 0.207700
vt 0.719400 0.180300
vt 0.756800 0.140000
vt 0.804500 0.149200
vt 0.771900 0.087500
vt 0.815800 0.091500
vt 0.769725 0.013109
vt 0.812581 0.013190
vt 0.866900 0.092100
vt 0.870591 0.014341
vt 0.913574 0.015127
vt 0.910900 0.089000
vt 0.876700 0.150300
vt 0.924700 0.141700
vt 0.936200 0.210300
vt 0.960800 0.184000
vt 0.986300 0.206900
vt 0.886100 0.213700
vt 0.930400 0.238100
s 1
usemtl 材质.009
f 19/32/12 20/33/13 21/34/13
f 21/34/13 22/35/14 19/32/13
f 23/36/15 19/32/16 22/35/17
f 22/35/18 24/37/19 23/36/18
f 25/38/20 23/36/21 24/37/19
f 24/37/19 26/39/22 25/38/20
f 27/40/23 25/38/24 26/39/25
f 26/39/26 28/41/27 27/40/26
f 29/42/28 27/40/29 28/41/30
f 28/41/30 30/43/31 29/42/28
f 31/44/32 29/42/28 30/43/31
f 30/43/31 32/45/33 31/44/32
f 33/46/34 34/47/32 35/48/35
f 35/48/35 36/49/36 33/46/34
f 37/50/37 33/46/34 36/49/36
f 36/49/36 38/51/38 37/50/37
f 39/52/39 37/50/37 38/51/38
f 38/51/38 40/53/40 39/52/39
f 41/54/19 39/52/39 40/53/40
f 40/53/40 42/55/19 41/54/19
f 43/56/41 41/54/19 42/55/19
f 42/55/19 44/57/42 43/56/41
f 45/58/13 43/56/41 44/57/42
f 44/57/42 46/59/13 45/58/13
f 47/60/36 48/61/35 49/62/43
f 49/62/43 50/63/44 47/60/36
f 51/64/45 47/60/36 50/63/44
f 50/63/44 52/65/46 51/64/45
f 53/66/47 51/64/45 52/65/46
f 52/65/46 54/67/40 53/66/47
f 55/68/19 53/66/47 54/67/40
f 54/67/40 56/69/19 55/68/19
f 57/70/48 55/68/19 56/69/19
f 56/69/19 58/71/49 57/70/48
f 59/72/13 57/70/48 58/71/49
f 58/71/49 60/73/13 59/72/13
f 61/74/50 62/75/50 63/76/50
f 63/76/50 64/77/50 61/74/50
f 65/78/50 64/77/50 63/76/50
f 63/76/50 66/79/50 65/78/50
f 67/80/51 68/81/51 69/82/51
f 69/82/51 70/83/51 67/80/51
f 67/80/51 70/83/51 71/84/51
f 71/84/51 72/85/51 67/80/51
f 73/86/52 74/87/53 75/88/54
f 75/88/54 76/89/55 73/86/52
f 76/89/55 75/88/54 77/90/56
f 78/91/57 73/86/52 76/89/55
f 79/92/58 80/93/59 78/91/57
f 78/91/57 81/94/60 79/92/58
f 76/89/55 81/94/60 78/91/57
f 82/95/61 79/92/58 81/94/60
f 81/94/60 76/89/55 83/96/62
f 77/90/56 83/96/62 76/89/55
f 81/94/60 84/97/63 82/95/61
f 83/96/62 84/97/63 81/94/60
f 85/98/64 82/95/61 84/97/63
f 86/99/65 83/96/62 77/90/56
f 84/97/63 83/96/62 86/99/65
f 77/90/56 87/100/66 86/99/65
f 84/97/63 88/101/67 85/98/64
f 86/99/65 88/101/67 84/97/63
f 89/102/68 85/98/64 88/101/67
f 90/103/69 86/99/65 87/100/66
f 88/101/67 86/99/65 90/103/69
f 87/100/66 91/104/70 90/103/69
f 90/103/69 91/104/70 92/105/71
f 88/101/72 93/106/73 89/102/72
f 90/103/69 93/106/74 88/101/67
f 94/107/75 89/102/76 93/106/74
f 92/105/71 95/108/77 90/103/69
f 93/106/74 90/103/69 95/108/77
f 92/105/71 96/109/78 97/110/79
f 97/110/79 95/108/77 92/105/71
f 95/108/77 98/111/80 93/106/74
f 98/111/80 95/108/77 97/110/79
f 93/106/74 98/111/80 94/107/75
f 97/110/79 99/112/81 98/111/80
f 100/113/82 94/107/75 98/111/80
f 98/111/80 99/112/81 100/113/82
f 101/114/83 102/115/84 103/116/85
f 103/116/85 104/117/86 101/114/83
f 104/117/86 103/116/85 105/118/87
f 101/114/83 104/117/86 106/119/88
f 106/119/88 107/120/89 101/114/83
f 108/121/90 107/120/89 106/119/88
f 106/119/88 109/122/91 108/121/90
f 109/122/91 106/119/88 110/123/92
f 110/123/92 106/119/88 104/117/86
f 110/123/92 111/124/93 109/122/91
f 104/117/86 112/125/94 110/123/92
f 105/118/87 112/125/94 104/117/86
f 112/125/94 105/118/87 113/126/95
f 111/124/93 110/123/92 114/127/96
f 114/127/96 110/123/92 112/125/94
f 114/127/96 115/128/97 111/124/93
f 113/126/95 116/129/98 112/125/94
f 112/125/94 116/129/98 114/127/96
f 116/129/98 113/126/95 117/130/99
f 115/128/97 114/127/96 118/131/100
f 118/131/100 119/132/101 115/128/97
f 120/133/102 118/131/100 114/127/96
f 114/127/96 116/129/98 120/133/102
f 119/132/101 118/131/100 121/134/103
f 121/134/103 118/131/100 120/133/102
f 121/134/103 122/135/104 119/132/101
f 123/136/105 122/135/104 121/134/103
f 121/134/103 124/137/106 123/136/105
f 124/137/106 121/134/103 125/138/107
f 120/133/102 125/138/107 121/134/103
f 125/138/107 126/139/108 124/137/106
f 125/138/107 127/140/109 126/139/108
f 128/141/110 129/142/111 126/139/108
f 127/140/109 128/141/110 126/139/108
f 127/140/109 125/138/107 130/143/112
f 130/143/112 128/141/110 127/140/109
f 130/143/112 125/138/107 120/133/102
f 128/141/110 130/143/112 131/144/113
f 120/133/102 131/144/113 130/143/112
f 131/144/113 117/130/99 128/141/110
f 131/144/113 120/133/102 132/145/114
f 132/145/114 117/130/99 131/144/113
f 132/145/114 120/133/102 116/129/98
f 116/129/98 117/130/99 132/145/114
f 133/146/115 134/147/116 135/148/117
f 135/148/117 136/149/118 133/146/115
f 137/150/119 133/146/115 136/149/118
f 136/149/118 138/151/120 137/150/119
f 139/152/121 136/149/118 135/148/117
f 138/151/120 136/149/118 139/152/121
f 135/148/117 140/153/122 139/152/121
f 139/152/121 141/154/123 138/151/120
f 139/152/121 140/153/122 142/155/124
f 143/156/125 141/154/123 139/152/121
f 142/155/124 144/157/126 139/152/121
f 139/152/121 144/157/126 143/156/125
f 144/157/126 142/155/124 145/158/127
f 146/159/128 143/156/125 144/157/126
f 145/158/127 147/160/129 144/157/126
f 144/157/126 147/160/129 146/159/128
f 148/161/130 147/160/129 145/158/127
f 146/159/128 147/160/129 148/161/130
f 145/158/127 149/162/131 148/161/130
f 148/161/130 150/163/132 146/159/128
f 148/161/130 149/162/131 151/164/133
f 152/165/134 150/163/132 148/161/130
f 151/164/133 153/166/135 148/161/130
f 148/161/130 153/166/135 152/165/134
f 154/167/136 155/168/137 156/169/138
f 156/169/138 157/170/139 154/167/136
f 156/169/138 155/168/137 158/171/140
f 157/170/139 156/169/138 159/172/141
f 159/172/141 160/173/142 157/170/139
f 158/171/140 161/174/143 156/169/138
f 159/172/141 156/169/138 161/174/143
f 161/174/143 158/171/140 162/175/144
f 162/175/144 163/176/145 161/174/143
f 164/177/146 161/174/143 163/176/145
f 161/174/143 164/177/146 159/172/141
f 163/176/145 165/178/147 164/177/146
f 166/179/148 160/173/142 159/172/141
f 166/179/148 167/180/149 160/173/142
f 166/179/148 168/181/150 167/180/149
f 168/181/150 166/179/148 169/182/151
f 168/181/150 169/182/151 170/183/152
f 159/172/141 171/184/153 166/179/148
f 169/182/151 166/179/148 171/184/153
f 171/184/153 159/172/141 164/177/146
f 172/185/154 170/183/152 169/182/151
f 171/184/153 172/185/154 169/182/151
f 170/183/152 172/185/154 173/186/155
f 174/187/156 172/185/154 171/184/153
f 173/186/155 172/185/154 174/187/156
f 164/177/146 175/188/157 171/184/153
f 171/184/153 175/188/157 174/187/156
f 176/189/158 175/188/157 164/177/146
f 164/177/146 165/178/147 176/189/158
f 177/190/159 176/189/158 165/178/147
f 177/190/159 178/191/160 176/189/158
f 175/188/157 176/189/158 179/192/161
f 176/189/158 178/191/160 179/192/161
f 179/192/161 174/187/156 175/188/157
f 179/192/161 178/191/160 180/193/162
f 174/187/156 179/192/161 180/193/162
f 180/193/162 181/194/163 174/187/156
f 174/187/156 181/194/163 173/186/155
f 182/195/164 181/194/163 180/193/162
f 181/194/163 182/195/164 173/186/155
f 180/193/162 183/196/165 182/195/164
f 170/183/152 173/186/155 182/195/164
f 183/196/165 184/197/166 182/195/164
f 182/195/164 185/198/167 170/183/152
f 184/197/166 185/198/167 182/195/164
f 186/199/168 187/200/169 188/201/170
f 187/200/169 186/199/168 189/202/171
f 190/203/172 188/201/173 187/200/173
f 187/200/169 189/202/171 191/204/174
f 187/200/169 192/205/175 190/203/176
f 191/204/174 193/206/177 187/200/169
f 192/205/175 187/200/169 193/206/177
f 192/205/175 194/207/178 190/203/176
f 194/207/178 192/205/175 193/206/177
f 195/208/179 193/206/177 191/204/174
f 193/206/177 195/208/179 194/207/178
f 195/208/179 191/204/174 196/209/180
f 191/204/174 197/210/181 196/209/180
f 198/211/182 195/208/179 196/209/180
f 194/207/178 195/208/179 198/211/182
f 197/210/181 199/212/183 196/209/180
f 196/209/180 199/212/183 198/211/182
f 199/212/183 197/210/181 200/213/184
f 199/212/183 200/213/184 201/214/185
f 199/212/183 201/214/185 202/215/186
f 202/215/186 198/211/182 199/212/183
f 202/215/186 201/214/185 203/216/187
f 203/216/187 204/217/188 202/215/186
f 204/217/188 203/216/187 205/218/189
f 205/218/189 206/219/190 204/217/188
f 207/220/191 204/217/188 206/219/190
f 202/215/186 204/217/188 207/220/191
f 206/219/190 208/221/192 207/220/191
f 207/220/191 208/221/192 209/222/193
f 209/222/193 210/223/194 207/220/191
f 211/224/195 207/220/191 210/223/194
f 207/220/191 211/224/195 202/215/186
f 210/223/194 212/225/196 211/224/195
f 198/211/182 202/215/186 211/224/195
f 211/224/195 212/225/196 213/226/197
f 214/227/198 213/226/197 212/225/196
f 214/227/198 215/228/199 213/226/197
f 211/224/195 216/229/200 198/211/182
f 213/226/197 216/229/200 211/224/195
f 198/211/182 216/229/200 194/207/178
f 215/228/199 217/230/201 213/226/197
f 216/229/200 213/226/197 217/230/201
f 217/230/201 194/207/178 216/229/200
f 215/228/199 190/203/176 217/230/201
f 190/203/176 194/207/178 217/230/201
o Ob4.001
v 0.972674 0.557925 0.155470
v 0.951700 0.557925 0.155470
v 0.951703 1.227559 0.155428
v 0.972669 1.227559 0.155428
v 0.983161 0.557925 0.173608
v 0.983152 1.227559 0.173608
v 0.972674 0.557925 0.191747
v 0.972669 1.227559 0.191788
v 0.951729 0.557925 0.191703
v 0.951756 1.227559 0.191710
v 0.941240 0.557925 0.173585
v 0.941270 1.227559 0.173567
v 0.951700 0.557925 0.155470
v 0.951703 1.227559 0.155428
v 0.941240 0.559048 0.173585
v 0.951700 0.559048 0.155470
v 0.951696 0.118418 0.155511
v 0.941211 0.118418 0.173604
v 0.951729 0.559048 0.191703
v 0.951703 0.118418 0.191697
v 0.972674 0.559048 0.191747
v 0.972679 0.118418 0.191706
v 0.983161 0.559048 0.173608
v 0.983170 0.118418 0.173609
v 0.972674 0.559048 0.155470
v 0.972679 0.118418 0.155511
v 0.951700 0.559048 0.155470
v 0.951696 0.118418 0.155511
v 0.941211 0.120334 0.173604
v 0.951696 0.120334 0.155511
v 0.951696 -0.026680 0.155522
v 0.941203 -0.026680 0.173609
v 0.951703 0.120334 0.191697
v 0.951696 -0.026680 0.191695
v 0.972679 0.120334 0.191706
v 0.972680 -0.026680 0.191695
v 0.983170 0.120334 0.173609
v 0.983172 -0.026680 0.173609
v 0.972679 0.120334 0.155511
v 0.972680 -0.026680 0.155522
v 0.951696 0.120334 0.155511
v 0.951696 -0.026680 0.155522
v 0.974952 1.469392 0.152070
v 0.949621 1.469392 0.152070
v 0.936956 1.469392 0.173479
v 0.987617 1.469392 0.173479
v 0.974952 1.469392 0.194887
v 0.949621 1.469392 0.194887
v 0.940770 -0.054344 0.173609
v 0.951544 -0.054344 0.156050
v 0.973091 -0.054344 0.156050
v 0.983865 -0.054344 0.173609
v 0.973091 -0.054344 0.191167
v 0.951544 -0.054344 0.191167
v 0.949759 -0.031615 0.152620
v 0.951696 -0.026680 0.155522
v 0.972680 -0.026680 0.155522
v 0.974876 -0.031615 0.152620
v 0.983172 -0.026680 0.173609
v 0.948422 -0.049101 0.150958
v 0.973091 -0.054344 0.156050
v 0.951544 -0.054344 0.156050
v 0.976213 -0.049101 0.150958
v 0.983865 -0.054344 0.173609
v 0.987436 -0.031615 0.173609
v 0.990109 -0.049101 0.173609
v 0.973091 -0.054344 0.191167
v 0.974876 -0.031615 0.194597
v 0.972680 -0.026680 0.191695
v 0.976213 -0.049101 0.196260
v 0.951544 -0.054344 0.191167
v 0.949759 -0.031615 0.194597
v 0.951696 -0.026680 0.191695
v 0.941203 -0.026680 0.173609
v 0.948422 -0.049101 0.196260
v 0.940770 -0.054344 0.173609
v 0.937199 -0.031615 0.173609
v 0.951696 -0.026680 0.155522
v 0.949759 -0.031615 0.152620
v 0.934526 -0.049101 0.173609
v 0.948422 -0.049101 0.150958
v 0.951544 -0.054344 0.156050
v 0.950492 1.413751 0.153047
v 0.950905 1.426989 0.153404
v 0.973953 1.426989 0.153404
v 0.974123 1.413751 0.153047
v 0.985477 1.426989 0.173479
v 0.974127 1.229042 0.153031
v 0.950484 1.229042 0.153031
v 0.951703 1.225017 0.155428
v 0.972669 1.225017 0.155428
v 0.985947 1.229042 0.173546
v 0.983152 1.225017 0.173608
v 0.985938 1.413751 0.173544
v 0.973953 1.426989 0.193554
v 0.974127 1.229042 0.194061
v 0.972669 1.225017 0.191788
v 0.974123 1.413751 0.194040
v 0.950905 1.426989 0.193554
v 0.950550 1.228973 0.193966
v 0.951756 1.225017 0.191710
v 0.950557 1.404712 0.193945
v 0.938725 1.228973 0.173495
v 0.941270 1.225017 0.173567
v 0.951703 1.225017 0.155428
v 0.950484 1.229042 0.153031
v 0.938738 1.404712 0.173493
v 0.950492 1.413751 0.153047
v 0.935112 1.414736 0.173447
v 0.939381 1.426989 0.173479
v 0.950905 1.426989 0.153404
v 0.935355 1.415014 0.184371
v 0.939706 1.415097 0.190127
v 0.950938 1.414604 0.194856
v 0.946831 1.446920 0.147357
v 0.949621 1.469392 0.152070
v 0.974952 1.469392 0.152070
v 0.977742 1.446920 0.147357
v 0.950905 1.426989 0.153404
v 0.973953 1.426989 0.153404
v 0.993197 1.446920 0.173479
v 0.987617 1.469392 0.173479
v 0.985477 1.426989 0.173479
v 0.974952 1.469392 0.194887
v 0.973953 1.426989 0.193554
v 0.977742 1.446920 0.199600
v 0.949621 1.469392 0.194887
v 0.950905 1.426989 0.193554
v 0.946831 1.446920 0.199600
v 0.931376 1.446920 0.173479
v 0.936956 1.469392 0.173479
v 0.939381 1.426989 0.173479
v 0.949621 1.469392 0.152070
v 0.950905 1.426989 0.153404
v 0.946831 1.446920 0.147357
v 0.939509 1.469392 0.173495
v 0.948988 1.469392 0.190492
v 0.953630 1.504380 0.187368
v 0.941948 1.504380 0.173620
v 0.975560 1.469392 0.190393
v 0.950713 1.530163 0.187142
v 0.936004 1.528872 0.173642
v 0.970942 1.504380 0.187304
v 0.984913 1.469392 0.173326
v 0.982522 1.504380 0.173470
v 0.973857 1.530163 0.187056
v 0.988466 1.528872 0.173448
v 0.930108 1.553637 0.185111
v 0.924985 1.544214 0.173705
v 0.912873 1.551329 0.173748
v 0.929263 1.566248 0.185739
v 0.926728 1.632649 0.173698
v 0.948655 1.555945 0.196479
v 0.952707 1.575509 0.194368
v 0.953767 1.645471 0.190756
v 0.971862 1.575509 0.194258
v 0.975924 1.555945 0.196323
v 0.994435 1.553637 0.184835
v 0.999485 1.544214 0.173385
v 1.011597 1.551329 0.173342
v 0.995284 1.566248 0.185455
v 0.997742 1.632649 0.173392
v 0.970812 1.645471 0.190683
v 0.962278 1.769053 0.187099
v 0.978118 1.829427 0.173477
v 0.962235 1.916433 0.173545
v 0.946352 1.829427 0.173613
v 0.962235 1.916433 0.173545
v 0.962192 1.769053 0.159991
v 0.946352 1.829427 0.173613
v 0.978118 1.829427 0.173477
v 0.926728 1.632649 0.173698
v 0.997742 1.632649 0.173392
v 0.953658 1.645471 0.156407
v 0.970703 1.645471 0.156334
v 0.952605 1.575509 0.151646
v 0.971759 1.575509 0.151536
v 0.995211 1.566248 0.162538
v 1.011597 1.551329 0.173342
v 0.975814 1.555945 0.150611
v 0.994362 1.553637 0.161979
v 0.999485 1.544214 0.173385
v 0.988466 1.528872 0.173448
v 0.973757 1.530163 0.159949
v 0.982522 1.504380 0.173470
v 0.970840 1.504380 0.159722
v 0.984913 1.469392 0.173326
v 0.975434 1.469392 0.156329
v 0.953527 1.504380 0.159786
v 0.948862 1.469392 0.156428
v 0.939509 1.469392 0.173495
v 0.941948 1.504380 0.173620
v 0.950613 1.530163 0.160034
v 0.936004 1.528872 0.173642
v 0.930035 1.553637 0.162256
v 0.924985 1.544214 0.173705
v 0.912873 1.551329 0.173748
v 0.948546 1.555945 0.150768
v 0.929190 1.566248 0.162822
vn 0.5031 0.0033 -0.8642
vn -0.0000 -0.0001 -1.0000
vn 0.0116 -0.0001 -0.9999
vn 1.0000 0.0034 0.0039
vn 0.5031 -0.0000 -0.8642
vn 0.0117 -0.0023 -0.9999
vn 0.8663 -0.0000 -0.4995
vn 1.0000 -0.0000 -0.0000
vn 0.4989 0.0004 0.8667
vn 1.0000 -0.0000 0.0039
vn 0.8604 -0.0000 0.5096
vn -0.5038 0.0033 0.8638
vn 0.4989 -0.0000 0.8667
vn 0.8604 -0.0023 0.5096
vn -0.0037 -0.0000 1.0000
vn -0.5014 0.0001 0.8652
vn -1.0000 -0.0000 0.0006
vn -0.5038 -0.0000 0.8638
vn -0.5014 -0.0000 0.8652
vn -1.0000 -0.0000 0.0010
vn -0.8660 -0.0000 -0.5000
vn -0.8668 -0.0000 -0.4986
vn -1.0000 -0.0000 0.0005
vn -0.8652 -0.0000 -0.5014
vn -1.0000 -0.0000 0.0002
vn -0.5004 -0.0000 0.8658
vn -0.4994 -0.0000 0.8664
vn 0.4988 -0.0000 0.8667
vn 0.4991 -0.0000 0.8666
vn 0.4997 -0.0000 -0.8662
vn 0.4993 -0.0001 -0.8665
vn -1.0000 -0.0000 0.0001
vn -0.8650 -0.0000 -0.5018
vn -1.0000 -0.0000 -0.0000
vn -0.4993 -0.0000 0.8664
vn -0.4991 -0.0000 0.8665
vn 0.4991 -0.0000 0.8665
vn 0.4992 -0.0000 -0.8665
vn 0.4991 -0.0001 -0.8665
vn -0.0000 1.0000 -0.0000
vn -0.0000 -1.0000 -0.0000
vn -0.0000 0.2786 -0.9604
vn -0.0000 0.5069 -0.8620
vn 0.3804 0.5887 -0.7133
vn 0.4677 0.3442 -0.8141
vn 0.7608 0.6490 -0.0000
vn -0.0000 -0.2775 -0.9607
vn 0.3142 -0.7511 -0.5807
vn -0.0000 -0.6967 -0.7174
vn 0.4704 -0.3148 -0.8244
vn 0.6430 -0.7658 0.0001
vn 0.9224 0.3861 -0.0021
vn 0.9509 -0.3095 -0.0019
vn 0.3142 -0.7511 0.5806
vn 0.4656 0.3458 0.8147
vn 0.3804 0.5887 0.7133
vn 0.4949 -0.2851 0.8209
vn -0.5975 -0.6882 0.4114
vn -0.4661 0.3371 0.8180
vn -0.3962 0.5760 0.7151
vn -0.7807 0.6250 -0.0000
vn -0.0000 -0.6968 0.7173
vn -0.4822 -0.3880 0.7854
vn -0.4628 -0.2909 0.8374
vn -0.6430 -0.7658 -0.0000
vn -0.5184 -0.7333 0.4398
vn -0.9273 0.3744 0.0021
vn -0.7303 0.5358 -0.4237
vn -0.8136 0.3185 -0.4864
vn -0.9509 -0.3095 0.0019
vn -0.8180 -0.2812 -0.5018
vn -0.5981 -0.7125 -0.3669
vn -0.0000 0.0134 -0.9999
vn -0.0000 0.0270 -0.9996
vn 0.5015 0.0298 -0.8646
vn 0.5002 0.0151 -0.8658
vn 0.9994 0.0342 -0.0022
vn 0.4821 -0.2754 -0.8317
vn -0.0000 -0.2418 -0.9703
vn -0.0000 -0.5117 -0.8592
vn 0.4066 -0.5716 -0.7127
vn 0.9615 -0.2748 -0.0013
vn 0.8214 -0.5704 0.0043
vn 0.9999 0.0170 0.0005
vn 0.5022 0.0388 0.8639
vn 0.4830 -0.2676 0.8337
vn 0.4063 -0.5567 0.7245
vn 0.5030 0.0179 0.8641
vn -0.3355 0.2592 0.9057
vn -0.4825 -0.2612 0.8360
vn -0.4270 -0.5426 0.7234
vn -0.4114 -0.1326 0.9018
vn -0.9655 -0.2604 -0.0006
vn -0.8410 -0.5409 0.0066
vn -0.7556 -0.4890 -0.4357
vn -0.8446 -0.2243 -0.4861
vn -0.9687 -0.2298 -0.0942
vn -0.8488 0.0181 -0.5284
vn -0.9574 -0.0058 -0.2887
vn -0.9055 0.3934 -0.1594
vn -0.8666 0.0404 -0.4974
vn -0.9166 0.0103 0.3996
vn -0.7148 0.0326 0.6985
vn -0.1753 0.0095 0.9845
vn -0.0000 -0.0374 -0.9993
vn -0.0000 0.2053 -0.9787
vn 0.4802 0.2368 -0.8446
vn 0.4969 -0.0481 -0.8665
vn -0.0000 -0.2903 -0.9569
vn 0.4636 -0.3404 -0.8180
vn 0.9985 -0.0545 -0.0000
vn 0.9705 0.2410 -0.0000
vn 0.9325 -0.3612 -0.0000
vn 0.4802 0.2368 0.8446
vn 0.4636 -0.3404 0.8180
vn 0.4969 -0.0481 0.8665
vn -0.4801 0.2368 0.8446
vn -0.4590 -0.3461 0.8183
vn -0.4981 -0.0509 0.8656
vn -0.9982 -0.0601 -0.0000
vn -0.9705 0.2410 -0.0000
vn -0.9280 -0.3727 -0.0000
vn -0.8417 0.2090 -0.4979
vn -0.8179 -0.3196 -0.4784
vn -0.8595 -0.0511 -0.5085
vn -0.8363 0.1259 0.5337
vn -0.5172 0.1439 0.8437
vn -0.4088 0.0311 0.9121
vn -0.7430 -0.0343 0.6685
vn 0.5232 0.1432 0.8401
vn -0.3443 -0.2466 0.9059
vn -0.6282 -0.3303 0.7044
vn 0.4157 0.0308 0.9090
vn 0.8403 0.1248 0.5275
vn 0.7479 -0.0348 0.6629
vn 0.3512 -0.2458 0.9034
vn 0.6337 -0.3297 0.6998
vn -0.5284 -0.2733 0.8038
vn -0.5111 -0.5357 0.6722
vn -0.5507 -0.2397 0.7995
vn -0.5303 0.0667 0.8452
vn -0.5402 0.0723 0.8384
vn -0.2461 -0.1104 0.9629
vn -0.2027 0.1136 0.9726
vn -0.2914 0.0519 0.9552
vn 0.2117 0.1133 0.9707
vn 0.2540 -0.1099 0.9609
vn 0.5340 -0.2726 0.8003
vn 0.5165 -0.5353 0.6683
vn 0.5564 -0.2397 0.7956
vn 0.5359 0.0666 0.8417
vn 0.5465 0.0720 0.8343
vn 0.2994 0.0517 0.9527
vn 0.0040 0.0646 0.9979
vn 0.4626 0.0779 0.8831
vn 0.0043 0.0916 0.9958
vn -0.4554 0.0780 0.8869
vn -0.0043 0.0916 -0.9958
vn 0.3842 0.0614 -0.9212
vn -0.4520 0.0818 -0.8883
vn 0.4554 0.0780 -0.8869
vn -0.5520 0.0747 -0.8305
vn -0.5289 0.0524 -0.8471
vn 0.5457 0.0750 -0.8346
vn -0.3007 0.0590 -0.9519
vn -0.5524 0.0750 -0.8302
vn 0.2928 0.0591 -0.9543
vn -0.2389 0.0889 -0.9670
vn 0.2300 0.0892 -0.9691
vn 0.5392 0.0796 -0.8384
vn 0.5374 -0.2243 -0.8130
vn 0.2611 -0.1255 -0.9571
vn 0.5374 -0.2350 -0.8099
vn 0.5111 -0.5357 -0.6722
vn 0.6282 -0.3303 -0.7045
vn 0.3443 -0.2466 -0.9059
vn 0.7430 -0.0325 -0.6685
vn 0.4094 0.0343 -0.9117
vn 0.8360 0.1289 -0.5334
vn 0.5155 0.1495 -0.8438
vn -0.4159 0.0346 -0.9087
vn -0.5219 0.1502 -0.8397
vn -0.8398 0.1299 -0.5271
vn -0.7479 -0.0320 -0.6630
vn -0.3512 -0.2458 -0.9034
vn -0.6337 -0.3297 -0.6998
vn -0.5430 -0.2343 -0.8064
vn -0.5165 -0.5353 -0.6684
vn -0.5432 -0.2243 -0.8091
vn -0.2690 -0.1249 -0.9550
vn -0.5447 0.0795 -0.8348
vt 0.415700 0.011400
vt 0.446454 0.011300
vt 0.446454 0.989700
vt 0.415700 0.989700
vt 0.381500 0.011400
vt 0.381500 0.989700
vt 0.347300 0.011400
vt 0.347300 0.989700
vt 0.316000 0.011500
vt 0.316000 0.989700
vt 0.282800 0.011500
vt 0.282800 0.989700
vt 0.249300 0.011500
vt 0.249300 0.989700
vt 0.515300 0.990200
vt 0.481700 0.990200
vt 0.481700 0.012000
vt 0.515300 0.011900
vt 0.548400 0.990200
vt 0.548400 0.012000
vt 0.579800 0.990200
vt 0.579800 0.011900
vt 0.614000 0.990100
vt 0.614000 0.011800
vt 0.648200 0.990100
vt 0.648200 0.011700
vt 0.679300 0.990100
vt 0.679300 0.011700
vt 0.057500 0.667900
vt 0.023300 0.667900
vt 0.023300 0.401900
vt 0.057500 0.401900
vt 0.091400 0.667900
vt 0.091400 0.401900
vt 0.123300 0.667900
vt 0.123300 0.401800
vt 0.158300 0.667900
vt 0.158300 0.401700
vt 0.193200 0.667900
vt 0.193200 0.401700
vt 0.224900 0.667900
vt 0.224900 0.401600
vt 0.769524 0.988075
vt 0.719296 0.987588
vt 0.694306 0.940057
vt 0.794839 0.939772
vt 0.769968 0.892347
vt 0.719586 0.891809
vt 0.883300 0.934800
vt 0.907200 0.890400
vt 0.955100 0.890300
vt 0.979200 0.934500
vt 0.955300 0.978900
vt 0.907400 0.979000
vt 0.087000 0.384200
vt 0.102900 0.371800
vt 0.102900 0.317100
vt 0.087000 0.319500
vt 0.102900 0.257100
vt 0.036600 0.384200
vt 0.013000 0.308100
vt 0.013000 0.360500
vt 0.036600 0.319500
vt 0.013000 0.253400
vt 0.087000 0.258500
vt 0.036600 0.258500
vt 0.013000 0.199500
vt 0.087000 0.199800
vt 0.102900 0.199400
vt 0.036600 0.199800
vt 0.013000 0.145600
vt 0.087000 0.140100
vt 0.102900 0.144600
vt 0.102900 0.082600
vt 0.036600 0.140100
vt 0.013000 0.089400
vt 0.087000 0.078800
vt 0.102900 0.022700
vt 0.087000 0.013800
vt 0.036600 0.078800
vt 0.036600 0.013800
vt 0.013000 0.035600
vt 0.225800 0.962900
vt 0.225800 0.982200
vt 0.194044 0.982208
vt 0.194140 0.962974
vt 0.159286 0.982201
vt 0.194155 0.697551
vt 0.225800 0.697562
vt 0.225800 0.692500
vt 0.194100 0.692500
vt 0.159154 0.697538
vt 0.159100 0.692500
vt 0.159202 0.962967
vt 0.124335 0.982210
vt 0.123819 0.697501
vt 0.124100 0.692500
vt 0.124789 0.963089
vt 0.093995 0.981766
vt 0.092444 0.697426
vt 0.092200 0.692500
vt 0.092203 0.951322
vt 0.058386 0.697434
vt 0.058400 0.692500
vt 0.024100 0.692500
vt 0.024121 0.697477
vt 0.058317 0.950751
vt 0.024172 0.963643
vt 0.060556 0.965250
vt 0.060354 0.981467
vt 0.024165 0.982299
vt 0.072258 0.965685
vt 0.080210 0.965587
vt 0.094696 0.964732
vt 0.178838 0.013691
vt 0.225467 0.028994
vt 0.224903 0.086348
vt 0.179138 0.079340
vt 0.132208 0.034976
vt 0.132493 0.089730
vt 0.178898 0.140276
vt 0.225079 0.142071
vt 0.132726 0.143657
vt 0.225402 0.197997
vt 0.132662 0.196901
vt 0.178705 0.198945
vt 0.225543 0.251582
vt 0.132351 0.250377
vt 0.178752 0.252660
vt 0.178662 0.314839
vt 0.225621 0.307868
vt 0.132369 0.308073
vt 0.226083 0.369430
vt 0.132153 0.367464
vt 0.178637 0.387116
vt 0.769806 0.014327
vt 0.813152 0.014536
vt 0.816100 0.092800
vt 0.771900 0.088800
vt 0.871681 0.015557
vt 0.804700 0.150600
vt 0.756800 0.141300
vt 0.867100 0.093400
vt 0.914689 0.016471
vt 0.910900 0.090200
vt 0.876800 0.151800
vt 0.924700 0.142900
vt 0.744100 0.209000
vt 0.719400 0.181600
vt 0.694500 0.204100
vt 0.749300 0.237000
vt 0.726800 0.384000
vt 0.793700 0.213900
vt 0.802800 0.257800
vt 0.813900 0.410200
vt 0.875900 0.258700
vt 0.885800 0.215300
vt 0.936100 0.211700
vt 0.960800 0.185200
vt 0.986300 0.208200
vt 0.930300 0.239500
vt 0.950200 0.387100
vt 0.861900 0.410900
vt 0.834800 0.619800
vt 0.882000 0.776400
vt 0.831100 0.956600
vt 0.785000 0.775100
vt 0.831100 0.955300
vt 0.835500 0.618800
vt 0.882000 0.775100
vt 0.785000 0.773900
vt 0.950200 0.385900
vt 0.726800 0.382800
vt 0.862100 0.409600
vt 0.814200 0.409000
vt 0.876300 0.257300
vt 0.803300 0.256300
vt 0.749400 0.235600
vt 0.694500 0.202800
vt 0.794000 0.212500
vt 0.744200 0.207700
vt 0.719400 0.180300
vt 0.756800 0.140000
vt 0.804500 0.149200
vt 0.771900 0.087500
vt 0.815800 0.091500
vt 0.769725 0.013109
vt 0.812581 0.013190
vt 0.866900 0.092100
vt 0.870591 0.014341
vt 0.913574 0.015127
vt 0.910900 0.089000
vt 0.876700 0.150300
vt 0.924700 0.141700
vt 0.936200 0.210300
vt 0.960800 0.184000
vt 0.986300 0.206900
vt 0.886100 0.213700
vt 0.930400 0.238100
s 1
usemtl 材质.010
f 218/231/202 219/232/203 220/233/203
f 220/233/203 221/234/204 218/231/203
f 222/235/205 218/231/206 221/234/207
f 221/234/208 223/236/209 222/235/208
f 224/237/210 222/235/211 223/236/209
f 223/236/209 225/238/212 224/237/210
f 226/239/213 224/237/214 225/238/215
f 225/238/216 227/240/217 226/239/216
f 228/241/218 226/239/219 227/240/220
f 227/240/220 229/242/221 228/241/218
f 230/243/222 228/241/218 229/242/221
f 229/242/221 231/244/223 230/243/222
f 232/245/224 233/246/222 234/247/225
f 234/247/225 235/248/226 232/245/224
f 236/249/227 232/245/224 235/248/226
f 235/248/226 237/250/228 236/249/227
f 238/251/229 236/249/227 237/250/228
f 237/250/228 239/252/230 238/251/229
f 240/253/209 238/251/229 239/252/230
f 239/252/230 241/254/209 240/253/209
f 242/255/231 240/253/209 241/254/209
f 241/254/209 243/256/232 242/255/231
f 244/257/203 242/255/231 243/256/232
f 243/256/232 245/258/203 244/257/203
f 246/259/233 247/260/225 248/261/234
f 248/261/234 249/262/235 246/259/233
f 250/263/236 246/259/233 249/262/235
f 249/262/235 251/264/237 250/263/236
f 252/265/230 250/263/236 251/264/237
f 251/264/237 253/266/238 252/265/230
f 254/267/209 252/265/230 253/266/238
f 253/266/238 255/268/209 254/267/209
f 256/269/239 254/267/209 255/268/209
f 255/268/209 257/270/240 256/269/239
f 258/271/203 256/269/239 257/270/240
f 257/270/240 259/272/203 258/271/203
f 260/273/241 261/274/241 262/275/241
f 262/275/241 263/276/241 260/273/241
f 264/277/241 263/276/241 262/275/241
f 262/275/241 265/278/241 264/277/241
f 266/279/242 267/280/242 268/281/242
f 268/281/242 269/282/242 266/279/242
f 266/279/242 269/282/242 270/283/242
f 270/283/242 271/284/242 266/279/242
f 272/285/243 273/286/244 274/287/245
f 274/287/245 275/288/246 272/285/243
f 275/288/246 274/287/245 276/289/247
f 277/290/248 272/285/243 275/288/246
f 278/291/249 279/292/250 277/290/248
f 277/290/248 280/293/251 278/291/249
f 275/288/246 280/293/251 277/290/248
f 281/294/252 278/291/249 280/293/251
f 280/293/251 275/288/246 282/295/253
f 276/289/247 282/295/253 275/288/246
f 280/293/251 283/296/254 281/294/252
f 282/295/253 283/296/254 280/293/251
f 284/297/255 281/294/252 283/296/254
f 285/298/256 282/295/253 276/289/247
f 283/296/254 282/295/253 285/298/256
f 276/289/247 286/299/257 285/298/256
f 283/296/254 287/300/258 284/297/255
f 285/298/256 287/300/258 283/296/254
f 288/301/259 284/297/255 287/300/258
f 289/302/260 285/298/256 286/299/257
f 287/300/258 285/298/256 289/302/260
f 286/299/257 290/303/261 289/302/260
f 289/302/260 290/303/261 291/304/262
f 287/300/263 292/305/264 288/301/263
f 289/302/260 292/305/265 287/300/258
f 293/306/266 288/301/267 292/305/265
f 291/304/262 294/307/268 289/302/260
f 292/305/265 289/302/260 294/307/268
f 291/304/262 295/308/269 296/309/270
f 296/309/270 294/307/268 291/304/262
f 294/307/268 297/310/271 292/305/265
f 297/310/271 294/307/268 296/309/270
f 292/305/265 297/310/271 293/306/266
f 296/309/270 298/311/272 297/310/271
f 299/312/273 293/306/266 297/310/271
f 297/310/271 298/311/272 299/312/273
f 300/313/274 301/314/275 302/315/276
f 302/315/276 303/316/277 300/313/274
f 303/316/277 302/315/276 304/317/278
f 300/313/274 303/316/277 305/318/279
f 305/318/279 306/319/280 300/313/274
f 307/320/281 306/319/280 305/318/279
f 305/318/279 308/321/282 307/320/281
f 308/321/282 305/318/279 309/322/283
f 309/322/283 305/318/279 303/316/277
f 309/322/283 310/323/284 308/321/282
f 303/316/277 311/324/285 309/322/283
f 304/317/278 311/324/285 303/316/277
f 311/324/285 304/317/278 312/325/286
f 310/323/284 309/322/283 313/326/287
f 313/326/287 309/322/283 311/324/285
f 313/326/287 314/327/288 310/323/284
f 312/325/286 315/328/289 311/324/285
f 311/324/285 315/328/289 313/326/287
f 315/328/289 312/325/286 316/329/290
f 314/327/288 313/326/287 317/330/291
f 317/330/291 318/331/292 314/327/288
f 319/332/293 317/330/291 313/326/287
f 313/326/287 315/328/289 319/332/293
f 318/331/292 317/330/291 320/333/294
f 320/333/294 317/330/291 319/332/293
f 320/333/294 321/334/295 318/331/292
f 322/335/296 321/334/295 320/333/294
f 320/333/294 323/336/297 322/335/296
f 323/336/297 320/333/294 324/337/298
f 319/332/293 324/337/298 320/333/294
f 324/337/298 325/338/299 323/336/297
f 324/337/298 326/339/300 325/338/299
f 327/340/301 328/341/302 325/338/299
f 326/339/300 327/340/301 325/338/299
f 326/339/300 324/337/298 329/342/303
f 329/342/303 327/340/301 326/339/300
f 329/342/303 324/337/298 319/332/293
f 327/340/301 329/342/303 330/343/304
f 319/332/293 330/343/304 329/342/303
f 330/343/304 316/329/290 327/340/301
f 330/343/304 319/332/293 331/344/305
f 331/344/305 316/329/290 330/343/304
f 331/344/305 319/332/293 315/328/289
f 315/328/289 316/329/290 331/344/305
f 332/345/306 333/346/307 334/347/308
f 334/347/308 335/348/309 332/345/306
f 336/349/310 332/345/306 335/348/309
f 335/348/309 337/350/311 336/349/310
f 338/351/312 335/348/309 334/347/308
f 337/350/311 335/348/309 338/351/312
f 334/347/308 339/352/313 338/351/312
f 338/351/312 340/353/314 337/350/311
f 338/351/312 339/352/313 341/354/315
f 342/355/316 340/353/314 338/351/312
f 341/354/315 343/356/317 338/351/312
f 338/351/312 343/356/317 342/355/316
f 343/356/317 341/354/315 344/357/318
f 345/358/319 342/355/316 343/356/317
f 344/357/318 346/359/320 343/356/317
f 343/356/317 346/359/320 345/358/319
f 347/360/321 346/359/320 344/357/318
f 345/358/319 346/359/320 347/360/321
f 344/357/318 348/361/322 347/360/321
f 347/360/321 349/362/323 345/358/319
f 347/360/321 348/361/322 350/363/324
f 351/364/325 349/362/323 347/360/321
f 350/363/324 352/365/326 347/360/321
f 347/360/321 352/365/326 351/364/325
f 353/366/327 354/367/328 355/368/329
f 355/368/329 356/369/330 353/366/327
f 355/368/329 354/367/328 357/370/331
f 356/369/330 355/368/329 358/371/332
f 358/371/332 359/372/333 356/369/330
f 357/370/331 360/373/334 355/368/329
f 358/371/332 355/368/329 360/373/334
f 360/373/334 357/370/331 361/374/335
f 361/374/335 362/375/336 360/373/334
f 363/376/337 360/373/334 362/375/336
f 360/373/334 363/376/337 358/371/332
f 362/375/336 364/377/338 363/376/337
f 365/378/339 359/372/333 358/371/332
f 365/378/339 366/379/340 359/372/333
f 365/378/339 367/380/341 366/379/340
f 367/380/341 365/378/339 368/381/342
f 367/380/341 368/381/342 369/382/343
f 358/371/332 370/383/344 365/378/339
f 368/381/342 365/378/339 370/383/344
f 370/383/344 358/371/332 363/376/337
f 371/384/345 369/382/343 368/381/342
f 370/383/344 371/384/345 368/381/342
f 369/382/343 371/384/345 372/385/346
f 373/386/347 371/384/345 370/383/344
f 372/385/346 371/384/345 373/386/347
f 363/376/337 374/387/348 370/383/344
f 370/383/344 374/387/348 373/386/347
f 375/388/349 374/387/348 363/376/337
f 363/376/337 364/377/338 375/388/349
f 376/389/350 375/388/349 364/377/338
f 376/389/350 377/390/351 375/388/349
f 374/387/348 375/388/349 378/391/352
f 375/388/349 377/390/351 378/391/352
f 378/391/352 373/386/347 374/387/348
f 378/391/352 377/390/351 379/392/353
f 373/386/347 378/391/352 379/392/353
f 379/392/353 380/393/354 373/386/347
f 373/386/347 380/393/354 372/385/346
f 381/394/355 380/393/354 379/392/353
f 380/393/354 381/394/355 372/385/346
f 379/392/353 382/395/356 381/394/355
f 369/382/343 372/385/346 381/394/355
f 382/395/356 383/396/357 381/394/355
f 381/394/355 384/397/358 369/382/343
f 383/396/357 384/397/358 381/394/355
f 385/398/359 386/399/360 387/400/361
f 386/399/360 385/398/359 388/401/362
f 389/402/363 387/400/364 386/399/364
f 386/399/360 388/401/362 390/403/365
f 386/399/360 391/404/366 389/402/367
f 390/403/365 392/405/368 386/399/360
f 391/404/366 386/399/360 392/405/368
f 391/404/366 393/406/369 389/402/367
f 393/406/369 391/404/366 392/405/368
f 394/407/370 392/405/368 390/403/365
f 392/405/368 394/407/370 393/406/369
f 394/407/370 390/403/365 395/408/371
f 390/403/365 396/409/372 395/408/371
f 397/410/373 394/407/370 395/408/371
f 393/406/369 394/407/370 397/410/373
f 396/409/372 398/411/374 395/408/371
f 395/408/371 398/411/374 397/410/373
f 398/411/374 396/409/372 399/412/375
f 398/411/374 399/412/375 400/413/376
f 398/411/374 400/413/376 401/414/377
f 401/414/377 397/410/373 398/411/374
f 401/414/377 400/413/376 402/415/378
f 402/415/378 403/416/379 401/414/377
f 403/416/379 402/415/378 404/417/380
f 404/417/380 405/418/381 403/416/379
f 406/419/382 403/416/379 405/418/381
f 401/414/377 403/416/379 406/419/382
f 405/418/381 407/420/383 406/419/382
f 406/419/382 407/420/383 408/421/384
f 408/421/384 409/422/385 406/419/382
f 410/423/386 406/419/382 409/422/385
f 406/419/382 410/423/386 401/414/377
f 409/422/385 411/424/387 410/423/386
f 397/410/373 401/414/377 410/423/386
f 410/423/386 411/424/387 412/425/388
f 413/426/389 412/425/388 411/424/387
f 413/426/389 414/427/390 412/425/388
f 410/423/386 415/428/391 397/410/373
f 412/425/388 415/428/391 410/423/386
f 397/410/373 415/428/391 393/406/369
f 414/427/390 416/429/392 412/425/388
f 415/428/391 412/425/388 416/429/392
f 416/429/392 393/406/369 415/428/391
f 414/427/390 389/402/367 416/429/392
f 389/402/367 393/406/369 416/429/392
