# Blender 4.3.2
# www.blender.org
mtllib 剑3.mtl
o Ob3
v -0.011364 0.526639 0.115703
v -0.011364 0.479308 0.115703
v 0.012305 0.479308 0.115703
v 0.012305 0.479308 0.115703
v 0.012305 0.526639 0.115703
v -0.011364 0.526639 0.115703
v 0.084356 2.858879 0.000546
v 0.106261 1.705460 0.000546
v 0.058089 1.705710 -0.019401
v 0.038340 2.859052 -0.016379
v 0.068711 2.964991 0.000546
v 0.030814 2.859065 -0.016379
v 0.039859 1.705821 -0.019401
v 0.030471 2.965121 -0.013292
v 0.066122 3.346511 0.000546
v 0.022246 2.965137 -0.013292
v 0.000116 2.859185 -0.025434
v 0.000118 1.706026 -0.032953
v -0.039678 1.705821 -0.019401
v -0.138411 0.512585 0.108094
v -0.138367 0.491736 0.108094
v 0.138367 0.491736 0.108094
v 0.138412 0.512585 0.108094
v 0.138367 0.491736 -0.108094
v -0.138367 0.491736 -0.108094
v -0.138411 0.512585 -0.108094
v 0.138412 0.512585 -0.108094
v 0.196125 0.546604 0.000224
v 0.196116 0.458261 0.000224
v 0.196098 0.458074 -0.058323
v 0.196044 0.546792 -0.058332
v -0.196098 0.458074 -0.058323
v -0.196116 0.458261 0.000224
v -0.196125 0.546604 0.000224
v -0.196044 0.546792 -0.058332
v -0.196125 0.546604 0.000224
v -0.196116 0.458261 0.000224
v -0.196098 0.458074 0.058771
v -0.196044 0.546792 0.058780
v 0.196098 0.458074 0.058771
v 0.196116 0.458261 0.000224
v 0.196125 0.546604 0.000224
v 0.196044 0.546792 0.058780
v 0.012305 0.526639 -0.114613
v 0.012305 0.479308 -0.114613
v -0.011364 0.479308 -0.114613
v -0.011364 0.526639 -0.114613
v 0.012305 0.479308 -0.114613
v 0.012305 0.526639 -0.114613
v 0.041889 0.567724 -0.079808
v 0.041889 0.437264 -0.079808
v 0.072665 0.567736 -0.050791
v 0.072665 0.437265 -0.050791
v 0.089733 0.567757 0.000545
v 0.089733 0.437267 0.000545
v 0.072665 0.437265 0.051881
v 0.072665 0.567736 0.051881
v 0.041889 0.437264 0.080898
v 0.041889 0.567724 0.080898
v 0.012305 0.526639 0.115703
v 0.012305 0.479308 0.115703
v 0.138367 0.491736 -0.108094
v 0.138412 0.512585 -0.108094
v 0.146758 0.524829 -0.087278
v 0.146695 0.478727 -0.087278
v 0.163620 0.534531 -0.071492
v 0.163638 0.469060 -0.071492
v 0.196098 0.458074 -0.058323
v 0.196044 0.546792 -0.058332
v -0.138367 0.491736 0.108094
v -0.138411 0.512585 0.108094
v -0.146757 0.524829 0.087727
v -0.146695 0.478727 0.087726
v -0.163620 0.534531 0.071940
v -0.163638 0.469060 0.071940
v -0.196098 0.458074 0.058771
v -0.196044 0.546792 0.058780
v -0.066830 -0.309287 0.000545
v -0.047118 -0.309287 0.048133
v 0.000470 -0.309287 0.067845
v -0.047118 -0.309287 -0.047043
v 0.048058 -0.309287 0.048133
v 0.000470 -0.309287 -0.066755
v 0.048058 -0.309287 -0.047043
v 0.067770 -0.309287 0.000545
v -0.011364 0.479308 0.115703
v -0.040948 0.437264 0.080898
v 0.000470 0.437302 0.088837
v 0.012305 0.479308 0.115703
v 0.041889 0.437264 0.080898
v -0.040948 0.567724 0.080898
v 0.000470 0.567928 0.088837
v 0.041889 0.567724 0.080898
v 0.072665 0.567736 0.051881
v -0.071725 0.567736 0.051881
v -0.088792 0.567757 0.000545
v 0.089733 0.567757 0.000545
v 0.072665 0.567736 -0.050791
v -0.071725 0.567736 -0.050791
v -0.040948 0.567724 -0.079808
v 0.041889 0.567724 -0.079808
v 0.000470 0.567928 -0.087747
v 0.000470 0.567928 -0.087747
v -0.011364 0.526639 -0.114613
v -0.040948 0.567724 -0.079808
v 0.012305 0.526639 -0.114613
v 0.041889 0.567724 -0.079808
v 0.000470 0.567928 0.088837
v -0.040948 0.567724 0.080898
v -0.011364 0.526639 0.115703
v 0.012305 0.526639 0.115703
v 0.041889 0.567724 0.080898
v -0.040948 0.567724 -0.079808
v -0.011364 0.526639 -0.114613
v -0.011364 0.479308 -0.114613
v -0.040948 0.437264 -0.079808
v -0.071725 0.567736 -0.050791
v -0.071725 0.437265 -0.050791
v -0.088792 0.437267 0.000545
v -0.088792 0.567757 0.000545
v -0.071725 0.567736 0.051881
v -0.071725 0.437265 0.051881
v -0.040948 0.437264 0.080898
v -0.040948 0.567724 0.080898
v -0.011364 0.526639 0.115703
v -0.011364 0.479308 0.115703
v -0.146757 0.524829 -0.087278
v -0.138411 0.512585 -0.108094
v -0.138367 0.491736 -0.108094
v -0.146695 0.478727 -0.087278
v -0.163620 0.534531 -0.071492
v -0.163638 0.469060 -0.071492
v -0.196098 0.458074 -0.058323
v -0.196044 0.546792 -0.058332
v 0.146758 0.524829 0.087726
v 0.138412 0.512585 0.108094
v 0.138367 0.491736 0.108094
v 0.146695 0.478727 0.087726
v 0.163620 0.534531 0.071940
v 0.163638 0.469060 0.071940
v 0.196098 0.458074 0.058771
v 0.196044 0.546792 0.058780
v -0.011364 0.479308 -0.114613
v 0.000470 0.437302 -0.087747
v -0.040948 0.437264 -0.079808
v 0.012305 0.479308 -0.114613
v 0.041889 0.437264 -0.079808
v 0.041889 0.437264 -0.079808
v -0.040948 0.437264 -0.079808
v 0.000470 0.437302 -0.087747
v -0.071725 0.437265 -0.050791
v 0.072665 0.437265 -0.050791
v 0.089733 0.437267 0.000545
v -0.088792 0.437267 0.000545
v -0.071725 0.437265 0.051881
v 0.072665 0.437265 0.051881
v 0.041889 0.437264 0.080898
v -0.040948 0.437264 0.080898
v 0.000470 0.437302 0.088837
v 0.138412 0.512585 -0.108094
v -0.138411 0.512585 -0.108094
v -0.146757 0.524829 -0.087278
v 0.146758 0.524829 -0.087278
v -0.161181 0.561654 -0.046015
v -0.163620 0.534531 -0.071492
v -0.196044 0.546792 -0.058332
v -0.196125 0.546604 0.000224
v -0.161190 0.561637 0.000224
v 0.161190 0.561637 0.000224
v 0.161181 0.561654 -0.046015
v 0.196125 0.546604 0.000224
v 0.163620 0.534531 -0.071492
v 0.196044 0.546792 -0.058332
v -0.146757 0.524829 0.087727
v -0.138411 0.512585 0.108094
v 0.138412 0.512585 0.108094
v 0.146758 0.524829 0.087726
v -0.161181 0.561655 0.046463
v -0.163620 0.534531 0.071940
v -0.196044 0.546792 0.058780
v -0.196125 0.546604 0.000224
v -0.161190 0.561637 0.000224
v 0.161190 0.561637 0.000224
v 0.161181 0.561655 0.046463
v 0.196125 0.546604 0.000224
v 0.163620 0.534531 0.071940
v 0.196044 0.546792 0.058780
v -0.057908 1.705710 -0.019401
v -0.106080 1.705460 0.000546
v -0.084175 2.858879 0.000546
v -0.038159 2.859052 -0.016379
v -0.068530 2.964991 0.000546
v -0.030633 2.859065 -0.016379
v -0.030290 2.965121 -0.013292
v -0.027937 3.347880 -0.010205
v -0.065941 3.346511 0.000546
v -0.022065 2.965137 -0.013292
v 0.000111 2.965259 -0.022113
v 0.000113 3.348530 -0.015496
v -0.020291 3.347955 -0.010205
v 0.000122 3.409017 -0.010205
v 0.020473 3.347955 -0.010205
v 0.000101 3.417110 -0.010205
v -0.044494 3.412006 0.000546
v 0.000107 3.506612 0.000546
v 0.044676 3.412006 0.000546
v 0.028119 3.347880 -0.010205
v -0.084175 2.858879 0.000546
v -0.106080 1.705460 0.000546
v -0.057908 1.705710 0.020492
v -0.038159 2.859052 0.017470
v -0.039678 1.705821 0.020492
v -0.068530 2.964991 0.000546
v -0.030633 2.859065 0.017470
v -0.030290 2.965121 0.014384
v -0.027937 3.347880 0.011297
v -0.065941 3.346511 0.000546
v -0.022065 2.965137 0.014384
v 0.000116 2.859185 0.026526
v 0.000118 1.706026 0.034044
v 0.039859 1.705821 0.020492
v 0.030814 2.859065 0.017470
v 0.058089 1.705710 0.020492
v 0.106261 1.705460 0.000546
v 0.084356 2.858879 0.000546
v 0.038340 2.859052 0.017470
v 0.068711 2.964991 0.000546
v 0.022246 2.965137 0.014384
v 0.030471 2.965121 0.014384
v 0.066122 3.346511 0.000546
v 0.000111 2.965259 0.023205
v 0.000113 3.348530 0.016589
v 0.020473 3.347955 0.011297
v -0.020291 3.347955 0.011297
v 0.000122 3.409017 0.011297
v 0.000101 3.417110 0.011297
v -0.044494 3.412006 0.000546
v 0.000107 3.506612 0.000546
v 0.044676 3.412006 0.000546
v 0.028119 3.347880 0.011297
v 0.058089 1.705710 -0.019401
v 0.106261 1.705460 0.000546
v 0.128731 0.736492 0.000545
v 0.079110 0.675570 -0.022065
v 0.130680 0.675177 0.000545
v 0.039859 1.705821 -0.019401
v 0.136237 0.615635 0.000545
v 0.149431 0.541635 0.000545
v 0.090175 0.541726 -0.022065
v 0.049693 0.674331 -0.022065
v 0.054329 0.541769 -0.022065
v 0.000117 0.541884 -0.044766
v 0.000118 0.673480 -0.043312
v 0.000118 1.706026 -0.032953
v -0.039678 1.705821 -0.019401
v -0.049512 0.674331 -0.022065
v -0.054148 0.541769 -0.022065
v -0.057908 1.705710 -0.019401
v -0.089888 0.541726 -0.022065
v -0.128550 0.736492 0.000545
v -0.106080 1.705460 0.000546
v -0.149250 0.541635 0.000545
v -0.136056 0.615635 0.000545
v -0.078929 0.675570 -0.022065
v -0.130499 0.675177 0.000545
v 0.128731 0.736492 0.000545
v 0.106261 1.705460 0.000546
v 0.058089 1.705710 0.020492
v 0.079110 0.675570 0.023155
v 0.130680 0.675177 0.000545
v 0.039859 1.705821 0.020492
v 0.136237 0.615635 0.000545
v 0.090175 0.541726 0.023155
v 0.149431 0.541635 0.000545
v 0.049693 0.674331 0.023155
v 0.054329 0.541769 0.023155
v 0.000117 0.541884 0.045856
v 0.000118 0.673480 0.044403
v 0.000118 1.706026 0.034044
v -0.039678 1.705821 0.020492
v -0.049512 0.674331 0.023155
v -0.054148 0.541769 0.023155
v -0.057908 1.705710 0.020492
v -0.089888 0.541726 0.023155
v -0.106080 1.705460 0.000546
v -0.128550 0.736492 0.000545
v -0.078929 0.675570 0.023155
v -0.130499 0.675177 0.000545
v -0.136056 0.615635 0.000545
v -0.149250 0.541635 0.000545
v 0.053272 0.448004 -0.052256
v 0.075143 0.448004 0.000545
v 0.075143 0.388140 0.000545
v 0.053272 0.388140 -0.052257
v 0.000470 0.448004 -0.074128
v 0.060914 0.374668 0.000545
v 0.000470 0.388140 -0.074128
v -0.052331 0.448004 -0.052256
v 0.043210 0.374668 -0.042195
v 0.060913 -0.328197 0.000545
v 0.043210 -0.328197 -0.042195
v 0.000470 0.374668 -0.059898
v 0.000470 -0.328197 -0.059899
v -0.052331 0.388140 -0.052257
v -0.042270 0.374668 -0.042195
v -0.042270 -0.328197 -0.042195
v -0.074203 0.448004 0.000545
v -0.059973 0.374668 0.000545
v -0.059973 -0.328197 0.000545
v -0.042270 -0.328197 0.043285
v -0.074203 0.388140 0.000545
v -0.042270 0.374668 0.043285
v 0.000470 -0.328197 0.060988
v -0.052331 0.388140 0.053347
v -0.052331 0.448004 0.053347
v 0.000470 0.374668 0.060988
v 0.043210 -0.328197 0.043285
v 0.000470 0.388140 0.075218
v 0.000470 0.448004 0.075218
v 0.043210 0.374668 0.043285
v 0.060913 -0.328197 0.000545
v 0.060914 0.374668 0.000545
v 0.053272 0.388140 0.053347
v 0.075143 0.388140 0.000545
v 0.053272 0.448004 0.053347
v 0.075143 0.448004 0.000545
v -0.133574 -0.476349 0.056068
v -0.144619 -0.476349 0.000545
v -0.144619 -0.505007 0.000545
v -0.133574 -0.505007 0.056068
v -0.132903 -0.505007 0.000545
v -0.102123 -0.476349 0.103138
v -0.122751 -0.505007 0.051584
v -0.102123 -0.505007 0.103138
v -0.055053 -0.476349 0.134589
v -0.093839 -0.505007 0.094854
v -0.055053 -0.505007 0.134589
v 0.000470 -0.476349 0.145633
v -0.050570 -0.505007 0.123766
v 0.000470 -0.505007 0.145633
v 0.055993 -0.476349 0.134589
v 0.000470 -0.505007 0.133918
v 0.055993 -0.505007 0.134589
v 0.103063 -0.476349 0.103138
v 0.051510 -0.505007 0.123765
v 0.103063 -0.505007 0.103138
v 0.134515 -0.476349 0.056068
v 0.094779 -0.505007 0.094854
v 0.134515 -0.505007 0.056068
v 0.145559 -0.476349 0.000545
v 0.123691 -0.505007 0.051584
v 0.145559 -0.505007 0.000545
v 0.134515 -0.476349 -0.054978
v 0.133843 -0.505007 0.000545
v 0.134515 -0.505007 -0.054978
v 0.103063 -0.476349 -0.102048
v 0.123691 -0.505007 -0.050495
v 0.103063 -0.505007 -0.102048
v 0.055993 -0.476349 -0.133500
v 0.094779 -0.505007 -0.093764
v 0.055993 -0.505007 -0.133500
v 0.000470 -0.476349 -0.144544
v 0.051510 -0.505007 -0.122676
v 0.000470 -0.505007 -0.144544
v -0.055053 -0.476349 -0.133500
v 0.000470 -0.505007 -0.132828
v -0.055053 -0.505007 -0.133500
v -0.102123 -0.476349 -0.102048
v -0.050570 -0.505007 -0.122676
v -0.102123 -0.505007 -0.102048
v -0.133574 -0.476349 -0.054978
v -0.093839 -0.505007 -0.093764
v -0.133574 -0.505007 -0.054978
v -0.144619 -0.476349 0.000545
v -0.122751 -0.505007 -0.050495
v -0.144619 -0.505007 0.000545
v -0.132903 -0.505007 0.000545
v 0.138367 0.491736 0.108094
v -0.138367 0.491736 0.108094
v -0.146695 0.478727 0.087726
v 0.146695 0.478727 0.087726
v 0.161181 0.442608 0.046409
v 0.163638 0.469060 0.071940
v 0.196098 0.458074 0.058771
v 0.196116 0.458261 0.000224
v 0.161190 0.442709 0.000224
v -0.161190 0.442709 0.000224
v -0.161181 0.442608 0.046409
v -0.196116 0.458261 0.000224
v -0.163638 0.469060 0.071940
v -0.196098 0.458074 0.058771
v -0.146695 0.478727 -0.087278
v -0.138367 0.491736 -0.108094
v 0.138367 0.491736 -0.108094
v 0.146695 0.478727 -0.087278
v 0.161181 0.442608 -0.045961
v 0.163638 0.469060 -0.071492
v 0.196098 0.458074 -0.058323
v 0.196116 0.458261 0.000224
v 0.161190 0.442709 0.000224
v -0.161190 0.442709 0.000224
v -0.161181 0.442608 -0.045961
v -0.196116 0.458261 0.000224
v -0.163638 0.469060 -0.071492
v -0.196098 0.458074 -0.058323
v 0.145559 -0.476349 0.000545
v 0.134515 -0.476349 -0.054978
v 0.106555 -0.476349 0.000545
v 0.134515 -0.476349 0.056068
v 0.075483 -0.476349 -0.074469
v 0.103063 -0.476349 -0.102048
v 0.075483 -0.476349 0.075558
v 0.055993 -0.476349 -0.133500
v 0.103063 -0.476349 0.103138
v 0.000470 -0.476349 -0.105540
v 0.055993 -0.476349 0.134589
v 0.000470 -0.476349 -0.144544
v 0.000470 -0.476349 0.106630
v -0.055053 -0.476349 -0.133500
v 0.000470 -0.476349 0.145633
v -0.074543 -0.476349 -0.074469
v -0.055053 -0.476349 0.134589
v -0.102123 -0.476349 -0.102048
v -0.074543 -0.476349 0.075558
v -0.133574 -0.476349 -0.054978
v -0.102123 -0.476349 0.103138
v -0.105615 -0.476349 0.000545
v -0.133574 -0.476349 0.056068
v -0.144619 -0.476349 0.000545
v -0.047118 -0.309287 0.048133
v -0.066830 -0.309287 0.000545
v -0.079519 -0.421601 0.000545
v -0.056090 -0.421601 0.057105
v 0.000470 -0.309287 0.067845
v -0.105615 -0.476349 0.000545
v -0.074543 -0.476349 0.075558
v 0.000470 -0.421601 0.080533
v 0.048058 -0.309287 0.048133
v 0.000470 -0.476349 0.106630
v 0.057031 -0.421601 0.057105
v 0.067770 -0.309287 0.000545
v 0.075483 -0.476349 0.075558
v 0.080459 -0.421601 0.000545
v 0.048058 -0.309287 -0.047043
v 0.106555 -0.476349 0.000545
v 0.057031 -0.421601 -0.056016
v 0.000470 -0.309287 -0.066755
v 0.075483 -0.476349 -0.074469
v 0.000470 -0.421601 -0.079444
v -0.047118 -0.309287 -0.047043
v 0.000470 -0.476349 -0.105540
v -0.056090 -0.421601 -0.056016
v -0.074543 -0.476349 -0.074469
v -0.079519 -0.421601 0.000545
v 0.123691 -0.505007 -0.050495
v 0.133843 -0.505007 0.000545
v 0.115067 -0.531080 0.000545
v 0.106344 -0.531080 0.044399
v 0.123691 -0.505007 0.051584
v 0.106344 -0.531080 -0.043310
v 0.094779 -0.505007 -0.093764
v 0.081503 -0.531080 0.081577
v 0.094779 -0.505007 0.094854
v 0.081502 -0.531080 -0.080487
v 0.051510 -0.505007 -0.122676
v 0.044325 -0.531080 0.106418
v 0.051510 -0.505007 0.123765
v 0.044325 -0.531080 -0.105329
v 0.000470 -0.505007 -0.132828
v 0.000470 -0.531080 0.115141
v 0.000470 -0.505007 0.133918
v 0.000470 -0.531080 -0.114052
v -0.050570 -0.505007 -0.122676
v -0.043384 -0.531080 0.106418
v -0.050570 -0.505007 0.123766
v -0.043384 -0.531080 -0.105329
v -0.093839 -0.505007 -0.093764
v -0.080562 -0.531080 0.081577
v -0.093839 -0.505007 0.094854
v -0.080562 -0.531080 -0.080487
v -0.122751 -0.505007 -0.050495
v -0.105403 -0.531080 0.044399
v -0.122751 -0.505007 0.051584
v -0.105404 -0.531080 -0.043310
v -0.132903 -0.505007 0.000545
v -0.114126 -0.531080 0.000545
v -0.074755 -0.557326 -0.030615
v -0.080953 -0.557326 0.000545
v -0.074755 -0.557326 0.031704
v -0.034463 -0.574713 -0.013925
v -0.037341 -0.574713 0.000545
v -0.057105 -0.557326 0.058120
v -0.034463 -0.574713 0.015014
v -0.030689 -0.557326 0.075770
v -0.026266 -0.574713 0.027281
v 0.000470 -0.557326 0.081968
v -0.014000 -0.574713 0.035478
v 0.031630 -0.557326 0.075770
v 0.000470 -0.574713 0.038356
v 0.058045 -0.557326 0.058120
v 0.014940 -0.574713 0.035478
v 0.075696 -0.557326 0.031704
v 0.027207 -0.574713 0.027281
v 0.081894 -0.557326 0.000545
v 0.035403 -0.574713 0.015014
v 0.075696 -0.557326 -0.030615
v 0.038281 -0.574713 0.000545
v 0.058045 -0.557326 -0.057030
v 0.035403 -0.574713 -0.013925
v 0.031630 -0.557326 -0.074681
v 0.027207 -0.574713 -0.026192
v 0.000470 -0.557326 -0.080879
v 0.014940 -0.574713 -0.034388
v -0.030689 -0.557326 -0.074681
v 0.000470 -0.574713 -0.037266
v -0.057105 -0.557326 -0.057030
v -0.014000 -0.574713 -0.034388
v -0.026266 -0.574713 -0.026192
v 0.000470 -0.579307 0.000545
vn -0.0000 -0.0000 1.0000
vn 0.3461 0.0495 -0.9369
vn 0.3826 0.0073 -0.9239
vn 0.1951 0.0050 -0.9808
vn 0.3452 0.0084 -0.9385
vn 0.1673 0.0215 -0.9857
vn 0.3414 0.0132 -0.9398
vn 0.1399 0.0218 -0.9899
vn 0.1672 0.0215 -0.9857
vn 0.1950 0.0050 -0.9808
vn 0.1619 0.0044 -0.9868
vn 0.3400 0.0525 -0.9390
vn 0.1682 0.0233 -0.9855
vn 0.2760 0.0440 -0.9602
vn 0.1681 0.0232 -0.9855
vn 0.1873 0.0219 -0.9821
vn 0.0002 0.0274 -0.9996
vn 0.0002 0.0065 -1.0000
vn -0.1617 0.0044 -0.9868
vn -0.0000 -0.0000 -1.0000
vn 1.0000 0.0003 -0.0010
vn 1.0000 -0.0001 -0.0003
vn 1.0000 0.0002 -0.0007
vn 1.0000 0.0006 -0.0014
vn -1.0000 0.0002 -0.0007
vn -1.0000 -0.0001 -0.0003
vn -1.0000 0.0003 -0.0010
vn -1.0000 0.0006 -0.0014
vn -1.0000 0.0003 0.0010
vn -1.0000 -0.0001 0.0003
vn -1.0000 0.0002 0.0007
vn -1.0000 0.0006 0.0014
vn 1.0000 0.0002 0.0007
vn 1.0000 -0.0001 0.0003
vn 1.0000 0.0003 0.0010
vn 1.0000 0.0006 0.0014
vn 0.7619 -0.0000 -0.6476
vn 0.7172 -0.0000 -0.6969
vn 0.6860 -0.0000 -0.7276
vn 0.8430 -0.0000 -0.5379
vn 0.8431 -0.0000 -0.5377
vn 1.0000 -0.0000 -0.0000
vn 0.8430 -0.0000 0.5379
vn 0.8431 -0.0000 0.5378
vn 0.7132 -0.0000 0.7010
vn 0.7134 -0.0000 0.7008
vn 0.7619 -0.0000 0.6476
vn 0.9283 -0.0015 -0.3719
vn 0.9286 -0.0020 -0.3711
vn 0.7869 -0.0012 -0.6170
vn 0.7846 -0.0005 -0.6200
vn 0.5009 -0.0001 -0.8655
vn 0.5016 0.0001 -0.8651
vn 0.3760 0.0001 -0.9266
vn -0.9254 -0.0015 0.3789
vn -0.9257 -0.0020 0.3781
vn -0.7849 -0.0012 0.6197
vn -0.7825 -0.0005 0.6226
vn -0.5009 -0.0001 0.8655
vn -0.5016 0.0001 0.8651
vn -0.3760 0.0001 0.9266
vn -0.0000 1.0000 -0.0000
vn -0.0554 -0.5490 0.8340
vn -0.1551 -0.5629 0.8118
vn -0.0000 -0.5655 0.8247
vn 0.0554 -0.5490 0.8340
vn 0.1551 -0.5629 0.8118
vn -0.0000 1.0000 -0.0017
vn -0.0000 0.9997 -0.0257
vn -0.0000 1.0000 -0.0011
vn -0.0000 1.0000 0.0004
vn -0.0000 1.0000 -0.0004
vn -0.0000 1.0000 0.0015
vn -0.0000 0.9997 0.0257
vn -0.0000 0.5726 -0.8198
vn -0.0567 0.5559 -0.8293
vn -0.1574 0.5699 -0.8065
vn 0.0567 0.5559 -0.8293
vn 0.1574 0.5699 -0.8065
vn -0.0000 0.5726 0.8198
vn -0.1574 0.5699 0.8065
vn -0.0567 0.5559 0.8293
vn 0.0567 0.5559 0.8293
vn 0.1574 0.5699 0.8065
vn -0.7134 -0.0000 -0.7008
vn -0.7620 -0.0000 -0.6476
vn -0.7132 -0.0000 -0.7010
vn -0.8431 -0.0000 -0.5378
vn -0.8430 -0.0000 -0.5379
vn -1.0000 -0.0000 -0.0000
vn -0.8431 -0.0000 0.5378
vn -0.8430 -0.0000 0.5379
vn -0.7132 -0.0000 0.7010
vn -0.7134 -0.0000 0.7008
vn -0.7620 -0.0000 0.6476
vn -0.7869 -0.0012 -0.6170
vn -0.9286 -0.0020 -0.3711
vn -0.9283 -0.0015 -0.3719
vn -0.7846 -0.0005 -0.6200
vn -0.5009 -0.0001 -0.8655
vn -0.5016 0.0001 -0.8651
vn -0.3760 0.0001 -0.9266
vn 0.7849 -0.0012 0.6197
vn 0.9257 -0.0020 0.3781
vn 0.9254 -0.0015 0.3789
vn 0.7825 -0.0005 0.6226
vn 0.5009 -0.0001 0.8655
vn 0.5016 0.0001 0.8651
vn 0.3760 0.0001 0.9266
vn -0.0554 -0.5490 -0.8340
vn -0.0000 -0.5655 -0.8247
vn -0.1551 -0.5629 -0.8118
vn 0.0554 -0.5490 -0.8340
vn 0.1551 -0.5629 -0.8118
vn -0.0000 -1.0000 -0.0003
vn -0.0000 -1.0000 -0.0048
vn -0.0000 -1.0000 -0.0000
vn -0.0000 -1.0000 0.0003
vn -0.0000 -1.0000 0.0048
vn -0.0000 0.8619 -0.5070
vn -0.0373 0.7834 -0.6204
vn 0.0373 0.7834 -0.6204
vn -0.1550 0.9318 -0.3282
vn -0.1874 0.6814 -0.7075
vn -0.2577 0.8987 -0.3550
vn -0.3942 0.9190 0.0012
vn -0.2018 0.9794 0.0003
vn 0.2018 0.9794 0.0003
vn 0.0875 0.9093 -0.4069
vn 0.3953 0.9186 0.0003
vn 0.1874 0.6814 -0.7075
vn 0.3929 0.9196 0.0024
vn 0.2578 0.8987 -0.3549
vn 0.2577 0.8987 -0.3550
vn -0.0374 0.7812 0.6231
vn -0.0000 0.8571 0.5152
vn 0.0374 0.7812 0.6231
vn -0.1550 0.9318 0.3282
vn -0.1874 0.6814 0.7075
vn -0.2577 0.8987 0.3550
vn -0.3942 0.9190 -0.0012
vn -0.2018 0.9794 -0.0003
vn 0.2018 0.9794 -0.0003
vn 0.1550 0.9318 0.3282
vn 0.3942 0.9190 -0.0012
vn 0.1874 0.6814 0.7075
vn 0.2577 0.8987 0.3550
vn -0.1972 0.0051 -0.9804
vn -0.3826 0.0073 -0.9239
vn -0.3457 0.0285 -0.9379
vn -0.1778 0.0234 -0.9838
vn -0.3388 0.0316 -0.9403
vn -0.1397 0.0218 -0.9900
vn -0.1693 0.0250 -0.9852
vn -0.1558 0.0380 -0.9871
vn -0.2684 0.0442 -0.9623
vn -0.1870 0.0219 -0.9821
vn 0.0003 0.0243 -0.9997
vn 0.0002 0.0488 -0.9988
vn -0.1143 0.0210 -0.9932
vn -0.0000 0.0089 -1.0000
vn 0.1146 0.0210 -0.9932
vn -0.0017 0.0968 -0.9953
vn -0.2433 0.0917 -0.9656
vn -0.0000 0.1193 -0.9929
vn 0.2504 0.1028 -0.9627
vn 0.1513 0.0339 -0.9879
vn -0.3457 0.0285 0.9379
vn -0.3826 0.0073 0.9239
vn -0.1972 0.0051 0.9804
vn -0.1778 0.0234 0.9838
vn -0.1617 0.0044 0.9868
vn -0.3388 0.0316 0.9403
vn -0.1397 0.0218 0.9900
vn -0.1693 0.0250 0.9852
vn -0.1558 0.0380 0.9871
vn -0.2684 0.0442 0.9623
vn -0.1870 0.0219 0.9821
vn 0.0002 0.0274 0.9996
vn 0.0002 0.0065 1.0000
vn 0.1619 0.0044 0.9868
vn 0.1399 0.0218 0.9899
vn 0.1972 0.0051 0.9804
vn 0.3826 0.0073 0.9239
vn 0.3457 0.0285 0.9379
vn 0.1778 0.0234 0.9838
vn 0.3409 0.0284 0.9397
vn 0.1873 0.0219 0.9821
vn 0.1681 0.0232 0.9855
vn 0.2760 0.0440 0.9602
vn 0.0003 0.0243 0.9997
vn 0.0002 0.0488 0.9988
vn 0.1146 0.0210 0.9932
vn -0.1143 0.0210 0.9932
vn -0.0000 0.0089 1.0000
vn -0.0017 0.0968 0.9953
vn -0.2433 0.0917 0.9656
vn -0.0000 0.1193 0.9929
vn 0.2504 0.1028 0.9627
vn 0.1513 0.0339 0.9879
vn 0.1924 0.0058 -0.9813
vn 0.3826 0.0089 -0.9239
vn 0.4029 0.0111 -0.9152
vn 0.2010 0.0122 -0.9795
vn 0.4016 0.0256 -0.9155
vn 0.1663 0.0061 -0.9860
vn 0.3885 0.0412 -0.9205
vn 0.3559 0.0634 -0.9324
vn 0.2000 0.0272 -0.9794
vn 0.2020 0.0051 -0.9794
vn 0.1926 0.0067 -0.9813
vn 0.0002 0.0138 -0.9999
vn 0.0002 0.0089 -1.0000
vn 0.0002 0.0100 -0.9999
vn -0.1661 0.0061 -0.9861
vn -0.2018 0.0051 -0.9794
vn -0.1924 0.0067 -0.9813
vn -0.1924 0.0058 -0.9813
vn -0.1996 0.0271 -0.9795
vn -0.4029 0.0111 -0.9152
vn -0.3826 0.0089 -0.9239
vn -0.3553 0.0634 -0.9326
vn -0.3882 0.0410 -0.9207
vn -0.2010 0.0122 -0.9795
vn -0.4016 0.0256 -0.9155
vn 0.4003 0.0125 0.9163
vn 0.3826 0.0089 0.9239
vn 0.1884 0.0057 0.9821
vn 0.4038 0.0106 0.9148
vn 0.2010 0.0122 0.9795
vn 0.4011 0.0119 0.9159
vn 0.4016 0.0256 0.9155
vn 0.1883 0.0057 0.9821
vn 0.1663 0.0061 0.9860
vn 0.3885 0.0412 0.9205
vn 0.2000 0.0272 0.9794
vn 0.3559 0.0634 0.9324
vn 0.2020 0.0051 0.9794
vn 0.1926 0.0067 0.9813
vn 0.0002 0.0138 0.9999
vn 0.0002 0.0089 1.0000
vn 0.0002 0.0100 0.9999
vn -0.1661 0.0061 0.9861
vn -0.2018 0.0051 0.9794
vn -0.1924 0.0067 0.9813
vn -0.1924 0.0058 0.9813
vn -0.1996 0.0271 0.9795
vn -0.3826 0.0089 0.9239
vn -0.4029 0.0111 0.9152
vn -0.2010 0.0122 0.9795
vn -0.4016 0.0256 0.9155
vn -0.3882 0.0410 0.9207
vn -0.3553 0.0634 0.9326
vn 0.7071 -0.0000 -0.7071
vn 0.9239 -0.0000 -0.3827
vn 0.8690 -0.3396 -0.3599
vn 0.6586 -0.3640 -0.6586
vn 0.8436 -0.4078 -0.3494
vn -0.0000 -0.3640 -0.9314
vn -0.7071 -0.0000 -0.7071
vn 0.6366 -0.4352 -0.6366
vn -0.0000 -0.4352 -0.9003
vn -0.6586 -0.3640 -0.6586
vn -0.6366 -0.4352 -0.6366
vn -0.9003 -0.4352 -0.0000
vn -0.7071 -0.0000 0.7071
vn -0.9314 -0.3640 -0.0000
vn -0.6366 -0.4352 0.6366
vn -0.6586 -0.3640 0.6586
vn -0.0000 -0.4352 0.9003
vn 0.7071 -0.0000 0.7071
vn -0.0000 -0.3640 0.9314
vn 0.6366 -0.4352 0.6366
vn 0.9239 -0.0000 0.3827
vn 0.8436 -0.4078 0.3494
vn 0.6586 -0.3640 0.6586
vn 0.8690 -0.3396 0.3599
vn -0.9239 -0.0000 0.3827
vn -0.9808 -0.0000 0.1951
vn -0.7381 -0.6585 0.1468
vn -0.6894 -0.6657 0.2856
vn -0.5276 -0.6657 0.5276
vn -0.3827 -0.0000 0.9239
vn -0.2856 -0.6657 0.6894
vn -0.0000 -0.6657 0.7462
vn 0.3827 -0.0000 0.9239
vn 0.2856 -0.6657 0.6894
vn 0.5276 -0.6657 0.5276
vn 0.6894 -0.6657 0.2856
vn 0.7462 -0.6657 -0.0000
vn 0.6894 -0.6657 -0.2856
vn 0.5276 -0.6657 -0.5276
vn 0.3827 -0.0000 -0.9239
vn 0.2856 -0.6657 -0.6894
vn -0.0000 -0.6657 -0.7462
vn -0.3827 -0.0000 -0.9239
vn -0.2856 -0.6657 -0.6894
vn -0.5276 -0.6657 -0.5277
vn -0.9239 -0.0000 -0.3827
vn -0.6894 -0.6657 -0.2856
vn -0.9808 -0.0000 -0.1951
vn -0.7381 -0.6585 -0.1468
vn -0.0000 -0.8428 0.5383
vn -0.0353 -0.7799 0.6249
vn 0.0353 -0.7799 0.6249
vn 0.1619 -0.9328 0.3221
vn 0.1843 -0.6914 0.6986
vn 0.2752 -0.8972 0.3453
vn 0.4064 -0.9137 -0.0023
vn 0.2080 -0.9781 -0.0021
vn -0.2080 -0.9781 -0.0021
vn -0.1619 -0.9328 0.3221
vn -0.4064 -0.9137 -0.0023
vn -0.1843 -0.6914 0.6986
vn -0.2752 -0.8972 0.3453
vn -0.0352 -0.7822 -0.6221
vn -0.0000 -0.8480 -0.5300
vn 0.0352 -0.7822 -0.6221
vn 0.1619 -0.9328 -0.3221
vn 0.1843 -0.6914 -0.6986
vn 0.2752 -0.8972 -0.3453
vn 0.4064 -0.9137 0.0023
vn 0.2080 -0.9781 0.0021
vn -0.2080 -0.9781 0.0021
vn -0.1619 -0.9328 -0.3221
vn -0.4064 -0.9137 0.0023
vn -0.1843 -0.6914 -0.6986
vn -0.2752 -0.8972 -0.3453
vn -0.7026 0.1123 0.7026
vn -0.9937 0.1123 0.0001
vn -0.8906 0.2662 0.3689
vn -0.6775 0.2864 0.6775
vn -0.0000 0.1123 0.9937
vn -0.9027 0.4303 0.0001
vn -0.6383 0.4303 0.6383
vn -0.0000 0.2864 0.9581
vn 0.7026 0.1123 0.7026
vn -0.0000 0.4303 0.9027
vn 0.6775 0.2864 0.6775
vn 0.9937 0.1123 -0.0000
vn 0.6383 0.4303 0.6383
vn 0.9581 0.2864 -0.0000
vn 0.7026 0.1123 -0.7026
vn 0.9027 0.4303 -0.0000
vn 0.6775 0.2864 -0.6775
vn -0.0000 0.1123 -0.9937
vn 0.6383 0.4303 -0.6383
vn -0.0000 0.2864 -0.9581
vn -0.7026 0.1123 -0.7026
vn -0.0000 0.4303 -0.9027
vn -0.6775 0.2864 -0.6775
vn -0.9937 0.1123 -0.0001
vn -0.6383 0.4303 -0.6383
vn -0.8906 0.2662 -0.3689
vn -0.9027 0.4303 -0.0001
vn 0.7497 -0.5844 -0.3105
vn 0.8115 -0.5844 -0.0000
vn 0.7309 -0.6825 -0.0000
vn 0.6971 -0.6650 0.2679
vn 0.7497 -0.5844 0.3105
vn 0.6753 -0.6825 -0.2797
vn 0.5738 -0.5844 -0.5738
vn 0.5168 -0.6825 0.5168
vn 0.5738 -0.5844 0.5738
vn 0.5168 -0.6824 -0.5168
vn 0.3105 -0.5844 -0.7497
vn 0.3035 -0.6650 0.6824
vn 0.3105 -0.5844 0.7497
vn 0.2797 -0.6825 -0.6753
vn -0.0000 -0.5844 -0.8115
vn -0.0000 -0.6825 0.7309
vn -0.0000 -0.5844 0.8115
vn -0.0000 -0.6825 -0.7309
vn -0.3105 -0.5844 -0.7497
vn -0.2679 -0.6650 0.6971
vn -0.3105 -0.5844 0.7497
vn -0.2797 -0.6825 -0.6753
vn -0.5738 -0.5844 -0.5738
vn -0.5168 -0.6825 0.5168
vn -0.5738 -0.5844 0.5738
vn -0.5168 -0.6825 -0.5168
vn -0.7497 -0.5844 -0.3105
vn -0.6824 -0.6650 0.3035
vn -0.7497 -0.5844 0.3105
vn -0.6753 -0.6825 -0.2797
vn -0.8115 -0.5844 -0.0000
vn -0.7603 -0.6485 -0.0369
vn -0.4748 -0.8578 -0.1967
vn -0.6158 -0.7783 0.1225
vn -0.5140 -0.8578 0.0001
vn -0.5139 -0.8578 -0.0000
vn -0.4748 -0.8578 0.1967
vn -0.2425 -0.9649 -0.1005
vn -0.2625 -0.9649 -0.0000
vn -0.3634 -0.8578 0.3634
vn -0.3488 -0.7783 0.5220
vn -0.2425 -0.9649 0.1005
vn -0.1967 -0.8578 0.4748
vn -0.1856 -0.9649 0.1856
vn -0.0000 -0.8578 0.5139
vn 0.1225 -0.7783 0.6158
vn -0.1005 -0.9649 0.2425
vn 0.1967 -0.8578 0.4748
vn -0.0000 -0.9649 0.2625
vn 0.3634 -0.8578 0.3634
vn 0.5220 -0.7783 0.3488
vn 0.1005 -0.9649 0.2425
vn 0.4748 -0.8578 0.1967
vn 0.1856 -0.9649 0.1856
vn 0.5139 -0.8578 -0.0000
vn 0.2425 -0.9649 0.1005
vn 0.4748 -0.8578 -0.1967
vn 0.2625 -0.9649 -0.0000
vn 0.3634 -0.8578 -0.3634
vn 0.2425 -0.9649 -0.1005
vn 0.1967 -0.8578 -0.4748
vn 0.1856 -0.9649 -0.1856
vn -0.0000 -0.8578 -0.5139
vn 0.1005 -0.9649 -0.2425
vn -0.1967 -0.8578 -0.4748
vn -0.0000 -0.9649 -0.2625
vn -0.3634 -0.8578 -0.3634
vn -0.1005 -0.9649 -0.2425
vn -0.1856 -0.9649 -0.1856
vt 0.067723 0.923978
vt 0.103932 0.923834
vt 0.103754 0.912646
vt 0.067545 0.912790
vt 0.956200 0.366052
vt 0.980705 0.992037
vt 0.927201 0.992037
vt 0.905885 0.366049
vt 0.939335 0.311942
vt 0.898193 0.366043
vt 0.908542 0.992037
vt 0.897986 0.312043
vt 0.934620 0.119170
vt 0.889591 0.312036
vt 0.865287 0.366013
vt 0.865290 0.992037
vt 0.821984 0.992037
vt 0.201000 0.764600
vt 0.221800 0.764100
vt 0.221900 0.616500
vt 0.200900 0.616100
vt 0.221668 0.616500
vt 0.221568 0.764100
vt 0.200768 0.764600
vt 0.200668 0.616100
vt 0.373760 0.525200
vt 0.373160 0.569200
vt 0.310460 0.569200
vt 0.310960 0.524800
vt 0.120127 0.524600
vt 0.180927 0.524700
vt 0.181027 0.567400
vt 0.120127 0.567600
vt 0.181000 0.567400
vt 0.180900 0.524700
vt 0.120100 0.524600
vt 0.120100 0.567600
vt 0.310500 0.569200
vt 0.373200 0.569200
vt 0.373800 0.525200
vt 0.311000 0.524800
vt 0.103754 0.908891
vt 0.067545 0.909035
vt 0.035354 0.888932
vt 0.135416 0.888534
vt 0.035025 0.868938
vt 0.135097 0.868540
vt 0.034598 0.843367
vt 0.134688 0.842969
vt 0.216298 0.552200
vt 0.216498 0.541900
vt 0.241298 0.535500
vt 0.240898 0.558300
vt 0.266198 0.529800
vt 0.265698 0.564200
vt 0.302598 0.569200
vt 0.303098 0.524800
vt 0.027900 0.540800
vt 0.027900 0.550800
vt 0.051900 0.557000
vt 0.051800 0.535000
vt 0.075900 0.562700
vt 0.075900 0.529300
vt 0.111600 0.524600
vt 0.111700 0.567600
vt 0.258259 0.911476
vt 0.190526 0.897449
vt 0.162470 0.863582
vt 0.325992 0.897449
vt 0.190526 0.829716
vt 0.354048 0.863582
vt 0.325992 0.829716
vt 0.258259 0.815687
vt 0.111564 0.923154
vt 0.153131 0.937057
vt 0.149091 0.917834
vt 0.111686 0.912306
vt 0.153560 0.898635
vt 0.248368 0.967044
vt 0.256501 0.945844
vt 0.248373 0.924643
vt 0.218670 0.908889
vt 0.218661 0.982797
vt 0.166106 0.991531
vt 0.166117 0.900151
vt 0.023683 0.919223
vt 0.059415 0.923897
vt 0.020762 0.937426
vt 0.058896 0.913651
vt 0.018923 0.901117
vt 0.036177 0.947698
vt 0.067723 0.927342
vt 0.103932 0.927198
vt 0.136236 0.947301
vt 0.036484 0.967691
vt 0.136552 0.967294
vt 0.136956 0.992864
vt 0.036870 0.993262
vt 0.051895 0.557000
vt 0.027895 0.550800
vt 0.027895 0.540800
vt 0.051795 0.535000
vt 0.075895 0.562700
vt 0.075895 0.529300
vt 0.111595 0.524600
vt 0.111695 0.567600
vt 0.241300 0.535500
vt 0.216500 0.541900
vt 0.216300 0.552200
vt 0.240900 0.558300
vt 0.266200 0.529800
vt 0.265700 0.564200
vt 0.302600 0.569200
vt 0.303100 0.524800
vt 0.278257 0.922029
vt 0.278257 0.964430
vt 0.270129 0.943229
vt 0.307962 0.980184
vt 0.307962 0.906275
vt 0.360517 0.897539
vt 0.360517 0.988920
vt 0.192820 0.614642
vt 0.192820 0.766042
vt 0.166220 0.770642
vt 0.166220 0.610042
vt 0.110120 0.778442
vt 0.145120 0.780142
vt 0.125120 0.797842
vt 0.059620 0.798342
vt 0.059620 0.778542
vt 0.059620 0.602142
vt 0.110120 0.602242
vt 0.059620 0.582342
vt 0.145120 0.600542
vt 0.125120 0.582842
vt 0.166400 0.770600
vt 0.193000 0.766000
vt 0.193000 0.614600
vt 0.166400 0.610000
vt 0.110300 0.778400
vt 0.145300 0.780100
vt 0.125300 0.797800
vt 0.059800 0.798300
vt 0.059800 0.778500
vt 0.059800 0.602100
vt 0.110300 0.602200
vt 0.059800 0.582300
vt 0.145300 0.600500
vt 0.125300 0.582800
vt 0.803326 0.992037
vt 0.749821 0.992037
vt 0.774324 0.366052
vt 0.824638 0.366049
vt 0.791188 0.311943
vt 0.832330 0.366043
vt 0.832537 0.312043
vt 0.836099 0.118653
vt 0.795903 0.119170
vt 0.840933 0.312036
vt 0.865282 0.312067
vt 0.865284 0.118426
vt 0.843907 0.118632
vt 0.865297 0.087659
vt 0.886617 0.118632
vt 0.865268 0.083581
vt 0.818313 0.085665
vt 0.865277 0.037718
vt 0.912209 0.085665
vt 0.894423 0.118653
vt 0.604145 0.309987
vt 0.657381 0.310064
vt 0.680783 0.892191
vt 0.625245 0.923355
vt 0.682732 0.923446
vt 0.585532 0.309927
vt 0.688239 0.953802
vt 0.701086 0.992653
vt 0.636383 0.992653
vt 0.595204 0.923982
vt 0.599813 0.992653
vt 0.539853 0.992653
vt 0.540133 0.924456
vt 0.542660 0.309841
vt 0.499735 0.309839
vt 0.485014 0.923869
vt 0.479844 0.992653
vt 0.481121 0.309860
vt 0.443384 0.992653
vt 0.399701 0.891903
vt 0.427886 0.309828
vt 0.378583 0.992653
vt 0.391741 0.953497
vt 0.454982 0.923180
vt 0.397496 0.923154
vt 0.009158 0.033057
vt 0.009377 0.006129
vt 0.067410 0.006239
vt 0.066149 0.033165
vt 0.009350 0.060757
vt 0.085952 0.007486
vt 0.065978 0.060865
vt 0.009156 0.087689
vt 0.085762 0.033953
vt 0.782560 0.008697
vt 0.782560 0.034704
vt 0.085693 0.060807
vt 0.782560 0.060712
vt 0.066143 0.087797
vt 0.085848 0.086969
vt 0.782560 0.086720
vt 0.009536 0.112740
vt 0.086303 0.112812
vt 0.782560 0.112728
vt 0.782560 0.138736
vt 0.067546 0.112849
vt 0.085940 0.138634
vt 0.782560 0.164744
vt 0.066381 0.138176
vt 0.009459 0.137750
vt 0.085821 0.164634
vt 0.782560 0.190751
vt 0.066229 0.164636
vt 0.009674 0.164641
vt 0.085956 0.190633
vt 0.782560 0.216759
vt 0.086335 0.216450
vt 0.066399 0.191094
vt 0.067674 0.219079
vt 0.009483 0.191531
vt 0.009713 0.219199
vt 0.742715 0.795249
vt 0.742715 0.833267
vt 0.703449 0.833267
vt 0.703449 0.795249
vt 0.688112 0.833267
vt 0.742715 0.757351
vt 0.688112 0.795249
vt 0.703449 0.757351
vt 0.742715 0.719588
vt 0.688112 0.757351
vt 0.703449 0.719588
vt 0.742715 0.681819
vt 0.688112 0.719588
vt 0.703449 0.681819
vt 0.742715 0.644044
vt 0.688112 0.681819
vt 0.703449 0.644044
vt 0.742715 0.606265
vt 0.688112 0.644044
vt 0.703449 0.606265
vt 0.742715 0.568396
vt 0.688112 0.606265
vt 0.703449 0.568396
vt 0.742715 0.530517
vt 0.688112 0.568396
vt 0.703449 0.530517
vt 0.742715 0.492595
vt 0.688112 0.530517
vt 0.703449 0.492595
vt 0.742715 0.454562
vt 0.688112 0.492595
vt 0.703449 0.454562
vt 0.742715 0.416524
vt 0.688112 0.454562
vt 0.703449 0.416524
vt 0.742715 0.378634
vt 0.688112 0.416524
vt 0.703449 0.378634
vt 0.742715 0.341603
vt 0.688112 0.378634
vt 0.703449 0.341603
vt 0.742713 0.304505
vt 0.688112 0.341603
vt 0.703448 0.304505
vt 0.742712 0.266485
vt 0.688111 0.304505
vt 0.703446 0.266485
vt 0.742710 0.228385
vt 0.688109 0.266485
vt 0.703444 0.228386
vt 0.688107 0.228386
vt 0.232000 0.614600
vt 0.232000 0.766100
vt 0.258500 0.770600
vt 0.258500 0.610000
vt 0.314600 0.602200
vt 0.279600 0.600500
vt 0.299600 0.582800
vt 0.365100 0.582300
vt 0.365100 0.602100
vt 0.365100 0.778500
vt 0.314600 0.778400
vt 0.365100 0.798300
vt 0.279600 0.780100
vt 0.299600 0.797800
vt 0.258498 0.770594
vt 0.231998 0.766094
vt 0.231998 0.614594
vt 0.258498 0.609994
vt 0.314598 0.602194
vt 0.279598 0.600494
vt 0.299598 0.582794
vt 0.365098 0.582294
vt 0.365098 0.602094
vt 0.365098 0.778494
vt 0.314598 0.778394
vt 0.365098 0.798294
vt 0.279598 0.780094
vt 0.299598 0.797794
vt 0.409371 0.408958
vt 0.395848 0.446851
vt 0.356340 0.409482
vt 0.316113 0.460895
vt 0.354352 0.479273
vt 0.291201 0.501287
vt 0.214959 0.483026
vt 0.216008 0.509541
vt 0.140221 0.502780
vt 0.112134 0.462912
vt 0.075378 0.482032
vt 0.031350 0.450457
vt 0.067871 0.412336
vt 0.014841 0.412860
vt 0.499295 0.301409
vt 0.454693 0.305311
vt 0.433374 0.256788
vt 0.486925 0.250447
vt 0.544769 0.300112
vt 0.410680 0.233808
vt 0.476371 0.223890
vt 0.544769 0.248254
vt 0.590242 0.301409
vt 0.544769 0.220446
vt 0.602612 0.250447
vt 0.634844 0.305311
vt 0.613165 0.223890
vt 0.656162 0.256788
vt 0.678856 0.233808
vt 0.544768 0.300112
vt 0.613166 0.223890
vt 0.544768 0.248254
vt 0.544768 0.220446
vt 0.433375 0.256788
vt 0.395908 0.288211
vt 0.411055 0.326212
vt 0.371640 0.326275
vt 0.359503 0.356735
vt 0.395967 0.364218
vt 0.359540 0.295811
vt 0.352826 0.256001
vt 0.324977 0.382554
vt 0.352935 0.396445
vt 0.325047 0.269981
vt 0.288374 0.234486
vt 0.273316 0.399802
vt 0.288517 0.417985
vt 0.273408 0.252718
vt 0.212360 0.226941
vt 0.212387 0.405851
vt 0.212515 0.425559
vt 0.212487 0.246649
vt 0.136358 0.234515
vt 0.151466 0.399783
vt 0.136500 0.418014
vt 0.151558 0.252699
vt 0.071938 0.256055
vt 0.099827 0.382519
vt 0.072048 0.396500
vt 0.099897 0.269946
vt 0.028907 0.288282
vt 0.065333 0.356689
vt 0.028966 0.364290
vt 0.065371 0.295765
vt 0.013819 0.326289
vt 0.053234 0.326225
vt 0.113104 0.305639
vt 0.104890 0.326214
vt 0.113049 0.346795
vt 0.166621 0.316775
vt 0.162857 0.326263
vt 0.136338 0.364248
vt 0.166640 0.335749
vt 0.171215 0.375916
vt 0.177398 0.343789
vt 0.212365 0.380023
vt 0.193486 0.349159
vt 0.253525 0.375944
vt 0.212463 0.351041
vt 0.288434 0.364299
vt 0.231434 0.349149
vt 0.311770 0.346862
vt 0.247516 0.343771
vt 0.319984 0.326286
vt 0.258253 0.335726
vt 0.311825 0.305705
vt 0.262017 0.326237
vt 0.288536 0.288252
vt 0.258234 0.316751
vt 0.253659 0.276584
vt 0.247476 0.308711
vt 0.212509 0.272477
vt 0.231389 0.303341
vt 0.171348 0.276556
vt 0.212412 0.301459
vt 0.136440 0.288201
vt 0.193440 0.303351
vt 0.177359 0.308729
vt 0.212437 0.326250
s 1
usemtl 材质
f 1/1/1 2/2/1 3/3/1
f 4/3/1 5/4/1 6/1/1
f 7/5/2 8/6/3 9/7/4
f 9/7/5 10/8/6 7/5/5
f 11/9/7 7/5/2 10/8/6
f 12/10/8 10/8/9 9/7/10
f 9/7/10 13/11/11 12/10/8
f 10/8/12 14/12/13 11/9/12
f 15/13/14 11/9/7 14/12/15
f 10/8/9 12/10/8 16/14/16
f 16/14/16 14/12/15 10/8/9
f 17/15/17 12/10/8 13/11/11
f 16/14/16 12/10/8 17/15/17
f 13/11/11 18/16/18 17/15/17
f 17/15/17 18/16/18 19/17/19
f 20/18/1 21/19/1 22/20/1
f 22/20/1 23/21/1 20/18/1
f 24/22/20 25/23/20 26/24/20
f 26/24/20 27/25/20 24/22/20
f 28/26/21 29/27/22 30/28/23
f 30/28/23 31/29/24 28/26/21
f 32/30/25 33/31/26 34/32/27
f 34/32/27 35/33/28 32/30/25
f 36/34/29 37/35/30 38/36/31
f 38/36/31 39/37/32 36/34/29
f 40/38/33 41/39/34 42/40/35
f 42/40/35 43/41/36 40/38/33
f 44/4/20 45/3/20 46/2/20
f 46/2/20 47/1/20 44/4/20
f 48/42/37 49/43/37 50/44/37
f 50/44/37 51/45/38 48/42/37
f 51/45/39 50/44/39 52/46/40
f 52/46/41 53/47/40 51/45/38
f 53/47/40 52/46/41 54/48/42
f 54/48/42 55/49/42 53/47/40
f 56/47/43 55/49/42 54/48/42
f 54/48/42 57/46/44 56/47/43
f 58/45/45 56/47/43 57/46/44
f 57/46/44 59/44/46 58/45/45
f 58/45/45 59/44/46 60/43/47
f 60/43/47 61/42/47 58/45/45
f 62/50/48 63/51/49 64/52/50
f 64/52/50 65/53/51 62/50/48
f 65/53/51 64/52/50 66/54/52
f 66/54/52 67/55/53 65/53/51
f 68/56/54 67/55/53 66/54/52
f 66/54/52 69/57/54 68/56/54
f 70/58/55 71/59/56 72/60/57
f 72/60/57 73/61/58 70/58/55
f 73/61/58 72/60/57 74/62/59
f 74/62/59 75/63/60 73/61/58
f 76/64/61 75/63/60 74/62/59
f 74/62/59 77/65/61 76/64/61
f 78/66/62 79/67/62 80/68/62
f 80/68/62 81/69/62 78/66/62
f 81/69/62 80/68/62 82/70/62
f 82/70/62 83/71/62 81/69/62
f 84/72/62 83/71/62 82/70/62
f 82/70/62 85/73/62 84/72/62
f 86/74/63 87/75/64 88/76/65
f 89/77/66 86/74/63 88/76/65
f 88/76/65 90/78/67 89/77/66
f 91/79/68 92/80/69 93/81/69
f 91/79/70 93/81/71 94/82/71
f 94/82/71 95/83/71 91/79/70
f 96/84/62 95/83/71 94/82/71
f 94/82/71 97/85/62 96/84/62
f 96/84/62 97/85/62 98/82/72
f 98/82/72 99/83/72 96/84/62
f 100/79/73 99/83/72 98/82/72
f 98/82/72 101/81/73 100/79/73
f 100/79/73 101/81/73 102/80/74
f 103/86/75 104/87/76 105/88/77
f 106/89/78 104/87/76 103/86/75
f 103/86/75 107/90/79 106/89/78
f 108/86/80 109/88/81 110/87/82
f 111/89/83 108/86/80 110/87/82
f 108/86/80 111/89/83 112/90/84
f 113/91/85 114/92/86 115/93/86
f 115/93/86 116/94/87 113/91/85
f 117/95/88 113/91/85 116/94/87
f 116/94/87 118/96/89 117/95/88
f 117/95/88 118/96/89 119/97/90
f 119/97/90 120/98/90 117/95/88
f 121/95/91 120/98/90 119/97/90
f 119/97/90 122/96/92 121/95/91
f 121/95/91 122/96/92 123/94/93
f 123/94/93 124/91/94 121/95/91
f 125/92/95 124/91/94 123/94/93
f 123/94/93 126/93/95 125/92/95
f 127/99/96 128/100/97 129/101/98
f 129/101/98 130/102/99 127/99/96
f 131/103/100 127/99/96 130/102/99
f 130/102/99 132/104/101 131/103/100
f 131/103/100 132/104/101 133/105/102
f 133/105/102 134/106/102 131/103/100
f 135/107/103 136/108/104 137/109/105
f 137/109/105 138/110/106 135/107/103
f 139/111/107 135/107/103 138/110/106
f 138/110/106 140/112/108 139/111/107
f 139/111/107 140/112/108 141/113/109
f 141/113/109 142/114/109 139/111/107
f 143/74/110 144/76/111 145/75/112
f 146/77/113 144/76/111 143/74/110
f 144/76/111 146/77/113 147/78/114
f 148/115/115 149/116/115 150/117/116
f 151/118/117 149/116/115 148/115/115
f 148/115/115 152/119/117 151/118/117
f 151/118/117 152/119/117 153/120/117
f 153/120/117 154/121/117 151/118/117
f 155/118/117 154/121/117 153/120/117
f 153/120/117 156/119/117 155/118/117
f 155/118/117 156/119/117 157/115/118
f 157/115/118 158/116/118 155/118/117
f 157/115/118 159/117/119 158/116/118
f 160/122/120 161/123/120 162/124/121
f 162/124/121 163/125/122 160/122/120
f 163/125/122 162/124/121 164/126/123
f 165/127/124 164/126/123 162/124/121
f 166/128/125 164/126/123 165/127/124
f 164/126/123 166/128/125 167/129/126
f 167/129/126 168/130/127 164/126/123
f 164/126/123 168/130/127 169/131/128
f 169/131/128 170/132/129 164/126/123
f 164/126/123 170/132/129 163/125/122
f 170/132/129 169/131/128 171/133/130
f 163/125/122 170/132/129 172/134/131
f 171/133/132 173/135/133 170/132/132
f 172/134/131 170/132/129 173/135/134
f 174/136/135 175/137/136 176/138/136
f 176/138/136 177/139/137 174/136/135
f 178/140/138 174/136/135 177/139/137
f 179/141/139 174/136/135 178/140/138
f 180/142/140 179/141/139 178/140/138
f 181/143/141 180/142/140 178/140/138
f 178/140/138 182/144/142 181/143/141
f 183/145/143 182/144/142 178/140/138
f 178/140/138 184/146/144 183/145/143
f 177/139/137 184/146/144 178/140/138
f 185/147/145 183/145/143 184/146/144
f 177/139/137 186/148/146 184/146/144
f 184/146/144 187/149/147 185/147/145
f 186/148/146 187/149/147 184/146/144
f 188/150/148 189/151/149 190/152/150
f 190/152/150 191/153/151 188/150/148
f 19/17/19 188/150/148 191/153/151
f 191/153/151 190/152/150 192/154/152
f 191/153/151 193/155/153 19/17/19
f 19/17/19 193/155/153 17/15/17
f 192/154/152 194/156/154 191/153/151
f 193/155/153 191/153/151 194/156/154
f 195/157/155 194/156/154 192/154/152
f 192/154/152 196/158/156 195/157/155
f 194/156/154 197/159/157 193/155/153
f 197/159/157 194/156/154 195/157/155
f 17/15/17 193/155/153 197/159/157
f 197/159/157 198/160/158 17/15/17
f 17/15/17 198/160/158 16/14/16
f 199/161/159 198/160/158 197/159/157
f 16/14/16 198/160/158 199/161/159
f 197/159/157 200/162/160 199/161/159
f 195/157/155 200/162/160 197/159/157
f 199/161/159 200/162/160 201/163/161
f 201/163/161 200/162/160 195/157/155
f 199/161/159 202/164/162 16/14/16
f 202/164/162 199/161/159 201/163/161
f 14/12/15 16/14/16 202/164/162
f 195/157/155 203/165/163 201/163/161
f 202/164/162 201/163/161 203/165/163
f 203/165/163 195/157/155 196/158/156
f 196/158/156 204/166/164 203/165/163
f 203/165/163 204/166/164 205/167/165
f 206/168/166 203/165/163 205/167/165
f 207/169/167 203/165/163 206/168/166
f 203/165/163 207/169/167 202/164/162
f 202/164/162 207/169/167 14/12/15
f 206/168/166 15/13/14 207/169/167
f 14/12/15 207/169/167 15/13/14
f 208/152/168 209/151/169 210/150/170
f 210/150/170 211/153/171 208/152/168
f 211/153/171 210/150/170 212/17/172
f 213/154/173 208/152/168 211/153/171
f 212/17/172 214/155/174 211/153/171
f 211/153/171 215/156/175 213/154/173
f 215/156/175 211/153/171 214/155/174
f 213/154/173 215/156/175 216/157/176
f 216/157/176 217/158/177 213/154/173
f 214/155/174 218/159/178 215/156/175
f 216/157/176 215/156/175 218/159/178
f 219/15/179 214/155/174 212/17/172
f 218/159/178 214/155/174 219/15/179
f 212/17/172 220/16/180 219/15/179
f 219/15/179 220/16/180 221/11/181
f 221/11/181 222/10/182 219/15/179
f 222/10/182 221/11/181 223/7/183
f 223/7/183 224/6/184 225/5/185
f 225/5/185 226/8/186 223/7/183
f 223/7/183 226/8/186 222/10/182
f 226/8/186 225/5/185 227/9/187
f 228/14/188 222/10/182 226/8/186
f 219/15/179 222/10/182 228/14/188
f 227/9/187 229/12/189 226/8/186
f 226/8/186 229/12/189 228/14/188
f 229/12/189 227/9/187 230/13/190
f 228/14/188 231/160/191 219/15/179
f 219/15/179 231/160/191 218/159/178
f 232/161/192 231/160/191 228/14/188
f 218/159/178 231/160/191 232/161/192
f 228/14/188 233/164/193 232/161/192
f 233/164/193 228/14/188 229/12/189
f 232/161/192 234/162/194 218/159/178
f 218/159/178 234/162/194 216/157/176
f 232/161/192 235/163/195 234/162/194
f 216/157/176 234/162/194 235/163/195
f 233/164/193 235/163/195 232/161/192
f 235/163/195 236/165/196 216/157/176
f 236/165/196 235/163/195 233/164/193
f 217/158/177 216/157/176 236/165/196
f 236/165/196 237/166/197 217/158/177
f 236/165/196 238/167/198 237/166/197
f 239/168/199 238/167/198 236/165/196
f 239/168/199 236/165/196 240/169/200
f 233/164/193 240/169/200 236/165/196
f 240/169/200 230/13/190 239/168/199
f 229/12/189 240/169/200 233/164/193
f 230/13/190 240/169/200 229/12/189
f 241/170/201 242/171/202 243/172/203
f 243/172/203 244/173/204 241/170/201
f 244/173/204 243/172/203 245/174/205
f 246/175/206 241/170/201 244/173/204
f 244/173/204 245/174/205 247/176/207
f 247/176/207 248/177/208 249/178/209
f 249/178/209 244/173/204 247/176/207
f 250/179/210 244/173/204 249/178/209
f 244/173/204 250/179/210 246/175/206
f 249/178/209 251/180/211 250/179/210
f 250/179/210 251/180/211 252/181/212
f 246/175/206 250/179/210 253/182/213
f 252/181/212 253/182/213 250/179/210
f 253/182/213 254/183/214 246/175/206
f 255/184/215 254/183/214 253/182/213
f 256/185/216 253/182/213 252/181/212
f 253/182/213 256/185/216 255/184/215
f 252/181/212 257/186/217 256/185/216
f 258/187/218 255/184/215 256/185/216
f 256/185/216 257/186/217 259/188/219
f 260/189/220 261/190/221 258/187/218
f 259/188/219 262/191/222 263/192/223
f 258/187/218 264/193/224 260/189/220
f 256/185/216 264/193/224 258/187/218
f 259/188/219 264/193/224 256/185/216
f 263/192/223 264/193/224 259/188/219
f 264/193/224 265/194/225 260/189/220
f 263/192/223 265/194/225 264/193/224
f 266/172/226 267/171/227 268/170/228
f 268/170/229 269/173/230 266/172/231
f 269/173/230 270/174/232 266/172/231
f 269/173/230 268/170/233 271/175/234
f 269/173/230 272/176/235 270/174/232
f 273/178/236 274/177/237 272/176/235
f 272/176/235 269/173/230 273/178/236
f 273/178/236 269/173/230 275/179/238
f 271/175/234 275/179/238 269/173/230
f 275/179/238 276/180/239 273/178/236
f 277/181/240 276/180/239 275/179/238
f 278/182/241 275/179/238 271/175/234
f 275/179/238 278/182/241 277/181/240
f 271/175/234 279/183/242 278/182/241
f 278/182/241 279/183/242 280/184/243
f 277/181/240 278/182/241 281/185/244
f 280/184/243 281/185/244 278/182/241
f 281/185/244 282/186/245 277/181/240
f 281/185/244 280/184/243 283/187/246
f 284/188/247 282/186/245 281/185/244
f 283/187/246 285/190/248 286/189/249
f 283/187/246 287/193/250 281/185/244
f 286/189/249 287/193/250 283/187/246
f 281/185/244 287/193/250 284/188/247
f 287/193/250 286/189/249 288/194/251
f 289/192/252 287/193/250 288/194/251
f 284/188/247 287/193/250 289/192/252
f 289/192/252 290/191/253 284/188/247
f 291/195/254 292/196/255 293/197/256
f 293/197/256 294/198/257 291/195/254
f 295/199/20 291/195/254 294/198/257
f 294/198/257 293/197/256 296/200/258
f 294/198/257 297/201/259 295/199/20
f 298/202/260 295/199/20 297/201/259
f 296/200/258 299/203/261 294/198/257
f 297/201/259 294/198/257 299/203/261
f 299/203/261 296/200/258 300/204/255
f 300/204/255 301/205/254 299/203/261
f 302/206/262 299/203/261 301/205/254
f 299/203/261 302/206/262 297/201/259
f 301/205/254 303/207/20 302/206/262
f 304/208/263 297/201/259 302/206/262
f 297/201/259 304/208/263 298/202/260
f 305/209/264 302/206/262 303/207/20
f 302/206/262 305/209/264 304/208/263
f 303/207/20 306/210/260 305/209/264
f 307/211/90 298/202/260 304/208/263
f 308/212/265 305/209/264 306/210/260
f 306/210/260 309/213/90 308/212/265
f 308/212/265 309/213/90 310/214/266
f 311/215/267 304/208/263 305/209/264
f 305/209/264 308/212/265 311/215/267
f 304/208/263 311/215/267 307/211/90
f 310/214/266 312/216/268 308/212/265
f 311/215/267 308/212/265 312/216/268
f 312/216/268 310/214/266 313/217/1
f 307/211/90 311/215/267 314/218/269
f 312/216/268 314/218/269 311/215/267
f 314/218/269 315/219/266 307/211/90
f 313/217/1 316/220/270 312/216/268
f 314/218/269 312/216/268 316/220/270
f 316/220/270 313/217/1 317/221/271
f 315/219/266 314/218/269 318/222/272
f 316/220/270 318/222/272 314/218/269
f 318/222/272 319/223/1 315/219/266
f 317/221/271 320/224/273 316/220/270
f 318/222/272 316/220/270 320/224/273
f 320/224/273 317/221/271 321/225/274
f 321/225/274 322/226/275 320/224/273
f 320/224/273 323/227/276 318/222/272
f 323/227/276 320/224/273 322/226/275
f 319/223/1 318/222/272 323/227/276
f 322/226/275 324/228/277 323/227/276
f 323/227/276 325/229/271 319/223/1
f 325/229/271 323/227/276 324/228/277
f 324/228/277 326/230/274 325/229/271
f 327/231/278 328/232/279 329/233/280
f 329/233/280 330/234/281 327/231/278
f 330/234/281 329/233/280 331/235/117
f 332/236/266 327/231/278 330/234/281
f 331/235/117 333/237/117 330/234/281
f 330/234/281 334/238/282 332/236/266
f 334/238/282 330/234/281 333/237/117
f 335/239/283 332/236/266 334/238/282
f 333/237/117 336/240/117 334/238/282
f 334/238/282 337/241/284 335/239/283
f 337/241/284 334/238/282 336/240/117
f 338/242/1 335/239/283 337/241/284
f 336/240/117 339/243/117 337/241/284
f 337/241/284 340/244/285 338/242/1
f 340/244/285 337/241/284 339/243/117
f 341/245/286 338/242/1 340/244/285
f 339/243/117 342/246/117 340/244/285
f 340/244/285 343/247/287 341/245/286
f 343/247/287 340/244/285 342/246/117
f 344/248/271 341/245/286 343/247/287
f 342/246/117 345/249/117 343/247/287
f 343/247/287 346/250/288 344/248/271
f 346/250/288 343/247/287 345/249/117
f 347/251/274 344/248/271 346/250/288
f 345/249/117 348/252/117 346/250/288
f 346/250/288 349/253/289 347/251/274
f 349/253/289 346/250/288 348/252/117
f 350/254/42 347/251/274 349/253/289
f 348/252/117 351/255/117 349/253/289
f 349/253/289 352/256/290 350/254/42
f 352/256/290 349/253/289 351/255/117
f 353/257/255 350/254/42 352/256/290
f 351/255/117 354/258/117 352/256/290
f 352/256/290 355/259/291 353/257/255
f 355/259/291 352/256/290 354/258/117
f 356/260/254 353/257/255 355/259/291
f 354/258/117 357/261/117 355/259/291
f 355/259/291 358/262/292 356/260/254
f 358/262/292 355/259/291 357/261/117
f 359/263/293 356/260/254 358/262/292
f 357/261/117 360/264/117 358/262/292
f 358/262/292 361/265/294 359/263/293
f 361/265/294 358/262/292 360/264/117
f 362/266/20 359/263/293 361/265/294
f 360/264/117 363/267/117 361/265/294
f 361/265/294 364/268/295 362/266/20
f 364/268/295 361/265/294 363/267/117
f 365/269/296 362/266/20 364/268/295
f 363/267/117 366/270/117 364/268/295
f 364/268/295 367/271/297 365/269/296
f 367/271/297 364/268/295 366/270/117
f 368/272/260 365/269/296 367/271/297
f 366/270/117 369/273/117 367/271/297
f 367/271/297 370/274/298 368/272/260
f 370/274/298 367/271/297 369/273/117
f 371/275/299 368/272/260 370/274/298
f 369/273/117 372/276/117 370/274/298
f 370/274/298 373/277/300 371/275/299
f 373/277/300 370/274/298 372/276/117
f 374/278/301 371/275/299 373/277/300
f 372/276/117 375/279/117 373/277/300
f 373/277/300 376/280/302 374/278/301
f 376/280/302 373/277/300 375/279/117
f 375/279/117 377/281/117 376/280/302
f 378/282/303 379/283/303 380/284/304
f 380/284/304 381/285/305 378/282/303
f 382/286/306 381/285/305 380/284/304
f 382/286/306 383/287/307 381/285/305
f 382/286/306 384/288/308 383/287/307
f 385/289/309 384/288/308 382/286/306
f 382/286/306 386/290/310 385/289/309
f 387/291/311 386/290/310 382/286/306
f 382/286/306 388/292/312 387/291/311
f 380/284/304 388/292/312 382/286/306
f 389/293/313 387/291/311 388/292/312
f 388/292/312 380/284/304 390/294/314
f 388/292/312 391/295/315 389/293/313
f 391/295/315 388/292/312 390/294/314
f 392/296/316 393/297/317 394/298/317
f 394/298/317 395/299/318 392/296/316
f 392/296/316 395/299/318 396/300/319
f 396/300/319 395/299/318 397/301/320
f 396/300/319 397/301/320 398/302/321
f 396/300/319 398/302/321 399/303/322
f 399/303/322 400/304/323 396/300/319
f 396/300/319 400/304/323 401/305/324
f 401/305/324 402/306/325 396/300/319
f 396/300/319 402/306/325 392/296/316
f 402/306/325 401/305/324 403/307/326
f 402/306/325 404/308/327 392/296/316
f 403/307/326 405/309/328 402/306/325
f 405/309/328 404/308/327 402/306/325
f 406/310/62 407/311/62 408/312/62
f 409/311/62 406/310/62 408/312/62
f 410/313/62 408/312/62 407/311/62
f 407/311/62 411/314/62 410/313/62
f 408/312/62 412/313/62 409/311/62
f 411/314/62 413/315/62 410/313/62
f 414/314/62 409/311/62 412/313/62
f 415/316/62 410/313/62 413/315/62
f 416/315/62 414/314/62 412/313/62
f 413/315/62 417/317/62 415/316/62
f 412/313/62 418/316/62 416/315/62
f 417/317/62 419/318/62 415/316/62
f 420/317/62 416/315/62 418/316/62
f 421/319/62 415/316/62 419/318/62
f 422/318/62 420/317/62 418/316/62
f 419/318/62 423/320/62 421/319/62
f 418/316/62 424/319/62 422/318/62
f 423/320/62 425/321/62 421/319/62
f 426/320/62 422/318/62 424/319/62
f 427/322/62 421/319/62 425/321/62
f 428/321/62 426/320/62 424/319/62
f 424/319/62 427/322/62 428/321/62
f 425/321/62 429/323/62 427/322/62
f 429/323/62 428/321/62 427/322/62
f 430/324/329 431/325/330 432/326/331
f 432/326/331 433/327/332 430/324/329
f 434/328/333 430/324/329 433/327/332
f 433/327/332 432/326/331 435/329/334
f 435/329/334 436/330/335 433/327/332
f 433/327/332 437/331/336 434/328/333
f 437/331/336 433/327/332 436/330/335
f 438/332/337 434/328/333 437/331/336
f 436/330/335 439/333/338 437/331/336
f 437/331/336 440/334/339 438/332/337
f 440/334/339 437/331/336 439/333/338
f 441/335/340 438/332/337 440/334/339
f 439/333/338 442/336/341 440/334/339
f 440/334/339 443/337/342 441/335/340
f 443/337/342 440/334/339 442/336/341
f 444/332/343 441/335/340 443/337/342
f 442/336/341 445/338/344 443/337/342
f 443/337/342 446/334/345 444/332/343
f 446/334/345 443/337/342 445/338/344
f 447/339/346 444/332/343 446/334/345
f 445/338/344 448/340/347 446/334/345
f 446/334/345 449/341/348 447/339/346
f 449/341/348 446/334/345 448/340/347
f 450/324/349 447/339/346 449/341/348
f 448/340/347 451/342/350 449/341/348
f 449/341/348 452/327/351 450/324/349
f 452/327/351 449/341/348 451/342/350
f 431/325/352 450/324/349 452/327/351
f 451/342/350 453/330/353 452/327/351
f 452/327/351 454/343/354 431/325/352
f 454/343/354 452/327/351 453/330/353
f 453/330/353 435/329/355 454/343/354
f 455/344/356 456/345/357 457/346/358
f 458/347/359 457/346/358 456/345/357
f 456/345/357 459/348/360 458/347/359
f 457/346/358 460/349/361 455/344/356
f 461/350/362 455/344/356 460/349/361
f 462/351/363 458/347/359 459/348/360
f 459/348/360 463/352/364 462/351/363
f 460/349/361 464/353/365 461/350/362
f 465/354/366 461/350/362 464/353/365
f 466/355/367 462/351/363 463/352/364
f 463/352/364 467/356/368 466/355/367
f 464/353/365 468/357/369 465/354/366
f 469/358/370 465/354/366 468/357/369
f 470/359/371 466/355/367 467/356/368
f 467/356/368 471/360/372 470/359/371
f 468/357/369 472/361/373 469/358/370
f 473/362/374 469/358/370 472/361/373
f 474/363/375 470/359/371 471/360/372
f 471/360/372 475/364/376 474/363/375
f 472/361/373 476/365/377 473/362/374
f 477/366/378 473/362/374 476/365/377
f 478/367/379 474/363/375 475/364/376
f 475/364/376 479/368/380 478/367/379
f 476/365/377 480/369/381 477/366/378
f 481/370/382 477/366/378 480/369/381
f 482/371/383 478/367/379 479/368/380
f 479/368/380 483/372/384 482/371/383
f 480/369/381 484/373/385 481/370/382
f 485/374/386 481/370/382 484/373/385
f 483/372/384 485/374/386 486/375/387
f 484/373/385 486/375/387 485/374/386
f 486/375/387 482/371/383 483/372/384
f 486/375/387 484/373/385 487/376/388
f 482/371/389 486/375/389 488/377/390
f 487/376/388 488/377/391 486/375/387
f 488/377/391 489/378/392 482/371/383
f 478/367/379 482/371/383 489/378/392
f 488/377/391 487/376/388 490/379/393
f 489/378/392 488/377/391 491/380/394
f 490/379/393 491/380/394 488/377/391
f 489/378/392 492/381/395 478/367/379
f 474/363/396 478/367/379 492/381/395
f 491/380/394 493/382/397 489/378/392
f 492/381/395 489/378/392 493/382/397
f 492/381/395 494/383/398 474/363/375
f 470/359/371 474/363/375 494/383/398
f 493/382/397 495/384/399 492/381/395
f 494/383/398 492/381/395 495/384/399
f 494/383/398 496/385/400 470/359/371
f 466/355/401 470/359/371 496/385/400
f 495/384/399 497/386/402 494/383/398
f 496/385/400 494/383/398 497/386/402
f 496/385/400 498/387/403 466/355/367
f 462/351/363 466/355/367 498/387/403
f 497/386/402 499/388/404 496/385/400
f 498/387/403 496/385/400 499/388/404
f 498/387/403 500/389/405 462/351/363
f 458/347/406 462/351/363 500/389/405
f 499/388/404 501/390/407 498/387/403
f 500/389/405 498/387/403 501/390/407
f 500/389/405 502/391/408 458/347/359
f 457/346/358 458/347/359 502/391/408
f 501/390/407 503/392/409 500/389/405
f 502/391/408 500/389/405 503/392/409
f 502/391/408 504/393/410 457/346/358
f 460/349/361 457/346/358 504/393/410
f 503/392/409 505/394/411 502/391/408
f 504/393/410 502/391/408 505/394/411
f 504/393/410 506/395/412 460/349/361
f 464/353/365 460/349/361 506/395/412
f 505/394/411 507/396/413 504/393/410
f 506/395/412 504/393/410 507/396/413
f 506/395/412 508/397/414 464/353/365
f 468/357/369 464/353/365 508/397/414
f 507/396/413 509/398/415 506/395/412
f 508/397/414 506/395/412 509/398/415
f 508/397/414 510/399/416 468/357/369
f 472/361/373 468/357/369 510/399/416
f 509/398/415 511/400/417 508/397/414
f 510/399/416 508/397/414 511/400/417
f 510/399/416 512/401/418 472/361/373
f 476/365/377 472/361/373 512/401/418
f 511/400/417 513/402/419 510/399/416
f 512/401/418 510/399/416 513/402/419
f 512/401/418 514/403/420 476/365/377
f 480/369/381 476/365/377 514/403/420
f 513/402/419 515/404/421 512/401/418
f 514/403/420 512/401/418 515/404/421
f 514/403/420 516/405/422 480/369/381
f 484/373/385 480/369/381 516/405/422
f 516/405/422 487/376/388 484/373/385
f 515/404/421 517/406/423 514/403/420
f 516/405/422 514/403/420 517/406/423
f 487/376/388 516/405/422 518/407/424
f 517/406/423 518/407/424 516/405/422
f 518/407/424 490/379/393 487/376/388
f 518/407/424 517/406/423 519/408/117
f 490/379/393 518/407/424 519/408/117
f 517/406/423 515/404/421 519/408/117
f 515/404/421 513/402/419 519/408/117
f 513/402/419 511/400/417 519/408/117
f 511/400/417 509/398/415 519/408/117
f 509/398/415 507/396/413 519/408/117
f 507/396/413 505/394/411 519/408/117
f 505/394/411 503/392/409 519/408/117
f 503/392/409 501/390/407 519/408/117
f 501/390/407 499/388/404 519/408/117
f 499/388/404 497/386/402 519/408/117
f 497/386/402 495/384/399 519/408/117
f 495/384/399 493/382/397 519/408/117
f 493/382/397 491/380/394 519/408/117
f 491/380/394 490/379/393 519/408/117
