# Blender 4.3.2
# www.blender.org
mtllib 玻璃柜台.mtl
o 柜台
v -1.482652 0.150000 1.125000
v -1.482652 2.850000 1.125000
v -1.482652 0.150000 -1.125000
v -1.482652 2.850000 -1.125000
v 1.334387 0.150000 1.250000
v 1.334387 2.850000 1.250000
v 1.482652 0.150000 -1.125000
v 1.482652 2.850000 -1.125000
v -1.334387 0.150000 -1.250000
v -1.334387 0.150000 1.250000
v -1.334387 2.850000 1.250000
v -1.334387 2.850000 -1.250000
v -1.334387 3.000000 1.125000
v 1.482652 2.850000 1.125000
v 1.482652 0.150000 1.125000
v 1.334387 2.850000 -1.250000
v 1.334387 0.150000 -1.250000
v 1.334387 3.000000 1.125000
v -1.334387 3.000000 -1.125000
v 1.334387 3.000000 -1.125000
v -1.334387 0.000000 -1.125000
v -1.334387 0.000000 1.125000
v 1.334387 0.000000 -1.125000
v 1.334387 0.000000 1.125000
v -1.334387 2.850000 1.250000
v -1.334387 3.000000 1.125000
v -1.482652 2.850000 1.125000
v -1.334387 2.896147 1.243330
v -1.334387 2.937882 1.225825
v -1.380000 2.850000 1.243330
v -1.379117 2.895514 1.232602
v -1.378541 2.934934 1.218995
v -1.421252 2.850000 1.225825
v -1.418194 2.894670 1.218661
v -1.413537 2.930076 1.209173
v -1.380000 2.991997 1.125000
v -1.421252 2.970990 1.125000
v -1.334387 2.991997 1.163456
v -1.379374 2.979122 1.162711
v -1.418338 2.962794 1.162225
v -1.334387 2.970990 1.198235
v -1.378541 2.962393 1.195656
v -1.413537 2.951008 1.191730
v -1.474741 2.850000 1.163456
v -1.453977 2.850000 1.198235
v -1.474741 2.896147 1.125000
v -1.462016 2.895253 1.162928
v -1.445876 2.894670 1.195778
v -1.453977 2.937882 1.125000
v -1.445480 2.934788 1.162225
v -1.434227 2.930076 1.191730
v -1.334387 3.000000 -1.125000
v -1.334387 2.850000 -1.250000
v -1.482652 2.850000 -1.125000
v -1.334387 2.991997 -1.163456
v -1.334387 2.970990 -1.198235
v -1.380000 2.991997 -1.125000
v -1.379117 2.979122 -1.162928
v -1.378541 2.962794 -1.195778
v -1.421252 2.970990 -1.125000
v -1.418194 2.962393 -1.162225
v -1.413537 2.951008 -1.191730
v -1.380000 2.850000 -1.243330
v -1.421252 2.850000 -1.225825
v -1.334387 2.896147 -1.243330
v -1.379374 2.895253 -1.232602
v -1.418338 2.894670 -1.218995
v -1.334387 2.937882 -1.225825
v -1.378541 2.934788 -1.218661
v -1.413537 2.930076 -1.209173
v -1.474741 2.896147 -1.125000
v -1.453977 2.937882 -1.125000
v -1.474741 2.850000 -1.163456
v -1.462016 2.895514 -1.162711
v -1.445876 2.934934 -1.162225
v -1.453977 2.850000 -1.198235
v -1.445480 2.894670 -1.195656
v -1.434227 2.930076 -1.191730
v 1.334387 3.000000 -1.125000
v 1.482652 2.850000 -1.125000
v 1.334387 2.850000 -1.250000
v 1.380000 2.991997 -1.125000
v 1.421252 2.970990 -1.125000
v 1.334387 2.991997 -1.163456
v 1.379374 2.979122 -1.162711
v 1.418338 2.962794 -1.162225
v 1.334387 2.970990 -1.198235
v 1.378541 2.962393 -1.195656
v 1.413537 2.951008 -1.191730
v 1.474741 2.850000 -1.163456
v 1.453977 2.850000 -1.198235
v 1.474741 2.896147 -1.125000
v 1.462016 2.895253 -1.162928
v 1.445876 2.894670 -1.195778
v 1.453977 2.937882 -1.125000
v 1.445480 2.934788 -1.162225
v 1.434227 2.930076 -1.191730
v 1.334387 2.896147 -1.243330
v 1.334387 2.937882 -1.225825
v 1.380000 2.850000 -1.243330
v 1.379117 2.895514 -1.232602
v 1.378541 2.934934 -1.218995
v 1.421252 2.850000 -1.225825
v 1.418194 2.894670 -1.218661
v 1.413537 2.930076 -1.209173
v 1.334387 3.000000 1.125000
v 1.334387 2.850000 1.250000
v 1.482652 2.850000 1.125000
v 1.334387 2.991997 1.163456
v 1.334387 2.970990 1.198235
v 1.380000 2.991997 1.125000
v 1.379117 2.979122 1.162928
v 1.378541 2.962794 1.195778
v 1.421252 2.970990 1.125000
v 1.418194 2.962393 1.162225
v 1.413537 2.951008 1.191730
v 1.380000 2.850000 1.243330
v 1.421252 2.850000 1.225825
v 1.334387 2.896147 1.243330
v 1.379374 2.895253 1.232602
v 1.418338 2.894670 1.218995
v 1.334387 2.937882 1.225825
v 1.378541 2.934788 1.218661
v 1.413537 2.930076 1.209173
v 1.474741 2.896147 1.125000
v 1.453977 2.937882 1.125000
v 1.474741 2.850000 1.163456
v 1.462016 2.895514 1.162711
v 1.445876 2.934934 1.162225
v 1.453977 2.850000 1.198235
v 1.445480 2.894670 1.195656
v 1.434227 2.930076 1.191730
v -1.482652 0.150000 -1.125000
v -1.334387 0.150000 -1.250000
v -1.334387 0.000000 -1.125000
v -1.475393 0.150000 -1.163634
v -1.454347 0.150000 -1.198461
v -1.475393 0.103639 -1.125000
v -1.466796 0.102410 -1.164882
v -1.446927 0.103961 -1.196768
v -1.454347 0.061847 -1.125000
v -1.446823 0.063802 -1.163465
v -1.432743 0.070632 -1.191140
v -1.334387 0.103639 -1.243880
v -1.334387 0.061847 -1.226136
v -1.380212 0.150000 -1.243880
v -1.381427 0.102142 -1.236632
v -1.379894 0.063879 -1.219881
v -1.421521 0.150000 -1.226136
v -1.419588 0.103842 -1.219792
v -1.412837 0.070632 -1.207922
v -1.380212 0.007344 -1.125000
v -1.421521 0.028637 -1.125000
v -1.334387 0.007344 -1.163634
v -1.381692 0.016042 -1.164659
v -1.419513 0.036143 -1.163366
v -1.334387 0.028637 -1.198461
v -1.380011 0.036249 -1.196832
v -1.412837 0.050494 -1.191140
v -1.334387 0.000000 1.125000
v -1.334387 0.150000 1.250000
v -1.482652 0.150000 1.125000
v -1.334387 0.008004 1.163456
v -1.334387 0.029011 1.198235
v -1.380000 0.008004 1.125000
v -1.379117 0.020878 1.162928
v -1.378541 0.037206 1.195778
v -1.421252 0.029011 1.125000
v -1.418194 0.037607 1.162225
v -1.413537 0.048992 1.191730
v -1.380000 0.150000 1.243330
v -1.421252 0.150000 1.225825
v -1.334387 0.103853 1.243330
v -1.379374 0.104747 1.232602
v -1.418338 0.105330 1.218995
v -1.334387 0.062119 1.225825
v -1.378541 0.065213 1.218661
v -1.413537 0.069924 1.209173
v -1.474741 0.103853 1.125000
v -1.453977 0.062119 1.125000
v -1.474741 0.150000 1.163456
v -1.462016 0.104487 1.162711
v -1.445876 0.065067 1.162225
v -1.453977 0.150000 1.198235
v -1.445480 0.105330 1.195656
v -1.434227 0.069924 1.191730
v 1.334387 0.150000 -1.250000
v 1.482652 0.150000 -1.125000
v 1.334387 0.000000 -1.125000
v 1.380212 0.150000 -1.243880
v 1.421521 0.150000 -1.226136
v 1.334387 0.103639 -1.243880
v 1.381692 0.102410 -1.236632
v 1.419513 0.103961 -1.219881
v 1.334387 0.061847 -1.226136
v 1.380011 0.063802 -1.219792
v 1.412837 0.070632 -1.207922
v 1.475393 0.103639 -1.125000
v 1.454347 0.061847 -1.125000
v 1.475393 0.150000 -1.163634
v 1.466796 0.102142 -1.164659
v 1.446927 0.063879 -1.163366
v 1.454347 0.150000 -1.198461
v 1.446823 0.103842 -1.196832
v 1.432743 0.070632 -1.191140
v 1.334387 0.007344 -1.163634
v 1.334387 0.028637 -1.198461
v 1.380212 0.007344 -1.125000
v 1.381427 0.016042 -1.164882
v 1.379894 0.036143 -1.196768
v 1.421521 0.028637 -1.125000
v 1.419588 0.036249 -1.163465
v 1.412837 0.050494 -1.191140
v 1.482652 0.150000 1.125000
v 1.334387 0.150000 1.250000
v 1.334387 0.000000 1.125000
v 1.475393 0.150000 1.163634
v 1.454347 0.150000 1.198461
v 1.475393 0.103639 1.125000
v 1.466796 0.102410 1.164882
v 1.446927 0.103961 1.196768
v 1.454347 0.061847 1.125000
v 1.446823 0.063802 1.163465
v 1.432743 0.070632 1.191140
v 1.334387 0.103639 1.243880
v 1.334387 0.061847 1.226136
v 1.380212 0.150000 1.243880
v 1.381427 0.102142 1.236632
v 1.379894 0.063879 1.219881
v 1.421521 0.150000 1.226136
v 1.419588 0.103842 1.219792
v 1.412837 0.070632 1.207922
v 1.380212 0.007344 1.125000
v 1.421521 0.028637 1.125000
v 1.334387 0.007344 1.163634
v 1.381692 0.016042 1.164659
v 1.419513 0.036143 1.163366
v 1.334387 0.028637 1.198461
v 1.380011 0.036249 1.196832
v 1.412837 0.050494 1.191140
v -0.963724 0.000000 0.781250
v -0.926658 0.000000 0.812500
v -0.989934 0.000000 0.834597
v -0.958758 0.000000 0.796875
v -0.945191 0.000000 0.808313
v 0.926658 0.000000 0.812500
v 0.963724 0.000000 0.781250
v 0.989934 0.000000 0.834597
v 0.945191 0.000000 0.808313
v 0.958758 0.000000 0.796875
v -0.926658 0.000000 -0.812500
v -0.963724 0.000000 -0.781250
v -0.989934 0.000000 -0.834597
v -0.945191 0.000000 -0.808313
v -0.958758 0.000000 -0.796875
v 0.963724 0.000000 -0.781250
v 0.926658 0.000000 -0.812500
v 0.989934 0.000000 -0.834597
v 0.958758 0.000000 -0.796875
v 0.945191 0.000000 -0.808313
v -0.963724 -1.462500 -0.781250
v -0.926658 -1.462500 -0.812500
v -0.958772 -1.462500 -0.796854
v -0.958772 -1.481225 -0.781250
v -0.953962 -1.480433 -0.796194
v -0.926658 -1.481225 -0.808325
v -0.945167 -1.462500 -0.808325
v -0.944383 -1.480433 -0.804270
v -0.945167 -1.494990 -0.781250
v -0.926658 -1.494990 -0.796854
v -0.944383 -1.490123 -0.796194
v -0.963724 -1.462500 0.781250
v -0.926658 -1.462500 0.812500
v -0.958772 -1.481225 0.781250
v -0.958772 -1.462500 0.796854
v -0.953962 -1.480433 0.796194
v -0.926658 -1.494990 0.796854
v -0.945167 -1.494990 0.781250
v -0.944383 -1.490123 0.796194
v -0.945167 -1.462500 0.808325
v -0.926658 -1.481225 0.808325
v -0.944383 -1.480433 0.804270
v 0.926658 -1.462500 -0.812500
v 0.963724 -1.462500 -0.781250
v 0.945167 -1.462500 -0.808325
v 0.926658 -1.481225 -0.808325
v 0.944383 -1.480433 -0.804270
v 0.958772 -1.481225 -0.781250
v 0.958772 -1.462500 -0.796854
v 0.953962 -1.480433 -0.796194
v 0.926658 -1.494990 -0.796854
v 0.945167 -1.494990 -0.781250
v 0.944383 -1.490123 -0.796194
v 0.963724 -1.462500 0.781250
v 0.926658 -1.462500 0.812500
v 0.958772 -1.462500 0.796854
v 0.958772 -1.481225 0.781250
v 0.953962 -1.480433 0.796194
v 0.926658 -1.481225 0.808325
v 0.945167 -1.462500 0.808325
v 0.944383 -1.480433 0.804270
v 0.945167 -1.494990 0.781250
v 0.926658 -1.494990 0.796854
v 0.944383 -1.490123 0.796194
v -0.752956 -1.500000 -0.647305
v -0.767783 -1.500000 -0.634805
v -0.778825 -1.499688 -0.655643
v -0.777672 -1.499688 -0.656614
v -0.760369 -1.500000 -0.645630
v -0.765796 -1.500000 -0.641055
v -0.767783 -1.500000 0.634805
v -0.752956 -1.500000 0.647305
v -0.777672 -1.499688 0.656614
v -0.778825 -1.499688 0.655643
v -0.765796 -1.500000 0.641055
v -0.760369 -1.500000 0.645630
v 0.767783 -1.500000 -0.634805
v 0.752956 -1.500000 -0.647305
v 0.777672 -1.499688 -0.656614
v 0.778825 -1.499688 -0.655643
v 0.765796 -1.500000 -0.641055
v 0.760369 -1.500000 -0.645630
v 0.752956 -1.500000 0.647305
v 0.767783 -1.500000 0.634805
v 0.778825 -1.499688 0.655643
v 0.777672 -1.499688 0.656614
v 0.760369 -1.500000 0.645630
v 0.765796 -1.500000 0.641055
v -0.767783 -1.554193 -0.634805
v -0.752956 -1.554193 -0.647305
v -0.752956 -1.569193 -0.634805
v -0.765802 -1.554193 -0.641047
v -0.765802 -1.561683 -0.634805
v -0.763878 -1.561367 -0.640783
v -0.752956 -1.561683 -0.645635
v -0.760360 -1.554193 -0.645635
v -0.760046 -1.561367 -0.644013
v -0.760360 -1.567189 -0.634805
v -0.752956 -1.567189 -0.641047
v -0.760046 -1.565243 -0.640783
v -0.767783 -1.554193 0.634805
v -0.752956 -1.569193 0.634805
v -0.752956 -1.554193 0.647305
v -0.765802 -1.561683 0.634805
v -0.765802 -1.554193 0.641047
v -0.763878 -1.561367 0.640783
v -0.752956 -1.567189 0.641047
v -0.760360 -1.567189 0.634805
v -0.760046 -1.565243 0.640783
v -0.760360 -1.554193 0.645635
v -0.752956 -1.561683 0.645635
v -0.760046 -1.561367 0.644013
v 0.752956 -1.554193 -0.647305
v 0.767783 -1.554193 -0.634805
v 0.752956 -1.569193 -0.634805
v 0.760360 -1.554193 -0.645635
v 0.752956 -1.561683 -0.645635
v 0.760046 -1.561367 -0.644013
v 0.765802 -1.561683 -0.634805
v 0.765802 -1.554193 -0.641047
v 0.763878 -1.561367 -0.640783
v 0.752956 -1.567189 -0.641047
v 0.760360 -1.567189 -0.634805
v 0.760046 -1.565243 -0.640783
v 0.767783 -1.554193 0.634805
v 0.752956 -1.554193 0.647305
v 0.752956 -1.569193 0.634805
v 0.765802 -1.554193 0.641047
v 0.765802 -1.561683 0.634805
v 0.763878 -1.561367 0.640783
v 0.752956 -1.561683 0.645635
v 0.760360 -1.554193 0.645635
v 0.760046 -1.561367 0.644013
v 0.760360 -1.567189 0.634805
v 0.752956 -1.567189 0.641047
v 0.760046 -1.565243 0.640783
vn 0.9880 -0.0000 -0.1542
vn 0.9880 -0.0000 0.1542
vn 0.9799 -0.1277 0.1533
vn 0.9799 -0.1277 -0.1533
vn -0.0000 1.0000 -0.0000
vn -0.0789 0.9925 0.0936
vn 0.0789 0.9925 0.0936
vn -0.0789 0.9925 -0.0936
vn 0.0789 0.9925 -0.0936
vn 0.7112 -0.7030 -0.0000
vn -0.0000 -0.6402 -0.7682
vn 0.6446 -0.0000 -0.7645
vn 0.5436 -0.5373 -0.6448
vn -0.6446 -0.0000 -0.7645
vn -0.7112 -0.7030 -0.0000
vn -0.5436 -0.5373 -0.6448
vn -0.0000 -0.6402 0.7682
vn 0.6446 -0.0000 0.7645
vn 0.5436 -0.5373 0.6448
vn -0.6446 -0.0000 0.7645
vn -0.5436 -0.5373 0.6448
vn -0.0000 0.6402 0.7682
vn -0.7112 0.7030 -0.0000
vn -0.0000 0.6402 -0.7682
vn -0.5436 0.5373 -0.6448
vn -0.5436 0.5373 0.6448
vn 0.7112 0.7030 -0.0000
vn 0.5436 0.5373 -0.6448
vn 0.5436 0.5373 0.6448
vn 0.1102 -0.0000 0.9939
vn -0.1102 -0.0000 0.9939
vn -0.1098 -0.1085 0.9880
vn 0.1098 -0.1085 0.9880
vn 0.0228 -0.9997 0.0125
vn 0.0247 -0.9997 0.0026
vn 0.0247 -0.9997 -0.0026
vn 0.0228 -0.9997 -0.0125
vn 0.0281 -0.9993 -0.0241
vn 0.0281 -0.9993 0.0241
vn -0.1102 -0.0000 -0.9939
vn 0.1102 -0.0000 -0.9939
vn 0.1098 -0.1085 -0.9880
vn -0.1098 -0.1085 -0.9880
vn -0.0000 -1.0000 -0.0000
vn -0.1106 0.1093 0.9878
vn -0.0950 0.2664 0.9592
vn -0.2643 0.2598 0.9288
vn -0.2702 0.0948 0.9581
vn -0.0907 0.5061 0.8577
vn -0.2416 0.4797 0.8435
vn -0.0973 0.7592 0.6435
vn -0.2553 0.7489 0.6115
vn -0.4835 0.2367 0.8428
vn -0.5096 0.0903 0.8557
vn -0.4374 0.4319 0.7888
vn -0.4626 0.6959 0.5492
vn -0.3167 0.9393 0.1324
vn -0.3002 0.8841 0.3581
vn -0.1108 0.9223 0.3702
vn -0.5781 0.8069 0.1214
vn -0.5386 0.7802 0.3181
vn -0.8138 0.5682 0.1223
vn -0.7876 0.5297 0.3148
vn -0.7018 0.4563 0.5470
vn -0.9796 0.1286 0.1543
vn -0.9246 0.1073 0.3655
vn -0.8874 0.2960 0.3533
vn -0.9411 0.3112 0.1325
vn -0.7623 0.0945 0.6403
vn -0.7521 0.2526 0.6088
vn -0.1096 0.9229 -0.3691
vn -0.3019 0.8843 -0.3562
vn -0.3177 0.9387 -0.1337
vn -0.0962 0.7585 -0.6445
vn -0.2570 0.7477 -0.6123
vn -0.0917 0.5052 -0.8581
vn -0.2399 0.4788 -0.8445
vn -0.5380 0.7815 -0.3160
vn -0.5770 0.8074 -0.1227
vn -0.4631 0.6960 -0.5488
vn -0.4370 0.4323 -0.7888
vn -0.1085 0.1093 -0.9881
vn -0.2682 0.0939 -0.9588
vn -0.2628 0.2612 -0.9288
vn -0.0959 0.2673 -0.9588
vn -0.5110 0.0894 -0.8549
vn -0.4843 0.2383 -0.8418
vn -0.7626 0.0956 -0.6398
vn -0.7533 0.2509 -0.6080
vn -0.7018 0.4558 -0.5475
vn -0.9801 0.1286 -0.1514
vn -0.9416 0.3101 -0.1311
vn -0.8872 0.2943 -0.3552
vn -0.9245 0.1085 -0.3653
vn -0.8132 0.5692 -0.1209
vn -0.7863 0.5304 -0.3169
vn 0.3167 0.9393 -0.1324
vn 0.3002 0.8841 -0.3581
vn 0.1108 0.9223 -0.3702
vn 0.5781 0.8069 -0.1214
vn 0.5386 0.7802 -0.3181
vn 0.8138 0.5682 -0.1223
vn 0.7876 0.5297 -0.3148
vn 0.2553 0.7489 -0.6115
vn 0.0973 0.7592 -0.6435
vn 0.4626 0.6959 -0.5492
vn 0.7018 0.4563 -0.5470
vn 0.9801 0.1286 -0.1514
vn 0.9251 0.1075 -0.3642
vn 0.8874 0.2960 -0.3533
vn 0.9411 0.3112 -0.1325
vn 0.7619 0.0945 -0.6408
vn 0.7521 0.2526 -0.6088
vn 0.5101 0.0904 -0.8554
vn 0.4835 0.2367 -0.8428
vn 0.4374 0.4319 -0.7888
vn 0.1085 0.1093 -0.9881
vn 0.0950 0.2664 -0.9592
vn 0.2643 0.2598 -0.9288
vn 0.2692 0.0949 -0.9584
vn 0.0907 0.5061 -0.8577
vn 0.2416 0.4797 -0.8435
vn 0.1096 0.9229 0.3691
vn 0.3019 0.8843 0.3562
vn 0.3177 0.9387 0.1337
vn 0.0962 0.7585 0.6445
vn 0.2570 0.7477 0.6123
vn 0.0917 0.5052 0.8581
vn 0.2399 0.4788 0.8445
vn 0.5380 0.7815 0.3160
vn 0.5770 0.8074 0.1227
vn 0.4631 0.6960 0.5488
vn 0.4370 0.4323 0.7888
vn 0.1085 0.1093 0.9881
vn 0.2682 0.0939 0.9588
vn 0.2628 0.2612 0.9288
vn 0.0959 0.2673 0.9588
vn 0.5110 0.0894 0.8549
vn 0.4843 0.2383 0.8418
vn 0.7626 0.0956 0.6398
vn 0.7533 0.2509 0.6080
vn 0.7018 0.4558 0.5475
vn 0.9801 0.1286 0.1514
vn 0.9416 0.3101 0.1311
vn 0.8872 0.2943 0.3552
vn 0.9245 0.1085 0.3653
vn 0.8132 0.5692 0.1209
vn 0.7863 0.5304 0.3169
vn -0.9857 -0.1079 -0.1295
vn -0.9297 -0.0776 -0.3601
vn -0.8847 -0.2979 -0.3586
vn -0.9473 -0.3060 -0.0953
vn -0.7566 -0.0698 -0.6502
vn -0.7250 -0.2654 -0.6356
vn -0.5199 -0.0665 -0.8516
vn -0.5118 -0.2538 -0.8208
vn -0.7607 -0.5561 -0.3348
vn -0.8098 -0.5797 -0.0900
vn -0.6520 -0.4854 -0.5825
vn -0.4737 -0.4682 -0.7459
vn -0.0926 -0.0894 -0.9917
vn -0.0686 -0.2610 -0.9629
vn -0.2663 -0.2640 -0.9271
vn -0.2650 -0.0680 -0.9619
vn -0.0673 -0.5162 -0.8538
vn -0.2569 -0.5068 -0.8229
vn -0.0714 -0.7525 -0.6547
vn -0.2703 -0.7201 -0.6391
vn -0.4921 -0.6458 -0.5838
vn -0.1104 -0.9856 -0.1280
vn -0.3123 -0.9451 -0.0958
vn -0.3048 -0.8816 -0.3604
vn -0.0797 -0.9285 -0.3626
vn -0.5888 -0.8033 -0.0899
vn -0.5642 -0.7545 -0.3353
vn -0.1291 -0.9797 0.1531
vn -0.1098 -0.9234 0.3677
vn -0.3019 -0.8843 0.3562
vn -0.3165 -0.9391 0.1339
vn -0.0963 -0.7581 0.6450
vn -0.2570 -0.7477 0.6123
vn -0.0917 -0.5056 0.8578
vn -0.2399 -0.4788 0.8445
vn -0.5380 -0.7815 0.3160
vn -0.5775 -0.8071 0.1228
vn -0.4631 -0.6960 0.5488
vn -0.4370 -0.4323 0.7888
vn -0.1106 -0.1072 0.9881
vn -0.2693 -0.0938 0.9585
vn -0.2628 -0.2612 0.9288
vn -0.0960 -0.2663 0.9591
vn -0.5106 -0.0893 0.8552
vn -0.4843 -0.2383 0.8418
vn -0.7630 -0.0955 0.6393
vn -0.7533 -0.2509 0.6080
vn -0.7018 -0.4558 0.5475
vn -0.9799 -0.1261 0.1543
vn -0.9420 -0.3090 0.1313
vn -0.8872 -0.2943 0.3552
vn -0.9240 -0.1084 0.3666
vn -0.8129 -0.5697 0.1210
vn -0.7863 -0.5304 0.3169
vn 0.0926 -0.0894 -0.9917
vn 0.2649 -0.0677 -0.9619
vn 0.2671 -0.2632 -0.9270
vn 0.0689 -0.2611 -0.9628
vn 0.5201 -0.0662 -0.8515
vn 0.5116 -0.2534 -0.8210
vn 0.7567 -0.0701 -0.6500
vn 0.7247 -0.2658 -0.6357
vn 0.2573 -0.5070 -0.8226
vn 0.0676 -0.5160 -0.8539
vn 0.4737 -0.4682 -0.7459
vn 0.6520 -0.4854 -0.5825
vn 0.9860 -0.1055 -0.1295
vn 0.9477 -0.3047 -0.0951
vn 0.8848 -0.2988 -0.3575
vn 0.9296 -0.0779 -0.3603
vn 0.8094 -0.5804 -0.0897
vn 0.7610 -0.5560 -0.3343
vn 0.5891 -0.8030 -0.0904
vn 0.5643 -0.7542 -0.3358
vn 0.4922 -0.6458 -0.5837
vn 0.1079 -0.9859 -0.1280
vn 0.0794 -0.9286 -0.3624
vn 0.3038 -0.8815 -0.3614
vn 0.3113 -0.9454 -0.0963
vn 0.0711 -0.7523 -0.6550
vn 0.2699 -0.7204 -0.6389
vn 0.9860 -0.1055 0.1295
vn 0.9297 -0.0776 0.3601
vn 0.8847 -0.2979 0.3586
vn 0.9476 -0.3048 0.0954
vn 0.7566 -0.0698 0.6502
vn 0.7250 -0.2654 0.6356
vn 0.5199 -0.0665 0.8516
vn 0.5118 -0.2538 0.8208
vn 0.7607 -0.5561 0.3348
vn 0.8095 -0.5802 0.0901
vn 0.6520 -0.4854 0.5825
vn 0.4737 -0.4682 0.7459
vn 0.0926 -0.0915 0.9915
vn 0.0686 -0.2620 0.9626
vn 0.2663 -0.2640 0.9271
vn 0.2650 -0.0680 0.9619
vn 0.0672 -0.5157 0.8541
vn 0.2569 -0.5068 0.8229
vn 0.0714 -0.7529 0.6543
vn 0.2703 -0.7201 0.6391
vn 0.4921 -0.6458 0.5838
vn 0.1079 -0.9855 0.1309
vn 0.3111 -0.9455 0.0959
vn 0.3048 -0.8816 0.3604
vn 0.0796 -0.9280 0.3639
vn 0.5893 -0.8029 0.0900
vn 0.5642 -0.7545 0.3353
vn -0.9799 -0.1277 -0.1533
vn -0.8229 -0.1147 -0.5565
vn -0.7463 -0.4261 -0.5113
vn -0.8621 -0.4858 -0.1442
vn -0.4308 -0.1053 -0.8963
vn -0.4018 -0.3972 -0.8251
vn -0.1068 -0.4266 -0.8981
vn -0.0952 -0.6373 -0.7647
vn -0.4848 -0.6591 -0.5750
vn -0.0228 -0.9997 -0.0125
vn -0.0247 -0.9997 -0.0026
vn -0.0247 -0.9997 0.0026
vn -0.0228 -0.9997 0.0125
vn -0.0281 -0.9993 0.0241
vn -0.0281 -0.9993 -0.0241
vn -0.7058 -0.6976 -0.1236
vn -0.9799 -0.1277 0.1533
vn -0.8621 -0.4858 0.1442
vn -0.7463 -0.4261 0.5113
vn -0.8229 -0.1147 0.5565
vn -0.7058 -0.6976 0.1236
vn -0.4848 -0.6591 0.5750
vn -0.0106 -0.9996 0.0270
vn -0.0022 -0.9996 0.0293
vn 0.0022 -0.9996 0.0293
vn 0.0106 -0.9996 0.0270
vn 0.0203 -0.9992 0.0333
vn -0.0203 -0.9992 0.0333
vn -0.0952 -0.6373 0.7647
vn -0.1067 -0.4266 0.8981
vn -0.4018 -0.3972 0.8251
vn -0.4308 -0.1053 0.8963
vn 0.4308 -0.1053 -0.8963
vn 0.4018 -0.3972 -0.8251
vn 0.1067 -0.4266 -0.8981
vn 0.8229 -0.1147 -0.5565
vn 0.7463 -0.4261 -0.5113
vn 0.8621 -0.4858 -0.1442
vn 0.7058 -0.6976 -0.1236
vn 0.4848 -0.6591 -0.5750
vn 0.0952 -0.6373 -0.7647
vn 0.8229 -0.1147 0.5565
vn 0.7463 -0.4261 0.5113
vn 0.8621 -0.4858 0.1442
vn 0.4308 -0.1053 0.8963
vn 0.4018 -0.3972 0.8251
vn 0.1068 -0.4266 0.8981
vn 0.0952 -0.6373 0.7647
vn 0.4848 -0.6591 0.5750
vn -0.1306 -0.9793 -0.1549
vn 0.1306 -0.9793 -0.1549
vn 0.1306 -0.9793 0.1549
vn -0.1306 -0.9793 0.1549
vn 0.7058 -0.6976 0.1236
vn -0.0106 -0.9996 -0.0270
vn -0.0280 -0.9991 -0.0332
vn -0.0203 -0.9992 -0.0333
vn 0.0106 -0.9996 -0.0270
vn 0.0203 -0.9992 -0.0333
vn 0.0280 -0.9991 -0.0332
vn -0.9880 -0.0000 0.1542
vn -0.9531 -0.0000 0.3027
vn -0.2202 -0.0000 0.9755
vn 0.9531 -0.0000 0.3027
vn 0.2202 -0.0000 0.9755
vn 0.9531 -0.0000 -0.3027
vn 0.2202 -0.0000 -0.9755
vn -0.9880 -0.0000 -0.1542
vn -0.9531 -0.0000 -0.3027
vn -0.2202 -0.0000 -0.9755
vn 0.0280 -0.9991 0.0332
vn -0.0280 -0.9991 0.0332
vn -0.0022 -0.9996 -0.0293
vn -0.0108 -0.9999 -0.0128
vn -0.0108 -0.9999 0.0128
vn 0.0108 -0.9999 -0.0128
vn 0.0022 -0.9996 -0.0293
vn 0.0108 -0.9999 0.0128
vn -0.8229 -0.1147 -0.5564
vn -0.8621 -0.4857 -0.1442
vn -0.1169 -0.8197 -0.5607
vn -0.4329 -0.7408 -0.5135
vn -0.4943 -0.8571 -0.1450
vn -0.8621 -0.4857 0.1442
vn -0.8229 -0.1147 0.5564
vn -0.4943 -0.8571 0.1450
vn -0.4329 -0.7408 0.5135
vn -0.1169 -0.8197 0.5607
vn 0.8229 -0.1147 -0.5564
vn 0.8621 -0.4857 -0.1442
vn 0.4943 -0.8571 -0.1450
vn 0.4329 -0.7408 -0.5135
vn 0.1169 -0.8197 -0.5607
vn 0.8229 -0.1147 0.5564
vn 0.8621 -0.4857 0.1442
vn 0.1169 -0.8197 0.5607
vn 0.4329 -0.7408 0.5135
vn 0.4943 -0.8571 0.1450
vt 0.331250 0.546875
vt 0.331250 0.703125
vt 0.331250 0.703125
vt 0.331250 0.546875
vt 0.362500 0.512500
vt 0.137500 0.512500
vt 0.612500 0.987500
vt 0.612500 0.762500
vt 0.637500 0.737500
vt 0.862500 0.737500
vt 0.612500 0.487500
vt 0.612500 0.262500
vt 0.612500 0.237500
vt 0.612500 0.012500
vt 0.137500 0.737500
vt 0.362500 0.737500
vt 0.862500 0.512500
vt 0.637500 0.512500
vt 0.612500 0.512500
vt 0.387500 0.512500
vt 0.387500 0.762500
vt 0.387500 0.487500
vt 0.612500 0.737500
vt 0.387500 0.262500
vt 0.387500 0.237500
vt 0.387500 0.737500
vt 0.387500 0.012500
vt 0.387500 0.987500
vt 0.000000 0.000000
vt 0.328125 0.706250
vt 0.171875 0.706250
vt 0.171875 0.706250
vt 0.328125 0.706250
vt 0.328222 0.703125
vt 0.328125 0.701616
vt 0.328125 0.548384
vt 0.328222 0.546875
vt 0.329685 0.546875
vt 0.329685 0.703125
vt 0.171875 0.543750
vt 0.328125 0.543750
vt 0.328125 0.543750
vt 0.171875 0.543750
vt 0.166540 0.541540
vt 0.168750 0.546875
vt 0.168750 0.703125
vt 0.166540 0.708460
vt 0.333460 0.541540
vt 0.328125 0.543750
vt 0.171875 0.543750
vt 0.333460 0.708460
vt 0.331250 0.703125
vt 0.171875 0.706250
vt 0.616346 0.987500
vt 0.616293 0.991271
vt 0.612500 0.991346
vt 0.619823 0.987500
vt 0.619578 0.991223
vt 0.625000 0.987500
vt 0.625000 0.991223
vt 0.616222 1.000000
vt 0.612500 1.000000
vt 0.619173 1.000000
vt 0.625000 1.000000
vt 0.866346 0.737500
vt 0.866293 0.741271
vt 0.862500 0.741346
vt 0.875000 0.737500
vt 0.875000 0.741223
vt 0.625000 0.012500
vt 0.619823 0.012500
vt 0.619566 0.008777
vt 0.625000 0.008777
vt 0.866223 0.750000
vt 0.862500 0.750000
vt 0.875000 0.744173
vt 0.619173 0.005827
vt 0.625000 0.005827
vt 0.612500 0.008654
vt 0.616271 0.008707
vt 0.616346 0.012500
vt 0.612500 0.005177
vt 0.616223 0.005422
vt 0.612500 0.000000
vt 0.616223 0.000000
vt 0.619173 0.000000
vt 0.862500 0.508654
vt 0.866271 0.508707
vt 0.866346 0.512500
vt 0.862500 0.500000
vt 0.866223 0.500000
vt 0.625000 0.262500
vt 0.619823 0.262500
vt 0.619566 0.258777
vt 0.625000 0.258777
vt 0.875000 0.508777
vt 0.875000 0.512500
vt 0.869173 0.505827
vt 0.619173 0.255827
vt 0.620917 0.255827
vt 0.612500 0.258654
vt 0.616271 0.258707
vt 0.616346 0.262500
vt 0.612500 0.255177
vt 0.616223 0.255422
vt 0.612500 0.244823
vt 0.616223 0.244566
vt 0.619173 0.244173
vt 0.616346 0.237500
vt 0.616293 0.241271
vt 0.612500 0.241346
vt 0.619823 0.237500
vt 0.619578 0.241223
vt 0.625000 0.237500
vt 0.625000 0.241223
vt 0.620917 0.244173
vt 0.620917 0.244173
vt 0.619173 0.245917
vt 0.619173 0.244173
vt 0.633654 0.512500
vt 0.633707 0.508729
vt 0.637500 0.508654
vt 0.630177 0.512500
vt 0.630422 0.508777
vt 0.619823 0.512500
vt 0.619566 0.508777
vt 0.633777 0.500000
vt 0.637500 0.500000
vt 0.630827 0.505827
vt 0.619173 0.505827
vt 0.612500 0.508654
vt 0.616271 0.508707
vt 0.616346 0.512500
vt 0.612500 0.505177
vt 0.616223 0.505422
vt 0.612500 0.494823
vt 0.616223 0.494566
vt 0.619173 0.494173
vt 0.616346 0.487500
vt 0.616293 0.491271
vt 0.612500 0.491346
vt 0.619823 0.487500
vt 0.619578 0.491223
vt 0.625000 0.487500
vt 0.625000 0.491223
vt 0.620917 0.494173
vt 0.620917 0.494173
vt 0.619173 0.495917
vt 0.637500 0.741346
vt 0.633729 0.741293
vt 0.633654 0.737500
vt 0.637500 0.750000
vt 0.633777 0.750000
vt 0.625000 0.762500
vt 0.619823 0.762500
vt 0.619566 0.758777
vt 0.625000 0.758777
vt 0.630434 0.741223
vt 0.630177 0.737500
vt 0.630827 0.750000
vt 0.619173 0.755827
vt 0.625000 0.755827
vt 0.612500 0.758654
vt 0.616271 0.758707
vt 0.616346 0.762500
vt 0.612500 0.755177
vt 0.616223 0.755422
vt 0.612500 0.744824
vt 0.616223 0.744566
vt 0.619173 0.744173
vt 0.616346 0.737500
vt 0.616293 0.741271
vt 0.612500 0.741346
vt 0.619823 0.737500
vt 0.619578 0.741223
vt 0.619173 0.754083
vt 0.387500 0.241363
vt 0.383534 0.241488
vt 0.383637 0.237500
vt 0.387500 0.244846
vt 0.383663 0.244677
vt 0.387500 0.255154
vt 0.383654 0.255317
vt 0.375000 0.241346
vt 0.375000 0.237500
vt 0.375000 0.244114
vt 0.375000 0.255886
vt 0.383637 0.262500
vt 0.383512 0.258534
vt 0.387500 0.258637
vt 0.375000 0.262500
vt 0.375000 0.258663
vt 0.137500 0.500000
vt 0.137500 0.505154
vt 0.133654 0.505317
vt 0.133663 0.500000
vt 0.130886 0.505886
vt 0.130886 0.500000
vt 0.133637 0.512500
vt 0.133512 0.508534
vt 0.137500 0.508637
vt 0.130154 0.512500
vt 0.130323 0.508663
vt 0.125000 0.512500
vt 0.125000 0.508654
vt 0.125000 0.505886
vt 0.137500 0.741346
vt 0.133729 0.741293
vt 0.133654 0.737500
vt 0.137500 0.744824
vt 0.133777 0.744578
vt 0.137500 0.750000
vt 0.133777 0.750000
vt 0.130434 0.741223
vt 0.130177 0.737500
vt 0.130827 0.744173
vt 0.130827 0.745917
vt 0.387500 0.991346
vt 0.383729 0.991293
vt 0.383654 0.987500
vt 0.387500 1.000000
vt 0.383777 1.000000
vt 0.387500 0.000000
vt 0.387500 0.005177
vt 0.383777 0.005434
vt 0.383777 -0.000000
vt 0.375000 0.991222
vt 0.375000 0.987500
vt 0.380827 0.994173
vt 0.380827 0.005827
vt 0.380827 0.004083
vt 0.383654 0.012500
vt 0.383707 0.008729
vt 0.387500 0.008654
vt 0.375000 0.012500
vt 0.375000 0.008777
vt 0.125000 0.737500
vt 0.125000 0.741223
vt 0.129083 0.744173
vt 0.130827 0.744173
vt 0.129083 0.744173
vt 0.387500 0.491363
vt 0.383534 0.491488
vt 0.383637 0.487500
vt 0.387500 0.494846
vt 0.383663 0.494677
vt 0.387500 0.505154
vt 0.383654 0.505317
vt 0.375000 0.491346
vt 0.375000 0.487500
vt 0.375000 0.494114
vt 0.380886 0.505886
vt 0.383637 0.512500
vt 0.383512 0.508534
vt 0.387500 0.508637
vt 0.380154 0.512500
vt 0.380323 0.508663
vt 0.369846 0.512500
vt 0.369683 0.508654
vt 0.369114 0.505886
vt 0.362500 0.508637
vt 0.366466 0.508512
vt 0.366363 0.512500
vt 0.362500 0.505154
vt 0.366337 0.505323
vt 0.362500 0.500000
vt 0.366347 0.500000
vt 0.369114 0.500000
vt 0.370792 0.505886
vt 0.387500 0.741363
vt 0.383534 0.741488
vt 0.383637 0.737500
vt 0.387500 0.744846
vt 0.383663 0.744677
vt 0.387500 0.755154
vt 0.383654 0.755317
vt 0.380317 0.741346
vt 0.380154 0.737500
vt 0.380886 0.744114
vt 0.380886 0.755886
vt 0.383637 0.762500
vt 0.383512 0.758534
vt 0.387500 0.758637
vt 0.375000 0.762500
vt 0.375000 0.758663
vt 0.362500 0.750000
vt 0.362500 0.744846
vt 0.366347 0.744683
vt 0.366337 0.750000
vt 0.369114 0.744114
vt 0.369114 0.745792
vt 0.366363 0.737500
vt 0.366488 0.741466
vt 0.362500 0.741363
vt 0.369846 0.737500
vt 0.369677 0.741337
vt 0.370792 0.744114
vt 0.369114 0.744114
vt 0.133654 0.737500
vt 0.125000 0.737500
vt 0.375000 0.237500
vt 0.383637 0.237500
vt 0.612500 0.991346
vt 0.612500 1.000000
vt 0.387500 0.005177
vt 0.387500 0.008654
vt 0.866346 0.512500
vt 0.875000 0.512500
vt 0.625000 0.012500
vt 0.616346 0.012500
vt 0.387500 0.258637
vt 0.612500 0.244823
vt 0.612500 0.241346
vt 0.137500 0.508637
vt 0.137500 0.500000
vt 0.375000 0.487500
vt 0.383637 0.487500
vt 0.637500 0.500000
vt 0.625000 0.262500
vt 0.619823 0.262500
vt 0.616346 0.262500
vt 0.387500 0.508637
vt 0.612500 0.494823
vt 0.612500 0.491346
vt 0.366363 0.512500
vt 0.380154 0.737500
vt 0.383637 0.737500
vt 0.619823 0.512500
vt 0.616346 0.512500
vt 0.387500 0.758637
vt 0.612500 0.744824
vt 0.612500 0.741346
vt 0.362500 0.750000
vt 0.375000 0.987500
vt 0.625000 0.762500
vt 0.619823 0.762500
vt 0.616346 0.762500
vt 0.168750 0.703125
vt 0.168750 0.704687
vt 0.168750 0.705831
vt 0.168750 0.706250
vt 0.329688 0.706250
vt 0.330831 0.706250
vt 0.331250 0.706250
vt 0.170313 0.543750
vt 0.169169 0.543750
vt 0.168750 0.543750
vt 0.331250 0.545313
vt 0.331250 0.544169
vt 0.331250 0.543750
vt 0.168750 0.546875
vt 0.168750 0.545314
vt 0.168750 0.545381
vt 0.168750 0.546875
vt 0.170315 0.543750
vt 0.170381 0.543750
vt 0.171875 0.545314
vt 0.170381 0.545381
vt 0.171778 0.546875
vt 0.171875 0.548384
vt 0.171875 0.701616
vt 0.171778 0.703125
vt 0.170315 0.703125
vt 0.170315 0.546875
vt 0.168750 0.703125
vt 0.168750 0.703125
vt 0.168750 0.704619
vt 0.168750 0.704685
vt 0.170381 0.704619
vt 0.171875 0.703222
vt 0.173384 0.703125
vt 0.326616 0.703125
vt 0.328125 0.703222
vt 0.328125 0.704685
vt 0.171875 0.704685
vt 0.171875 0.706250
vt 0.170381 0.706250
vt 0.170315 0.706250
vt 0.329685 0.543750
vt 0.329619 0.543750
vt 0.328125 0.543750
vt 0.331250 0.545315
vt 0.331250 0.545381
vt 0.329619 0.545381
vt 0.328125 0.701616
vt 0.328125 0.701616
vt 0.328125 0.548384
vt 0.328125 0.545314
vt 0.331250 0.704685
vt 0.331250 0.704619
vt 0.331250 0.703125
vt 0.329685 0.706250
vt 0.329619 0.706250
vt 0.329619 0.704619
vt 0.173384 0.548384
vt 0.326616 0.548384
vt 0.326616 0.701616
vt 0.173384 0.701616
vt 0.173384 0.546875
vt 0.326616 0.546875
vt 0.326616 0.546875
vt 0.173384 0.546875
vt 0.171875 0.546778
vt 0.171778 0.546875
vt 0.328222 0.546875
vt 0.328125 0.546778
vt 0.173384 0.703125
vt 0.326616 0.703125
vt 0.170313 0.706250
vt 0.331250 0.704688
vt 0.329687 0.543750
vt 0.168750 0.545312
vt 0.328125 0.703222
vt 0.328222 0.703125
vt 0.171875 0.701616
vt 0.172629 0.546875
vt 0.172077 0.546875
vt 0.171875 0.546875
vt 0.171875 0.702371
vt 0.171875 0.702923
vt 0.171875 0.703125
vt 0.328125 0.547629
vt 0.328125 0.547077
vt 0.328125 0.546875
vt 0.327371 0.703125
vt 0.327923 0.703125
vt 0.328125 0.703125
vt 0.171875 0.547630
vt 0.171875 0.547662
vt 0.172630 0.546875
vt 0.172662 0.546875
vt 0.173384 0.546875
vt 0.173384 0.547630
vt 0.172662 0.547662
vt 0.172630 0.548384
vt 0.171875 0.702338
vt 0.171875 0.702370
vt 0.172630 0.701616
vt 0.172662 0.702338
vt 0.173384 0.702369
vt 0.173384 0.703125
vt 0.172662 0.703125
vt 0.172630 0.703125
vt 0.327370 0.546875
vt 0.327338 0.546875
vt 0.326616 0.546875
vt 0.328125 0.547630
vt 0.328125 0.547662
vt 0.328125 0.548384
vt 0.327370 0.548384
vt 0.327338 0.547662
vt 0.326616 0.547630
vt 0.328125 0.702370
vt 0.328125 0.702338
vt 0.327370 0.703125
vt 0.327338 0.703125
vt 0.326616 0.703125
vt 0.326616 0.702370
vt 0.327338 0.702338
vt 0.327370 0.701616
vt 0.172629 0.703125
vt 0.328125 0.702371
vt 0.327371 0.546875
vt 0.171875 0.547629
s 1
usemtl 材质
f 256/1/1 247/2/2 294/3/3 284/4/4
f 23/5/5 21/6/5 135/6/5 189/5/5
f 11/7/5 6/8/5 107/8/5 25/7/5
f 18/9/5 13/10/5 26/10/6 106/9/7
f 16/11/5 12/12/5 53/12/5 81/11/5
f 4/13/5 2/14/5 27/14/5 54/13/5
f 21/6/5 22/15/5 160/15/5 135/6/5
f 24/16/5 23/5/5 189/5/5 216/16/5
f 13/10/5 19/17/5 52/17/8 26/10/6
f 20/18/5 18/9/5 106/9/7 79/18/9
f 8/19/5 7/20/5 188/20/5 80/19/5
f 6/8/5 5/21/5 215/21/5 107/8/5
f 19/17/5 20/18/5 79/18/9 52/17/8
f 22/15/5 24/16/5 216/16/5 160/15/5
f 17/22/5 16/11/5 81/11/5 187/22/5
f 14/23/5 8/19/5 80/19/5 108/23/5
f 12/12/5 9/24/5 134/24/5 53/12/5
f 3/25/5 4/13/5 54/13/5 133/25/5
f 15/26/5 14/23/5 108/23/5 214/26/5
f 2/14/5 1/27/5 162/27/5 27/14/5
f 19/17/10 13/10/10 2/14/10 4/13/10
f 13/10/11 18/9/11 6/8/11 11/7/11
f 11/7/12 10/28/12 1/27/12 2/14/12
f 13/29/13 11/29/13 2/29/13
f 14/23/14 15/26/14 5/21/14 6/8/14
f 18/9/15 20/18/15 8/19/15 14/23/15
f 18/29/16 14/29/16 6/29/16
f 20/18/17 19/17/17 12/12/17 16/11/17
f 9/24/18 12/12/18 4/13/18 3/25/18
f 19/29/19 4/29/19 12/29/19
f 16/11/20 17/22/20 7/20/20 8/19/20
f 20/29/21 16/29/21 8/29/21
f 1/27/5 3/25/5 133/25/5 162/27/5
f 9/24/5 17/22/5 187/22/5 134/24/5
f 7/20/5 15/26/5 214/26/5 188/20/5
f 5/21/5 10/28/5 161/28/5 215/21/5
f 21/6/22 23/5/22 17/22/22 9/24/22
f 23/5/23 24/16/23 15/26/23 7/20/23
f 24/16/24 22/15/24 10/28/24 5/21/24
f 15/29/25 24/29/25 5/29/25
f 17/29/26 23/29/26 7/29/26
f 22/15/27 21/6/27 3/25/27 1/27/27
f 10/29/28 22/29/28 1/29/28
f 3/29/29 21/29/29 9/29/29
f 246/30/30 242/31/31 273/32/32 295/33/33
f 325/34/34 324/35/35 317/36/36 320/37/37 292/38/38 302/39/39
f 251/40/40 257/41/41 283/42/42 262/43/43
f 253/44/44 252/45/44 241/46/44 243/47/44 22/15/44 21/6/44
f 258/48/44 257/49/44 251/50/44 253/44/44 21/6/44 23/5/44
f 248/51/44 247/52/44 256/1/44 258/48/44 23/5/44 24/16/44
f 243/47/44 242/53/44 246/30/44 248/51/44 24/16/44 22/15/44
f 25/7/45 28/54/46 31/55/47 30/56/48
f 28/54/46 29/57/49 32/58/50 31/55/47
f 29/57/49 41/59/51 42/60/52 32/58/50
f 30/56/48 31/55/47 34/61/53 33/62/54
f 31/55/47 32/58/50 35/63/55 34/61/53
f 32/58/50 42/60/52 43/64/56 35/63/55
f 26/10/6 36/65/57 39/66/58 38/67/59
f 36/65/57 37/68/60 40/69/61 39/66/58
f 37/70/60 49/71/62 50/72/63 40/73/61
f 38/67/59 39/66/58 42/74/52 41/75/51
f 39/66/58 40/69/61 43/76/56 42/74/52
f 40/73/61 50/72/63 51/77/64 43/78/56
f 27/14/65 44/79/66 47/80/67 46/81/68
f 44/79/66 45/82/69 48/83/70 47/80/67
f 45/82/69 33/84/54 34/85/53 48/83/70
f 46/81/68 47/80/67 50/72/63 49/71/62
f 47/80/67 48/83/70 51/77/64 50/72/63
f 48/83/70 34/85/53 35/86/55 51/77/64
f 35/86/55 43/78/56 51/77/64
f 52/17/8 55/87/71 58/88/72 57/89/73
f 55/87/71 56/90/74 59/91/75 58/88/72
f 56/92/74 68/93/76 69/94/77 59/95/75
f 57/89/73 58/88/72 61/96/78 60/97/79
f 58/88/72 59/91/75 62/98/80 61/96/78
f 59/95/75 69/94/77 70/99/81 62/100/80
f 53/12/82 63/101/83 66/102/84 65/103/85
f 63/101/83 64/104/86 67/105/87 66/102/84
f 64/104/86 76/106/88 77/107/89 67/105/87
f 65/103/85 66/102/84 69/94/77 68/93/76
f 66/102/84 67/105/87 70/99/81 69/94/77
f 67/105/87 77/107/89 78/108/90 70/99/81
f 54/13/91 71/109/92 74/110/93 73/111/94
f 71/109/92 72/112/95 75/113/96 74/110/93
f 72/112/95 60/114/79 61/115/78 75/113/96
f 73/111/94 74/110/93 77/107/89 76/106/88
f 74/110/93 75/113/96 78/108/90 77/107/89
f 75/113/96 61/115/78 62/116/80 78/108/90
f 62/117/80 70/118/81 78/119/90
f 79/18/9 82/120/97 85/121/98 84/122/99
f 82/120/97 83/123/100 86/124/101 85/121/98
f 83/123/100 95/125/102 96/126/103 86/124/101
f 84/122/99 85/121/98 88/127/104 87/128/105
f 85/121/98 86/124/101 89/129/106 88/127/104
f 86/124/101 96/126/103 97/130/107 89/129/106
f 80/19/108 90/131/109 93/132/110 92/133/111
f 90/131/109 91/134/112 94/135/113 93/132/110
f 91/134/112 103/136/114 104/137/115 94/135/113
f 92/133/111 93/132/110 96/126/103 95/125/102
f 93/132/110 94/135/113 97/130/107 96/126/103
f 94/135/113 104/137/115 105/138/116 97/130/107
f 81/11/117 98/139/118 101/140/119 100/141/120
f 98/139/118 99/142/121 102/143/122 101/140/119
f 99/142/121 87/144/105 88/145/104 102/143/122
f 100/141/120 101/140/119 104/137/115 103/136/114
f 101/140/119 102/143/122 105/138/116 104/137/115
f 102/143/122 88/145/104 89/146/106 105/138/116
f 89/147/106 97/148/107 105/138/116
f 106/9/7 109/149/123 112/150/124 111/151/125
f 109/149/123 110/152/126 113/153/127 112/150/124
f 110/154/126 122/155/128 123/156/129 113/157/127
f 111/151/125 112/150/124 115/158/130 114/159/131
f 112/150/124 113/153/127 116/160/132 115/158/130
f 113/157/127 123/156/129 124/161/133 116/162/132
f 107/8/134 117/163/135 120/164/136 119/165/137
f 117/163/135 118/166/138 121/167/139 120/164/136
f 118/166/138 130/168/140 131/169/141 121/167/139
f 119/165/137 120/164/136 123/156/129 122/155/128
f 120/164/136 121/167/139 124/161/133 123/156/129
f 121/167/139 131/169/141 132/170/142 124/161/133
f 108/23/143 125/171/144 128/172/145 127/173/146
f 125/171/144 126/174/147 129/175/148 128/172/145
f 126/174/147 114/159/131 115/158/130 129/175/148
f 127/173/146 128/172/145 131/169/141 130/168/140
f 128/172/145 129/175/148 132/170/142 131/169/141
f 129/175/148 115/158/130 116/160/132 132/170/142
f 116/162/132 124/161/133 132/176/142
f 133/25/149 136/177/150 139/178/151 138/179/152
f 136/177/150 137/180/153 140/181/154 139/178/151
f 137/180/153 149/182/155 150/183/156 140/181/154
f 138/179/152 139/178/151 142/184/157 141/185/158
f 139/178/151 140/181/154 143/186/159 142/184/157
f 140/181/154 150/183/156 151/187/160 143/186/159
f 134/24/161 144/188/162 147/189/163 146/190/164
f 144/188/162 145/191/165 148/192/166 147/189/163
f 145/193/165 157/194/167 158/195/168 148/196/166
f 146/190/164 147/189/163 150/183/156 149/182/155
f 147/189/163 148/192/166 151/187/160 150/183/156
f 148/196/166 158/195/168 159/197/169 151/198/160
f 135/6/170 152/199/171 155/200/172 154/201/173
f 152/199/171 153/202/174 156/203/175 155/200/172
f 153/202/174 141/204/158 142/205/157 156/203/175
f 154/201/173 155/200/172 158/195/168 157/194/167
f 155/200/172 156/203/175 159/197/169 158/195/168
f 156/203/175 142/205/157 143/206/159 159/197/169
f 143/206/159 151/198/160 159/197/169
f 160/15/176 163/207/177 166/208/178 165/209/179
f 163/207/177 164/210/180 167/211/181 166/208/178
f 164/210/180 176/212/182 177/213/183 167/211/181
f 165/209/179 166/208/178 169/214/184 168/215/185
f 166/208/178 167/211/181 170/216/186 169/214/184
f 167/211/181 177/213/183 178/217/187 170/216/186
f 161/28/188 171/218/189 174/219/190 173/220/191
f 171/218/189 172/221/192 175/222/193 174/219/190
f 172/223/192 184/224/194 185/225/195 175/226/193
f 173/220/191 174/219/190 177/227/183 176/228/182
f 174/219/190 175/222/193 178/229/187 177/227/183
f 175/226/193 185/225/195 186/230/196 178/231/187
f 162/27/197 179/232/198 182/233/199 181/234/200
f 179/232/198 180/235/201 183/236/202 182/233/199
f 180/237/201 168/215/185 169/214/184 183/238/202
f 181/234/200 182/233/199 185/225/195 184/224/194
f 182/233/199 183/236/202 186/230/196 185/225/195
f 183/238/202 169/214/184 170/216/186 186/239/196
f 170/240/186 178/217/187 186/241/196
f 187/22/203 190/242/204 193/243/205 192/244/206
f 190/242/204 191/245/207 194/246/208 193/243/205
f 191/245/207 203/247/209 204/248/210 194/246/208
f 192/244/206 193/243/205 196/249/211 195/250/212
f 193/243/205 194/246/208 197/251/213 196/249/211
f 194/246/208 204/248/210 205/252/214 197/251/213
f 188/20/215 198/253/216 201/254/217 200/255/218
f 198/253/216 199/256/219 202/257/220 201/254/217
f 199/256/219 211/258/221 212/259/222 202/257/220
f 200/255/218 201/254/217 204/248/210 203/247/209
f 201/254/217 202/257/220 205/252/214 204/248/210
f 202/257/220 212/259/222 213/260/223 205/252/214
f 189/5/224 206/261/225 209/262/226 208/263/227
f 206/261/225 207/264/228 210/265/229 209/262/226
f 207/264/228 195/266/212 196/267/211 210/265/229
f 208/263/227 209/262/226 212/259/222 211/258/221
f 209/262/226 210/265/229 213/260/223 212/259/222
f 210/265/229 196/267/211 197/268/213 213/260/223
f 197/268/213 205/269/214 213/260/223
f 214/26/230 217/270/231 220/271/232 219/272/233
f 217/270/231 218/273/234 221/274/235 220/271/232
f 218/273/234 230/275/236 231/276/237 221/274/235
f 219/272/233 220/271/232 223/277/238 222/278/239
f 220/271/232 221/274/235 224/279/240 223/277/238
f 221/274/235 231/276/237 232/280/241 224/279/240
f 215/21/242 225/281/243 228/282/244 227/283/245
f 225/281/243 226/284/246 229/285/247 228/282/244
f 226/286/246 238/287/248 239/288/249 229/289/247
f 227/283/245 228/282/244 231/276/237 230/275/236
f 228/282/244 229/285/247 232/280/241 231/276/237
f 229/289/247 239/288/249 240/290/250 232/291/241
f 216/16/251 233/292/252 236/293/253 235/294/254
f 233/292/252 234/295/255 237/296/256 236/293/253
f 234/295/255 222/278/239 223/277/238 237/296/256
f 235/294/254 236/293/253 239/288/249 238/287/248
f 236/293/253 237/296/256 240/290/250 239/288/249
f 237/296/256 223/277/238 224/279/240 240/290/250
f 224/297/240 232/291/241 240/298/250
f 135/6/170 160/15/176 165/299/179 152/199/171
f 152/199/171 165/299/179 168/215/185 153/202/174
f 153/202/174 168/215/185 180/300/201 141/204/158
f 141/301/158 180/235/201 179/232/198 138/302/152
f 138/302/152 179/232/198 162/27/197 133/25/149
f 161/28/188 25/7/45 30/303/48 171/218/189
f 171/218/189 30/303/48 33/304/54 172/221/192
f 172/223/192 33/84/54 45/82/69 184/305/194
f 184/305/194 45/82/69 44/79/66 181/306/200
f 181/306/200 44/79/66 27/14/65 162/27/197
f 26/10/6 52/17/8 57/307/73 36/65/57
f 36/65/57 57/307/73 60/308/79 37/68/60
f 37/309/60 60/114/79 72/112/95 49/71/62
f 49/71/62 72/112/95 71/109/92 46/310/68
f 46/310/68 71/109/92 54/13/91 27/14/65
f 53/12/82 134/24/161 146/311/164 63/101/83
f 63/101/83 146/311/164 149/182/155 64/104/86
f 64/104/86 149/182/155 137/180/153 76/312/88
f 76/312/88 137/180/153 136/177/150 73/313/94
f 73/313/94 136/177/150 133/25/149 54/13/91
f 189/5/224 135/6/170 154/314/173 206/261/225
f 206/261/225 154/314/173 157/194/167 207/264/228
f 207/264/228 157/194/167 145/315/165 195/266/212
f 195/316/212 145/191/165 144/188/162 192/317/206
f 192/317/206 144/188/162 134/24/161 187/22/203
f 52/17/8 79/18/9 84/122/99 55/87/71
f 55/87/71 84/122/99 87/318/105 56/90/74
f 56/319/74 87/144/105 99/142/121 68/320/76
f 68/320/76 99/142/121 98/139/118 65/321/85
f 65/321/85 98/139/118 81/11/117 53/12/82
f 80/19/108 188/20/215 200/322/218 90/131/109
f 90/131/109 200/322/218 203/247/209 91/134/112
f 91/134/112 203/247/209 191/245/207 103/323/114
f 103/323/114 191/245/207 190/242/204 100/324/120
f 100/324/120 190/242/204 187/22/203 81/11/117
f 216/16/251 189/5/224 208/325/227 233/292/252
f 233/292/252 208/325/227 211/258/221 234/295/255
f 234/295/255 211/258/221 199/256/219 222/326/239
f 222/326/239 199/256/219 198/253/216 219/327/233
f 219/327/233 198/253/216 188/20/215 214/26/230
f 79/18/9 106/9/7 111/151/125 82/120/97
f 82/120/97 111/151/125 114/159/131 83/123/100
f 83/123/100 114/159/131 126/174/147 95/328/102
f 95/328/102 126/174/147 125/171/144 92/329/111
f 92/329/111 125/171/144 108/23/143 80/19/108
f 107/8/134 215/21/242 227/330/245 117/163/135
f 117/163/135 227/330/245 230/275/236 118/166/138
f 118/166/138 230/275/236 218/273/234 130/331/140
f 130/331/140 218/273/234 217/270/231 127/332/146
f 127/332/146 217/270/231 214/26/230 108/23/143
f 160/15/176 216/16/251 235/294/254 163/207/177
f 163/207/177 235/294/254 238/287/248 164/210/180
f 164/210/180 238/287/248 226/333/246 176/212/182
f 176/334/182 226/284/246 225/281/243 173/220/191
f 173/220/191 225/281/243 215/21/242 161/28/188
f 106/9/7 26/10/6 38/67/59 109/149/123
f 109/149/123 38/67/59 41/75/51 110/152/126
f 110/335/126 41/59/51 29/57/49 122/336/128
f 122/336/128 29/57/49 28/54/46 119/337/137
f 119/337/137 28/54/46 25/7/45 107/8/134
f 10/28/5 11/7/5 25/7/5 161/28/5
f 241/338/44 244/339/44 243/47/44
f 244/339/44 245/340/44 243/47/44
f 245/340/44 242/341/44 243/47/44
f 246/30/44 249/342/44 248/51/44
f 249/342/44 250/343/44 248/51/44
f 250/343/44 247/344/44 248/51/44
f 251/40/44 254/345/44 253/44/44
f 254/345/44 255/346/44 253/44/44
f 255/346/44 252/347/44 253/44/44
f 256/1/44 259/348/44 258/48/44
f 259/348/44 260/349/44 258/48/44
f 260/349/44 257/350/44 258/48/44
f 261/351/257 263/352/258 265/353/259 264/354/260
f 263/352/258 267/355/261 268/356/262 265/353/259
f 262/43/43 266/43/263 268/356/262 267/355/261
f 266/43/263 270/357/264 271/358/265 268/356/262
f 307/359/266 306/360/267 311/361/268 314/362/269 278/363/270 269/364/271
f 269/364/272 264/354/260 265/353/259 271/358/265
f 265/353/259 268/356/262 271/358/265
f 272/365/273 274/366/274 276/367/275 275/368/276
f 274/366/274 278/363/277 279/369/278 276/367/275
f 313/370/279 312/371/280 323/372/281 326/373/282 303/374/283 277/375/284
f 277/375/285 281/376/286 282/377/287 279/369/278
f 273/32/32 280/378/288 282/377/287 281/376/286
f 280/378/288 275/368/276 276/367/275 282/377/287
f 276/367/275 279/369/278 282/377/287
f 283/42/42 285/379/289 287/380/290 286/381/291
f 285/379/289 289/382/292 290/383/293 287/380/290
f 284/4/4 288/4/294 290/383/293 289/382/292
f 288/4/294 292/38/295 293/384/296 290/383/293
f 317/36/1 324/385/2 365/386/3 354/387/4
f 291/388/297 286/381/291 287/380/290 293/384/296
f 287/380/290 290/383/293 293/384/296
f 294/3/3 296/389/298 298/390/299 297/391/300
f 296/389/298 300/392/301 301/393/302 298/390/299
f 295/33/33 299/30/303 301/393/302 300/392/301
f 299/30/303 303/374/304 304/394/305 301/393/302
f 331/395/306 355/396/307 367/397/308 342/398/309
f 302/39/310 297/391/300 298/390/299 304/394/305
f 298/390/299 301/393/302 304/394/305
f 305/399/40 318/400/41 353/401/42 330/402/43
f 269/364/272 278/363/277 274/366/274 264/354/260
f 264/354/260 274/366/274 272/365/273 261/351/257
f 308/403/311 307/404/266 269/364/271 271/358/312 270/357/313
f 291/388/297 270/357/264 266/43/263 286/381/291
f 286/381/291 266/43/263 262/43/43 283/42/42
f 320/405/37 319/406/314 291/388/315 293/384/316 292/38/38
f 302/39/310 292/38/295 288/4/294 297/391/300
f 297/391/300 288/4/294 284/4/4 294/3/3
f 323/372/30 312/371/31 343/407/32 366/408/33
f 277/375/285 303/374/304 299/30/303 281/376/286
f 281/376/286 299/30/303 295/33/33 273/32/32
f 241/338/317 272/365/273 275/368/276 244/339/318
f 244/339/20 275/368/276 280/378/288 245/409/20
f 245/409/319 280/378/288 273/32/32 242/31/31
f 294/3/3 247/2/2 250/410/320 296/389/298
f 296/389/298 250/410/18 249/342/18 300/392/301
f 300/392/301 249/342/321 246/30/30 295/33/33
f 256/1/1 284/4/4 289/382/292 259/348/322
f 259/348/12 289/382/292 285/379/289 260/411/12
f 260/411/323 285/379/289 283/42/42 257/41/41
f 261/351/257 252/45/324 255/412/325 263/352/258
f 263/352/258 255/412/14 254/345/14 267/355/261
f 267/355/261 254/345/326 251/40/40 262/43/43
f 241/338/317 252/45/324 261/351/257 272/365/273
f 251/29/5 256/29/5 257/29/5
f 257/29/5 256/29/5 260/29/5
f 251/29/5 254/29/5 255/29/5
f 251/29/5 255/29/5 252/29/5
f 256/29/5 259/29/5 260/29/5
f 256/29/5 251/29/5 252/29/5
f 247/29/5 256/29/5 252/29/5
f 247/29/5 252/29/5 241/29/5
f 241/29/5 246/29/5 247/29/5
f 241/29/5 244/29/5 245/29/5
f 246/29/5 250/29/5 247/29/5
f 246/29/5 249/29/5 250/29/5
f 246/29/5 241/29/5 242/29/5
f 242/29/5 241/29/5 245/29/5
f 326/413/282 325/414/34 302/39/39 304/394/327 303/374/283
f 311/361/317 306/360/324 329/360/257 341/415/273
f 314/362/269 313/370/279 277/375/284 279/369/328 278/363/270
f 305/399/329 309/416/330 310/417/330 306/418/267 307/359/266 308/403/311
f 311/361/268 315/419/331 316/420/331 312/421/280 313/370/279 314/362/269
f 317/36/36 321/422/332 322/423/332 318/424/333 319/406/314 320/405/37
f 323/372/281 327/425/334 328/426/334 324/427/35 325/34/34 326/413/282
f 329/360/257 332/428/335 334/429/259 333/360/336
f 332/428/335 336/430/261 337/431/262 334/429/259
f 330/402/43 335/432/263 337/431/262 336/430/261
f 335/432/263 339/433/337 340/434/338 337/431/262
f 331/395/306 338/435/339 340/434/338 339/433/337
f 338/435/339 333/360/336 334/429/259 340/434/338
f 334/429/259 337/431/262 340/434/338
f 341/415/273 344/415/340 346/436/275 345/437/341
f 344/415/340 348/438/342 349/439/343 346/436/275
f 342/398/309 347/440/344 349/439/343 348/438/342
f 347/440/344 351/441/286 352/442/287 349/439/343
f 343/407/32 350/443/288 352/442/287 351/441/286
f 350/443/288 345/437/341 346/436/275 352/442/287
f 346/436/275 349/439/343 352/442/287
f 353/401/42 356/444/289 358/445/290 357/446/291
f 356/444/289 360/447/345 361/448/293 358/445/290
f 354/387/4 359/449/346 361/448/293 360/447/345
f 359/449/346 363/450/347 364/451/348 361/448/293
f 355/396/307 362/452/349 364/451/348 363/450/347
f 362/452/349 357/446/291 358/445/290 364/451/348
f 358/445/290 361/448/293 364/451/348
f 365/386/3 368/453/350 370/454/299 369/385/351
f 368/453/350 372/455/301 373/456/302 370/454/299
f 366/408/33 371/457/303 373/456/302 372/455/301
f 371/457/303 375/458/352 376/459/353 373/456/302
f 367/397/308 374/460/354 376/459/353 375/458/352
f 374/460/354 369/385/351 370/454/299 376/459/353
f 370/454/299 373/456/302 376/459/353
f 331/395/306 342/398/309 348/438/342 338/435/339
f 338/435/339 348/438/342 344/415/340 333/360/336
f 333/360/336 344/415/340 341/415/273 329/360/257
f 355/396/307 331/395/306 339/433/337 362/452/349
f 362/452/349 339/433/337 335/432/263 357/446/291
f 357/446/291 335/432/263 330/402/43 353/401/42
f 367/397/308 355/396/307 363/450/347 374/460/354
f 374/460/354 363/450/347 359/449/346 369/385/351
f 369/385/351 359/449/346 354/387/4 365/386/3
f 342/398/309 367/397/308 375/458/352 347/440/344
f 347/440/344 375/458/352 371/457/303 351/441/286
f 351/441/286 371/457/303 366/408/33 343/407/32
f 311/361/317 341/415/273 345/437/341 315/419/318
f 315/419/20 345/437/341 350/443/288 316/461/20
f 316/461/319 350/443/288 343/407/32 312/371/31
f 365/386/3 324/385/2 328/462/320 368/453/350
f 368/453/350 328/462/18 327/425/18 372/455/301
f 372/455/301 327/425/321 323/372/30 366/408/33
f 353/401/42 318/400/41 322/463/323 356/444/289
f 356/444/289 322/463/12 321/422/12 360/447/345
f 360/447/345 321/422/322 317/36/1 354/387/4
f 329/360/257 306/360/324 310/464/325 332/428/335
f 332/428/335 310/464/14 309/416/14 336/430/261
f 336/430/261 309/416/326 305/399/40 330/402/43
f 319/406/314 318/400/333 305/399/329 308/403/311 270/357/313 291/388/315
o 玻璃
v -1.482652 0.150000 1.125000
v -1.482652 2.850000 1.125000
v -1.482652 0.150000 -1.125000
v -1.482652 2.850000 -1.125000
v 1.334387 0.150000 1.250000
v 1.334387 2.850000 1.250000
v 1.482652 0.150000 -1.125000
v 1.482652 2.850000 -1.125000
v -1.334387 0.150000 -1.250000
v -1.334387 0.150000 1.250000
v -1.334387 2.850000 1.250000
v -1.334387 2.850000 -1.250000
v -1.334387 3.000000 1.125000
v 1.482652 2.850000 1.125000
v 1.482652 0.150000 1.125000
v 1.334387 2.850000 -1.250000
v 1.334387 0.150000 -1.250000
v 1.334387 3.000000 1.125000
v -1.334387 3.000000 -1.125000
v 1.334387 3.000000 -1.125000
vn -0.0000 -1.0000 -0.0000
vn -0.0000 -0.0000 -1.0000
vn -1.0000 -0.0000 -0.0000
vn 1.0000 -0.0000 -0.0000
vn -0.0000 -0.0000 1.0000
vt 0.637500 0.737500
vt 0.862500 0.737500
vt 0.862500 0.512500
vt 0.637500 0.512500
vt 0.612500 0.262500
vt 0.612500 0.487500
vt 0.387500 0.487500
vt 0.387500 0.262500
vt 0.612500 0.012500
vt 0.612500 0.237500
vt 0.387500 0.237500
vt 0.387500 0.012500
vt 0.612500 0.512500
vt 0.612500 0.737500
vt 0.387500 0.737500
vt 0.387500 0.512500
vt 0.612500 0.762500
vt 0.612500 0.987500
vt 0.387500 0.987500
vt 0.387500 0.762500
s 0
usemtl 材质.002
f 394/465/355 389/466/355 395/467/355 396/468/355
f 388/469/356 392/470/356 393/471/356 385/472/356
f 378/473/357 380/474/357 379/475/357 377/476/357
f 384/477/358 390/478/358 391/479/358 383/480/358
f 382/481/359 387/482/359 386/483/359 381/484/359
